<?xml version="1.0" encoding="utf-8"?>
<!-- Generator: Adobe Illustrator 16.0.0, SVG Export Plug-In . SVG Version: 6.00 Build 0)  -->
<!DOCTYPE svg PUBLIC "-//W3C//DTD SVG 1.1//EN" "http://www.w3.org/Graphics/SVG/1.1/DTD/svg11.dtd">
<svg version="1.1" id="Layer_1" xmlns="http://www.w3.org/2000/svg" xmlns:xlink="http://www.w3.org/1999/xlink" x="0px" y="0px"
	 width="1190.55px" height="841.89px" viewBox="0 0 1190.55 841.89" enable-background="new 0 0 1190.55 841.89"
	 xml:space="preserve">
<g>
	<g>
		<g>
			<path fill="#ED1C24" d="M655.518,145.7c0,0-3.629,22.663,0,24.257c3.627,1.592,11.152-10.26,14.381-10.448
				c3.229-0.192-10.615-15.355-15.998-13.193"/>
		</g>
		<g>
			<path d="M656.252,171.576c-0.447,0-0.891-0.086-1.326-0.279c-1.715-0.755-4.098-5.007-1.004-24.921l-0.564-1.42
				c4.229-1.698,10.625,3.903,13.174,6.39c2.785,2.713,5.943,6.371,5.189,8.397c-0.268,0.721-0.912,1.18-1.732,1.227
				c-0.869,0.082-3.457,2.75-5.004,4.344C661.877,168.521,658.916,171.575,656.252,171.576z M656.66,147.9
				c-1.506,10.308-1.748,19.583-0.48,20.757c1.043,0.448,4.869-3.489,6.705-5.382c2.432-2.505,4.18-4.25,5.732-4.924
				c-1.213-2.13-5.742-7.13-10.184-9.623C657.797,148.373,657.201,148.094,656.66,147.9z"/>
		</g>
	</g>
	<g>
		<g>
			<path fill="#EFED82" d="M984.938,417.876c-2.928-19.531-66.406,1.465-73.725,0c-7.328-1.465,2.436-12.207,2.436-12.207
				c45.41-67.869-9.275-124.507-9.275-124.507c9.764,74.706-35.033,132.809-37.963,135.735c-2.928,2.931-2.561,12.086-2.561,12.086
				c1.096,32.225-5.496,34.424-5.496,34.424c-10.986,19.771-65.914,48.517-69.311,51.083c-3.389,2.562-2.83-1.281-2.83-1.281
				c10.252-15.752-10.619-49.067-10.619-49.067c1.832-49.441-32.221-73.609-32.221-73.609
				c-20.145-35.887-64.449-30.028-64.449-30.028c-1.836-0.732-1.102-35.154,23.801-38.449c24.896-3.298,47.725-30.396,49.064-34.545
				c1.344-4.149,4.152-2.194,4.152-2.194c1.711,0.733,2.199,8.543,2.199,8.543c14.402-16.601,6.588-42.479,6.588-42.479
				c11.963,9.277,18.797,2.198,18.797,2.198c-3.17-0.979-15.621-24.902-13.668-21.24C771.809,236,786.213,236,786.213,236
				c-18.309-7.325-23.438-29.297-23.438-29.297c-1.459-35.154-39.547-54.196-39.547-54.196
				c-60.787-26.367-103.998,16.112-103.998,16.112l-8.637,5.911c4.941,1.851,13.137,6.359,24.922,17.28
				c0,0,8.857,3.546,14.963-1.521c0,0,1.465,0.301,1.223,1.521c-0.246,1.224-12.451,14.648-32.23-4.394c0,0-4.67-6.958-7.564-7.323
				c-0.375-0.049-0.811-0.049-1.268-0.016l-0.201,0.992l-0.977,3.906c-10.252,6.834-14.153,24.902-14.153,24.902l-0.792,2.249
				l1.235,4.747c2.227-0.725,4.381-0.836,5.903,0.448c4.758,4.031,8.059,12.452,10.982,12.086
				c2.934-0.368,23.195-0.122,24.656-0.854c1.469-0.731,3.547,1.833,3.422,2.564c-0.121,0.731-1.832,15.136,2.195,18.064
				c0,0,6.467,12.087,44.922,7.081c0,0,12.814,0.49,7.568,12.575c0,0-25.402,22.605-63.129,30.581
				c2.58,0.472,4.354,1.324,4.537,2.757c0,0-2.436,23.132-25.859,22.452l-16.129,17.08l-3.421-1.955
				c-61.033-31.244-99.117,14.65-99.117,14.65c-43.453-20.021-75.19,29.295-75.19,29.295l-0.981-19.529
				c-6.763-6.126-21.821-37.555-31.844-63.274l2.36,0.034c-9.992-19.841-18.421-28.01-18.421-28.01
				c-3.292-6.411,23.966,0.487,23.966,0.487c38.097-2.837,28.171-46.995,28.171-46.995c9.437-24.918-17.216-36.141-17.216-36.141
				c0.654-17.327-35.651-35.187-35.651-35.187c-17.754-8.655-36.422,55.54-41.783,60.744c-5.357,5.204-8.671-8.927-8.671-8.927
				c-30.187-75.871-107.845-62.913-107.845-62.913c67.084,34.29,89.572,104.127,90.324,108.2c0.757,4.075,8.505,8.961,8.505,8.961
				c27.173,17.354,25.251,24.03,25.251,24.03c1.886,3.801,3.158,9.056,3.982,15.115l0.949,0.009
				c-8.98,31.927-5.567,80.464-5.567,80.464l2.194,6.105l1.711,1.22v7.082l1.465,1.461l1.218,6.103l2.934,1.467
				c0,0,0.242,3.659,1.953,3.417c1.707-0.244,2.683,3.417,2.683,3.417c6.347,6.349,15.931,51.271,15.931,51.271
				c7.69-6.225,9.213-30.765,9.213-30.765c21.485,36.87,43.458,32.226,43.458,32.226c-14.162-13.911-8.545-18.796-8.545-18.796
				c24.66,20.994,55.174,9.762,51.515,9.52c-3.664-0.241-9.522-6.346-8.545-5.862c0.972,0.488,17.821,0.495,17.821,0.495
				c-2.934,15.745,2.562,44.304,2.199,39.543c-0.367-4.761,8.42-17.942,8.42-17.942c-2.562,5.491,0.367,26.246,4.272,30.64
				c3.906,4.39,11.717,35.643,11.717,35.643c0.493,14.652,4.886,83.979,3.905,89.843c-0.976,5.858-3.905,12.205-3.905,12.205
				h118.159c-3.416-13.67-1.957-46.871-1.957-46.871c-5.369-8.787,20.51-56.642,35.158-66.409c14.646-9.769,27.832-28.4,27.832-28.4
				c6.346-9.84,21.973,59.651,21.973,59.651s7.812,2.44,7.324,0.976c-0.488-1.469,3.416-5.858,3.416-5.858
				c37.111,51.758,60.545,56.64,65.916,56.146c5.369-0.488,18.551-11.716,18.551-11.716l-0.973,16.114
				c89.348-72.264,98.623-127.438,98.623-127.438c3.418-6.347,13.186,20.021,13.186,20.021c23.922,29.783,54.682-3.422,54.682-3.422
				c25.879-6.347,20.025-34.664,20.025-34.664C990.797,457.916,984.938,417.876,984.938,417.876z"/>
		</g>
		<g>
			<path d="M615.207,641.256H490.805l1.433-3.117c0.031-0.062,2.821-6.162,3.735-11.649c0.618-3.703-1.272-38.526-2.526-61.574
				c-0.658-12.151-1.227-22.679-1.402-27.596c-2.978-11.905-8.604-31.607-11.17-34.492c-3.005-3.386-5.348-13.987-5.733-22.604
				c-1.85,3.498-3.243,6.768-3.131,8.277c0.045,0.577,0.112,1.442-0.578,2.186l-0.654,0.708h-1.998l-0.676-0.798
				c-1.384-1.666-4.77-25.025-3.037-39.276c-3.946-0.014-6.906-0.054-9.137-0.112c0.949,0.611,1.872,1.053,2.562,1.098
				c1.595,0.103,2.387,1.29,2.352,2.4c-0.144,4.295-15.77,5.209-18.838,5.209c-8.976,0-21.928-2.021-34.102-11.26
				c0.246,2.398,2.167,6.821,9.016,13.553l2.92,2.866l-4.004,0.852c-0.117,0.022-1.169,0.232-2.938,0.232
				c-6.566,0-22.922-2.853-39.422-27.932c-1.035,8.082-3.561,21.074-9.388,25.791l-2.781,2.248l-0.748-3.502
				c-3.65-17.118-11.044-45.881-15.331-50.172l-0.421-0.414l-0.152-0.571c-0.17-0.631-0.515-1.402-0.77-1.773
				c-2.204-0.032-3.35-2.002-3.771-4.186l-2.844-1.422l-1.303-6.507l-1.64-1.637v-6.857l-1.348-0.964l-2.53-7.036l-0.022-0.305
				c-0.134-1.939-3.153-46.632,4.909-78.454h-0.018l-0.255-1.878c-0.851-6.238-2.119-11.096-3.776-14.43l-0.381-0.764l0.175-0.604
				c-0.099-0.766-1.59-7.312-24.257-21.791c-1.415-0.895-8.599-5.634-9.481-10.411c-0.125-0.678-20.589-71.595-89.164-106.644
				l-5.925-3.029l6.566-1.095c0.21-0.035,5.307-0.869,13.4-0.869c21.328,0,73.453,6.347,96.841,65.138l0.099,0.307
				c1.066,4.518,3.193,8.386,4.188,8.386c0.103,0,0.385-0.112,0.82-0.531c1.169-1.134,4.008-7.917,6.758-14.475
				c10.539-25.133,21.001-47.692,33.188-47.692c1.478,0,2.934,0.345,4.327,1.026c1.5,0.737,35.701,17.766,36.86,35.771
				c5.46,2.795,25.539,14.875,17.324,37.701c0.761,3.889,3.968,23.544-5.943,36.922c-5.348,7.221-13.54,11.286-24.347,12.091
				l-0.354,0.029l-0.345-0.09c-0.125-0.028-12.523-3.145-19.178-3.145c-0.712,0-1.245,0.038-1.644,0.086
				c2.625,2.883,9.688,11.398,17.776,27.464l1.63,3.233l-2.709-0.035c9.889,24.846,23.912,53.824,30.08,59.401l0.676,0.612
				l0.712,14.257c2.62-3.307,6.566-7.833,11.658-12.386c12.876-11.513,26.967-17.596,40.748-17.596c6.794,0,13.62,1.45,20.32,4.319
				c4.904-5.302,25.386-25.084,57.884-25.084c13.969,0,28.377,3.749,42.813,11.138l2.007,1.145l15.623-16.542l0.984,0.029
				c0.318,0.009,0.631,0.016,0.941,0.016c18.666-0.003,22.111-16.812,22.6-20.009c-0.207-0.12-0.887-0.525-2.678-0.852
				l-10.992-2.001l10.928-2.312c34.326-7.257,58.535-27.023,61.76-29.764c1.088-2.694,1.182-4.788,0.277-6.23
				c-1.303-2.067-4.641-2.719-5.939-2.808c-6.207,0.799-11.99,1.205-17.18,1.205c-21.836,0-28.146-7.026-29.494-9.02
				c-4.398-3.927-3.117-16.535-2.764-19.344c-0.16-0.218-0.42-0.483-0.621-0.624c-1.371,0.415-4.682,0.541-15.502,0.669
				c-4.115,0.049-8.379,0.1-9.441,0.233c-0.152,0.019-0.305,0.029-0.461,0.029c-2.736,0-4.645-2.771-7.068-6.283
				c-1.531-2.224-3.27-4.747-5.15-6.334c-0.232-0.198-0.645-0.462-1.523-0.462c-0.639,0-1.4,0.143-2.273,0.428l-2.218,0.723
				l-1.993-7.656l0.968-2.757c0.407-1.82,4.367-18.343,14.341-25.629l0.953-4l0.332-1.644l1.666-0.116
				c0.623-0.046,1.195-0.039,1.707,0.027c3.404,0.431,7.318,5.641,8.975,8.079c6.494,6.209,12.689,9.354,18.418,9.354
				c0.711,0,1.393-0.05,2.037-0.144c-3.803-0.121-6.789-1.299-6.924-1.353l-0.377-0.15l-0.299-0.278
				c-11.619-10.773-19.572-15.103-24.199-16.835l-3.959-1.483l11.975-8.193c2.33-2.238,27.219-25.229,65.5-25.229
				c13.574,0,27.289,2.964,40.77,8.808c0.506,0.252,10.033,5.063,19.855,14.333c13.059,12.316,20.314,26.683,21,41.561
				c0.543,2.071,5.922,21.116,22.072,27.576l10.592,4.236h-11.412c-2.615,0-7.229-0.143-11.223-1.011
				c3.27,5.781,7.734,13.199,9.324,14.334l3.277,1.011l-2.48,2.571c-0.129,0.133-3.207,3.256-8.689,3.256
				c-2.705,0-5.504-0.744-8.361-2.218c1.559,8.774,2.83,26.372-8.264,39.16l-3.512,4.05l-0.34-5.354
				c-0.184-2.895-0.748-5.998-1.232-6.858l-0.025-0.019c-0.027-0.014-0.162-0.066-0.234-0.066c0,0.012-0.281,0.239-0.572,1.137
				c-1.555,4.802-24.674,32.577-50.871,36.047c-7.084,0.937-12.705,4.72-16.701,11.242c-5.154,8.42-6.047,18.896-5.781,22.667
				c1.268-0.093,3.121-0.19,5.428-0.19c12.461,0,43.078,3.04,59.102,31.098c3.93,3.022,34.188,27.879,32.754,74.5
				c2.705,4.465,18.529,31.743,11.734,48.028c1.008-0.596,2.438-1.424,4.447-2.58c14.682-8.446,53.684-30.89,62.439-46.662
				l0.416-0.743l0.596-0.197c0.574-0.511,5.125-5.455,4.207-32.342c-0.068-1.673-0.229-10.272,3.207-13.71
				c0.482-0.483,47.312-57.557,37.334-133.898l-0.859-6.598l4.623,4.789c0.568,0.591,14.094,14.767,22.156,37.598
				c7.461,21.134,11.326,53.841-12.635,89.657l-0.201,0.253c-2.504,2.77-4.99,6.842-4.561,8.151
				c0.062,0.192,0.537,0.348,0.924,0.426c0.133,0.029,0.277-0.005,0.514,0.031c2.469,0,8.385-1.236,15.246-2.665
				c11.686-2.437,27.693-5.771,39.857-5.771c12.156,0,18.834,3.44,19.854,10.234c0.242,1.655,5.59,39.483-8.586,50.64
				c0.793,6.085,2.219,29.469-21.242,35.641c-2.715,2.768-16.562,16.043-32.762,16.043c-0.006,0,0,0-0.006,0
				c-9.391,0-17.73-4.447-24.781-13.226l-0.223-0.282l-0.125-0.332c-3.182-8.577-7.104-16.513-9.258-18.927
				c-2.15,9.481-17.133,60.994-99.113,127.289l-3.877,3.136l0.975-16.088c-4.586,3.588-11.734,8.666-15.859,9.043
				c-0.268,0.022-0.576,0.035-0.918,0.035c-4.285,0-27.328-2.678-65.277-54.744c-0.578,0.806-1.018,1.522-1.152,1.926
				c0.113,0.654-0.035,1.308-0.426,1.85c-0.527,0.739-1.387,1.115-2.547,1.115c-2.141,0-6.365-1.285-7.186-1.545l-1.213-0.376
				l-0.277-1.236c-5.773-25.675-14.18-54.442-18.256-58.554c-2.047,2.83-14.342,19.42-28.186,28.65
				c-6.369,4.242-16.16,17.414-24.365,32.774c-8.84,16.549-11.787,27.952-10.135,30.657l0.35,0.568l-0.027,0.672
				c-0.014,0.327-1.41,33.036,1.891,46.244L615.207,641.256z M497.527,636.858h112.158c-2.539-13.975-1.635-39.893-1.465-44.201
				c-5.008-11.775,21.369-58.85,36.158-68.708c14.143-9.428,27.123-27.656,27.254-27.84c1.051-1.626,2.436-1.881,3.166-1.881
				c2.916,0,6.719,2.463,15.031,31.897c3.537,12.532,6.512,25.205,7.426,29.159c1.178,0.336,2.539,0.682,3.555,0.86
				c0.463-1.245,1.496-3.001,3.691-5.46l1.822-2.051l1.604,2.23c38.514,53.71,60.975,55.264,63.406,55.264
				c0.197,0,0.367-0.009,0.52-0.018c3.408-0.313,12.438-7.041,17.33-11.206l3.932-3.351l-0.986,16.259
				c43.234-35.665,66.377-66.737,78.254-86.757c13.227-22.296,15.689-36.032,15.713-36.167l0.059-0.358l0.174-0.317
				c1.004-1.868,2.459-2.146,3.234-2.146c3.707,0,8.352,7.439,13.812,22.099c6.127,7.506,13.238,11.313,21.139,11.313
				c15.771,0,29.861-14.969,30.004-15.116l0.447-0.488l0.641-0.156c9.854-2.419,15.941-8.492,18.096-18.059
				c1.643-7.328,0.309-13.963,0.295-14.025l-0.309-1.487l1.285-0.815c11.018-6.978,9.361-36.395,7.793-47.14
				c-0.648-4.302-5.867-6.485-15.51-6.485c-11.713,0-27.465,3.283-38.967,5.679c-7.381,1.545-13.211,2.759-16.137,2.759
				c-0.533,0-0.98-0.04-1.375-0.116c-2.768-0.551-3.834-2.137-4.236-3.359c-1.416-4.3,3.605-10.391,5.369-12.357
				c18.35-27.5,22.408-56.303,12.053-85.617c-4.895-13.878-12.016-24.552-16.621-30.558c6.473,74.607-38.893,129.827-39.377,130.314
				c-1.545,1.543-2.055,7.036-1.922,10.44c0.932,27.396-3.623,34.353-6.068,36.108c-9.857,16.762-47.578,38.475-63.787,47.805
				c-2.861,1.647-5.33,3.067-5.812,3.431c-1.197,0.909-2.219,1.33-3.203,1.33c-0.904,0-1.721-0.367-2.303-1.039
				c-1.078-1.25-0.908-3.1-0.828-3.637l0.066-0.479l0.266-0.403c9.369-14.39-10.441-46.385-10.643-46.702l-0.357-0.578l0.025-0.672
				c1.766-47.594-30.971-71.497-31.301-71.735l-0.404-0.284l-0.236-0.428c-14.82-26.411-43.754-29.265-55.502-29.265
				c-4.129,0-6.723,0.335-6.75,0.339l-0.564,0.074l-0.537-0.214c-0.793-0.314-2.889-1.155-1.648-11.05
				c0.838-6.722,5.201-28.868,25.982-31.617c23.643-3.129,46.033-29.286,47.264-33.041c1.174-3.635,3.477-4.18,4.748-4.18
				c1.16,0,2.096,0.458,2.521,0.713c0.619,0.292,1.811,1.1,2.629,4.712c9.07-15.343,3.092-35.842,3.023-36.069l-1.971-6.572
				l5.424,4.205c3.699,2.866,7.176,4.317,10.346,4.317c1.457,0,2.643-0.313,3.539-0.688c-1.365-1.674-3.359-4.583-6.373-9.721
				c-3.318-5.662-4.865-8.496-5.568-10.002c-0.035-0.059-0.066-0.12-0.102-0.179l-0.17-0.32l0.039-0.021
				c-0.385-0.909-0.35-1.152-0.309-1.402l0.281-1.869h1.891c1.098,0,1.652,0.692,1.975,1.235l0,0c0,0.003,0.006,0.008,0.006,0.011
				c0.062,0.108,0.121,0.209,0.166,0.299c0.412,0.647,2.324,1.27,4.975,1.731c-12.213-9.61-15.949-25.049-16.137-25.833
				l-0.055-0.408c-1.393-33.421-37.967-52.139-38.334-52.322c-12.809-5.555-25.941-8.395-38.91-8.395
				c-37.529,0-62.324,23.868-62.564,24.108l-0.301,0.244l-5.375,3.677c5.053,2.508,12.223,7.159,21.578,15.787
				c0.824,0.276,3.033,0.924,5.572,0.924c2.754,0,5.053-0.747,6.826-2.221l0.814-0.675l1.035,0.213
				c1.746,0.359,3.367,1.921,2.934,4.106c-0.434,2.179-5.979,7.499-14.273,7.5c-6.951,0-14.23-3.613-21.633-10.742l-0.301-0.357
				c-1.75-2.605-4.018-5.129-5.334-6.031l-0.922,3.723l-0.709,0.47c-9.379,6.252-13.193,23.366-13.23,23.537l-0.076,0.262
				l-0.564,1.618l0.525,2.023c2.332-0.338,4.254,0.146,5.736,1.398c2.32,1.968,4.238,4.746,5.926,7.198
				c1.098,1.594,2.746,3.982,3.533,4.37c1.229-0.144,4.537-0.19,9.77-0.252c5.088-0.062,12.732-0.151,14.184-0.451
				c0.43-0.188,0.893-0.281,1.371-0.281c1.877,0,3.311,1.451,3.838,2.076c0.654,0.774,1.389,1.955,1.188,3.178
				c-0.613,3.891-0.914,14.303,1.32,15.923l0.408,0.298l0.236,0.445c0.02,0.023,4.543,7.132,25.885,7.132
				c5.061,0,10.717-0.399,16.812-1.196l0.184-0.026l0.184,0.01c0.277,0.01,6.785,0.308,9.656,4.866
				c1.779,2.825,1.725,6.45-0.156,10.779l-0.193,0.44l-0.357,0.325c-1.004,0.893-23.773,20.891-58.457,29.769
				c0.312,0.496,0.51,1.05,0.582,1.654l0.031,0.253l-0.023,0.254c-0.025,0.245-2.857,24.427-27.033,24.432c-0.027,0-0.049,0-0.076,0
				l-16.657,17.634l-4.918-2.812c-13.719-7.021-27.455-10.606-40.721-10.606c-34.599,0-55.412,24.505-55.618,24.75l-1.075,1.294
				l-1.532-0.703c-6.602-3.039-13.32-4.58-19.98-4.58c-30.81,0-52.232,32.737-52.447,33.068l-3.7,5.751l-1.276-25.504
				c-7.354-7.714-21.986-38.407-31.741-63.439l-1.187-3.038l1.962,0.026c-8.926-16.877-16.24-24.108-16.321-24.186l-0.255-0.25
				l-0.166-0.321c-0.918-1.784-0.412-3.101-0.032-3.726c1.191-1.956,3.959-2.205,6.235-2.205c6.62,0,17.736,2.658,19.899,3.19
				c9.302-0.761,16.294-4.225,20.795-10.299c9.625-12.987,5.097-33.786,5.052-33.993l-0.148-0.643l0.237-0.617
				c8.555-22.608-15.013-32.911-16.021-33.339l-1.397-0.591l0.054-1.515c0.497-13.032-24.683-28.337-34.424-33.133
				c-0.792-0.386-1.576-0.576-2.392-0.576c-10.274,0-22.542,29.269-29.135,44.995c-3.901,9.31-6.02,14.249-7.752,15.93
				c-1.209,1.176-2.513,1.771-3.875,1.771c-5.195,0.001-7.726-8.676-8.429-11.611c-21.614-54.132-67.352-62.221-92.702-62.221
				c-2.092,0-3.977,0.061-5.621,0.146c65.167,36.953,84.941,105.623,85.066,106.297c0.394,2.135,4.716,5.737,7.515,7.501
				c23.106,14.757,26.25,22.451,26.309,25.466c1.563,3.353,2.795,7.838,3.655,13.362l1.935,0.022l-0.774,2.759
				c-8.412,29.909-5.773,75.293-5.509,79.415l1.859,5.17l2.074,1.477v7.302l1.29,1.292l1.142,5.7l3.09,1.549l0.085,1.256
				c0.031,0.443,0.143,1.001,0.269,1.371c2.459,0.24,3.673,3.045,4.143,4.51c5.531,6.604,12.487,35.671,15.125,47.403
				c3.856-6.971,5.522-20.454,5.863-25.932l0.448-7.221l3.641,6.253c14.547,24.956,28.987,30.259,36.476,31.159
				c-4.6-5.271-6.871-9.858-6.754-13.683c0.089-2.93,1.559-4.352,1.85-4.604l1.429-1.238l1.438,1.225
				c11.855,10.091,24.894,12.214,33.748,12.214c4.447,0,8.174-0.533,10.834-1.11c-2.831-1.863-5.393-4.398-5.343-5.85l0.071-2.118
				l2.669-0.027l0.313,0.147c1.541,0.235,9.759,0.37,17.073,0.37h2.643l-0.483,2.6c-1.622,8.716-0.52,21.765,0.609,30.311
				c2.235-4.546,5.137-8.998,6.024-10.33l3.816,2.151c-2.181,4.672,0.573,24.477,3.923,28.244
				c4.062,4.568,10.884,31.271,12.209,36.573l0.062,0.462c0.162,4.766,0.739,15.413,1.411,27.734
				c1.792,33.067,3.113,58.668,2.468,62.538C499.722,630.735,498.486,634.368,497.527,636.858z"/>
		</g>
	</g>
	<g>
		<g>
			<g>
				<path fill="#C6C171" d="M337.504,385.74c0,0,5.63-34.755,9.647-42.565c0,0-4.116,51.567,0,53.951
					c4.12,2.383,4.998,17.333,4.998,17.333l5.966-46.963c0,0,4.197,72.314,3.597,80.01"/>
			</g>
		</g>
		<g>
			<g>
				<g>
					<path fill="#C6C171" d="M606.514,536.033c0.672-0.331,1.268-0.896,1.801-1.594
						C606.094,535.939,605.045,536.768,606.514,536.033z"/>
				</g>
			</g>
			<g>
				<g>
					<path fill="#C6C171" d="M765.217,575.096c-3.418-37.109,11.484-48.826,11.484-48.826s-26.131,9.898-33.941,30.924
						c0,0-13.67-15.794-11.717-18.23c1.953-2.441,1.953-2.441,1.953-2.441s-17.289-16.379-14.162-21.969l-0.377-4.645
						c0,0-17.932-16.84-16.283-17.941c1.646-1.098,16.705-25.146,19.916-25.635c3.207-0.479,9.688-1.29,15.301-1.008
						c5.615,0.282,8.541-1.729,8.541-1.729l-59.264-12.257c-7.1-7.549-34.652-10.221-34.652-10.221
						c-41.918,44.726-116.925,8.781-116.925,8.781s39.221,38.771,84.14,28.519c0,0-9.77,10.745-15.627,12.697
						c-5.859,1.953,15.285,7.323,31.57-8.787c0,0-25.744,34.084-28.66,35.352c-2.91,1.263,5.881,2.548,5.881,2.548
						s-0.762,9.907-4.08,14.212c5.119-3.449,16.492-10.463,17.809-10.123c1.895,0.488,6.293-0.976,7.998,0l7.217,5.034
						c1.486-1.464,2.92-2.678,4.258-3.573c10.209-6.804,19.699-17.911,24.518-24.021c2.096-2.66,3.314-4.38,3.314-4.38
						c1.531-2.378,3.609-0.112,5.877,4.671c7.107,15.022,16.096,54.98,16.096,54.98s7.812,2.44,7.324,0.976
						c-0.488-1.469,3.416-5.858,3.416-5.858c37.111,51.758,60.545,56.64,65.916,56.146c1.387-0.121,3.309-0.976,5.379-2.158
						C767.385,593.347,765.217,575.096,765.217,575.096z"/>
				</g>
			</g>
		</g>
		<g>
			<g>
				<path fill="#C6C171" d="M652.016,441.118c0,0-8.207-11.772-7.314-15.312c0.895-3.534,21.803,17.562,35.029,15.312
					c0,0,69.156,8.991,70.975,12.158c1.818,3.171-4.773,10.319-4.773,10.319S660.873,450.689,652.016,441.118z"/>
			</g>
		</g>
		<g>
			<g>
				<path fill="#C6C171" d="M665.205,414.458c0,0,38.494,19.523,58.023,15.381C723.229,429.839,672.607,416.411,665.205,414.458z"/>
			</g>
		</g>
		<g>
			<g>
				<path fill="#C6C171" d="M731.531,425.806c0,0-25.797-6.653-34.871-29.017C696.66,396.789,723.717,422.512,731.531,425.806z"/>
			</g>
		</g>
		<g>
			<g>
				<path fill="#C6C171" d="M723.229,414.458l-14.896-34.663h-1.465C706.867,379.795,713.469,406.647,723.229,414.458z"/>
			</g>
		</g>
		<g>
			<g>
				<path fill="#C6C171" d="M375.587,405.082c0,0,9.938,29.401,14.982,29.396l5.527-12.043c0,0,2.929,21.595,6.834,22.066
					c3.906,0.473,12.451,19.269,12.451,19.269S367.288,448.925,375.587,405.082z"/>
			</g>
		</g>
		<g>
			<g>
				<path fill="#C6C171" d="M401.466,405.971c0,0,14.225,53.41,51.3,49.993l5.549-1.47l-10.467-9.992l14.65,4.601l14.646-37.806
					c0,0-63.805-2.902-63.805-15.958c0,0-2.472,7.395-2.23,10.633c0.247,3.238-4.089-21.483-4.089-21.483l-2.199,22.157
					l-4.389-11.168L401.466,405.971z"/>
			</g>
		</g>
		<g>
			<g>
				<path fill="#C6C171" d="M504.487,482.816c0,0-3.579,26.851-2.764,29.291c0.811,2.445,8.626,16.115,8.626,16.115v22.459
					c0,0,0,56.639,10.01,62.009v-49.8l5.065-23.969l-8.169-14.202l-9.137-23.85L504.487,482.816z"/>
			</g>
		</g>
		<g>
			<g>
				<path fill="#F4F0CE" d="M523.961,429.839c0,0,24.23-21.727,26.179-23.194c1.958-1.467-2.683-3.908-2.683-3.908l16.872-16.111
					c0,0-1.25-5.505-2.472-4.339l-28.683,24.358h8.058l-16.599,21.36C524.633,428.005,522.555,429.718,523.961,429.839z"/>
			</g>
		</g>
		<g>
			<g>
				<path fill="#F4F0CE" d="M548.68,514.056c0,0,15.188-16.84,15.649-20.741c0.461-3.91,4.367,7.318,7.054,8.787
					c2.683,1.465,13.669,9.034,17.086,8.3s-8.546,9.396-15.38,9.826c-6.835,0.426-2.929-4.456-1.465-4.702
					C573.089,515.283,551.604,516.501,548.68,514.056z"/>
			</g>
		</g>
		<g>
			<g>
				<path fill="#F4F0CE" d="M590.668,524.72l-8.546,6.244c0.734,0.43,13.428,1.039,13.917,0"/>
			</g>
		</g>
		<g>
			<g>
				<path fill="#C6C171" d="M760.98,268.715c0,0-2.598-17.974-9.434-22.172v19.287L760.98,268.715z"/>
			</g>
		</g>
		<g>
			<g>
				<path fill="#C6C171" d="M759.152,213.645c0,0,4.312,25.116,6.785,26.73c2.469,1.615-11.295-3.159-11.295-3.159L759.152,213.645z
					"/>
			</g>
		</g>
		<g>
			<g>
				<path fill="#C6C171" d="M380.532,298.191l-11.175-19.561c2.034,30.395,10.436,84.459,43.982,103.657v-14.211
					C413.339,368.076,394.008,329.809,380.532,298.191z"/>
			</g>
		</g>
	</g>
	<g>
		<g>
			<path fill="#EFED82" d="M597.041,221.832l-1.29-4.958c-0.568,0.186-1.137,0.411-1.711,0.667
				C594.749,219.51,595.716,221.109,597.041,221.832z"/>
		</g>
		<g>
			<path d="M600.445,226.189l-4.456-2.43c-1.711-0.933-3.028-2.726-4.014-5.48l-0.689-1.916l1.858-0.83
				c0.658-0.295,1.308-0.547,1.931-0.749l2.217-0.72L600.445,226.189z"/>
		</g>
	</g>
	<g>
		<g>
			<path fill="#EFED82" d="M593.391,215.348c0.188,0.763,0.403,1.499,0.649,2.192c0.574-0.255,1.143-0.48,1.711-0.667l-1.235-4.747
				L593.391,215.348z"/>
		</g>
		<g>
			<path d="M592.774,220.513l-0.798-2.233c-0.269-0.745-0.511-1.556-0.717-2.408l-0.156-0.633l3.727-10.648l3.569,13.734
				l-1.971,0.641c-0.493,0.161-0.99,0.358-1.487,0.58L592.774,220.513z"/>
		</g>
	</g>
	<g>
		<g>
			<path fill="#FFFFFF" d="M690.527,224.622c-1.992-3.863-4.482-6.126-7.471-7.814c-0.836-1.358-2.168-2.462-4.08-3.008
				c-1.826-0.521-3.631-0.795-5.4-0.853c-0.986-0.185-1.887-0.143-2.701,0.082c-5.486,0.555-10.436,3.397-14.023,8.398
				c-1.137,1.576-2.338,3.464-3.391,5.503c-1.338,1.891-2.65,3.823-4.156,5.676c-9.664,11.898,5.125,20.075,15.869,21.466
				c11.07,1.433,26.639,1.436,28.293-12.893C694.084,235.781,693.01,229.442,690.527,224.622z"/>
		</g>
	</g>
	<g>
		<g>
			<path fill="#FFFFFF" d="M633.234,209.425c-0.479-2.979-1.518-6.046-3.287-8.582c-2.23-5.212-6.768-9.642-12.992-7.96
				c-0.062,0.018-0.117,0.042-0.184,0.064c-0.461,0.094-0.9,0.229-1.322,0.415c-0.984,0.245-1.922,0.688-2.83,1.127
				c-0.045,0.022-0.086,0.054-0.135,0.076c-1.281,0.547-2.41,1.249-3.391,2.154c-5.23,2.983-9.41,8.5-11.59,14.292
				c-0.557,1.459-0.574,2.764-0.252,3.895c0.045,0.39,0.125,0.779,0.252,1.164c0.828,2.531,2.252,4.815,4.406,6.463
				c0.547,0.417,1.105,0.803,1.676,1.178c2.623,2.424,6.037,4.179,9.207,5.38c6.199,2.349,13.545-0.421,18.256-4.527
				C635.143,220.992,633.988,214.101,633.234,209.425z"/>
		</g>
	</g>
	<g>
		<g>
			<path d="M679.039,173.249c0,0,1.959,4.891,6.836,4.891c4.881,0,29.541-1.953,27.836,27.343c0,0,0.242,12.695,2.682,13.183
				c2.441,0.488,3.418-4.152,3.418-4.152s4.395-35.397-12.693-39.304C690.025,171.304,678.072,171.568,679.039,173.249z"/>
		</g>
		<g>
			<path d="M716.746,220.166L716.746,220.166c-0.205,0-0.42-0.02-0.639-0.063c-2.389-0.477-3.691-5.386-3.865-14.591
				c0.506-8.713-1.299-15.258-5.367-19.571c-4.039-4.281-10.1-6.362-18.527-6.362c-0.592,0-1.121,0.008-1.568,0.017
				c-0.35,0.003-0.65,0.01-0.904,0.01c-5.496,0-7.848-5.004-8.16-5.732c-0.273-0.547-0.256-1.172,0.045-1.696
				c0.434-0.752,1.32-1.558,6.35-1.558c2.857,0,10.848,0.309,23.33,3.164c18.172,4.154,14.01,39.413,13.826,40.912
				C721.131,215.363,720.021,220.166,716.746,220.166z M688.348,176.648c9.145,0,16.096,2.45,20.656,7.282
				c4.645,4.922,6.717,12.202,6.166,21.638c0.104,5.21,0.869,10.538,1.662,11.655c0.488-0.16,1.254-1.623,1.545-3.011
				c0.023-0.219,4.018-34.007-11.586-37.574c-8.461-1.935-16.939-3.089-22.682-3.089c-1.545,0-2.535,0.085-3.156,0.178
				c0.76,1.178,2.332,2.947,4.922,2.947l0.855-0.01C687.191,176.657,687.738,176.648,688.348,176.648z"/>
		</g>
	</g>
	<g>
		<g>
			<path fill="none" d="M606.094,301.304c-0.453,0.263-0.928,0.545-1.41,0.836c0.752,0.013,1.504,0.019,2.248,0.017
				c0.035-0.162,0.053-0.327,0.094-0.486C607.025,301.671,606.68,301.541,606.094,301.304z"/>
		</g>
	</g>
	<g>
		<g>
			<path d="M650.479,190.289c-6.105,5.068-14.963,1.521-14.963,1.521c-7.896-7.317-14.176-11.746-18.945-14.434
				c0.801-0.421,1.271-0.995,0.721-1.429c-2.002-1.561-4.031-2.154-6.557-1.773c-0.367,0.055-0.73,0.14-1.084,0.239
				c-1.527,0.017-3.051,0.086-4.561,0.364c-1.656,0.302-4.447,1.03-5.141,2.855c-0.273,0.184-0.443,0.38-0.422,0.589
				c0.318,2.577,1.129,3.688,3.807,3.438c1.26-0.116,2.729-0.539,3.799-1.231c0.312-0.203,1.025-0.62,1.156-0.621
				c1.352-0.022,2.771,0.442,4.061,0.825c0.189,0.055,0.498,0.036,0.852-0.033c2.809,1.666,6.27,6.817,6.27,6.817
				c19.779,19.042,31.984,5.618,32.23,4.394C651.943,190.59,650.479,190.289,650.479,190.289z"/>
		</g>
	</g>
	<g>
		<g>
			<path fill="#ED1C24" d="M636.809,302.176c-0.184-1.433-1.957-2.285-4.537-2.757c-7.939,1.68-16.428,2.706-25.34,2.738
				c-2.105,9.699,4.486,21.974,4.486,21.974l-0.469,0.497C634.373,325.308,636.809,302.176,636.809,302.176z"/>
		</g>
		<g>
			<path d="M611.961,326.105c-0.004,0,0,0-0.004,0c-0.346,0-0.695-0.005-1.049-0.016l-3.266-0.094l2.002-2.121
				c-1.531-3.152-6.02-13.404-4.146-22.029l0.25-1.148l1.178-0.003c8.273-0.032,16.703-0.94,25.047-2.708l0.281-0.058l0.283,0.052
				c1.32,0.239,5.338,0.973,5.723,4.011l0.023,0.168l-0.018,0.17C638.242,302.569,635.488,326.105,611.961,326.105z
				 M608.158,303.612c-1.146,8.104,3.533,17.83,4.412,19.56c19.375-0.375,22.43-18.513,22.752-20.915
				c-0.162-0.35-0.936-0.925-3.033-1.344C624.256,302.595,616.145,303.503,608.158,303.612z"/>
		</g>
	</g>
	<g>
		<g>
			<path fill="#3B99B2" d="M693.734,241.179c0.619-5.398-0.451-11.736-2.928-16.557c-0.314-0.608-0.646-1.164-0.982-1.695
				c-1.908-0.695-3.963-1.095-6.109-1.095c-10.031,0-18.16,8.279-18.16,18.493c0,5.776,2.602,10.932,6.674,14.32
				C682.004,254.976,692.404,252.755,693.734,241.179z"/>
		</g>
	</g>
	<g>
		<g>
			<path fill="#3B99B2" d="M632.053,224.856c4.357-3.624,3.121-10.607,2.324-15.349c-0.34-2.02-0.977-4.063-1.902-5.972
				c-9.59,1.255-16.984,9.072-16.984,18.55c0,2.956,0.734,5.739,2.012,8.224C622.795,230.401,628.236,228.023,632.053,224.856z"/>
		</g>
	</g>
	<g>
		<g>
			<path d="M598.436,207.681c0,0,18.551-23.437,29.783-7.325c0,0,7.076,12.939,7.076,16.602c0,3.66,4.887-25.147-18.43-25.879
				C616.865,191.078,603.805,192.543,598.436,207.681z"/>
		</g>
	</g>
	<g>
		<g>
			<path fill="#C6C171" d="M682.086,206.75c-14.723-8.788-28.764,15.624-29.896,19.774c0,0,0.17-0.243,0.496-0.671
				c-0.33,0.683-0.559,1.238-0.67,1.622c0,0,19.777-26.906,34.182-10.217c0,0,7.09,8.218,7.422,14.33c0,0,0.16-0.705,0.246-1.895
				C693.904,229.509,696.717,215.483,682.086,206.75z"/>
		</g>
	</g>
	<g>
		<g>
			<path d="M635.211,216.677c-0.682-0.232-1.402-0.382-2.16-0.382c-3.789,0-6.855,3.069-6.855,6.859c0,1.79,0.697,3.403,1.818,4.624
				c1.562-0.833,3.004-1.828,4.264-2.922C634.578,222.847,635.225,219.792,635.211,216.677z"/>
		</g>
	</g>
	<g>
		<g>
			<circle cx="684.439" cy="242.616" r="6.859"/>
		</g>
	</g>
	<g>
		<g>
			<path d="M610.492,294.197c-0.654,0-1.322-0.007-1.988-0.023c-3.539-0.081-6.898-0.346-10.271-0.817l-0.381-0.105
				c-0.195-0.085-4.868-2.141-6.368-6.826c-0.99-3.094-0.372-6.514,1.836-10.168c2.709-4.485,4.456-6.479,5.608-7.795
				c1.393-1.593,1.504-1.722,1.504-4.877c0-5.793-1.258-8.158-1.271-8.182l-0.229-0.395l0.045-0.457
				c0.143-1.704,1.213-3.537,3.217-3.537c0.367,0,0.752,0.065,1.146,0.199c0.354,0.116,0.891,0.391,2.186,1.055
				c4.658,2.4,17.031,8.77,32.211,12.131c10.934,2.422,21.27,2.817,30.555,1.164l3.779-0.674l-2.373,3.021
				C669.49,268.173,648.605,294.197,610.492,294.197z M598.852,290.483c3.189,0.436,6.373,0.685,9.723,0.762
				c30.152,0.692,49.375-15.41,56.119-22.201c-8.586,0.976-17.855,0.371-27.588-1.786c-15.551-3.444-28.168-9.938-32.924-12.383
				c-0.779-0.402-1.582-0.817-1.779-0.889c-0.115-0.038-0.188-0.043-0.209-0.043c-0.072,0.057-0.172,0.292-0.234,0.53
				c0.471,1.103,1.402,3.929,1.402,9.111c0,4.086-0.461,4.782-2.23,6.807c-1.088,1.243-2.723,3.116-5.303,7.379
				c-1.751,2.9-2.274,5.51-1.554,7.761C595.242,288.544,598.139,290.133,598.852,290.483z"/>
		</g>
	</g>
	<g>
		<g>
			<g>
				<path fill="#F1A722" d="M687.832,256.263c-38.455,5.006-44.922-7.081-44.922-7.081c-4.027-2.928-2.316-17.333-2.195-18.064
					c0.125-0.731-1.953-3.295-3.422-2.564c-1.461,0.732-21.723,0.487-24.656,0.854c-2.924,0.366-6.225-8.055-10.982-12.086
					c-2.307-1.947-6.059-0.719-9.329,1.062l-0.439,1.26l0.488,11.23c0,0-18.062,7.811-21.484,7.323
					c-3.417-0.488-2.925,8.3-2.925,8.3c17.087,1.465,20.504,5.859,20.504,5.859c11.234,4.397,0,25.393,0,25.393
					c-12.729,10.533,12.412,21.454,17.625,23.555c0.586,0.237,0.932,0.367,0.932,0.367c-0.041,0.159-0.059,0.324-0.094,0.486
					c8.912-0.032,17.4-1.058,25.34-2.738c37.727-7.976,63.129-30.581,63.129-30.581
					C700.646,256.753,687.832,256.263,687.832,256.263z"/>
			</g>
			<g>
				<path d="M605.107,303.628l0.229-1.05c-6.287-2.555-20.517-9.191-21.793-17.415c-0.47-3.002,0.798-5.81,3.758-8.35
					c0.923-1.803,6.49-13.168,4.13-19.564c-0.627-1.7-1.77-2.853-3.494-3.527l-0.376-0.146l-0.246-0.318
					c-0.009-0.01-3.602-3.94-19.479-5.297l-1.268-0.112l-0.067-1.266c-0.063-1.094-0.26-6.646,1.832-8.856
					c0.739-0.78,1.675-1.138,2.768-0.979h0.004c2.84,0,13.011-3.94,19.765-6.821l-0.461-10.501l0.721-2.059l0.497-0.268
					c4.846-2.641,8.586-2.911,10.973-0.894c2.248,1.903,4.135,4.64,5.801,7.052c1.209,1.757,3.238,4.698,4.049,4.698
					c1.275-0.159,5.254-0.205,9.861-0.26c5.299-0.066,13.303-0.16,14.436-0.495c0.273-0.144,0.682-0.24,1.111-0.24
					c1.572,0,2.816,1.273,3.277,1.817c0.557,0.657,1.184,1.638,1.021,2.583c-0.541,3.33-1.098,14.665,1.617,16.639l0.27,0.198
					l0.16,0.294c0.031,0.055,4.6,7.523,26.529,7.523c5.092,0,10.779-0.405,16.906-1.204l0.125-0.016l0.121,0.002
					c0.26,0.01,6.4,0.292,9.066,4.527c1.635,2.61,1.566,6.006-0.211,10.096l-0.125,0.296l-0.242,0.214
					c-0.256,0.23-26.129,22.96-63.797,30.923c-8.541,1.806-17.166,2.736-25.637,2.77L605.107,303.628z M589.321,251.124
					c2.342,1.004,3.977,2.723,4.859,5.114c3.009,8.156-4.112,21.629-4.416,22.199l-0.14,0.254l-0.224,0.184
					c-2.307,1.911-3.278,3.821-2.965,5.837c0.869,5.584,11.425,11.696,20.205,15.233c0.555,0.223,0.881,0.348,0.895,0.353
					l1.014,0.376c7.752-0.135,15.625-1.037,23.424-2.688c34.992-7.396,59.531-27.746,62.211-30.035
					c1.248-3.009,1.342-5.384,0.285-7.066c-1.674-2.657-5.875-3.098-6.588-3.153c-6.199,0.804-11.967,1.209-17.148,1.209
					c-21.764,0-27.836-7.159-28.926-8.765c-4.334-3.664-2.834-16.982-2.574-19.036c-0.229-0.463-1.018-1.232-1.375-1.253
					c-0.859,0.451-3.775,0.595-15.516,0.736c-4.326,0.049-8.414,0.099-9.521,0.238c-0.125,0.014-0.246,0.017-0.371,0.022
					c-2.352,0-4.166-2.633-6.463-5.966c-1.559-2.26-3.328-4.825-5.281-6.477c-1.33-1.125-3.855-0.753-7.184,0.965l-0.156,0.454
					l0.52,11.956l-0.927,0.401c-1.77,0.764-17.392,7.464-21.714,7.465l0,0c-0.21,0-0.394-0.012-0.56-0.037
					c-0.09,0-0.13-0.001-0.224,0.095c-0.739,0.783-1.039,3.349-1.062,5.418C583.547,246.548,588.147,249.976,589.321,251.124z"/>
			</g>
		</g>
		<g>
			<g>
				<path d="M634.412,241.614c0,0,1.094,10.498,1.523,11.84c0.43,1.343-1.891,1.101-2.379,1.22
					c-0.486,0.123-4.029-11.961-2.807-13.06C631.973,240.514,634.311,240.659,634.412,241.614z"/>
			</g>
		</g>
		<g>
			<g>
				<path d="M644.701,245.747c3.176,13.185,14.896,12.451,26.125,11.476c5.369-0.489,13.428-1.708,18.797-0.248
					c5.371,1.467,6.348,7.082,6.594,11.72c3.904-3.663,3.416-11.229-1.707-14.158c-4.641-2.689-11.963-1.712-17.096-0.979
					c-6.834,0.979-12.693,2.199-19.039-0.243c-2.195-0.732-4.883-0.977-6.836-1.952c-1.951-0.98-5.369-6.35-6.592-5.617"/>
			</g>
		</g>
		<g>
			<g>
				<path fill="#462B38" d="M637.422,265.829c-18.725-4.147-33.098-12.743-34.545-13.23c-2.199-0.732-2.445,2.08-2.445,2.08
					s1.465,2.561,1.465,8.906c0,6.35-0.977,2.932-7.323,13.431c-6.347,10.495,3.862,14.892,3.862,14.892
					c3.498,0.487,6.852,0.73,10.104,0.802C609.246,286.374,613.68,273.163,637.422,265.829z"/>
			</g>
		</g>
		<g>
			<g>
				<path fill="#BF6A5D" d="M637.422,265.829c-23.742,7.334-28.176,20.544-28.883,26.88c39.1,0.91,60.008-25.703,60.008-25.703
					C657.793,268.922,647.035,267.962,637.422,265.829z"/>
			</g>
		</g>
		<g>
			<g>
				<path d="M610.492,294.197c-0.654,0-1.322-0.007-1.988-0.023c-3.539-0.081-6.898-0.346-10.271-0.817l-0.381-0.105
					c-0.195-0.085-4.868-2.141-6.368-6.826c-0.99-3.094-0.372-6.514,1.836-10.168c2.709-4.485,4.456-6.479,5.608-7.795
					c1.393-1.593,1.504-1.722,1.504-4.877c0-5.793-1.258-8.158-1.271-8.182l-0.229-0.395l0.045-0.457
					c0.143-1.704,1.213-3.537,3.217-3.537c0.367,0,0.752,0.065,1.146,0.199c0.354,0.116,0.891,0.391,2.186,1.055
					c4.658,2.4,17.031,8.77,32.211,12.131c10.934,2.422,21.27,2.817,30.555,1.164l3.779-0.674l-2.373,3.021
					C669.49,268.173,648.605,294.197,610.492,294.197z M598.852,290.483c3.189,0.436,6.373,0.685,9.723,0.762
					c30.152,0.692,49.375-15.41,56.119-22.201c-8.586,0.976-17.855,0.371-27.588-1.786c-15.551-3.444-28.168-9.938-32.924-12.383
					c-0.779-0.402-1.582-0.817-1.779-0.889c-0.115-0.038-0.188-0.043-0.209-0.043c-0.072,0.057-0.172,0.292-0.234,0.53
					c0.471,1.103,1.402,3.929,1.402,9.111c0,4.086-0.461,4.782-2.23,6.807c-1.088,1.243-2.723,3.116-5.303,7.379
					c-1.751,2.9-2.274,5.51-1.554,7.761C595.242,288.544,598.139,290.133,598.852,290.483z"/>
			</g>
		</g>
		<g>
			<g>
				<path d="M659.605,269.249c-17.086,0-45.449-5.475-53.611-13.527c-8.725-8.613-36.792-7.691-37.075-7.679l-0.107-2.927
					c1.209-0.039,29.624-0.97,39.243,8.518c8.631,8.519,46.822,15.126,60.15,11.945l0.682,2.85
					C666.553,268.987,663.35,269.249,659.605,269.249z"/>
			</g>
		</g>
		<g>
			<g>
				<path d="M569.425,240.187c-0.009,0-0.013,0-0.018,0l0.004-2.929c0,0,0,0,0.004,0c0.125,0,10.834-0.05,21.185-4.834
					c10.977-5.07,38.446-4.858,39.606-4.853l9.912,0.692l-0.207,2.923l-9.82-0.69c-0.014,0.002-0.197-0.001-0.533-0.001
					c-3.906,0-28.164,0.17-37.726,4.59C580.95,240.111,570.053,240.187,569.425,240.187z"/>
			</g>
		</g>
	</g>
	<g>
		<g>
			<path fill="#EFED82" stroke="#EEE937" stroke-miterlimit="10" d="M632.299,228.012"/>
		</g>
	</g>
	<g>
		<g>
			<path d="M646.17,196.18c-0.283-1.768-1.469,0.554-1.469,0.554c1.674,7.09-3.135,15.811-7.99,22.403
				c0.049-3.814-0.131-8.214-1.17-9.268c-1.129-1.154-0.482,6.963-1.594,12.811c-0.43,0.523-0.842,1.012-1.246,1.483l-4.818,3.47
				c0.049,0.062,0.117,0.106,0.18,0.152c-0.014-0.002-0.049-0.008-0.049-0.008c0.031,0.018,0.057,0.025,0.088,0.042
				c0.064,0.039,0.135,0.066,0.207,0.093c0.256,0.111,0.496,0.205,0.734,0.274c-0.533,0.546-0.842,0.844-0.842,0.844l5.039-1.254
				c0.748-0.537,1.441-1.088,2.109-1.649c0.385-0.275,0.762-0.589,1.115-0.958v-0.008C649.969,212.833,646.17,196.18,646.17,196.18z
				"/>
		</g>
	</g>
	<g>
		<g>
			<path d="M648.723,232.582c0,0,20.75-27.344,36.623-10.985c0,0,7.811,8.055,8.299,14.157c0,0,3.172-14.157-12.691-22.946
				C665.08,204.018,649.945,228.431,648.723,232.582z"/>
		</g>
	</g>
	<g>
		<g>
			<path d="M618.939,335.414c-0.367,0-0.65-0.032-0.83-0.096l-1.047-1.298c-0.041-0.354,0.008-1.009,0.752-1.534
				c0.062-0.647-0.852-2.6-1.926-4.079l2.373-1.718c0.602,0.828,2.379,3.45,2.469,5.616c3.359-0.632,10.148-2.642,13.422-5.811
				l2.039,2.107C631.689,332.957,622.133,335.414,618.939,335.414z"/>
		</g>
	</g>
	<g>
		<g>
			<g>
				<path d="M353.184,406.645c-2.441-3.903-7.323-44.432-7.323-38.573c0,3.476-5.334,12.802-9.666,19.809l0.296,0.21v7.082
					l1.464,1.461l1.223,6.103l2.929,1.467c0,0,0.242,3.659,1.953,3.417c1.711-0.244,2.683,3.417,2.683,3.417
					c3.256,3.254,7.354,16.641,10.583,28.924C360.019,426.007,355.097,409.713,353.184,406.645z"/>
			</g>
		</g>
		<g>
			<g>
				<path d="M750.262,275.916c-7.422,14.266-32.623,36.315-43.395,45.356c23.217-5.499,43.619-29.844,44.891-33.762
					c1.34-4.149,4.146-2.194,4.146-2.194c1.711,0.733,2.199,8.543,2.199,8.543c1.084-1.251,2.029-2.561,2.877-3.903
					c-0.422-9.157-4.859-10.214-4.859-14.04C756.121,271.521,750.262,275.916,750.262,275.916z"/>
			</g>
		</g>
		<g>
			<g>
				<path d="M644.674,398.954c0,0,17.334-57.855,89.105-16.844l-7.686,1.076v4.05c0,0,27.828,13.761,41.299,59.191
					c1.107,3.735,2.119,7.677,3.006,11.852c0,0,1.689-7.968,2.875-19.243c-7.434-32.532-29.936-48.503-29.936-48.503
					c-20.146-35.887-64.451-30.028-64.451-30.028c-0.254-0.1-0.451-0.853-0.555-2.058
					C633.254,373.092,644.674,398.954,644.674,398.954z"/>
			</g>
		</g>
		<g>
			<g>
				<path d="M776.307,465.324l-5.908-7.045l1.707-23.801C772.105,434.479,778.303,457.903,776.307,465.324z"/>
			</g>
		</g>
		<g>
			<g>
				<path d="M760.146,544.328c0,0,6.227-24.53,24.535-23.433c0,0,10.619-3.297,17.213-5.858c5.975-2.32,53.812-32.66,53.66-47.572
					c-15.322,19.427-63.381,44.629-66.543,47.025c-3.395,2.562-2.834-1.281-2.834-1.281c0.291-0.452,0.551-0.918,0.793-1.396
					C758.812,516.282,760.146,544.328,760.146,544.328z"/>
			</g>
		</g>
		<g>
			<g>
				<path d="M757.715,455.964c0,0,21.605,19.037,26.367,60.779c0,0,3.977-6.243,4.756-17.879c-2.006-9.268-6.49-18.637-9.486-24.222
					C769.307,464.16,757.715,455.964,757.715,455.964z"/>
			</g>
		</g>
		<g>
			<g>
				<path d="M500.64,546.775c-2.446-28.813-16.115-49.398-16.115-49.398v-41.413c-6.23,0-12.456,14.898-16.151,25.692
					c0.797,5.607,1.554,8.891,1.416,7.014c-0.367-4.761,8.42-17.942,8.42-17.942c-2.562,5.491,0.367,26.246,4.273,30.64
					c3.905,4.39,11.716,35.643,11.716,35.643c0.488,14.652,4.887,83.979,3.91,89.843c-0.981,5.858-3.91,12.205-3.91,12.205h7.287
					l-0.846-8.788C500.64,630.27,503.081,575.584,500.64,546.775z"/>
			</g>
		</g>
		<g>
			<g>
				<path d="M796.766,579.484c-0.488-0.967-3.172,0-3.172,0c-2.4,9.231-15.811,22.771-22.215,28.839
					c0.234-0.004,0.453-0.009,0.641-0.031c5.371-0.488,18.551-11.716,18.551-11.716L789.6,612.69
					c0.299-0.242,0.586-0.479,0.883-0.721C793.479,600.719,797.146,580.246,796.766,579.484z"/>
			</g>
		</g>
		<g>
			<g>
				<path d="M405.917,437.31c0,0,1.245,4.638,4.752,10.648c23.859,16.855,51.117,6.773,47.646,6.536
					C458.315,454.494,418.123,453.33,405.917,437.31z"/>
			</g>
		</g>
		<g>
			<g>
				<path d="M370.759,416.407c0,0-2.029-2.923-1.988-9.762c0.031-5.972,0.116,29.03-7.059,51.321c0.609,2.7,0.963,4.344,0.963,4.344
					c7.69-6.225,9.217-30.765,9.217-30.765c13.947,23.939,28.096,30.371,36.305,31.938
					C396.942,452.757,372.264,428.069,370.759,416.407z"/>
			</g>
		</g>
		<g>
			<g>
				<path d="M695.697,531.886c-2.93,3.297-5.859-30.397-17.58-39.919l3.664-8.421l2.199-8.223c0,0-0.367,1.268-9.521,11.52
					c-9.156,10.252-19.529,20.876-26.855,24.53c-7.324,3.664-42.965,31.5-45.895,91.549c0,0-22.95,25.399-21.973,32.718
					c0,0,17.09-22.456,20.02-21.969c1.881,0.31-1.07,7.919,4.121,25.387h8.482c-3.418-13.67-1.957-46.871-1.957-46.871
					c-5.365-8.787,20.512-56.642,35.158-66.409c14.65-9.769,27.832-28.4,27.832-28.4c6.346-9.84,21.969,59.651,21.969,59.651
					s7.814,2.44,7.326,0.976c-0.488-1.469,3.418-5.858,3.418-5.858c18.416,25.682,33.457,39.812,44.6,47.484
					c-12.809-16.97-41.389-55.844-43.654-67.744C707.051,531.886,698.631,528.585,695.697,531.886z"/>
			</g>
		</g>
		<g>
			<g>
				<path d="M492.251,354.403c-43.458-20.021-75.195,29.295-75.195,29.295l-0.976-19.529c-8.174-7.394-28.432-51.672-37.317-78.254
					l-8.72-10.732c6.758,55.668,38.312,97.466,41.733,98.749c3.905,1.462,0,17.536,0,17.536h5.37
					c33.201-34.705,41.989-32.671,41.989-32.671c1.953-4.394,37.111,0,37.111,0c-1.464-4.394,43.942-21.972,43.942-21.972
					c6.691-0.708,28.257-1.664,39.763-2.142C525.623,314.19,492.251,354.403,492.251,354.403z"/>
			</g>
		</g>
	</g>
	<g>
		<g>
			<path d="M474.358,381.743c0,0,15.483-1.952,22.318-7.322c6.834-5.374,25.39-23.926,66.891-20.018c0,0,1.711,3.202,0,4.043
				c-1.711,0.839-26.367-4.776-50.776,10.848C512.791,369.294,487.687,385.407,474.358,381.743z"/>
		</g>
	</g>
	<g>
		<g>
			<path d="M557.462,366.121c0,0,11.479,6.834,11.721,7.568c0.242,0.732,64.938-1.223,64.938-1.223l-0.977,1.385l-62.738,2.766
				C570.406,376.617,555.268,367.583,557.462,366.121z"/>
		</g>
	</g>
	<g>
		<g>
			<path d="M737.391,520.228c0,0-32.234-26.6-31.975-47.18C705.416,473.048,699.543,497.641,737.391,520.228z"/>
		</g>
	</g>
	<g>
		<g>
			<path d="M509.374,471.458v25.919c0,0,12.084,27.916,14.278,30.846c2.199,2.929,2.566,18.679,0,25.639l-3.292,36.614v-40.649
				v-2.315v-16.547L507.905,505.9L509.374,471.458z"/>
		</g>
	</g>
	<g>
		<g>
			<path d="M468.375,465.324l8.04-33.407h-8.04c0,0,21.588-42.484,27.446-43.948c0,0,1.281-2.289,0-2.472
				c-1.281-0.18-4.21,0.366-5.401,2.381c-1.191,2.013-27.379,20.917-27.921,61.225l4.21,0.018l0.918,0.007l0.748,17.021"/>
		</g>
	</g>
	<g>
		<g>
			<path d="M426.368,402.496c0,0,24.289,4.752,26.367,3.476c0,0,0.242,0.676-0.609,1.165c-0.855,0.486-23.563,2.071-25.758-4.273"/>
		</g>
	</g>
	<g>
		<g>
			<g>
				<path d="M940.805,432.951c0.867,0.034,1.361,0.061,1.361,0.061C941.893,432.927,941.418,432.92,940.805,432.951z"/>
			</g>
		</g>
		<g>
			<g>
				<path d="M984.938,417.876c-2.217-14.765-39.027-6.369-60.029-2.024c8.572,0.461,20.51,0.707,28.607-0.784l21.973,1.14
					c0,0,2.561,0.69,2.561,3.989c0,3.296,7.328,54.195-33.689,37.349l-49.068-7.686c0,0-2.566-6.226,1.83-6.958
					c4.068-0.684,36.051-9.516,43.684-9.95c-7.928-0.309-48.502-1.348-55.766,9.216c0,0-2.199,11.352,0,12.086
					c2.193,0.729,53.463,12.818,53.463,12.818s23.205,4.629,36.166-0.739c1.625,7.146-7.238,20.873-7.238,20.873
					c-14.283,22.341-74.705-20.864-74.705-20.864s-1.281,9.878,8.971,15.741c9.467,5.401,22.773,20.916,50.332,19.545v0.014
					c-5.875,11.686-26.527,11.748-36.045,9.554c-9.521-2.199-23.309-32.226-23.309-32.226s0.27,4.004,0.682,8.904
					c3.865,5.997,8.088,17.4,8.088,17.4c22.207,27.643,50.303,1.025,54.217-2.938c0.305-0.305,0.465-0.483,0.465-0.483
					c1.08-0.256,2.084-0.573,3.047-0.914c22.34-7.748,16.979-33.75,16.979-33.75c1.16-0.73,2.178-1.68,3.096-2.768
					c0.949-1.129,1.781-2.414,2.498-3.848c0.166-0.322,0.318-0.654,0.471-0.99c0.062-0.152,0.143-0.282,0.201-0.43
					C988.799,444.256,984.938,417.876,984.938,417.876z"/>
			</g>
		</g>
		<g>
			<g>
				<path d="M869.287,427.519c0,0,0-2.75,1.279-2.934c1.139-0.161,44.873-63.908,34.281-104.549
					c-5.639,55.132-36.041,94.465-38.438,96.861c-2.934,2.931-2.566,12.086-2.566,12.086c0.529,15.468-0.717,24.006-2.154,28.718
					c5.107,7.457,7.598,15.835,7.598,15.835l0.125-3.417c0,0-0.977-22.457,2.441-27.829
					C871.854,442.29,871.477,430.45,869.287,427.519z"/>
			</g>
		</g>
	</g>
	<g>
		<g>
			<path d="M668.914,263.831c0,0,5.006-0.236,3.205,4c0,0-0.648,0.542-0.828,0.865c-0.184,0.323,0.367-4.378-3.48-4.255
				L668.914,263.831z"/>
		</g>
	</g>
	<g>
		<g>
			<path d="M488.13,440.702c0,0,19.774-2.562,32.23,9.889c12.451,12.444,71.495,26.161,96.72,12.893
				c25.221-13.26,28.148-14.299,30.715-15.979c2.562-1.679-31.494,10.774-47.242,13.341c-15.743,2.562-58.591-5.496-64.083-10.255
				C536.47,450.591,496.555,430.08,488.13,440.702z"/>
		</g>
		<g>
			<path d="M588.582,469.638c-25.807,0-59.214-9.007-68.741-18.533c-8.608-8.606-20.817-9.89-27.334-9.89
				c-2.606,0-4.264,0.206-4.282,0.215l-1.787,0.224l1.125-1.403c1.751-2.215,4.828-3.335,9.141-3.335
				c14.592,0,39.064,12.489,40.099,13.022l0.148,0.096c4.523,3.924,37.143,10.57,56.093,10.57c2.938,0,5.428-0.166,7.395-0.483
				c9.906-1.617,27.396-7.261,37.846-10.631c6.73-2.174,8.957-2.873,9.574-2.873h0.547l0.229,0.544
				c0.062,0.215,0.086,0.616-0.439,0.961c-1.223,0.797-2.533,1.46-6.041,3.236c-4.188,2.116-11.193,5.654-24.732,12.775
				C610.469,467.792,600.768,469.638,588.582,469.638z M492.506,439.75c6.741,0,19.389,1.34,28.369,10.321
				c8.375,8.373,39.776,18.106,67.707,18.106c11.78,0,21.516-1.846,28.153-5.335c13.553-7.126,20.568-10.675,24.756-12.796
				c0.094-0.045,0.184-0.092,0.273-0.137c-0.955,0.307-1.977,0.634-3.029,0.975c-10.488,3.386-28.045,9.052-38.061,10.678
				c-2.047,0.331-4.613,0.501-7.631,0.501c-18.193,0-51.569-6.369-56.979-10.861c-1.519-0.766-25.507-12.822-39.36-12.822
				c-2.75,0-4.909,0.479-6.45,1.422C490.89,439.772,491.651,439.75,492.506,439.75z"/>
		</g>
	</g>
	<g>
		<g>
			<path d="M658.41,440.333c0,0,43.578,14.287,87.521,19.048C745.932,459.381,675.623,465.606,658.41,440.333z"/>
		</g>
	</g>
	<g>
		<g>
			<polygon points="523.835,428.854 522.734,427.888 540.47,407.63 528.941,407.63 563.124,381.409 564.015,382.57 533.254,406.166 
				543.699,406.166 			"/>
		</g>
	</g>
	<g>
		<g>
			<path fill="#F4F0CE" d="M596.039,530.964c0.488-1.035,0.977-4.94,0-4.94c-0.977,0-5.371-1.304-5.371-1.304"/>
		</g>
	</g>
	<g>
		<g>
			<path fill="#FECF0A" d="M770.801,167.86l48.059-41.484l1.51-4.265c0,0-40.865,23.535-50.441,19.678
				c-9.58-3.86-0.855-26.099-0.855-26.099s-18.762,14.787-32.623,8.388c-13.861-6.401,5.912-68.039,5.912-68.039
				s-27.168,62.194-43.713,57.665c-16.541-4.528-19.703-20.023-19.703-20.023s-4.721,14.165-12.746,14.055
				c-8.021-0.108-25.031-40.791-25.031-40.791l-2.043-0.723c0,0,4.963,51.523,5.705,60.208
				C644.83,126.43,740.754,142.075,770.801,167.86"/>
		</g>
	</g>
	<g>
		<g>
			<path fill="#FAA31B" d="M720.012,136.354l10.875-41.792c0,0-5.191,24.243,1.916,31.319l-5.861,12.923L720.012,136.354z"/>
		</g>
	</g>
	<g>
		<g>
			<path fill="#FAA31B" d="M758.758,153.908l9.393-9.407c0,0,11.824,6.359,45.164-16.465l1.213,0.428l-41.043,33.766
				L758.758,153.908z"/>
		</g>
	</g>
	<g>
		<g>
			<path fill="#FEEC86" d="M646.402,122.297c0,0-3.297-39.823-5.289-47.949c0,0,8.312,29.253,20.064,36.506
				c11.754,7.252,16.545-9.982,16.545-9.982l0.037,25.663C677.76,126.534,654.738,122.701,646.402,122.297"/>
		</g>
	</g>
	<g>
		<g>
			<path fill="#FEEC86" d="M735.621,71.986c0,0-12.205,39.307-36.006,44.134l-2.588,14.669c0,0,15.348,4.974,19.916,5.966
				C716.943,136.755,734.129,76.756,735.621,71.986"/>
		</g>
	</g>
	<g>
		<g>
			<path fill="#FEEC86" d="M730.256,140.453c0,0,6.484-11.739,7.354-12.73c0,0,16.617,1.747,26.648-7.205l-17.193,26.886
				C747.064,147.404,735.248,142.491,730.256,140.453"/>
		</g>
	</g>
	<g>
		<g>
			<path fill="#FECF0A" d="M645.328,68.212c-1.322,3.743-4.801,5.929-7.766,4.877c-2.975-1.05-4.305-4.936-2.984-8.68
				c1.326-3.743,4.807-5.926,7.771-4.875C645.318,60.582,646.654,64.468,645.328,68.212"/>
		</g>
	</g>
	<g>
		<g>
			<path fill="#FEEC86" d="M638.713,67.473c0.295-0.988,0.555-1.901,0.959-2.858c0.939-2.246-2.344-3.763-3.705-1.901
				c-0.887,1.209-1.326,2.999-1.016,4.476c0.201,0.97,1.078,3.25,2.516,2.394C638.314,69.075,638.443,68.352,638.713,67.473"/>
		</g>
	</g>
	<g>
		<g>
			<path fill="#FFFFFF" d="M638.121,65.488c0.023-0.189,0.031-0.222,0.018-0.099c0.045-0.107,0.072-0.217,0.096-0.329
				c0.066-0.346,0.16-0.651,0.049-1c-0.221-0.695-0.713-1.041-1.443-0.98c-1.691,0.144-2.498,3.158-1.039,4.062
				c0.529,0.329,1.08,0.281,1.572-0.072c0.256-0.179,0.404-0.403,0.525-0.688C638.045,66.026,638.082,65.827,638.121,65.488"/>
		</g>
	</g>
	<g>
		<g>
			<path fill="#FECF0A" d="M684.32,95.582c-1.326,3.743-4.801,5.924-7.771,4.876c-2.969-1.05-4.303-4.936-2.979-8.679
				c1.322-3.743,4.807-5.928,7.771-4.878C684.311,87.951,685.646,91.837,684.32,95.582"/>
		</g>
	</g>
	<g>
		<g>
			<path fill="#FEEC86" d="M678.502,93.825c0.287-1.186,0.65-2.306,0.135-3.481c-0.322-0.722-1.24-1.022-1.936-0.685
				c-2.359,1.136-3.502,5.988-1.607,7.897c0.891,0.894,2.594,0.819,3.014-0.552C678.439,95.945,678.242,94.89,678.502,93.825"/>
		</g>
	</g>
	<g>
		<g>
			<path fill="#FFFFFF" d="M677.771,93.348c0.037-0.424,0.059-0.827-0.018-1.251c-0.115-0.67-0.873-1.028-1.477-0.746
				c-1.156,0.541-1.725,2.197-1.16,3.345c0.537,1.1,1.982,0.896,2.439-0.13C677.729,94.193,677.732,93.754,677.771,93.348"/>
		</g>
	</g>
	<g>
		<g>
			<path fill="#FECF0A" d="M747.74,57.939c-1.326,3.743-4.807,5.928-7.775,4.877s-4.299-4.937-2.979-8.681
				c1.326-3.742,4.807-5.924,7.771-4.875C747.73,50.31,749.062,54.195,747.74,57.939"/>
		</g>
	</g>
	<g>
		<g>
			<path fill="#FEEC86" d="M742.213,55.16c0.377-1.186,1.197-2.118,1.443-3.353c0.143-0.702-0.557-1.271-1.17-1.349
				c-1.84-0.24-3.391,1.402-4.084,2.943c-0.713,1.582-1.375,4.372,0.094,5.71c1.143,1.041,2.58,0.791,3.27-0.6
				C742.275,57.494,741.855,56.259,742.213,55.16"/>
		</g>
	</g>
	<g>
		<g>
			<path fill="#FFFFFF" d="M741.465,54.342c0.297-0.855,0.408-1.911-0.604-2.331c-1.766-0.731-3.436,2.373-2.594,3.725
				c0.467,0.743,1.531,1.204,2.271,0.486C741.098,55.677,741.219,55.045,741.465,54.342"/>
		</g>
	</g>
	<g>
		<g>
			<path fill="#FECF0A" d="M774.447,117.591c-1.32,3.742-4.801,5.926-7.771,4.878c-2.969-1.05-4.303-4.936-2.977-8.678
				c1.32-3.744,4.805-5.929,7.773-4.882C774.438,109.961,775.777,113.849,774.447,117.591"/>
		</g>
	</g>
	<g>
		<g>
			<path fill="#FEEC86" d="M768.844,115.11c0.336-1.292,1.471-2.369,1.564-3.696c0.049-0.732-0.494-1.262-1.184-1.363
				c-3.797-0.554-6.691,7.655-3.256,9.491c0.994,0.533,2.266,0.32,2.688-0.863C769.068,117.503,768.531,116.321,768.844,115.11"/>
		</g>
	</g>
	<g>
		<g>
			<path fill="#FFFFFF" d="M768.119,114.144c0.027-0.104,0.049-0.206,0.08-0.309c0.023-0.114,0.049-0.229,0.072-0.345
				c-0.004-0.105-0.004-0.185-0.01-0.239c0.121-0.783-0.635-1.733-1.477-1.219c-0.172,0.102-0.521,0.22-0.771,0.479
				c-0.291,0.299-0.551,0.591-0.725,0.979c-0.359,0.785-0.471,1.507,0.057,2.253c0.234,0.336,0.793,0.531,1.188,0.42
				c0.752-0.207,1.119-0.686,1.393-1.389C767.967,114.669,768.164,113.946,768.119,114.144"/>
		</g>
	</g>
	<g>
		<g>
			<path fill="#FECF0A" d="M825.627,124.333c-1.316,3.742-4.801,5.929-7.766,4.878c-2.971-1.05-4.305-4.937-2.984-8.68
				c1.326-3.744,4.807-5.927,7.775-4.878C825.617,116.704,826.957,120.589,825.627,124.333"/>
		</g>
	</g>
	<g>
		<g>
			<path fill="#FEEC86" d="M822.133,118.889c0.332-0.785-0.326-1.644-1.123-1.713c-1.963-0.167-3.605,1.368-4.596,2.903
				c-0.959,1.482-2.172,4.303-0.605,5.74c0.779,0.719,1.617,0.8,2.504,0.208c1.191-0.789,1.102-2.432,1.6-3.658
				C820.428,121.087,821.596,120.164,822.133,118.889"/>
		</g>
	</g>
	<g>
		<g>
			<path fill="#FFFFFF" d="M820.377,119.181c-0.035-0.489-0.662-0.901-1.129-0.766c-0.822,0.243-1.379,0.777-1.885,1.465
				c-0.551,0.751-1.209,1.664-1.16,2.642c0.055,1.093,1.07,1.612,1.988,1.008c0.709-0.464,1.084-1.316,1.5-2.026
				C820.131,120.747,820.439,120.066,820.377,119.181"/>
		</g>
	</g>
	<g>
		<g>
			<path fill="#FFFFFF" d="M643.949,113.679c-0.014-0.027-0.027-0.053-0.041-0.08c-0.18-0.372-0.641-0.534-1.012-0.357
				c-0.027,0.015-0.051,0.027-0.076,0.038c-0.664,0.318-0.609,1.313,0.084,1.56C643.6,115.085,644.266,114.345,643.949,113.679"/>
		</g>
	</g>
	<g>
		<g>
			
				<ellipse transform="matrix(0.3335 -0.9428 0.9428 0.3335 343.5294 723.194)" fill="#ED1C24" cx="683.221" cy="118.647" rx="5.043" ry="4.002"/>
		</g>
		<g>
			<path d="M682.623,125.051L682.623,125.051c-0.537,0-1.07-0.089-1.572-0.268c-1.416-0.5-2.535-1.683-3.068-3.242
				c-0.506-1.461-0.471-3.135,0.086-4.716c0.967-2.741,3.283-4.584,5.75-4.584c0.543,0,1.07,0.094,1.572,0.27
				c1.416,0.5,2.535,1.681,3.068,3.239c0.506,1.46,0.475,3.138-0.08,4.717C687.406,123.21,685.096,125.051,682.623,125.051z
				 M683.818,115.173c-1.191,0-2.449,1.106-2.986,2.629c-0.336,0.946-0.363,1.963-0.082,2.789c0.139,0.416,0.498,1.153,1.277,1.429
				c1.309,0.463,2.955-0.742,3.588-2.526c0.33-0.947,0.357-1.965,0.076-2.792c-0.145-0.415-0.498-1.152-1.277-1.426
				C684.223,115.208,684.025,115.173,683.818,115.173z"/>
		</g>
	</g>
	<g>
		<g>
			<path fill="#E46925" d="M784.516,158.094c-0.627,1.781-2.283,2.824-3.699,2.322c-1.416-0.499-2.047-2.349-1.416-4.131
				c0.633-1.785,2.289-2.825,3.699-2.323C784.516,154.461,785.146,156.312,784.516,158.094"/>
		</g>
	</g>
	<g>
		<g>
			<path fill="#F79756" d="M784.082,157.468c0.125-0.591,0.201-1.133-0.076-1.715c-0.412-0.869-1.264-1.226-2.186-1.156
				c-0.875,0.067-1.371,0.756-1.734,1.46c-0.281,0.549-0.479,1.029-0.354,1.668c0.143,0.759,0.693,1.399,1.424,1.659
				c0.551,0.193,1.16,0.159,1.684-0.09C783.615,158.922,783.92,158.264,784.082,157.468"/>
		</g>
	</g>
	<g>
		<g>
			<path fill="#FFFFFF" d="M780.928,155.589c-0.039,0.042-0.08,0.08-0.121,0.12c-0.51,0.515-0.652,1.284-0.156,1.871
				c0.555,0.656,1.613,0.607,2.102-0.097c0.035-0.047,0.066-0.098,0.098-0.142C783.678,156.146,781.998,154.515,780.928,155.589"/>
		</g>
	</g>
	<g>
		<g>
			<path fill="#FECF0A" d="M645.176,125.77l-1.791,20.454l118.92,42.045l10.158-20.392
				C772.463,167.876,695.029,125.218,645.176,125.77"/>
		</g>
	</g>
	<g>
		<g>
			<path fill="#FEEB40" d="M641.719,145.166l0.143,4.721c0,0,86.418,24.946,120.457,41.55l3.404-4.482
				C765.723,186.954,712.291,162.344,641.719,145.166"/>
		</g>
	</g>
	<g>
		<g>
			<path fill="#FEEB40" d="M643.51,124.063l0.135,4.108c0,0,65.152,6.637,129.67,41.785l2.137-2.195
				C775.451,167.762,733.986,136.245,643.51,124.063"/>
		</g>
	</g>
	<g>
		<g>
			<path fill="#FFFFFF" d="M719.922,142.479c-0.945-0.232-1.912-0.558-2.857-0.214c-0.43,0.153-0.658,0.802-0.426,1.19
				c0.525,0.862,1.479,1.221,2.361,1.633C720.617,145.851,721.664,142.901,719.922,142.479"/>
		</g>
	</g>
	<g>
		<g>
			<path fill="#FEEC86" d="M652.646,146.07c0,0,7.91-6.369,5.168-12.888c0,0,10.992,0.635,18.551,2.824c0,0-8.199,5.379-1.539,14.53
				C674.826,150.537,656.152,146.741,652.646,146.07"/>
		</g>
	</g>
	<g>
		<g>
			<path fill="#FEEC86" d="M685.064,138.745c0,0,2.938,9.496-4.023,13.992l16.707,5.907c0,0-6.379-11.062,4.734-15.798
				C702.482,142.846,689.041,138.661,685.064,138.745"/>
		</g>
	</g>
	<g>
		<g>
			<path fill="#FEEC86" d="M715.873,147.582c0,0,3.561,10.299-5.338,15.582c0,0,17.584,5.549,20.4,6.546
				c0,0-8.943-10.263,4.031-15.377C734.967,154.333,722.969,148.877,715.873,147.582"/>
		</g>
	</g>
	<g>
		<g>
			<path fill="#D2AB2A" d="M654.936,139.599c-1.6,4.53-6.025,7.097-9.877,5.734c-3.852-1.36-5.674-6.139-4.076-10.667
				c1.604-4.529,6.025-7.097,9.877-5.734S656.539,135.068,654.936,139.599"/>
		</g>
	</g>
	<g>
		<g>
			<path fill="#FECF0A" d="M649.779,138.289c0-0.056,0.006-0.119,0.01-0.209c-0.117,0.373-0.107,0.341,0.014-0.096
				c0.166-0.588,0.451-1.161,0.672-1.73c0.766-1.944,0.533-4.043-1.551-4.992c-2.145-0.98-3.949,0.849-5.115,2.397
				c-1.209,1.622-1.473,3.963-1.258,5.896c0.229,1.988,2.455,3.273,4.305,2.918C648.857,142.086,649.99,140.232,649.779,138.289"/>
		</g>
	</g>
	<g>
		<g>
			<path fill="#FEEC86" d="M647.895,136.6c0.08-0.234,0.139-0.474,0.17-0.719c0.004-0.136,0.117-0.585-0.021-0.052
				c0.205-0.788,0.322-2.022-0.498-2.512c-1.08-0.644-2.303-0.243-3.076,0.675c-0.699,0.832-1.098,2.261-0.484,3.256
				c0.389,0.635,0.904,1.095,1.688,1.15c0.736,0.054,1.367-0.298,1.811-0.864c0.152-0.183,0.268-0.39,0.35-0.62
				C647.961,136.276,647.984,136.172,647.895,136.6"/>
		</g>
	</g>
	<g>
		<g>
			<path fill="#D2AB2A" d="M682.793,145.162c-1.016,2.872-3.82,4.5-6.262,3.636c-2.445-0.863-3.6-3.895-2.584-6.768
				c1.012-2.871,3.82-4.499,6.262-3.634C682.654,139.258,683.811,142.288,682.793,145.162"/>
		</g>
	</g>
	<g>
		<g>
			<path fill="#FECF0A" d="M680.326,145.146c0.025-0.138,0.057-0.272,0.084-0.409c0.014-0.048,0.023-0.096,0.035-0.146
				c0-0.007,0-0.011,0-0.018c0-0.004,0-0.005,0-0.012c0.014-0.051,0.023-0.101,0.031-0.152c-0.004,0.016-0.004,0.035-0.008,0.054
				c0.104-0.536,0.166-1.06,0.027-1.618c-0.273-1.084-0.973-2.059-2.174-2.164c-1.678-0.146-2.955,1.273-3.336,2.772
				c-0.377,1.486,0.17,3.043,1.715,3.589c0.703,0.248,1.479,0.206,2.15-0.113c0.855-0.41,1.291-1.111,1.51-1.959
				C680.348,145.029,680.338,145.088,680.326,145.146"/>
		</g>
	</g>
	<g>
		<g>
			<path fill="#FEEC86" d="M678.238,142.033c-0.148-0.126-0.447-0.251-0.65-0.244c-0.012,0-0.021,0.001-0.035,0.001
				c-0.561,0.016-1.254,0.286-1.389,0.911c-0.014,0.047-0.021,0.093-0.031,0.141c-0.16,0.719,0.062,1.457,0.824,1.725
				c0.758,0.27,1.398-0.165,1.725-0.823c0.021-0.045,0.045-0.087,0.062-0.129C679.035,143.041,678.658,142.393,678.238,142.033"/>
		</g>
	</g>
	<g>
		<g>
			<path fill="#D2AB2A" d="M713.432,154.963c-1.598,4.528-6.018,7.099-9.871,5.736c-3.852-1.364-5.678-6.139-4.074-10.669
				c1.598-4.528,6.023-7.098,9.871-5.734C713.209,145.657,715.035,150.435,713.432,154.963"/>
		</g>
		<g>
			<path d="M705.693,162.528c-0.896,0-1.777-0.151-2.621-0.447c-4.607-1.633-6.838-7.258-4.971-12.54
				c1.496-4.232,5.164-7.077,9.123-7.077c0.9,0,1.779,0.151,2.621,0.45c2.275,0.803,4.039,2.581,4.961,5.004
				c0.896,2.339,0.9,5.015,0.006,7.533C713.316,159.685,709.652,162.528,705.693,162.528z M707.225,145.394
				c-2.678,0-5.293,2.109-6.359,5.124c-1.33,3.762,0.098,7.709,3.18,8.8c0.529,0.187,1.084,0.281,1.648,0.281
				c2.678,0,5.293-2.108,6.359-5.123c0.658-1.864,0.668-3.821,0.018-5.511c-0.613-1.607-1.75-2.776-3.201-3.289
				C708.344,145.489,707.789,145.394,707.225,145.394z"/>
		</g>
	</g>
	<g>
		<g>
			<path fill="#D2AB2A" d="M739.105,164.037c-1.018,2.874-3.82,4.504-6.266,3.64c-2.441-0.863-3.598-3.896-2.584-6.768
				c1.016-2.87,3.82-4.499,6.26-3.637C738.961,158.137,740.117,161.166,739.105,164.037"/>
		</g>
	</g>
	<g>
		<g>
			<path fill="#FECF0A" d="M736.947,162.466c0.102-0.428,0.201-0.861,0.264-1.301c0.152-1.025-0.48-2.142-1.295-2.712
				c-0.959-0.671-2.006-0.63-3.055-0.249c-1.93,0.699-3.256,3.638-2.123,5.47c0.623,1.009,1.438,1.74,2.684,1.83
				c1.191,0.083,2.141-0.486,2.875-1.374C736.713,163.625,736.834,163.062,736.947,162.466"/>
		</g>
	</g>
	<g>
		<g>
			<path fill="#FEEC86" d="M733.682,160.591c-0.197-0.467-0.789-0.759-1.277-0.643c-1.053,0.244-1.621,1.14-1.451,2.2
				c0.166,1.008,1.457,1.434,2.209,0.782C733.879,162.307,734.035,161.449,733.682,160.591"/>
		</g>
	</g>
	<g>
		<g>
			<path fill="#D2AB2A" d="M771.676,178.929c-1.604,4.529-6.025,7.097-9.877,5.735c-3.852-1.364-5.678-6.139-4.076-10.667
				c1.6-4.531,6.025-7.096,9.877-5.735C771.451,169.625,773.273,174.401,771.676,178.929"/>
		</g>
	</g>
	<g>
		<g>
			<path fill="#FECF0A" d="M764.705,175.543c0.57-1.396,1.287-2.527,1.533-4.045c0.152-0.94-0.766-1.961-1.703-1.965
				c-4.936-0.008-8.275,7.398-5.348,11.243c1.268,1.665,3.986,1.022,4.645-0.848C764.344,178.464,764.109,176.99,764.705,175.543"/>
		</g>
	</g>
	<g>
		<g>
			<path fill="#FEEC86" d="M763.547,174.057c0.146-0.512,0.295-1.004,0.16-1.537c-0.188-0.728-0.713-1.216-1.469-1.303
				c-2.248-0.258-4.287,3.573-2.227,5.008c1.205,0.837,2.508-0.042,3.02-1.214c0.018-0.03,0.104-0.207,0.143-0.284
				C763.312,174.511,763.471,174.316,763.547,174.057"/>
		</g>
	</g>
	<g>
		<g>
			<path d="M762.977,194.203l-1.621-0.792c-33.479-16.333-119.238-41.164-120.104-41.413l-1.535-0.444l-0.26-8.44
				c-1.412-2.634-1.676-5.99-0.543-9.181c0.568-1.608,1.455-3.061,2.58-4.255l-0.264-8.143l0.967,0.132
				c-0.055-0.571-0.111-1.173-0.17-1.808c-2.5-0.931-3.705-4.012-2.68-6.908c0.373-1.054,0.996-1.966,1.783-2.644
				c-1.078-11.4-2.453-25.759-3.332-34.884c-0.326-0.062-0.654-0.15-0.973-0.262c-4.105-1.451-6.045-6.604-4.316-11.483
				c1.393-3.954,4.729-6.606,8.299-6.606c0.779,0,1.545,0.131,2.275,0.39c2.051,0.725,3.672,2.433,4.443,4.688
				c0.725,2.105,0.676,4.52-0.125,6.796c-0.387,1.093-0.945,2.119-1.641,3.021c11.855,26.454,18.564,33.545,20.473,33.572
				c2.725,0,5.084-2.403,6.805-4.91c-2.109-2.315-2.787-6.048-1.541-9.581c1.396-3.954,4.734-6.606,8.303-6.606
				c0.779,0,1.541,0.129,2.271,0.387c4.107,1.454,6.047,6.605,4.316,11.484c-0.514,1.458-1.32,2.777-2.35,3.849
				c2.588,4.272,7.197,9.235,15.191,11.423c7.775,2.128,22.232-16.827,37.402-48.407c-2.248-2.298-3-6.141-1.715-9.773
				c1.396-3.953,4.729-6.605,8.299-6.605c0.779,0,1.541,0.131,2.271,0.389c4.105,1.451,6.045,6.603,4.32,11.482
				c-1.338,3.788-4.473,6.378-7.891,6.567c-8.967,31.74-10.768,53.973-4.547,56.844c2.021,0.932,4.309,1.405,6.812,1.405
				c6.051,0,12.33-2.693,16.93-5.253c-0.264-1.682-0.094-3.464,0.516-5.179c1.393-3.949,4.73-6.605,8.299-6.605
				c0.785,0,1.551,0.131,2.281,0.388c2.051,0.727,3.668,2.435,4.441,4.691c0.723,2.107,0.672,4.519-0.129,6.794
				c-1.344,3.794-4.488,6.392-7.906,6.572c-1.084,4.92-2.172,13.119,2.133,14.852c0.305,0.123,0.873,0.269,1.867,0.269
				c6.369,0,20.76-5.787,39.594-15.911c-0.104-1.434,0.098-2.894,0.6-4.306c1.393-3.954,4.734-6.606,8.299-6.606
				c0.783,0,1.545,0.131,2.275,0.387c4.107,1.452,6.047,6.605,4.318,11.485c-1.395,3.949-4.73,6.605-8.301,6.605l0,0
				c-0.779,0-1.545-0.131-2.273-0.387c-0.135-0.048-0.27-0.103-0.4-0.159l-29.773,25.697c-0.01,0.674-0.135,1.349-0.363,2.002
				c-0.828,2.341-2.85,3.915-5.035,3.915c-0.426,0-0.846-0.062-1.248-0.18l-3.781,3.265c0.166,0.123,0.252,0.187,0.252,0.187
				l1.982,1.499l-4.77,4.902c0.676,2.28,0.609,4.839-0.246,7.248c-0.967,2.742-2.795,4.937-5.039,6.242l0.422,0.195L762.977,194.203
				z M644.012,148.225c11.59,3.388,85.396,25.203,117.641,40.454l0.645-0.85l-1.824-0.809l2.088-4.194l1.365,0.001
				c2.383,0,4.713-1.904,5.676-4.631c0.756-2.131,0.561-4.393-0.512-6.047l-0.684-1.055l2.037-4.093l-1.133-0.755l10.793-9.317
				l1.443,1.398c0.139,0,0.654-0.264,0.9-0.965c0.115-0.325,0.139-0.672,0.07-0.977l-0.295-1.288l30.379-26.216
				c-12.158,6.447-30.895,15.53-39.986,15.532c-1.383,0-2.529-0.194-3.512-0.59c-4.102-1.653-8.188-6.786-4.309-21.851l0.242-0.928
				l-0.26,0.154c-5.15,3.047-12.898,6.683-20.594,6.683c-3.145,0-6.055-0.608-8.656-1.809c-9.209-4.251-6.746-26.02-1.51-48.004
				c-9.693,18.12-22.811,38.065-33.588,38.069l0,0c-0.805,0-1.598-0.107-2.363-0.315c-10.486-2.87-15.994-9.814-18.771-15.136
				l-0.523-1.011l-0.936,1.591c-3.334,5.669-7.324,8.667-11.543,8.668c-2.158-0.029-8.291-0.114-24.154-35.306
				c0.904,9.457,2.383,24.85,3.494,36.596l0.152,1.627l-1.514,0.616c-0.238,0.098-0.588,0.405-0.779,0.95
				c-0.26,0.734-0.031,1.263,0.08,1.329l2.4-0.49l0.264,2.423c0.238,2.528,0.439,4.701,0.588,6.345l0.211,2.338l0.285,0.033
				l-0.398,4.634L646,131.61c-1.336,0.835-2.375,2.183-2.943,3.788c-1.002,2.833-0.268,5.914,1.742,7.327l1.035,0.729l-0.43,4.893
				l-1.402-0.349L644.012,148.225z M817.068,126.039l0.818,0.669c0.273,0.221,0.498,0.358,0.703,0.431
				c1.773,0.629,4.086-1.047,4.973-3.537c0.9-2.554,0.146-5.244-1.645-5.877c-1.787-0.631-4.088,1.05-4.971,3.54
				c-0.52,1.478-0.395,2.722-0.201,3.504L817.068,126.039z M766.277,120.044l1.264,0.368c1.773,0.517,3.982-1.134,4.838-3.555
				c0.469-1.326,0.51-2.748,0.115-3.903c-0.197-0.575-0.689-1.596-1.756-1.972c-1.777-0.626-4.088,1.05-4.967,3.54
				c-0.482,1.364-0.506,2.826-0.059,4.012L766.277,120.044z M679.801,88.834c-1.656,0-3.404,1.547-4.16,3.677
				c-0.834,2.357-0.246,4.859,1.334,5.699l1.43,0.761l-0.014-0.024l1.621-1.096c0.998-0.678,1.791-1.744,2.234-3.002
				c0.906-2.554,0.152-5.243-1.639-5.878C680.352,88.88,680.078,88.834,679.801,88.834z M640.809,61.466
				c-1.656,0-3.404,1.546-4.16,3.676c-0.9,2.552-0.148,5.245,1.643,5.876c0.373,0.132,0.789,0.166,1.197,0.104l1.137-0.163
				l1.035-0.986c0.707-0.669,1.258-1.532,1.598-2.494c0.471-1.328,0.512-2.749,0.117-3.904c-0.197-0.574-0.689-1.593-1.756-1.973
				C641.359,61.513,641.086,61.466,640.809,61.466z M740.654,60.711l0.221,0.06c1.768,0.471,3.945-1.167,4.791-3.564
				c0.9-2.552,0.152-5.241-1.639-5.875c-1.787-0.626-4.084,1.05-4.967,3.539c-0.838,2.364-0.246,4.871,1.34,5.707L740.654,60.711z"
				/>
		</g>
	</g>
	<g>
		<g>
			<path fill="#ED1C24" d="M644.871,108.955c-2.082-0.739-4.523,0.795-5.451,3.419c-0.932,2.625,0.004,5.351,2.088,6.088
				c2.082,0.739,4.527-0.793,5.455-3.42C647.891,112.417,646.953,109.689,644.871,108.955z"/>
		</g>
		<g>
			<path d="M642.592,120.111L642.592,120.111c-0.537,0-1.07-0.09-1.572-0.269c-2.84-1.003-4.18-4.572-2.982-7.957
				c0.971-2.741,3.281-4.582,5.75-4.582c0.537,0,1.07,0.09,1.572,0.27c2.84,1.001,4.178,4.572,2.982,7.957
				C647.375,118.271,645.068,120.111,642.592,120.111z M643.787,110.233c-1.191,0-2.449,1.106-2.988,2.63
				c-0.645,1.829-0.098,3.759,1.197,4.216c1.299,0.467,2.951-0.739,3.588-2.524c0.645-1.832,0.094-3.763-1.201-4.219
				C644.189,110.268,643.992,110.233,643.787,110.233z"/>
		</g>
	</g>
	<g>
		<g>
			<path fill="#ED1C24" d="M783.643,152.435c-2.082-0.738-4.523,0.793-5.455,3.421c-0.928,2.625,0.008,5.352,2.086,6.088
				c2.088,0.739,4.533-0.795,5.461-3.421C786.656,155.895,785.725,153.168,783.643,152.435z"/>
		</g>
		<g>
			<path d="M781.363,163.594L781.363,163.594c-0.543,0-1.07-0.092-1.572-0.27c-2.84-1.002-4.18-4.573-2.982-7.957
				c0.967-2.742,3.277-4.584,5.75-4.584c0.537,0,1.066,0.091,1.568,0.27c2.844,1.001,4.182,4.571,2.982,7.957
				C786.146,161.752,783.836,163.594,781.363,163.594z M782.559,153.713c-1.191,0-2.449,1.106-2.988,2.629
				c-0.645,1.83-0.098,3.762,1.197,4.219c1.299,0.459,2.951-0.739,3.582-2.527c0.645-1.831,0.1-3.763-1.195-4.22
				C782.961,153.747,782.764,153.713,782.559,153.713z"/>
		</g>
	</g>
	<g>
		<g>
			<path fill="#ED1C24" d="M741.152,132.001c-2.078-0.739-4.523,0.795-5.451,3.419c-0.928,2.628,0.004,5.351,2.092,6.088
				c2.078,0.74,4.523-0.793,5.451-3.42C744.17,135.463,743.234,132.736,741.152,132.001z"/>
		</g>
		<g>
			<path d="M738.873,143.159L738.873,143.159c-0.539,0-1.066-0.091-1.572-0.269c-2.84-1.005-4.176-4.571-2.984-7.957
				c0.977-2.742,3.283-4.583,5.752-4.583c0.541,0,1.07,0.092,1.576,0.27c2.836,1.001,4.174,4.572,2.982,7.958
				C743.656,141.317,741.35,143.159,738.873,143.159z M740.068,133.281c-1.191,0-2.449,1.105-2.988,2.63
				c-0.645,1.829-0.098,3.76,1.197,4.217c1.299,0.465,2.955-0.741,3.586-2.526c0.646-1.831,0.1-3.763-1.199-4.219
				C740.471,133.314,740.273,133.281,740.068,133.281z"/>
		</g>
	</g>
	<g>
		<g>
			<path fill="#D2AB2A" d="M652.816,139.223c-1.604,4.532-6.02,7.098-9.871,5.736c-3.852-1.363-5.68-6.139-4.08-10.67
				c1.598-4.527,6.023-7.094,9.875-5.733C652.592,129.918,654.42,134.695,652.816,139.223"/>
		</g>
		<g>
			<path d="M645.076,146.788c-0.898,0-1.781-0.151-2.623-0.448c-2.275-0.804-4.035-2.583-4.963-5.004
				c-0.891-2.34-0.896-5.018-0.004-7.535c1.494-4.232,5.158-7.075,9.117-7.075c0.9,0,1.783,0.152,2.625,0.449
				c2.275,0.804,4.035,2.58,4.963,5.004c0.896,2.338,0.896,5.014,0.004,7.531C652.699,143.945,649.037,146.788,645.076,146.788z
				 M646.604,129.655c-2.678,0-5.293,2.106-6.355,5.122c-0.662,1.866-0.666,3.822-0.021,5.512c0.613,1.607,1.752,2.774,3.203,3.289
				c0.527,0.186,1.084,0.28,1.646,0.28c2.68,0,5.291-2.106,6.361-5.123c0.658-1.864,0.666-3.819,0.018-5.51
				c-0.613-1.605-1.752-2.773-3.203-3.288C647.725,129.752,647.174,129.655,646.604,129.655z"/>
		</g>
	</g>
	<g>
		<g>
			<path fill="#D2AB2A" d="M773.605,179.021c-1.6,4.531-6.023,7.097-9.875,5.735c-3.854-1.36-5.676-6.137-4.076-10.667
				c1.604-4.527,6.023-7.097,9.875-5.734C773.381,169.717,775.205,174.494,773.605,179.021"/>
		</g>
		<g>
			<path d="M765.861,186.588c-0.896,0-1.777-0.151-2.619-0.449c-4.609-1.631-6.836-7.255-4.973-12.537
				c1.5-4.233,5.164-7.078,9.129-7.078c0.895,0,1.777,0.153,2.619,0.449c2.275,0.805,4.035,2.581,4.963,5.006
				c0.896,2.338,0.896,5.013,0.004,7.531C773.488,183.742,769.82,186.588,765.861,186.588z M767.398,169.454
				c-2.684,0-5.295,2.107-6.361,5.123c-1.33,3.762,0.096,7.707,3.182,8.801c0.527,0.186,1.078,0.28,1.643,0.28
				c2.678,0,5.295-2.107,6.359-5.123c0.664-1.866,0.668-3.819,0.023-5.511c-0.613-1.606-1.752-2.776-3.203-3.288
				C768.514,169.55,767.963,169.454,767.398,169.454z"/>
		</g>
	</g>
	<g>
		<g>
			<path fill="#D2AB2A" d="M739.172,164.064c-1.029,2.917-3.879,4.573-6.359,3.693c-2.48-0.878-3.654-3.955-2.625-6.871
				c1.031-2.917,3.879-4.571,6.359-3.694C739.029,158.07,740.203,161.147,739.172,164.064"/>
		</g>
		<g>
			<path d="M734.188,169.09c-0.596,0-1.182-0.1-1.742-0.298c-1.51-0.533-2.678-1.711-3.287-3.313
				c-0.592-1.542-0.592-3.303-0.01-4.96c0.986-2.786,3.408-4.66,6.023-4.66c0.596,0,1.184,0.102,1.738,0.298
				c1.514,0.533,2.678,1.709,3.293,3.314c0.59,1.542,0.59,3.301,0.004,4.958C739.221,167.217,736.803,169.09,734.188,169.09z
				 M735.172,158.057c-1.656,0-3.287,1.313-3.949,3.196c-0.412,1.166-0.416,2.388-0.014,3.442c0.377,0.992,1.074,1.712,1.971,2.025
				c1.877,0.663,4.152-0.748,4.953-3.023c0.416-1.165,0.422-2.388,0.018-3.442c-0.381-0.992-1.078-1.711-1.971-2.027
				C735.857,158.114,735.518,158.057,735.172,158.057z"/>
		</g>
	</g>
	<g>
		<g>
			<path fill="#D2AB2A" d="M682.859,145.25c-1.029,2.918-3.877,4.572-6.359,3.696c-2.48-0.878-3.654-3.955-2.625-6.872
				c1.031-2.916,3.879-4.568,6.361-3.693C682.717,139.258,683.895,142.335,682.859,145.25"/>
		</g>
		<g>
			<path d="M677.871,150.28c-0.592,0-1.178-0.101-1.738-0.299c-3.045-1.078-4.523-4.791-3.291-8.273
				c0.984-2.787,3.402-4.66,6.02-4.66c0.6,0,1.182,0.1,1.736,0.298c1.514,0.535,2.68,1.711,3.293,3.313
				c0.592,1.542,0.592,3.303,0.004,4.96C682.914,148.405,680.49,150.28,677.871,150.28z M678.861,139.246
				c-1.658,0-3.283,1.313-3.947,3.195c-0.832,2.341,0.045,4.795,1.953,5.471c1.877,0.661,4.156-0.752,4.959-3.025
				c0.412-1.166,0.416-2.388,0.014-3.442c-0.381-0.991-1.076-1.711-1.971-2.027C679.547,139.303,679.211,139.246,678.861,139.246z"
				/>
		</g>
	</g>
	<g>
		<g>
			<g>
				<path d="M354.891,199.986c0.515-0.694,0.819-1.083,0.819-1.083C355.486,199.081,355.208,199.464,354.891,199.986z"/>
			</g>
		</g>
		<g>
			<g>
				<path d="M367.476,155.084c-13.423-6.543-27.366,28.545-35.687,48.309c5.24-6.797,12.209-16.495,15.568-24.012l13.387-17.458
					c0,0,2.024-1.72,4.739,0.15c2.719,1.865,48.806,24.677,11.685,48.923l-34.146,36.075c0,0-6.579-1.417-4.694-5.454
					c1.751-3.735,12.595-35.091,16.563-41.63c-4.748,6.36-28.602,39.202-24.016,51.174c0,0,8.111,8.245,9.961,6.847
					c1.845-1.394,40.856-36.787,40.856-36.787s16.965-16.494,19.89-30.216c6.803,2.708,13.096,17.793,13.096,17.793
					c10.314,24.424-59.528,49.722-59.528,49.722s7.417,6.66,18.054,1.53c9.817-4.731,30.142-6.905,44.631-30.391l0.009,0.007
					c6.302,11.469-5.352,28.518-12.559,35.115c-7.207,6.603-39.758,0.941-39.758,0.941s3.453,2.046,7.721,4.48
					c7.135,0.222,18.923,3.205,18.923,3.205c35.364-2.632,29.35-40.867,28.301-46.341c-0.076-0.42-0.13-0.654-0.13-0.654
					c0.394-1.036,0.703-2.041,0.972-3.03c6.27-22.794-18.188-33.111-18.188-33.111c0.049-1.375-0.152-2.753-0.533-4.124
					c-0.39-1.422-0.976-2.836-1.747-4.237c-0.175-0.318-0.358-0.636-0.556-0.953c-0.081-0.135-0.147-0.274-0.242-0.405
					C391.397,166.852,367.476,155.084,367.476,155.084z"/>
			</g>
		</g>
		<g>
			<g>
				<path d="M309.883,255.838c0,0-2.262-1.556-1.688-2.72c0.515-1.031-27.227-73.19-66.716-87.495
					c42.231,35.89,57.41,83.231,58.023,86.564c0.757,4.075,8.505,8.961,8.505,8.961c13.042,8.331,19.371,14.193,22.439,18.047
					c9.038,0.02,17.351,2.717,17.351,2.717l-2.741-2.04c0,0-19.058-11.921-21.548-17.784
					C323.507,262.089,313.538,255.696,309.883,255.838z"/>
			</g>
		</g>
	</g>
	<g>
		<g>
			<g>
				<path fill="#FED5AC" d="M678.557,639.666c-3.57,98.418-76.199,155.227-135.278,153.176
					c-67.017-2.32-127.973-65.409-124.408-163.817c0.461-12.644,1.953-25.26,4.362-37.635l15.157,22.009l21.417-4.309l13.665,5.585
					l26.931-16.128l13.078,21.735l10.288-3.323l16.034,16.755l29.408-20.656l28.118,14.883l29.717-16.481l9.84,9.947l25.342-11.448
					l16.4,14.995C678.754,629.862,678.73,634.771,678.557,639.666z"/>
			</g>
		</g>
	</g>
	<g>
		<g>
			<path fill="#DFB285" d="M678.627,624.953l-16.4-14.995l-25.342,11.448l-5.234-5.299c-2.348,17.374-7.238,35.109-14.854,52.519
				c-27.732,63.425-83.193,103.281-135.814,102.95c18.704,13.109,40.17,20.5,62.296,21.266
				c59.079,2.051,131.708-54.758,135.278-153.176C678.73,634.771,678.754,629.862,678.627,624.953z"/>
		</g>
	</g>
	<g>
		<g>
			<g>
				<path d="M546.382,795.09c-1.066,0-2.123-0.009-3.18-0.049c-31.464-1.089-61.414-15.246-84.332-39.853
					c-29.032-31.159-44.013-75.997-42.195-126.24c0.457-12.54,1.935-25.313,4.398-37.984l1.003-5.133l17.297,25.126l20.647-4.147
					l13.262,5.411l27.867-16.684l13.315,22.12l9.938-3.211l15.681,16.384l28.964-20.343l28.251,14.959l30.135-16.72l9.938,10.046
					l25.266-11.412l18.162,16.599l0.025,0.937c0.127,4.998,0.104,9.996-0.076,14.855c-1.615,44.592-17.977,85.188-46.082,114.317
					C609.516,780.145,577.339,795.09,546.382,795.09z M424.433,597.01c-1.85,10.728-2.983,21.499-3.364,32.1
					c-1.778,49.075,12.787,92.779,41.013,123.087c22.121,23.747,50.982,37.402,81.272,38.455
					c30.106,1.013,63.353-13.925,88.151-39.633c27.348-28.351,43.279-67.921,44.852-111.429c0.166-4.461,0.197-9.056,0.098-13.646
					l-14.645-13.392l-25.408,11.488l-9.752-9.854l-29.299,16.254l-27.98-14.812l-29.851,20.97l-16.388-17.127l-10.632,3.439
					l-12.85-21.354l-25.99,15.563l-14.073-5.737l-22.188,4.461L424.433,597.01z"/>
			</g>
		</g>
	</g>
</g>
</svg>
