<?xml version="1.0" encoding="utf-8"?>
<!-- Generator: Adobe Illustrator 16.0.0, SVG Export Plug-In . SVG Version: 6.00 Build 0)  -->
<!DOCTYPE svg PUBLIC "-//W3C//DTD SVG 1.1//EN" "http://www.w3.org/Graphics/SVG/1.1/DTD/svg11.dtd">
<svg version="1.1" id="Layer_1" xmlns="http://www.w3.org/2000/svg" xmlns:xlink="http://www.w3.org/1999/xlink" x="0px" y="0px"
	 width="1190.55px" height="841.89px" viewBox="0 0 1190.55 841.89" enable-background="new 0 0 1190.55 841.89"
	 xml:space="preserve">
<g>
	<g>
		<g>
			<g>
				<path fill="#020202" d="M622.906,274.891c-34.234,0-79.795-5.039-102.443-29.048c-10.423-11.051-15.214-25.137-14.235-41.868
					l0.037-0.639l0.248-0.589c0.146-0.342,14.71-34.55,31.228-68.601c34.212-70.511,43.286-71.7,47.161-72.205
					c1.827-0.242,3.363-0.352,4.838-0.352c21.92,0,48.356,24.796,93.022,204.687l0.972,3.898l-3.973,0.635
					C679.504,270.85,653.855,274.891,622.906,274.891z M513.556,205.036c-0.698,14.346,3.429,26.366,12.272,35.744
					c20.842,22.095,64.296,26.731,97.078,26.731c23.253,0,43.438-2.32,51.708-3.425c-43.71-174.792-69.355-195.119-84.876-195.119
					c-1.145,0-2.376,0.093-3.877,0.289C578.433,70.234,548.708,122.403,513.556,205.036z"/>
			</g>
		</g>
		<g>
			<g>
				<polygon fill="#67318F" points="531.309,162.026 538.404,168.24 566.16,151.369 576.948,168.24 600.596,143.989 
					615.349,163.666 647.75,156.115 636.665,134.971 620.724,141.531 606.327,115.293 582.978,141.768 575.32,125.131 
					551.403,145.631 546.816,137.43 				"/>
			</g>
			<g>
				<path d="M576.544,172.177l-11.157-17.456l-27.246,16.558l-10.037-8.786l18.84-29.876l5.136,9.192l24.11-20.664l7.443,16.163
					l23.167-26.268l15.02,27.38l15.984-6.577l13.599,25.947l-37.056,8.636l-14-18.663L576.544,172.177z M534.507,161.562
					l4.162,3.641l28.268-17.185l10.414,16.286l23.486-24.088l15.517,20.69l27.741-6.465l-8.567-16.344l-15.906,6.542l-13.767-25.094
					l-23.534,26.682l-7.873-17.108l-23.729,20.333l-4.027-7.209L534.507,161.562z"/>
			</g>
		</g>
		<g>
			<g>
				<path fill="#8EC244" d="M523.981,192.362c0,0,76.615-33.614,127.444,0l8.832,24.598c0,0-43.397-38.388-104.004-6.077
					L523.981,192.362z"/>
			</g>
			<g>
				<path d="M665.801,225.119l-7.174-6.315c-0.202-0.186-21.267-18.401-53.731-18.401c-15.767,0-31.745,4.257-47.483,12.651
					l-1.206,0.64l-37.679-21.622l4.466-1.961c1.405-0.617,34.959-15.148,72.797-15.148c22.418,0,41.59,5.166,56.986,15.349
					l0.688,0.452L665.801,225.119z M604.896,195.482c23.678,0,41.331,8.921,50.333,14.747l-5.843-16.26
					c-14.465-9.348-32.493-14.088-53.595-14.088c-28.763,0-55.659,8.927-66.171,12.882l26.682,15.313
					C572.378,199.72,588.722,195.482,604.896,195.482z"/>
			</g>
		</g>
		<g>
			<g>
				<path fill="#FBEC20" d="M647.75,155.358l-32.401,7.553l-14.753-19.678l-23.647,24.249l-10.788-16.871l-27.756,16.871
					l-7.095-6.215l15.507-24.597l4.587,8.199l23.917-20.499l7.657,16.638l23.35-26.475l14.396,26.239l15.941-6.561l11.085,21.141
					c-30.156-89.878-48.963-92.271-62.371-90.512c-17.552,2.299-75.469,138.589-75.469,138.589
					c-5.311,90.867,169.271,62.979,169.271,62.979C667.498,219.36,657.084,183.173,647.75,155.358z M523.981,191.604
					c0,0,76.615-33.613,127.444,0l8.832,24.598c0,0-43.397-38.389-104.004-6.078L523.981,191.604z M590.101,228.768
					c0,0,9.672-12.566,14.59-8.47c4.921,4.103,20.714,20.389,43.06,3.823c0,0,12.326,18.737,12.507,26.312L590.101,228.768z"/>
			</g>
			<g>
				<path fill="#020202" d="M622.913,272.904C622.913,272.904,622.918,272.904,622.913,272.904
					c-33.993,0-79.206-4.975-101.555-28.666c-10.184-10.795-14.862-24.572-13.904-40.951l0.023-0.426l0.168-0.391
					c9.763-22.979,59.382-137.706,77.416-140.066c1.771-0.233,3.257-0.342,4.673-0.342c14.365,0,32.668,10.802,59.635,90.392l0,0
					l0.199,0.601c0.17,0.502,0.342,1.009,0.512,1.515l-0.002,0.003l0.002,0.003c9.862,29.384,20.451,66.808,31.488,111.242
					l0.646,2.598l-2.645,0.423C679.315,268.879,653.763,272.904,622.913,272.904z M512.344,203.998
					c-0.775,14.787,3.465,27.188,12.589,36.867c21.146,22.415,64.952,27.118,97.98,27.118c24.718,0,45.972-2.612,53.225-3.618
					c-3.514-14.079-6.982-27.445-10.396-40.056l-7.115-6.265c-0.202-0.186-21.267-18.401-53.731-18.401
					c-15.767,0-31.745,4.255-47.483,12.651l-1.206,0.64l-37.679-21.622l4.466-1.962c1.41-0.616,34.959-15.146,72.797-15.146
					c22.418,0,41.59,5.164,56.986,15.349l0.688,0.451l12.163,33.866c-6.748-24.902-13.271-46.857-19.504-65.608l-31.776,7.407
					l-14-18.662l-23.804,24.414l-11.157-17.458l-27.246,16.559l-7.99-6.999C524.594,175.687,518.654,189.154,512.344,203.998z
					 M604.896,194.724c23.678,0,41.331,8.922,50.333,14.747l-5.843-16.259c-14.465-9.349-32.493-14.089-53.595-14.089
					c-28.763,0-55.659,8.925-66.171,12.882l26.682,15.313C572.378,198.961,588.722,194.724,604.896,194.724z M534.507,160.802
					l4.162,3.645l28.268-17.186l10.414,16.285l23.486-24.087l15.517,20.69l27.744-6.466l-8.57-16.346l-15.906,6.549l-13.767-25.099
					L582.32,145.47l-7.873-17.109l-23.729,20.334l-4.027-7.21L534.507,160.802z M589.735,66.982c-1.199,0-2.479,0.094-4.037,0.298
					c-4.759,0.623-20.698,22.818-46.515,76.889l7.76-12.312l5.136,9.193l24.11-20.666l7.443,16.164l23.167-26.269l15.02,27.381
					l14.831-6.104C615.029,74.925,600.353,66.982,589.735,66.982z M662.797,253.791l-76.804-23.717l2.159-2.806
					c1.318-1.713,8.194-10.252,14.229-10.252c1.447,0,2.793,0.48,3.883,1.393c0.34,0.279,0.723,0.614,1.158,0.99
					c3.836,3.336,10.974,9.548,20.814,9.548c5.886,0,11.962-2.285,18.045-6.801l2.092-1.55l1.428,2.174
					c1.305,1.978,12.723,19.555,12.915,27.604L662.797,253.791z M594.405,227.523l62.625,19.338
					c-1.897-5.749-6.862-14.304-9.967-19.253c-6.257,4.154-12.584,6.259-18.827,6.259c-11.682,0-20.033-7.264-24.045-10.756
					c-0.402-0.352-0.76-0.662-1.076-0.922c-0.214-0.182-0.423-0.253-0.734-0.253C600.387,221.937,597.052,224.716,594.405,227.523z"
					/>
			</g>
		</g>
		<g>
			<g>
				<polygon fill="#67318F" points="647.75,155.358 647.75,155.354 647.75,155.358 				"/>
			</g>
			<g>
				<circle cx="647.75" cy="155.358" r="2.459"/>
			</g>
		</g>
		<g>
			<g>
				<path fill="#020202" d="M622.93,274.887C622.93,274.887,622.932,274.887,622.93,274.887c-33.548,0-78.367-4.846-101.376-27.937
					c-10.302-10.341-15.495-23.468-15.441-39.017c-0.013-1.512,0.019-3.092,0.115-4.721l0.037-0.637l0.248-0.589
					c0.146-0.34,14.71-34.549,31.228-68.602C571.952,62.88,581.025,61.69,584.9,61.185c1.827-0.24,3.363-0.352,4.835-0.352
					c14.932,0,33.915,11.09,61.512,93.346c6.083,18.132,12.496,39.472,19.05,63.419l3.576,10.33l-0.96-0.649
					c3.217,12.023,6.521,24.845,9.848,38.242l0.962,3.873l-0.152,0.023l0.149,0.581l-3.96,0.812
					C679.504,270.85,653.865,274.887,622.93,274.887z M513.556,204.276c-0.054,1.237-0.075,2.448-0.066,3.638
					c-0.049,13.563,4.426,24.93,13.295,33.829c21.216,21.296,63.996,25.768,96.145,25.768c23.315,0,43.503-2.329,51.73-3.428
					l-0.162-0.693l0.124-0.021c-3.882-15.508-7.717-30.193-11.414-43.707l-0.759-2.773c-6.267-22.746-12.384-43.04-18.198-60.356
					c-29.63-88.32-47.71-88.32-54.516-88.32c-1.142,0-2.373,0.093-3.874,0.288C578.436,69.478,548.708,121.645,513.556,204.276z"/>
			</g>
		</g>
		<g>
			<g>
				<path fill="#020202" d="M622.381,276.116l-12.745-0.252c-1.017-0.042-2.025-0.088-3.036-0.141l-1.015-0.05
					c-0.97-0.048-1.986-0.111-3.001-0.174l-1.037-0.063c-0.975-0.065-1.99-0.136-2.999-0.217l-1.049-0.082
					c-0.985-0.08-1.997-0.171-3.013-0.265l-1.012-0.094c-1.024-0.097-2.036-0.203-3.044-0.309l-1.01-0.114
					c-1.047-0.118-2.059-0.242-3.077-0.37l-1.007-0.129c-1.009-0.132-2.022-0.271-3.037-0.418l-1.029-0.151
					c-1.004-0.151-2.005-0.31-3.01-0.473l-1.035-0.176c-0.968-0.163-1.973-0.344-2.97-0.527l-1.016-0.195
					c-0.991-0.19-1.986-0.387-2.979-0.595l-0.968-0.205c-1.004-0.219-1.995-0.439-2.98-0.674l-0.951-0.226
					c-0.99-0.237-1.969-0.484-2.942-0.738l-0.854-0.228c-1.054-0.282-2.025-0.552-2.988-0.832l-0.929-0.274
					c-0.959-0.286-1.905-0.582-2.849-0.885l-0.903-0.301c-0.94-0.305-1.876-0.627-2.802-0.957l-0.865-0.317
					c-0.951-0.35-1.867-0.698-2.776-1.059l-0.751-0.302c-1.015-0.414-1.908-0.788-2.796-1.178l-0.812-0.367
					c-0.898-0.403-1.778-0.814-2.64-1.236l-0.801-0.394c-0.867-0.434-1.718-0.877-2.556-1.324l-0.765-0.422
					c-0.849-0.471-1.676-0.945-2.489-1.435l-0.582-0.354c-0.966-0.599-1.772-1.106-2.554-1.629l-0.648-0.443
					c-0.846-0.576-1.622-1.127-2.378-1.691l-0.631-0.486c-0.756-0.579-1.505-1.164-2.229-1.77l-0.592-0.51
					c-0.738-0.632-1.452-1.261-2.139-1.909l-0.428-0.415c-0.815-0.789-1.488-1.463-2.136-2.147l-0.38-0.419
					c-0.778-0.851-1.414-1.565-2.02-2.302l-0.353-0.445c-0.713-0.891-1.306-1.654-1.871-2.439l-0.283-0.415
					c-0.68-0.975-1.223-1.787-1.739-2.619l-0.263-0.45c-0.606-1.015-1.107-1.879-1.567-2.77l-0.217-0.438
					c-0.537-1.062-0.975-1.976-1.384-2.916l-0.181-0.441c-0.465-1.113-0.854-2.088-1.201-3.086l-0.146-0.452
					c-0.379-1.129-0.706-2.159-0.992-3.219l-0.106-0.425c-0.306-1.185-0.567-2.285-0.793-3.417l-0.064-0.374
					c-0.232-1.254-0.431-2.421-0.583-3.618l-0.03-0.314c-0.153-1.293-0.278-2.548-0.352-3.834l-0.009-0.253
					c-0.072-1.306-0.117-2.652-0.11-4.033c-0.013-1.533,0.018-3.143,0.115-4.796l0.053-0.849l0.328-0.783
					c0.147-0.342,14.719-34.579,31.256-68.655c34.504-71.106,43.691-72.311,48.104-72.889c1.882-0.246,3.467-0.36,4.995-0.36
					c22.069,0,40.229,27.285,62.677,94.187c0.677,2.016,1.358,4.078,2.039,6.173l0.643,1.978c0.483,1.494,0.977,3.021,1.472,4.572
					l0.7,2.213c0.535,1.691,1.074,3.41,1.614,5.156l0.507,1.64c1.466,4.748,2.956,9.695,4.47,14.843l2.854,9.843
					c0.648,2.279,1.302,4.591,1.965,6.94l0.374,1.326c0.776,2.798,1.572,5.656,2.369,8.572l4.772,13.769l-1.291-0.851
					c1.822,6.847,3.678,13.983,5.566,21.404l0.56,2.196c0.969,3.813,1.944,7.685,2.932,11.658l1.283,5.161l-0.154,0.027l0.179,0.706
					l-12.396,1.881l-0.862-4.851l0.468,4.899l-22.678,2.143l-20.82,0.879L622.381,276.116z M514.778,204.557
					c-0.049,1.135-0.069,2.247-0.059,3.345c-0.003,1.25,0.034,2.402,0.097,3.535l0.013,0.318c0.059,0.979,0.164,2.04,0.289,3.086
					l0.034,0.339c0.123,0.961,0.291,1.946,0.47,2.914l0.061,0.362c0.183,0.935,0.402,1.842,0.637,2.743l0.089,0.368
					c0.247,0.914,0.518,1.762,0.798,2.601l0.117,0.354c0.313,0.922,0.631,1.703,0.954,2.48l0.149,0.373
					c0.378,0.875,0.738,1.62,1.114,2.356l0.146,0.3c0.467,0.909,0.873,1.601,1.285,2.294l0.197,0.34
					c0.498,0.815,0.946,1.479,1.402,2.135l0.203,0.296c0.584,0.821,1.068,1.442,1.561,2.055l0.364,0.464
					c0.515,0.621,1.032,1.207,1.566,1.786l0.397,0.445c0.57,0.604,1.135,1.162,1.697,1.711l0.461,0.442
					c0.589,0.56,1.182,1.083,1.783,1.597l0.523,0.448c0.614,0.513,1.246,1.01,1.883,1.499l0.55,0.422
					c0.67,0.502,1.338,0.969,2.011,1.431l0.568,0.391c0.709,0.471,1.408,0.916,2.117,1.354l0.621,0.381
					c0.736,0.44,1.466,0.858,2.208,1.269l0.692,0.383c0.729,0.393,1.497,0.786,2.266,1.174l0.722,0.358
					c0.759,0.369,1.545,0.736,2.34,1.092l0.812,0.367c0.749,0.326,1.561,0.667,2.384,1.002l0.761,0.309
					c0.857,0.343,1.695,0.657,2.54,0.97l0.791,0.291c0.854,0.302,1.724,0.6,2.594,0.892l0.833,0.273
					c0.873,0.282,1.76,0.555,2.647,0.82l0.852,0.251c0.912,0.267,1.813,0.516,2.714,0.759l0.837,0.221
					c0.954,0.252,1.873,0.479,2.795,0.704l0.887,0.211c0.943,0.223,1.87,0.429,2.807,0.633l0.928,0.199
					c0.927,0.19,1.868,0.379,2.814,0.562l0.943,0.178c0.945,0.175,1.902,0.346,2.854,0.508l0.982,0.167
					c0.933,0.153,1.895,0.303,2.856,0.447l0.873,0.128c1.068,0.157,2.036,0.292,3.008,0.417l0.934,0.119
					c0.997,0.125,1.979,0.245,2.96,0.358l0.999,0.107c0.935,0.102,1.91,0.202,2.89,0.295l0.954,0.092
					c1.004,0.093,1.979,0.178,2.955,0.256l0.998,0.079c0.971,0.074,1.942,0.146,2.915,0.21l0.955,0.059
					c0.997,0.062,1.972,0.122,2.948,0.174l0.921,0.045c1.021,0.051,1.991,0.097,2.957,0.135l12.375,0.244l21.168-0.566l29.52-2.658
					l-0.163-0.663l0.194-0.03c-0.539-2.147-1.075-4.271-1.613-6.378l-0.557-2.185c-1.944-7.643-3.85-14.975-5.728-22.008
					l-0.397-1.507c-0.938-3.499-1.863-6.941-2.778-10.296l-0.515-1.87c-0.653-2.37-1.302-4.704-1.944-7.005l-0.37-1.311
					c-0.651-2.326-1.302-4.622-1.945-6.883l-2.836-9.778c-1.5-5.101-2.977-10.012-4.429-14.717l-0.504-1.627
					c-0.539-1.732-1.067-3.435-1.6-5.105l-0.692-2.193c-0.489-1.522-0.971-3.031-1.454-4.52l-0.632-1.948
					c-0.682-2.077-1.355-4.121-2.022-6.108c-26.308-78.411-43.044-87.478-53.348-87.478c-1.088,0-2.267,0.089-3.719,0.278
					C576.232,72.654,541.476,141.836,514.778,204.557z"/>
			</g>
		</g>
	</g>
	<g>
		<g>
			<g>
				<path fill="#ED2177" d="M606.766,231.219c-4.916-4.099-14.588,8.471-14.588,8.471l70.157,21.664
					c-0.184-7.576-10.04-31.85-12.513-26.31C647.35,240.585,611.684,235.319,606.766,231.219z"/>
			</g>
			<g>
				<path fill="#020202" d="M664.875,264.713l-76.807-23.717l2.156-2.804c1.321-1.713,8.195-10.253,14.229-10.253
					c1.455,0,2.796,0.481,3.886,1.391c2.433,2.024,19.266,5.649,31.551,5.649c6.548,0,7.788-1.107,7.803-1.119
					c0.802-1.868,2.431-2.091,3.087-2.091c6.209,0,13.869,23.615,14.012,29.524L664.875,264.713z M596.48,238.445l62.872,19.414
					c-1.494-6.662-5.841-17.123-8.3-20.399c-1.803,1.677-5.365,2.438-11.163,2.438c-11.591,0-30.502-3.294-34.699-6.788
					c-0.215-0.181-0.429-0.252-0.737-0.252C602.464,232.858,599.12,235.638,596.48,238.445z"/>
			</g>
		</g>
		<g>
			<g>
				<path fill="#020202" d="M776.429,277.92l-5.791-19.303l18.624-7.924l5.698,19.913L776.429,277.92z M779.604,262.821l1.586,5.29
					l4.836-1.91l-1.561-5.449L779.604,262.821z"/>
			</g>
		</g>
		<g>
			<g>
				<path fill="#020202" d="M406.014,309.542l-31.634-3.66l3.19-32.442l30.573,4.295L406.014,309.542z M382.432,299.389
					l16.736,1.933l1.153-17.235l-16.16-2.27L382.432,299.389z"/>
			</g>
		</g>
		<g>
			<g>
				<path fill="#020202" d="M467.361,258.513l-25.578-12.235l9.446-24.442l26.69,8.342L467.361,258.513z M451.126,242.57
					l12.135,5.803l5.025-13.477l-12.667-3.956L451.126,242.57z"/>
			</g>
		</g>
		<g>
			<g>
				<path fill="none" d="M626.771,246.536c-2.197-1.415-5.496-0.433-9.238,1.854c4.974,2.191,10.507,3.384,16.448,3.828
					C631.41,249.946,628.906,247.918,626.771,246.536z"/>
			</g>
		</g>
		<g>
			<g>
				<polygon fill="none" points="702.407,240.053 702.407,240.053 702.407,240.053 				"/>
			</g>
		</g>
		<g>
			<g>
				<path fill="#FBEC20" d="M744.238,230.229c-12.742,1.734-27.121,5.705-41.831,9.824c3.206-0.89,3.058,28.062,7.603,30.391
					c4.542,2.329,39.798-19.39,44.716-20.011c4.921-0.618,1.642,38.735,6.56,41.193c4.918,2.461,34.44-7.377,37.717-6.556
					c2.06,0.514,7.666,18.399,8.927,38.764c1.396-2.546,2.593-5.069,3.578-7.547C831.316,266.406,788.062,224.262,744.238,230.229z
					 M777.738,271.653l-3.69-12.298l11.739-4.997l3.635,12.682L777.738,271.653z"/>
			</g>
			<g>
				<path fill="#020202" d="M805.995,332.462l-0.525-8.479c-1.151-18.683-5.725-33.397-7.533-36.492
					c-1.972,0.217-6.868,1.442-11.616,2.626c-8.185,2.047-17.463,4.367-22.543,4.367c-1.558,0-2.697-0.209-3.591-0.656
					c-3.407-1.703-4.003-8.175-4.631-23.658c-0.234-5.786-0.579-14.237-1.489-17.039c-2.45,0.953-8.971,4.403-14.339,7.245
					c-14.06,7.435-24.354,12.702-28.796,12.702c-0.794,0-1.458-0.146-2.047-0.445c-3.219-1.647-4.279-7.542-5.793-19.668
					c-0.528-4.215-1.243-9.987-1.949-11.114c0.136,0.209,0.647,0.643,1.41,0.643v-1.918l-0.807-2.892
					c13.547-3.79,28.893-8.088,42.162-9.895c2.865-0.388,5.783-0.585,8.688-0.585c21.936,0,43.229,11.282,55.559,29.446
					c12.078,17.789,14.078,39.29,5.635,60.544c-1.015,2.563-2.264,5.195-3.707,7.822L805.995,332.462z M798.479,282.562
					c0.426,0,0.79,0.038,1.121,0.122c4.126,1.028,8.093,17.508,9.91,31.947c7.483-19.445,5.566-39.025-5.429-55.218
					c-11.425-16.833-31.155-27.292-51.486-27.292c-2.682,0-5.378,0.185-8.025,0.544c-11.924,1.621-25.751,5.358-38.332,8.868
					c0.689,2.426,1.135,6.004,1.732,10.824c0.612,4.897,1.73,13.855,3.125,15.787c3.98-0.294,17.393-7.392,26.329-12.121
					c9.604-5.08,14.726-7.746,16.998-8.031l0.42-0.026c4.548,0,5.007,6.745,5.63,22.004c0.266,6.539,0.703,17.376,2.068,19.498
					c0.188,0.039,0.568,0.097,1.236,0.097c4.477,0,13.832-2.343,21.348-4.218C792.033,283.618,796.376,282.562,798.479,282.562z
					 M776.152,274.925l-5.089-16.973l16.322-6.946l5.016,17.503L776.152,274.925z M777.038,260.754l2.289,7.626l7.116-2.807
					l-2.254-7.861L777.038,260.754z"/>
			</g>
		</g>
		<g>
			<g>
				<path fill="#FBEC20" d="M651.124,269.409c0,0,48.054-28.448,51.283-29.356c-23.808,6.66-48.448,13.661-68.427,12.166
					C642.208,259.51,651.124,269.409,651.124,269.409z"/>
			</g>
			<g>
				<path fill="#020202" d="M650.644,272.551l-1.347-1.497c-0.089-0.098-8.921-9.883-16.949-16.992l-5.464-4.839l7.277,0.546
					c1.748,0.13,3.586,0.195,5.47,0.195c18.228-0.001,40.009-6.096,61.075-11.989l1.034-0.29c0-0.001,0-0.001,0-0.001h0.006
					l1.327,4.735c-2.696,0.94-32.53,18.353-50.694,29.106L650.644,272.551z M640.469,254.879c4.72,4.542,9.015,9.108,11.126,11.396
					c7.04-4.163,20.284-11.968,31.436-18.381C668.204,251.724,653.586,254.755,640.469,254.879z"/>
			</g>
		</g>
		<g>
			<g>
				<path fill="#FBEC20" d="M386.606,369.517c0-12.299-24.636-46.932-11.497-44.782c13.137,2.149,52.489,2.149,53.311-7.688
					c0.816-9.84-3.281-59.032,18.034-50.833c21.321,8.197,40.963,23.377,49.999-15.78c9.034-39.151,20.983-14.435,24.109-10.88
					c3.127,3.56,69.538,35.678,69.538,35.678s15.829-19.733,27.432-26.84c-3.488-1.536-6.714-3.544-9.596-6.138
					c-29.331-26.385-83.88-45.663-83.88-45.663c-141.663-5.574-182.562,94.99-182.562,94.99c-11.838,40.431,4,68.824,25.411,87.945
					C376.999,378.173,386.606,375.357,386.606,369.517z M453.424,225.631l19.677,6.148l-7.79,20.907l-18.857-9.022L453.424,225.631z
					 M379.792,276.265l23.367,3.279l-1.641,24.525l-24.186-2.796L379.792,276.265z M352.327,358.503l-9.428-18.288h11.479
					l7.376,14.76L352.327,358.503z"/>
			</g>
			<g>
				<path fill="#020202" d="M366.109,382.112l-0.843-0.752c-27.681-24.72-36.474-55.158-26.133-90.473l0.081-0.237
					c0.395-0.965,40.865-96.742,173.598-96.742c3.725,0,7.539,0.077,11.338,0.226l0.724,0.139
					c2.248,0.792,55.35,19.745,84.706,46.151c2.569,2.312,5.58,4.234,8.945,5.718l4.299,1.896l-4.006,2.451
					c-11.112,6.802-26.641,26.087-26.799,26.281l-1.224,1.529l-1.767-0.854c-15.686-7.585-67.109-32.622-70.314-36.271
					c-0.479-0.545-1.017-1.329-1.696-2.322c-1.732-2.531-5.344-7.8-8.256-7.8c-1.244,0-5.645,1.438-9.912,19.933
					c-4.337,18.8-11.633,27.556-22.954,27.556c-6.839,0-14.179-3.179-21.949-6.545c-2.733-1.181-5.562-2.409-8.376-3.488
					c-1.299-0.5-2.499-0.755-3.567-0.755c-10.94,0-10.972,29.274-10.984,41.775c-0.004,3.362-0.008,6.018-0.149,7.72
					c-0.764,9.17-20.717,11.096-37.319,11.096c-7.269,0-14.312-0.443-18.839-1.182c-0.568-0.096-1.054-0.021-1.058-0.024
					c-0.95,1.965,4.091,12.704,7.106,19.118c4.271,9.097,8.307,17.69,8.307,23.26c0,6.405-7.142,10.478-21.834,12.447
					L366.109,382.112z M353.347,360.747c3.925,5.649,8.71,11.043,14.354,16.185c10.323-1.515,16.445-4.261,16.445-7.415
					c0-4.473-4.165-13.343-7.838-21.169c-5.944-12.654-9.181-20.006-6.659-23.976c0.607-0.96,2.208-2.651,5.856-2.065
					c4.219,0.69,11.133,1.116,18.046,1.116c20.699,0,32.152-3.39,32.419-6.582c0.122-1.501,0.126-4.196,0.129-7.316
					c0.017-17.463,0.048-46.689,15.903-46.689c1.676,0,3.469,0.366,5.334,1.081c2.907,1.12,5.782,2.364,8.565,3.566
					c7.289,3.16,14.173,6.14,19.993,6.14c5.903,0,13.306-2.7,18.16-23.741c3.738-16.202,8.412-23.745,14.706-23.745
					c5.509,0,9.769,6.221,12.312,9.939c0.553,0.802,0.999,1.47,1.333,1.853c2.851,2.677,41.883,22.065,67.02,34.243
					c3.552-4.285,13.966-16.455,23.29-23.458c-2.336-1.338-4.485-2.888-6.426-4.629c-27.422-24.667-78.028-43.354-82.71-45.051
					c-3.611-0.136-7.233-0.206-10.769-0.206c-67.591,0-109.933,25.449-133.551,46.801c-24.741,22.363-34.705,45.036-35.444,46.774
					c-4.735,16.239-5.176,31.39-1.357,45.353h13.436l9.281,18.562L353.347,360.747z M346.933,342.674l6.576,12.76l4.823-1.806
					l-5.476-10.954H346.933z M403.798,306.812l-29.151-3.371l2.948-29.967l28.171,3.954L403.798,306.812z M380.018,299.107
					l19.217,2.222l1.318-19.664l-18.564-2.61L380.018,299.107z M466.675,256.065l-23.337-11.164l8.622-22.305l24.354,7.61
					L466.675,256.065z M449.569,242.426l14.379,6.881l5.941-15.953l-15-4.689L449.569,242.426z"/>
			</g>
		</g>
		<g>
			<g>
				<path fill="#F6B12C" d="M785.063,306.432c-5.739-6.514-38.818,14.621-38.818,14.621c-4.382-47.642-12.013-36.629-12.013-36.629
					c-12.294,10.015-34.437,20.323-40.969-1.814c-6.529-22.135-14.083-12.166-14.083-12.166
					c-25.509,24.148-32.677,31.844-45.514,7.247c-12.833-24.595-22.42,7.38-22.42,7.38c-19.677,25.412-84.442-13.12-87.266-14.627
					c-2.821-1.505-18.494-17.348-9.472,17.905c9.016,35.255-40.999,12.297-40.999,12.297
					c-37.714-12.297-17.078,20.407-17.078,20.407c27.152,32.127-38.672,22.228-48.51,22.951
					c-9.839,0.721-11.476-0.724,10.112,27.154c12.651,16.334-5.391,24.215-22.987,27.683c18.903,10.08,35.161,14.278,35.161,14.278
					c199.148,14.646,305.352-20.724,353.026-60.503C785.734,336.36,788.921,310.812,785.063,306.432z"/>
			</g>
			<g>
				<path fill="#020202" d="M517.675,418.953c-0.007,0,0,0-0.007,0c-27.627,0-57.116-1.138-87.642-3.384l-0.434-0.068
					c-0.674-0.175-16.762-4.387-35.703-14.489l-6.093-3.251l6.775-1.335c13.967-2.75,22.769-7.224,24.781-12.59
					c1.165-3.111,0.068-6.869-3.265-11.172c-16.282-21.029-18.782-24.654-17.224-28.116c1.123-2.488,3.927-2.671,7.478-2.903
					l1.401-0.094c1.757-0.135,5.181,0.053,9.4,0.288c4.799,0.267,10.774,0.598,16.78,0.598c19.14,0,24.784-3.505,26.148-6.445
					c1.692-3.639-2.068-9.269-5.518-13.353l-0.201-0.275c-0.93-1.472-8.971-14.624-4.816-22.156
					c3.094-5.608,11.195-6.315,24.737-1.9l0.263,0.104c0.156,0.071,15.669,7.122,27.245,7.122c4.645,0,7.878-1.135,9.614-3.369
					c2.052-2.64,2.296-7.082,0.729-13.205c-4.318-16.88-2.886-21.602-1.156-23.828c1.013-1.303,2.43-1.991,4.112-1.991
					c3.132,0,6.518,2.529,8.757,4.205c0.562,0.419,1.01,0.771,1.304,0.929c0.14,0.079,0.443,0.247,0.882,0.496
					c11.94,6.761,42.084,22.49,64.024,22.49c8.629-0.001,15.013-2.477,18.987-7.357c1.032-3.262,6.173-17.972,14.823-17.972
					c4.338,0,8.26,3.476,11.989,10.622c5.03,9.644,8.911,13.759,12.967,13.757c5.825,0,14.203-7.938,26.88-19.949l1.676-1.588
					c0.606-0.729,2.777-3.025,5.99-3.025c5.043,0,9.053,5.287,12.264,16.167c2.263,7.675,6.539,11.401,13.061,11.401
					c7.827-0.001,17.374-5.458,23.785-10.625c0.76-0.906,2.087-1.827,3.707-1.827c3.96,0,8.867,4.198,12.132,36.014
					c7.422-4.499,24.377-14.153,33.141-14.153c2.407,0,4.247,0.7,5.462,2.082c1.436,1.63,5.243,5.957-1.246,48.186l-0.142,0.917
					l-0.713,0.596C717.602,410.577,588.594,418.953,517.675,418.953z M430.617,410.68c30.326,2.228,59.611,3.354,87.051,3.354
					c70,0,197.051-8.163,263.277-62.716c5.775-37.983,2.654-42.834,2.271-43.263c-0.175-0.197-0.728-0.411-1.768-0.411
					c-7.909,0-27.139,11.174-33.88,15.479l-3.408,2.173l-0.366-4.02c-2.704-29.393-6.575-34.526-7.544-35.363l-0.089,0.121
					l-0.371,0.296c-3.432,2.793-15.521,11.9-27.101,11.905c-0.006,0-0.006,0-0.006,0c-6.104,0-14.137-2.589-17.775-14.93
					c-2.751-9.321-5.702-12.641-7.549-12.641c-1.166,0-2.209,1.251-2.217,1.265l-0.269,0.301l-1.799,1.702
					c-14.015,13.278-22.479,21.295-30.262,21.295h-0.003c-6.224,0-11.241-4.751-17.318-16.4c-2.688-5.143-5.396-7.979-7.635-7.979
					c-4.367,0-8.792,10.057-10.255,14.927l-0.131,0.438l-0.279,0.362c-4.934,6.367-12.724,9.6-23.141,9.602
					c-22.286,0-51.202-14.491-66.454-23.127l-0.776-0.438c-0.521-0.278-1.113-0.719-1.928-1.329
					c-1.401-1.048-4.32-3.227-5.814-3.227c-0.187,0.035-2.682,2.127,1.811,19.682c1.96,7.67,1.421,13.538-1.611,17.44
					c-2.714,3.495-7.255,5.271-13.499,5.271c-12.199,0-27.466-6.741-29.165-7.509c-10.287-3.339-17.075-3.444-18.77-0.362
					c-2.068,3.74,1.678,12.355,4.58,17.018c6.359,7.573,8.359,13.613,6.107,18.466c-2.942,6.341-12.67,9.291-30.611,9.291
					c-6.141,0-12.193-0.334-17.053-0.607c-3.949-0.216-7.204-0.413-8.766-0.294l-1.443,0.1c-1.063,0.07-2.321,0.15-3.084,0.287
					c1.12,3.077,8.562,12.683,16.404,22.811c4.444,5.739,5.783,11.096,3.976,15.909c-2.311,6.17-9.619,10.921-21.755,14.157
					C416.874,406.836,428.918,410.22,430.617,410.68z"/>
			</g>
		</g>
		<g>
			<g>
				<path fill="#8EC244" d="M799.002,285.07c-3.276-0.821-32.799,9.017-37.717,6.556c-4.918-2.458-1.639-41.812-6.56-41.193
					c-4.918,0.621-40.174,22.34-44.716,20.011c-4.545-2.328-4.396-31.28-7.603-30.391l0,0c-3.229,0.908-51.283,29.356-51.283,29.356
					s-8.916-9.899-17.144-17.19c-5.941-0.444-11.475-1.637-16.448-3.828c-11.603,7.106-27.432,26.84-27.432,26.84
					s-66.411-32.118-69.538-35.678c-3.125-3.555-15.075-28.271-24.109,10.88c-9.036,39.157-28.678,23.978-49.999,15.78
					c-21.315-8.199-17.218,40.993-18.034,50.833c-0.822,9.838-40.174,9.838-53.311,7.688c-13.139-2.149,11.497,32.483,11.497,44.782
					c0,5.841-9.607,8.656-19.701,10.009c8.945,7.988,18.861,14.363,28.141,19.315c17.597-3.468,35.639-11.349,22.987-27.683
					c-21.588-27.878-19.951-26.434-10.112-27.154c9.838-0.724,75.663,9.176,48.51-22.951c0,0-20.636-32.704,17.078-20.407
					c0,0,50.015,22.958,40.999-12.297c-9.021-35.253,6.651-19.41,9.472-17.905c2.824,1.507,67.589,40.039,87.266,14.627
					c0,0,9.587-31.975,22.42-7.38c12.837,24.597,20.005,16.901,45.514-7.247c0,0,7.554-9.969,14.083,12.166
					c6.532,22.138,28.675,11.829,40.969,1.814c0,0,7.631-11.013,12.013,36.629c0,0,33.079-21.135,38.818-14.621
					c3.857,4.381,0.671,29.929-1.83,46.185c11.449-9.553,19.514-19.355,24.695-28.782
					C806.668,303.47,801.062,285.584,799.002,285.07z"/>
			</g>
			<g>
				<path d="M394.663,401.421l-0.773-0.413c-10.909-5.816-20.537-12.428-28.623-19.647l-3.989-3.562l5.301-0.711
					c11.001-1.474,17.568-4.305,17.568-7.57c0-4.473-4.165-13.342-7.838-21.167c-5.944-12.653-9.184-20.005-6.661-23.977
					c0.612-0.962,2.23-2.652,5.859-2.066c4.219,0.69,11.135,1.116,18.046,1.116c20.699,0,32.152-3.39,32.419-6.582
					c0.122-1.501,0.125-4.196,0.129-7.319c0.013-16.315,0.045-46.687,15.903-46.687c1.676,0,3.469,0.366,5.334,1.081
					c2.907,1.12,5.784,2.364,8.565,3.568c7.288,3.158,14.173,6.138,19.993,6.138c5.903,0,13.306-2.7,18.16-23.741
					c3.738-16.202,8.412-23.745,14.706-23.745c5.509,0,9.769,6.221,12.312,9.939c0.553,0.802,0.999,1.47,1.333,1.853
					c2.851,2.677,41.883,22.065,67.02,34.243c4.011-4.837,16.762-19.72,26.82-25.876l1.097-0.672l1.182,0.519
					c4.509,1.988,9.628,3.175,15.639,3.627l0.826,0.062l0.624,0.548c6.426,5.69,13.157,12.839,15.98,15.896
					c12.965-7.666,47.013-27.708,50.146-28.591l0.812-0.11c3.576,0,4.158,4.634,5.418,14.785c0.612,4.897,1.73,13.854,3.125,15.787
					c3.98-0.294,17.393-7.392,26.33-12.121c9.604-5.08,14.725-7.746,16.997-8.031l0.42-0.026c4.545,0,5.007,6.745,5.627,22.002
					c0.269,6.539,0.706,17.378,2.071,19.5c0.188,0.039,0.568,0.097,1.236,0.097c4.477,0,13.836-2.343,21.355-4.218
					c6.904-1.729,11.243-2.785,13.347-2.785c0.426,0,0.79,0.038,1.121,0.122c5.034,1.257,9.821,25.507,10.782,40.998l0.042,0.711
					l-0.343,0.623c-5.646,10.291-14.15,20.21-25.272,29.487l-4.996,4.17l0.99-6.434c5.971-38.829,2.796-43.752,2.412-44.185
					c-0.175-0.197-0.728-0.411-1.768-0.411c-7.918,0-27.142,11.174-33.88,15.479l-3.408,2.173l-0.366-4.02
					c-2.704-29.396-6.575-34.526-7.544-35.363l-0.089,0.121l-0.371,0.296c-3.432,2.794-15.523,11.905-27.106,11.905
					c-6.1,0-14.137-2.589-17.775-14.93c-2.751-9.321-5.702-12.641-7.549-12.641c-1.184,0-2.223,1.271-2.229,1.284l-0.256,0.281
					l-1.81,1.71c-14.007,13.277-22.469,21.287-30.251,21.287c-6.227,0-11.244-4.751-17.321-16.4
					c-2.688-5.143-5.396-7.979-7.635-7.979c-4.354,0-8.789,10.057-10.255,14.931l-0.131,0.435l-0.279,0.362
					c-4.934,6.371-12.724,9.602-23.146,9.602c-22.281,0-51.197-14.491-66.449-23.132l-0.776-0.433
					c-0.521-0.278-1.113-0.719-1.928-1.329c-1.401-1.048-4.32-3.227-5.814-3.227c-0.187,0.035-2.682,2.129,1.811,19.682
					c1.96,7.673,1.421,13.541-1.607,17.44c-2.718,3.497-7.259,5.271-13.502,5.271c-12.199,0-27.465-6.741-29.165-7.509
					c-10.287-3.339-17.074-3.444-18.769-0.362c-2.073,3.756,1.674,12.363,4.577,17.018c6.364,7.573,8.363,13.613,6.109,18.466
					c-2.942,6.341-12.669,9.291-30.611,9.291c-6.144,0-12.195-0.334-17.057-0.607c-3.945-0.216-7.2-0.413-8.763-0.294l-1.443,0.1
					c-1.063,0.07-2.321,0.15-3.084,0.287c1.12,3.077,8.562,12.683,16.404,22.811c4.444,5.739,5.783,11.096,3.976,15.909
					c-2.707,7.232-12.275,12.512-28.433,15.694L394.663,401.421z M372.535,381.096c6.711,5.482,14.391,10.565,22.896,15.157
					c13.467-2.762,21.949-7.159,23.921-12.417c1.168-3.111,0.068-6.869-3.265-11.172c-16.282-21.029-18.782-24.654-17.224-28.116
					c1.123-2.488,3.927-2.671,7.476-2.903l1.403-0.094c1.757-0.135,5.181,0.053,9.398,0.288c4.801,0.267,10.775,0.598,16.782,0.598
					c19.142,0,24.786-3.505,26.151-6.442c1.689-3.642-2.071-9.271-5.521-13.355l-0.201-0.275c-0.93-1.477-8.97-14.624-4.813-22.159
					c3.114-5.643,11.114-6.335,24.735-1.897l0.263,0.104c0.156,0.071,15.669,7.122,27.245,7.122c4.645,0,7.881-1.135,9.614-3.369
					c2.052-2.64,2.296-7.082,0.729-13.205c-4.318-16.878-2.886-21.599-1.156-23.828c1.013-1.303,2.43-1.991,4.112-1.991
					c3.132,0,6.518,2.529,8.757,4.205c0.562,0.419,1.01,0.771,1.304,0.929c0.14,0.079,0.443,0.247,0.876,0.495
					c11.945,6.762,42.085,22.491,64.029,22.491c8.626,0,15.01-2.475,18.987-7.357c1.032-3.262,6.173-17.972,14.823-17.972
					c4.338,0,8.26,3.476,11.989,10.622c5.03,9.644,8.911,13.757,12.967,13.757c5.822,0,14.196-7.933,26.865-19.939l1.69-1.598
					c0.606-0.729,2.777-3.025,5.99-3.025c5.043,0,9.053,5.287,12.264,16.167c2.263,7.672,6.539,11.401,13.061,11.401
					c7.827,0,17.371-5.458,23.785-10.625c0.76-0.906,2.087-1.827,3.707-1.827c3.96,0,8.867,4.198,12.132,36.014
					c7.422-4.499,24.377-14.153,33.141-14.153c2.407,0,4.247,0.7,5.462,2.082c1.354,1.543,4.828,5.49-0.267,41.549
					c8.018-7.396,14.316-15.138,18.785-23.083c-1.227-18.344-5.7-32.728-7.492-35.78c-1.966,0.217-6.865,1.438-11.613,2.626
					c-8.188,2.046-17.46,4.367-22.546,4.367c-1.558,0-2.697-0.209-3.591-0.656c-3.407-1.703-4.003-8.175-4.631-23.658
					c-0.234-5.786-0.579-14.237-1.491-17.039c-2.448,0.953-8.969,4.403-14.334,7.241c-14.062,7.438-24.356,12.706-28.799,12.706
					c-0.794,0-1.458-0.146-2.047-0.445c-3.219-1.647-4.279-7.542-5.793-19.668c-0.413-3.328-0.948-7.629-1.505-9.845
					c-6.795,3.502-32.776,18.68-49.208,28.405l-1.735,1.025l-1.347-1.497c-0.086-0.095-8.48-9.396-16.34-16.449
					c-5.697-0.492-10.687-1.624-15.188-3.443c-11.016,7.312-25.596,25.42-25.749,25.609l-1.224,1.529l-1.767-0.854
					c-15.686-7.585-67.109-32.622-70.314-36.271c-0.479-0.545-1.017-1.329-1.696-2.322c-1.732-2.531-5.344-7.8-8.256-7.8
					c-1.244,0-5.645,1.438-9.912,19.933c-4.337,18.798-11.633,27.552-22.954,27.556c0,0-0.003,0-0.005,0
					c-6.835,0-14.174-3.179-21.942-6.545c-2.735-1.181-5.564-2.409-8.378-3.488c-1.299-0.5-2.499-0.755-3.567-0.755
					c-10.942,0-10.972,29.273-10.984,41.771c-0.004,3.365-0.008,6.022-0.149,7.725c-0.764,9.17-20.717,11.096-37.319,11.096
					c-7.267,0-14.309-0.443-18.839-1.182c-0.574-0.093-1.057-0.021-1.058-0.024c-0.953,1.965,4.091,12.704,7.104,19.118
					c4.273,9.097,8.309,17.69,8.309,23.26C389.067,375.098,383.646,378.909,372.535,381.096z"/>
			</g>
		</g>
		<g>
			<g>
				<polygon fill="#ED2177" points="473.102,231.779 453.424,225.631 446.455,243.664 465.312,252.687 				"/>
			</g>
			<g>
				<path fill="#020202" d="M466.675,256.065l-23.337-11.164l8.622-22.305l24.354,7.61L466.675,256.065z M449.569,242.426
					l14.379,6.881l5.941-15.953l-15-4.689L449.569,242.426z"/>
			</g>
		</g>
		<g>
			<g>
				<polygon fill="#ED2177" points="774.048,259.355 777.738,271.653 789.422,267.04 785.787,254.358 				"/>
			</g>
			<g>
				<path fill="#020202" d="M776.152,274.925l-5.089-16.973l16.322-6.946l5.016,17.503L776.152,274.925z M777.038,260.754
					l2.289,7.626l7.116-2.807l-2.254-7.861L777.038,260.754z"/>
			</g>
		</g>
		<g>
			<g>
				<polygon fill="#ED2177" points="342.899,340.215 352.327,358.503 361.754,354.975 354.378,340.215 				"/>
			</g>
			<g>
				<path fill="#020202" d="M351.142,361.573l-12.28-23.818h17.035l9.281,18.562L351.142,361.573z M346.933,342.674l6.576,12.76
					l4.823-1.806l-5.476-10.954H346.933z"/>
			</g>
		</g>
		<g>
			<g>
				<polygon fill="#ED2177" points="403.159,279.544 379.792,276.265 377.332,301.273 401.518,304.069 				"/>
			</g>
			<g>
				<path fill="#020202" d="M403.798,306.812l-29.151-3.371l2.948-29.967l28.171,3.954L403.798,306.812z M380.018,299.107
					l19.217,2.222l1.318-19.664l-18.564-2.61L380.018,299.107z"/>
			</g>
		</g>
		<g>
			<g>
				<polygon fill="#ED2177" points="566.16,225.63 555.495,234.954 572.717,240.053 581.735,232.842 				"/>
			</g>
			<g>
				<path fill="#020202" d="M573.248,242.775l-22.732-6.729l15.228-13.32l20.628,9.554L573.248,242.775z M560.482,233.864
					l11.701,3.464l4.908-3.925l-10.511-4.868L560.482,233.864z"/>
			</g>
		</g>
		<g>
			<g>
				<path d="M517.675,420.186c-0.007,0,0,0-0.007,0c-27.657,0-57.176-1.139-87.733-3.387l-0.651-0.109
					c-0.678-0.176-16.901-4.421-35.974-14.595c-10.994-5.864-20.706-12.531-28.862-19.816
					c-27.671-24.71-36.832-56.433-26.494-91.737l0.123-0.351c0.407-1.003,10.296-24.859,36.868-48.95
					c24.435-22.154,68.186-48.562,137.867-48.562c3.74,0,7.57,0.077,11.389,0.226l0.562,0.021l0.523,0.187
					c2.259,0.799,55.579,19.83,85.114,46.398c2.473,2.224,5.377,4.076,8.621,5.504c4.381,1.932,9.366,3.086,15.238,3.525
					l1.237,0.094l0.93,0.825c6,5.312,12.256,11.876,15.39,15.252c15.682-9.263,46.441-27.324,49.593-28.21
					c13.586-3.804,28.98-8.109,42.335-9.926c2.917-0.397,5.894-0.6,8.852-0.6c22.346,0,44.021,11.489,56.574,29.985
					c12.317,18.139,14.361,40.045,5.769,61.688c-1.04,2.611-2.31,5.289-3.778,7.958c-5.729,10.426-14.327,20.466-25.563,29.841
					C718.092,411.773,588.761,420.186,517.675,420.186z M430.827,409.463c30.25,2.219,59.468,3.343,86.841,3.343
					c70.084,0,197.477-8.188,263.203-63.021c10.523-8.783,18.541-18.114,23.825-27.729c1.319-2.403,2.454-4.804,3.384-7.133
					c7.663-19.299,5.886-38.768-5.014-54.819c-11.201-16.5-30.54-26.75-50.471-26.75c-2.624,0-5.269,0.176-7.855,0.53
					c-12.853,1.749-27.985,5.984-41.337,9.721c-2.909,1.111-32.479,18.37-50.398,28.979l-2.602,1.538l-2.016-2.243
					c-0.089-0.095-8.229-9.114-15.948-16.085c-6.184-0.572-11.56-1.895-16.395-4.025c-3.961-1.746-7.52-4.026-10.577-6.771
					c-26.937-24.234-76.518-42.702-82.124-44.742c-3.532-0.133-7.073-0.197-10.532-0.197c-125.942,0-165.984,88.482-167.837,92.761
					c-4.54,15.621-5.051,30.221-1.553,43.705h13.232l10.233,20.466l-11.608,4.349c3.894,5.378,8.587,10.526,14.083,15.435
					c7.719,6.896,16.946,13.225,27.421,18.811C413.646,404.58,428.536,408.834,430.827,409.463z M348.951,343.904l5.153,9.994
					l2.519-0.944l-4.525-9.05H348.951z M404.94,308.18l-31.633-3.657l3.189-32.447l30.572,4.296L404.94,308.18z M381.357,298.024
					l16.737,1.937l1.153-17.24l-16.159-2.269L381.357,298.024z M775.357,276.561l-5.791-19.309l18.616-7.923l5.71,19.914
					L775.357,276.561z M778.532,261.455l1.586,5.292l4.833-1.909l-1.561-5.451L778.532,261.455z M467.361,257.758l-25.578-12.239
					l9.446-24.44l26.69,8.34L467.361,257.758z M451.126,241.81l12.135,5.807l5.025-13.475l-12.667-3.96L451.126,241.81z"/>
			</g>
		</g>
	</g>
	<g>
		<g>
			<path d="M517.675,421.414c-0.007,0,0,0-0.007,0c-27.688,0-57.237-1.142-87.821-3.391l-0.87-0.145
				c-0.686-0.176-17.045-4.46-36.245-14.698c-11.08-5.91-20.871-12.635-29.103-19.985c-28.051-25.049-37.337-57.209-26.854-92.999
				l0.163-0.469c0.411-1.016,10.407-25.123,37.179-49.399c24.598-22.298,68.623-48.88,138.695-48.88
				c3.758,0,7.603,0.077,11.441,0.229l0.74,0.027l0.701,0.249c2.267,0.799,55.816,19.911,85.529,46.64
				c1.848,1.664,3.876,3.068,6.15,4.266c4.848-2.404,8.91-2.494,12.062-0.458c1.875,1.212,4.017,2.858,6.521,5.014
				c1.191,0.059,2.423,0.092,3.675,0.092c17.889-0.003,39.508-6.051,60.412-11.899l1.037-0.292c13.623-3.811,29.062-8.134,42.5-9.96
				c2.968-0.404,6.003-0.611,9.016-0.611c22.746,0,44.815,11.697,57.598,30.527c12.543,18.482,14.634,40.798,5.884,62.832
				c-1.055,2.657-2.349,5.384-3.839,8.099c-5.801,10.561-14.5,20.718-25.851,30.189
				C718.581,412.965,588.926,421.414,517.675,421.414z M431.034,408.245c30.181,2.21,59.327,3.331,86.634,3.331
				c69.92,0,196.99-8.149,262.416-62.738c10.409-8.684,18.324-17.895,23.533-27.373c1.296-2.361,2.409-4.713,3.321-6.994
				c7.506-18.909,5.772-37.97-4.89-53.674c-10.975-16.17-29.927-26.214-49.453-26.214c-2.568,0-5.158,0.175-7.691,0.519
				c-12.766,1.735-27.855,5.963-41.172,9.688l-1.043,0.291c-21.542,6.026-43.817,12.261-63.059,12.262
				c-2.062,0-4.09-0.073-6.014-0.219l-1.659-0.12l-1.236-1.099c-2.558-2.263-4.708-3.976-6.415-5.103
				c-0.421,0.026-1.688,0.245-4.211,1.787l-2.192,1.342l-2.354-1.04c-4.081-1.794-7.746-4.144-10.904-6.98
				c-26.504-23.843-75.183-42.111-81.542-44.436c-3.448-0.124-6.911-0.19-10.29-0.19c-66.935,0-108.771,25.196-132.085,46.334
				c-23.862,21.633-33.588,43.283-34.589,45.607c-9.349,32.232-1.262,60.032,24.044,82.63c7.648,6.832,16.792,13.102,27.182,18.644
				C413.92,403.329,428.462,407.537,431.034,408.245z"/>
		</g>
	</g>
	<g>
		<g>
			<path fill="#ED2177" d="M590.101,229.527c0,0,9.672-12.567,14.59-8.47c4.921,4.098,20.714,20.388,43.06,3.823
				c0,0,12.326,18.733,12.507,26.311"/>
		</g>
		<g>
			<path fill="#020202" d="M657.798,251.252c-0.12-4.976-6.865-16.722-10.734-22.885c-21.347,14.233-36.892,0.701-42.866-4.493
				c-0.408-0.352-0.766-0.664-1.079-0.927c-0.191-0.158-0.445-0.294-0.972-0.237c-2.775,0.304-7.577,5.046-10.097,8.318
				l-3.897-3.001c0.749-0.978,7.505-9.55,13.452-10.209c1.756-0.199,3.369,0.275,4.659,1.349c0.34,0.281,0.727,0.617,1.16,0.994
				c5.86,5.098,19.587,17.033,38.857,2.744l2.092-1.551l1.428,2.176c1.305,1.976,12.723,19.553,12.915,27.603L657.798,251.252z"/>
		</g>
	</g>
	<g>
		<g>
			<path fill="#FFFFFF" d="M698.127,484.078c0,0,33.202-45.502,41.196,24.597l3.692,82.397l34.435-51.654
				c0,0-22.754-45.502-17.219-55.34c5.532-9.839,23.368-27.057,30.746-25.21c7.377,1.846,41.812-5.605,41.812-5.605l60.263-50.967
				l16.601-11.683c0,0,21.522-8.609,31.361,10.454c9.836,19.059,13.531,43.042-5.535,55.954l-56.572,22.39
				c0,0,16.604,19.345,4.921,46.133c0,0,20.293,58.768-63.949,40.315l-6.152,1.231c0,0-86.085,135.893-103.304,67.64l-9.222-56.57
				l-0.614-56.87"/>
		</g>
		<g>
			<path d="M727.738,656.357c-0.91,0-1.801-0.07-2.668-0.209c-8.148-1.302-13.878-8.31-17.034-20.817l-9.298-57.146l-0.611-56.867
				l4.915-0.052l0.614,56.684l9.196,56.383c2.589,10.22,6.975,15.993,12.995,16.955c23.57,3.811,69.925-60.45,85.803-85.513
				l0.56-0.886l7.688-1.54l0.504,0.108c28.718,6.289,47.934,4.24,57.116-6.076c10.467-11.771,4.051-30.843,3.983-31.035
				l-0.312-0.905l0.381-0.878c10.896-24.982-3.896-42.81-4.534-43.556l-2.226-2.616l59.507-23.554
				c5.758-3.997,21.881-18.982,4.509-52.643c-8.234-15.967-25.598-10.276-28.01-9.394l-16.351,11.503l-60.557,51.231l-0.6,0.129
				c-3.584,0.771-35.221,7.518-42.932,5.589c-4.712-1.144-21.398,12.286-28.007,24.03c-3.374,5.999,8.074,34.623,17.278,53.036
				l0.638,1.278l-39.396,59.091l-4.024-89.902c-3.157-27.625-10.056-35.106-15.288-36.486c-8.084-2.156-18.248,8.817-21.467,13.229
				l-3.973-2.901c0.557-0.755,13.717-18.517,26.699-15.084c9.899,2.614,16.093,15.98,18.926,40.852l3.369,75.064l29.478-44.222
				c-4.981-10.102-22.132-46.404-16.526-56.364c4.949-8.794,23.689-28.851,33.486-26.392c4.91,1.223,26.925-2.668,40.099-5.499
				l59.795-50.566l17.274-12.088c0.237-0.089,23.723-9.197,34.456,11.607c13.131,25.438,10.761,47.54-6.337,59.125l-0.476,0.248
				l-53.61,21.213c4.211,6.366,12.811,23.266,3.672,45.151c1.299,4.349,5.8,22.548-5.252,34.979
				c-10.396,11.682-31.022,14.281-61.34,7.72l-4.617,0.923C808.957,579.082,758.358,656.357,727.738,656.357z"/>
		</g>
	</g>
	<g>
		<g>
			<path fill="#D9E5F5" d="M629.538,393.535c-3.741-6.381-8.183-10.74-13.019-12.079c-16.363-4.524-47.469,23.688-61.781,57.729
				c4.129-0.225,11.049-0.182,19.74,1.388l0.562-2.613C575.04,437.96,610.84,386.626,629.538,393.535z"/>
		</g>
	</g>
	<g>
		<g>
			<path fill="#D9E5F5" d="M886.431,532.242c-0.6-3.223-1.31-5.276-1.31-5.276L886.431,532.242L886.431,532.242z"/>
		</g>
	</g>
	<g>
		<g>
			<path fill="#D9E5F5" d="M887.073,529.211c0.217-1.025,0.462-2.181,0.688-3.249C887.574,526.845,887.34,527.935,887.073,529.211z"
				/>
		</g>
	</g>
	<g>
		<g>
			<path fill="#D9E5F5" d="M886.882,530.117c0.067-0.319,0.128-0.608,0.191-0.906C887.005,529.529,886.942,529.829,886.882,530.117z
				"/>
		</g>
	</g>
	<g>
		<g>
			<path fill="#D9E5F5" d="M887.761,525.962c0.044-0.228,0.093-0.431,0.133-0.63C887.854,525.534,887.805,525.747,887.761,525.962z"
				/>
		</g>
	</g>
	<g>
		<g>
			<path fill="#D9E5F5" d="M886.57,531.581c0.084-0.376,0.184-0.876,0.312-1.464C886.785,530.572,886.676,531.074,886.57,531.581z"
				/>
		</g>
	</g>
	<g>
		<g>
			<path fill="#D9E5F5" d="M886.467,532.072c0.011-0.047,0.021-0.103,0.036-0.168C886.492,531.962,886.478,532.012,886.467,532.072z
				"/>
		</g>
	</g>
	<g>
		<g>
			<path fill="#D9E5F5" d="M886.503,531.904c0.024-0.114,0.045-0.212,0.067-0.323C886.548,531.706,886.52,531.812,886.503,531.904z"
				/>
		</g>
	</g>
	<g>
		<g>
			<path fill="#D9E5F5" d="M887.894,525.332c0.07-0.334,0.138-0.65,0.198-0.946C888.034,524.668,887.97,524.981,887.894,525.332z"/>
		</g>
	</g>
	<g>
		<g>
			<path fill="#D9E5F5" d="M888.092,524.386c0.063-0.29,0.117-0.546,0.162-0.765C888.209,523.855,888.152,524.104,888.092,524.386z"
				/>
		</g>
	</g>
	<g>
		<g>
			<polygon fill="#D9E5F5" points="886.431,532.242 886.431,532.242 886.431,532.242 			"/>
		</g>
	</g>
	<g>
		<g>
			<path fill="#D9E5F5" d="M886.467,532.072c-0.021,0.097-0.036,0.167-0.036,0.17l0,0
				C886.445,532.18,886.456,532.13,886.467,532.072z"/>
		</g>
	</g>
	<g>
		<g>
			<g>
				<path fill="#D9E5F5" d="M847.356,545.151c0,0,6.086,0.918,5.678-2.459c0,0-3.691-23.778,4.509-27.468
					c8.2-3.688,14.349-10.66,8.61-13.526c-5.743-2.87-29.931,9.839-29.52,13.526C837.047,518.914,847.829,511.539,847.356,545.151z"
					/>
			</g>
		</g>
		<g>
			<g>
				<path fill="#D9E5F5" d="M885.121,526.966c0,0-15.152,23.104-37.765,20.232c0,0-0.471,12.714-6.62,13.121
					c0,0,40.969-5.729,45.694-28.077L885.121,526.966z"/>
			</g>
		</g>
	</g>
	<g>
		<g>
			<path fill="#D9E5F5" d="M888.254,523.621c0.036-0.163,0.065-0.31,0.094-0.447C888.319,523.304,888.29,523.458,888.254,523.621z"
				/>
		</g>
	</g>
	<g>
		<g>
			<path fill="#D9E5F5" d="M888.348,523.174c0.056-0.254,0.095-0.446,0.126-0.583C888.439,522.737,888.4,522.933,888.348,523.174z"
				/>
		</g>
	</g>
	<g>
		<g>
			<path fill="#D9E5F5" d="M888.474,522.591C888.542,522.257,888.553,522.215,888.474,522.591L888.474,522.591z"/>
		</g>
	</g>
	<g>
		<g>
			<path d="M727.738,656.357c-0.91,0-1.801-0.07-2.668-0.209c-8.148-1.302-13.878-8.31-17.034-20.817l-9.298-57.146l-0.611-56.867
				l4.915-0.052l0.614,56.684l9.196,56.383c2.589,10.22,6.975,15.993,12.995,16.955c23.57,3.811,69.925-60.45,85.803-85.513
				l0.56-0.886l7.688-1.54l0.504,0.108c28.718,6.289,47.934,4.24,57.116-6.076c10.467-11.771,4.051-30.843,3.983-31.035
				l-0.312-0.905l0.381-0.878c10.896-24.982-3.896-42.81-4.534-43.556l-2.226-2.616l59.507-23.554
				c5.758-3.997,21.881-18.982,4.509-52.643c-8.234-15.967-25.598-10.276-28.01-9.394l-16.351,11.503l-60.557,51.231l-0.6,0.129
				c-3.584,0.771-35.221,7.518-42.932,5.589c-4.712-1.144-21.398,12.286-28.007,24.03c-3.374,5.999,8.074,34.623,17.278,53.036
				l0.638,1.278l-39.396,59.091l-4.024-89.902c-3.157-27.625-10.056-35.106-15.288-36.486c-8.084-2.156-18.248,8.817-21.467,13.229
				l-3.973-2.901c0.557-0.755,13.717-18.517,26.699-15.084c9.899,2.614,16.093,15.98,18.926,40.852l3.369,75.064l29.478-44.222
				c-4.981-10.102-22.132-46.404-16.526-56.364c4.949-8.794,23.689-28.851,33.486-26.392c4.91,1.223,26.925-2.668,40.099-5.499
				l59.795-50.566l17.274-12.088c0.237-0.089,23.723-9.197,34.456,11.607c13.131,25.438,10.761,47.54-6.337,59.125l-0.476,0.248
				l-53.61,21.213c4.211,6.366,12.811,23.266,3.672,45.151c1.299,4.349,5.8,22.548-5.252,34.979
				c-10.396,11.682-31.022,14.281-61.34,7.72l-4.617,0.923C808.957,579.082,758.358,656.357,727.738,656.357z"/>
		</g>
	</g>
	<g>
		<g>
			<path fill="#050606" d="M450.396,367.185l-3.372-6.563c0.365-0.186,36.915-18.796,84.77-29.39
				c63.726-14.104,118.617-7.697,158.748,18.516l-4.036,6.176C593.305,295.044,451.813,366.458,450.396,367.185z"/>
		</g>
	</g>
	<g>
		<g>
			<path fill="#FFFFFF" d="M941.014,401.067c-9.839-19.063-31.361-10.454-31.361-10.454l-16.601,11.683l-60.263,50.967
				c0,0-34.435,7.451-41.812,5.605c-7.378-1.847-25.214,15.371-30.746,25.21c-5.535,9.838,17.219,55.34,17.219,55.34l-34.435,51.654
				l-3.692-82.397c-4.187-36.722-15.293-41.713-24.918-38.148c-7.855-50.316-25.109-95.91-47.965-126.09
				c-51.177-25.312-112.267-17.846-157.879-5.489c-18.271,11.528-36.561,25.729-53.878,42.034l0.002-0.006l-0.087,0.087
				c-1.044,0.985-2.081,1.982-3.114,2.979l-1.17,1.12c0,0-111.396,20.823-121.235,48.496c0,0-4.919,19.677,6.766,63.95
				c0,0-15.374-15.988-39.355,0c0,0-47.962-10.727-43.658,16.467l21.521,15.507c0,0-36.895,6.764-32.589,28.901
				c4.304,22.135,24.596,14.757,37.509,10.453c0,0,25.21-4.701,34.437,4.722h36.173l-0.058,0.505
				c-0.284,2.23-0.538,4.449-0.755,6.648l-0.009,0.085l0.004-0.005c-9.276,94.465,40.897,162.395,118.294,188.654
				c93.609,31.756,192.705-9.084,235.76-135.983c1.697-5.007,3.216-10.103,4.629-15.24l2.676,16.409
				c17.219,68.253,103.304-67.64,103.304-67.64l6.152-1.231c84.242,18.452,63.949-40.315,63.949-40.315
				c11.684-26.788-4.921-46.133-4.921-46.133l56.572-22.39C954.545,444.109,950.85,420.126,941.014,401.067z M370.665,494.129
				l-6.866-42.232c0,0-1.643-10.247,4.098-10.654c4.687-0.337,26.86-8.864,39.751-9.529
				C393.123,451.235,380.467,472.237,370.665,494.129z"/>
		</g>
		<g>
			<path d="M527.731,782.286c-20.219,0-40.799-3.504-61.165-10.411c-39.67-13.461-71.801-37.571-92.913-69.73
				c-21.069-32.081-30.558-71.606-27.607-114.663l-0.262,0.269l0.83-7.139c0.15-1.503,0.312-3,0.489-4.49h-34.433l-0.722-0.742
				c-3.302-3.373-9.853-5.156-18.948-5.156c-6.471,0-12.115,0.928-13.123,1.104l-0.789,0.264c-6.031,2.02-13.539,4.531-20.479,4.531
				c-10.567,0-17.047-5.777-19.262-17.169c-1.046-5.37-0.023-10.362,3.036-14.847c6.091-8.932,18.894-13.625,26.18-15.663
				l-18.004-12.975l-0.158-1.01c-0.895-5.658,0.19-10.332,3.229-13.89c4.256-4.982,12.154-7.505,23.474-7.505
				c8.375,0,16.148,1.383,18.89,1.931c7.193-4.614,14.373-6.953,21.355-6.953c6.125,0,11.021,1.795,14.469,3.669
				c-9.599-39.816-5.321-57.863-5.123-58.648c4.423-12.486,26.604-24.649,65.989-36.387c26.283-7.833,51.872-12.907,56.456-13.793
				l0.643-0.618c1.033-0.994,2.075-1.998,3.125-2.989l0.088-0.085c0.004-0.003,0.008-0.004,0.011-0.008l10.006-9.453l-0.31,0.626
				c14.364-12.636,29.305-23.871,44.545-33.487l0.669-0.294c28.114-7.613,54.903-11.478,79.633-11.478
				c30.079,0,56.99,5.765,79.979,17.137l0.518,0.257l0.351,0.464c22.466,29.661,39.891,74.899,47.998,124.455
				c1.019-0.201,2.012-0.305,2.987-0.305c11.732,0,19.262,13.895,22.382,41.292l3.369,75.064l29.478-44.222
				c-4.981-10.102-22.132-46.404-16.526-56.364c5.124-9.107,22.032-26.603,31.707-26.603c0.619,0,1.221,0.069,1.779,0.211
				c0.4,0.099,1.205,0.222,2.745,0.222c9.912,0,33.319-4.863,37.356-5.721l59.792-50.566l17.274-12.088
				c0.217-0.086,5.361-2.113,11.903-2.113c7.061,0,16.701,2.38,22.553,13.721c13.131,25.438,10.761,47.54-6.337,59.125l-0.476,0.248
				l-53.61,21.213c4.211,6.366,12.811,23.266,3.672,45.151c1.221,4.093,5.279,20.463-3.48,32.758
				c-6.369,8.94-17.896,13.475-34.256,13.475c0,0-0.004,0-0.007,0c-8.316,0-18.021-1.191-28.849-3.533l-4.62,0.923
				c-2.79,4.325-15.458,23.652-30.949,42.753c-23.861,29.408-42.84,44.314-56.421,44.314c-9.636,0-16.3-7.072-19.827-21.032
				l-0.969-5.94c-0.539,1.715-1.082,3.361-1.616,4.961C673.551,728.367,608.771,782.286,527.731,782.286z M351.609,580.127
				l-0.099,1.001c-4.376,44.578,4.701,85.492,26.251,118.315c20.508,31.235,51.762,54.67,90.385,67.77
				c19.857,6.735,39.902,10.153,59.584,10.153c78.805,0,141.881-52.703,173.058-144.592c1.529-4.51,3.029-9.451,4.587-15.107
				l2.99-10.848l4.486,27.514c2.897,11.446,7.819,17.112,15.011,17.112c11.854,0,30.045-14.693,52.6-42.496
				c17.314-21.345,31.049-42.96,31.188-43.174l0.56-0.886l7.686-1.54l0.507,0.108c10.687,2.341,20.206,3.527,28.3,3.527
				c0.003,0,0.007,0,0.007,0c14.67,0,24.837-3.831,30.236-11.389c8.407-11.766,2.614-29.078,2.557-29.253l-0.309-0.902l0.378-0.878
				c10.94-25.087-4.372-43.37-4.528-43.555l-2.247-2.616l59.522-23.555c5.758-3.997,21.881-18.982,4.509-52.643
				c-3.788-7.341-9.905-11.061-18.184-11.061c-4.813,0-8.82,1.312-9.837,1.674l-16.34,11.496l-60.557,51.231l-0.6,0.129
				c-1.119,0.242-27.65,5.958-38.993,5.958c-1.663,0-2.948-0.123-3.938-0.369c-0.17-0.041-0.367-0.064-0.586-0.064
				c-6.428,0-22.068,14.582-27.421,24.095c-3.376,6,8.074,34.625,17.278,53.036l0.638,1.278l-39.396,59.091l-4.024-89.902
				c-2.743-23.992-8.793-36.766-17.484-36.766c-1.288,0-2.675,0.273-4.122,0.812l-2.825,1.043l-0.46-2.97
				c-7.743-49.59-24.915-94.929-47.15-124.522c-22.189-10.862-48.183-16.367-77.275-16.367c-24.188,0-50.429,3.77-77.989,11.206
				c-18.331,11.598-36.228,25.576-53.191,41.548l-0.372,0.353c-0.993,0.941-1.901,1.814-2.807,2.688l-6.896,6.443l2.112-4.229
				c-32.197,6.24-109.52,25.387-117.01,46.454l0,0c0.013,0-4.493,19.615,6.822,62.498l2.42,9.167l-6.57-6.833
				c-0.057-0.058-6.324-6.352-16.721-6.352c-6.275,0-12.835,2.251-19.496,6.69l-0.875,0.586l-1.025-0.232
				c-0.091-0.017-9.201-2.025-18.849-2.025c-9.677,0-16.502,1.999-19.732,5.785c-1.923,2.253-2.664,5.183-2.245,8.932l25.338,18.26
				l-5.67,1.045c-0.208,0.039-20.913,3.965-28.352,14.883c-2.321,3.405-3.062,7.045-2.268,11.13
				c1.749,8.996,6.335,13.185,14.435,13.185c6.139,0,13.224-2.367,18.92-4.272l1.29-0.408c0.267-0.052,6.597-1.213,14.181-1.213
				c9.985,0,17.275,1.981,21.684,5.894h37.953l-0.374,3.245C352.023,576.362,351.802,578.249,351.609,580.127z M369.555,502.628
				l-8.183-50.337c-0.121-0.758-1.095-7.464,1.811-11.127c1.129-1.423,2.701-2.243,4.54-2.371c1.445-0.109,5.767-1.409,10.343-2.785
				c8.859-2.666,20.991-6.314,29.456-6.751l5.222-0.273l-3.12,4.194c-14.952,20.094-27.303,40.941-36.712,61.955L369.555,502.628z
				 M402.333,434.806c-7.27,1.228-16.051,3.865-22.851,5.913c-6.017,1.812-9.512,2.839-11.41,2.975
				c-0.465,0.033-0.767,0.186-1.034,0.525c-1.23,1.555-1.072,5.657-0.811,7.288l5.578,34.318
				C380.109,468.553,390.345,451.436,402.333,434.806z"/>
		</g>
	</g>
	<g>
		<g>
			<g>
				<path fill="#FFFFFF" d="M663.782,343.158c-51.735-24.29-113.014-16.016-158.14-3.405c-34.947,22.287-69.881,54.352-97.859,91.96
					c-14.527,19.522-27.182,40.524-36.983,62.416c-3.541,7.911-6.718,15.934-9.47,24.046
					c-43.053,126.896,10.742,219.612,104.348,251.37c93.613,31.756,192.709-9.084,235.763-135.983
					C735.48,533.223,711.475,404.792,663.782,343.158z"/>
			</g>
			<g>
				<path d="M526.065,782.286c-0.005,0-0.005,0-0.014,0c-20.222,0-40.803-3.504-61.162-10.411
					c-48.057-16.307-85.298-48.735-104.867-91.311C338.8,634.391,338.447,577.962,359,517.385c2.72-8.006,5.935-16.17,9.554-24.261
					c9.557-21.346,22.09-42.5,37.253-62.882c27.152-36.494,62.137-69.369,98.512-92.563l0.658-0.294
					c29.179-8.152,56.957-12.285,82.562-12.285c28.908,0,54.911,5.327,77.285,15.833l0.539,0.253l0.363,0.468
					c45.918,59.339,73.524,188.114,38.049,292.698C671.873,728.366,607.101,782.286,526.065,782.286z M506.655,342.024
					c-35.77,22.87-70.171,55.229-96.897,91.153c-14.953,20.094-27.306,40.941-36.715,61.955c-3.557,7.95-6.714,15.968-9.382,23.833
					c-20.143,59.364-19.854,114.536,0.832,159.544c19,41.338,55.215,72.839,101.976,88.703
					c19.853,6.735,39.898,10.153,59.583,10.153c78.807,0.007,141.887-52.699,173.061-144.592
					c34.857-102.762,8.011-229.1-36.914-287.641c-21.597-10.03-46.709-15.116-74.657-15.116
					C562.486,330.018,535.27,334.057,506.655,342.024z"/>
			</g>
		</g>
		<g>
			<g>
				<path d="M852.178,547.039c-2.752,0-5.587-0.482-8.462-1.587l1.764-4.594c18.873,7.243,36.957-19.87,37.135-20.144l4.114,2.702
					C886.009,524.514,870.954,547.039,852.178,547.039z"/>
			</g>
		</g>
		<g>
			<g>
				<path d="M822.864,509.742l-2.07-4.464c4.877-2.263,29.578-13.417,36.927-10.735l-1.686,4.62
					C852.029,497.693,834.222,504.473,822.864,509.742z"/>
			</g>
		</g>
		<g>
			<g>
				
					<rect x="835.446" y="483.75" transform="matrix(0.6205 0.7842 -0.7842 0.6205 707.4269 -467.4232)" width="2.458" height="26.965"/>
			</g>
		</g>
		<g>
			<g>
				<path fill="#D9E5F5" d="M702.324,481.998c-2.671,5.862-3.769,10.674-2.906,11.5c2.573,2.459,10.545,4.918,9.726,0
					c-0.566-3.397,6.283-15.375,10.587-22.476C712.798,471.562,706.029,477.889,702.324,481.998z"/>
			</g>
		</g>
		<g>
			<g>
				<path fill="#D9E5F5" d="M910.947,392.035l-16.602,11.684l-60.263,50.963c0,0-34.436,7.453-41.815,5.606
					c-7.377-1.844-25.207,15.373-30.743,25.215c-5.536,9.839,17.217,55.34,17.217,55.34l-34.391,51.583
					c-0.164,5.441,1.043,9.87,5.174,10.521c11.683,1.847,34.433-53.496,38.123-54.11c0,0,25.213,0.614,25.825-4.922
					c0.614-5.532-6.766-8.605-12.294-6.763c-5.537,1.845-6.154-26.439-13.531-26.439c0,0-4.921-32.312,12.912-33.99
					c17.834-1.678,23.98-1.678,31.977-4.137c7.994-2.459,22.751-27.054,36.894-35.048c12.95-7.322,51.321-35.242,74.858-30.928
					c-0.629-1.393-1.283-2.771-1.98-4.122C932.469,383.426,910.947,392.035,910.947,392.035z"/>
			</g>
		</g>
		<g>
			<g>
				<path fill="#D9E5F5" d="M716.825,477.139c0,0-0.149-10.104,6.543-5.792c6.685,4.314,12.19,145.705,17.761,149.298
					c0,0-3.885,10.594-15.143-0.633C714.729,608.782,716.825,477.139,716.825,477.139z"/>
			</g>
		</g>
		<g>
			<g>
				<path fill="#D9E5F5" d="M391.39,547.005c4.92-4.919,22.136-94.285,45.091-110.684l43.774-26.233c0,0,62.81-44.272,71.014-54.111
					c5.076-6.097,36.895-18.481,62.526-26.833c-36.931-4.581-74.575,1.496-105.233,9.804
					c-18.271,11.528-36.561,25.729-53.878,42.034l0.002-0.006l-0.087,0.087c-1.044,0.985-2.081,1.982-3.114,2.979l-1.17,1.12
					c0,0-111.396,20.823-121.235,48.496c0,0-4.919,19.677,6.766,63.95c0,0-15.374-15.988-39.355,0c0,0-47.962-10.727-43.658,16.467
					l21.521,15.507c0,0-36.895,6.764-32.589,28.901c4.304,22.135,24.596,14.757,37.509,10.453c0,0,25.21-4.701,34.437,4.722h36.173
					l-0.058,0.505c-0.284,2.23-0.538,4.449-0.755,6.648l-0.009,0.085l0.004-0.005c-7.64,77.8,25.068,137.571,80.068,170.923
					c-9.217-32.973-35.052-125.12-37.741-131.839C391.39,619.975,386.474,551.925,391.39,547.005z M320.882,565.043
					c-3.28,0-44.358-14.088-59.851-5.676c0,0,6.557-14.841,18.856-17.287c12.298-2.455,9.02-13.933,6.56-16.393
					c-2.46-2.457,14.347-10.934,19.062-11.613c4.715-0.683,12.91-8.062,18.65-5.604c5.743,2.459,15.578,1.916,17.218,7.93
					c1.64,6.007,6.557,3.274,8.608-2.326c2.051-5.604-3.689-73.652-9.427-75.292c0,0,72.967-38.534,91.825-33.614
					c0,0-51.653,44.525-82.398,148.523C349.985,553.691,324.159,565.043,320.882,565.043z"/>
			</g>
		</g>
		<g>
			<g>
				<path d="M526.065,782.286c-0.005,0-0.005,0-0.014,0c-20.222,0-40.803-3.504-61.162-10.411
					c-48.057-16.307-85.298-48.735-104.867-91.311C338.8,634.391,338.447,577.962,359,517.385c2.72-8.006,5.935-16.17,9.554-24.261
					c9.557-21.346,22.09-42.5,37.253-62.882c27.152-36.494,62.137-69.369,98.512-92.563l0.658-0.294
					c29.179-8.152,56.957-12.285,82.562-12.285c28.908,0,54.911,5.327,77.285,15.833l0.539,0.253l0.363,0.468
					c45.918,59.339,73.524,188.114,38.049,292.698C671.873,728.366,607.101,782.286,526.065,782.286z M506.655,342.024
					c-35.77,22.87-70.171,55.229-96.897,91.153c-14.953,20.094-27.306,40.941-36.715,61.955c-3.557,7.95-6.714,15.968-9.382,23.833
					c-20.143,59.364-19.854,114.536,0.832,159.544c19,41.338,55.215,72.839,101.976,88.703
					c19.853,6.735,39.898,10.153,59.583,10.153c78.807,0.007,141.887-52.699,173.061-144.592
					c34.857-102.762,8.011-229.1-36.914-287.641c-21.597-10.03-46.709-15.116-74.657-15.116
					C562.486,330.018,535.27,334.057,506.655,342.024z"/>
			</g>
		</g>
		<g>
			<g>
				<g>
					<g>
						<path d="M312.337,517.291c-2.745-7.066-17.653-15.8-23.164-18.565l2.21-4.397c2.199,1.104,21.62,11.094,25.537,21.183
							L312.337,517.291z"/>
					</g>
				</g>
			</g>
			<g>
				<g>
					<g>
						<path d="M301.762,544.824c-7.365-7.895-29.096-12.496-29.314-12.54l1.002-4.816c0.956,0.2,23.478,4.968,31.909,14.004
							L301.762,544.824z"/>
					</g>
				</g>
			</g>
			<g>
				<g>
					<g>
						<path d="M414.561,483.854l-3.708-3.232c0.223-0.257,5.58-6.356,12.369-10.017c5.025-2.711,9.606-3.425,13.613-2.122
							l-1.523,4.682c-2.681-0.874-5.954-0.278-9.754,1.77C419.571,478.162,414.609,483.802,414.561,483.854z"/>
					</g>
				</g>
			</g>
			<g>
				<g>
					<g>
						<path d="M572.202,570.187c-0.236,0-0.479,0-0.713-0.002c-66.616-0.369-117.852-52.396-149.099-95.979l3.998-2.87
							c43.855,61.168,94.042,93.648,145.128,93.928c0.222,0.005,0.451,0.005,0.672,0.005c35.874,0,60.465-15.842,63.385-17.812
							c2.31-3.014,3.719-3.921,5.326-3.469l-1.346,4.736c0.807,0.227,1.452-0.059,1.63-0.182c-0.313,0.223-1.232,1.272-1.923,2.193
							l-0.539,0.522C637.639,552.037,611.805,570.187,572.202,570.187z"/>
					</g>
				</g>
			</g>
			<g>
				<g>
					<g>
						<path d="M600.031,348.247c5.883-0.368,11.396-3.308,16.911-3.675c6.617-0.37,12.502,2.572,18.013,6.614
							c8.825,6.25,17.279,26.104,29.413,26.104c0.734-4.778-4.779-13.604-6.617-18.382c-2.21-6.251-4.779-12.499-7.352-18.751
							c-3.308-7.72-9.562-12.866-17.651-13.968c-11.393-1.837-36.393,6.985-34.186,20.588"/>
					</g>
				</g>
			</g>
			<g>
				<g>
					<g>
						<path d="M587.869,528.005c-0.006,0-0.006,0-0.006,0c-3.805,0-7.65-0.534-11.43-1.578
							c-12.854-3.556-22.833-12.505-28.075-25.199c-5.595-13.524-5.751-30.793-0.46-49.938c1.166-4.218,2.707-8.611,4.576-13.06
							l0.596-1.416l1.534-0.083c1.133-0.062,2.468-0.109,3.99-0.109c16.353,0,48.555,4.815,80.445,37.035l1.003,1.016l-0.529,1.947
							C630.62,508.795,611.312,528.005,587.869,528.005z M556.413,441.576c-1.521,3.761-2.79,7.461-3.771,11.023
							c-4.999,18.08-4.91,34.242,0.259,46.749c4.726,11.427,13.319,19.149,24.84,22.333c3.357,0.933,6.763,1.403,10.123,1.403
							c20.915,0,38.324-17.538,46.683-46.966c-30.305-30.051-60.53-34.576-75.951-34.576
							C557.815,441.543,557.083,441.556,556.413,441.576z"/>
					</g>
				</g>
			</g>
			<g>
				<g>
					<g>
						<path d="M587.383,459.5c0,9.704,7.866,17.567,17.574,17.567c8.776,0,16.036-6.444,17.338-14.858
							c-9.966-7.568-19.687-12.72-28.604-16.188C589.835,449.244,587.383,454.084,587.383,459.5z"/>
					</g>
				</g>
			</g>
			<g>
				<g>
					<g>
						<path d="M575.898,584.223c-68.011,43.363-84.918,17.002-84.918,17.002s-39.328-22.654-42.198-22.654
							c-2.871,0-9.183-2.052-3.16-5.331c6.03-3.277,9.868-34.312,5.9-35.396"/>
					</g>
				</g>
			</g>
			<g>
				<g>
					<g>
						<path fill="#FFFFFF" d="M445.623,499.648l1.929,33.417c0,0,80.322,105.663,170.519,25.98l0,0
							C586.103,571.584,518.278,582.73,445.623,499.648z"/>
					</g>
				</g>
				<g>
					<g>
						<path d="M547.646,591.244c-58.279,0-100.292-54.375-102.051-56.687l-0.455-0.6l-2.383-41.325l4.719,5.396
							c39.013,44.611,80.976,67.231,124.729,67.231c15.452,0,30.581-2.859,44.969-8.499l12.957-5.085l-10.429,9.212
							C596.898,581.031,572.655,591.244,547.646,591.244z M449.964,532.152c4.686,5.857,44.988,54.175,97.681,54.175
							c20.019,0,39.592-6.946,58.333-20.675c-10.983,3.008-22.291,4.527-33.773,4.527c-43.459,0-85.06-21.408-123.721-63.645
							L449.964,532.152z"/>
					</g>
				</g>
			</g>
			<g>
				<g>
					<g>
						<path fill="#FFFFFF" d="M485.675,615.054c0,0,17.485,11.478,30.059,10.252"/>
					</g>
				</g>
				<g>
					<g>
						<path d="M513.804,627.854c-12.956,0-28.773-10.282-29.477-10.745l2.7-4.111c0.165,0.107,16.93,10.958,28.468,9.857
							l0.481,4.896C515.262,627.817,514.535,627.854,513.804,627.854z"/>
					</g>
				</g>
			</g>
			<g>
				<g>
					<g>
						<path d="M638.554,480.156l-3.01-3.037c-4.665-4.714-9.625-9.068-14.737-12.949c-8.888-6.749-18.312-12.085-28.009-15.859
							c-14.367-5.592-26.543-6.768-34.229-6.768c-1.405,0-2.643,0.044-3.693,0.097l-3.93,0.216l1.528-3.625
							c13.372-31.807,41.566-59.711,60.338-59.711c1.539,0,3.001,0.188,4.367,0.566c21.157,5.853,33.139,57.494,22.49,96.941
							L638.554,480.156z M558.569,436.626c8.108,0,20.935,1.231,36.014,7.101c10.123,3.941,19.946,9.499,29.2,16.521
							c4.176,3.173,8.253,6.65,12.155,10.367c8.462-37.689-3.907-82.317-20.068-86.788c-0.938-0.261-1.965-0.389-3.058-0.389
							c-14.543,0-40.21,22.514-54.26,53.188C558.559,436.626,558.56,436.626,558.569,436.626z"/>
					</g>
				</g>
			</g>
			<g>
				<g>
					<g>
						<path d="M495.152,361.881c3.038,13.498,22.202,14.349,32.71,13.169c9.469-1.431,16.762-4.465,23.21-11.716
							c1.956-2.097,10.35-12.915,8.309-16.683c-3.016-5.821-21.199,7.808-24.966,9.844c-5.477,3.098-11.505,3.872-18.065,3.791
							c-5.517,0.163-15.068-4.271-19.771-1.36"/>
					</g>
				</g>
			</g>
			<g>
				<g>
					<g>
						<path d="M484.712,473.283c-0.005,0,0,0-0.005,0c-4.374,0-7.964-0.957-10.664-2.852c-11.298-7.929-11.897-36.309-1.33-63.261
							l0.576-1.473l1.585-0.086c14.876-0.78,48.473,1.658,64.689,36.96l0.716,1.555l-1.213,1.21
							C522.83,461.531,499.967,473.283,484.712,473.283z M476.72,410.46c-8.887,23.726-8.891,49.6,0.149,55.945
							c1.857,1.298,4.494,1.958,7.838,1.958c13.709,0,34.355-10.564,49.651-25.295C519.678,413.108,490.919,409.996,476.72,410.46z"
							/>
					</g>
				</g>
			</g>
			<g>
				<g>
					<g>
						<path d="M497.938,410.301c-1.755,2.737-2.786,5.98-2.786,9.473c0,9.705,7.864,17.572,17.573,17.572
							c6.461,0,12.091-3.497,15.146-8.694C518.979,418.258,508.049,412.919,497.938,410.301z"/>
					</g>
				</g>
			</g>
			<g>
				<g>
					<g>
						<path d="M536.569,447.83l-1.477-3.209c-2.455-5.354-5.514-10.188-9.091-14.369c-7.39-8.642-17.04-14.554-28.68-17.571
							c-5.777-1.498-11.916-2.258-18.242-2.258c-1.428,0-2.751,0.041-3.947,0.107l-3.812,0.197l1.394-3.557
							c2.98-7.605,6.655-14.549,10.924-20.637c12.741-18.177,28.366-28.185,43.999-28.185c7.262,0,14.325,2.262,20.424,6.537
							c9.275,6.506,14.717,16.494,15.316,28.127c0.633,12.353-4.107,26.123-13.723,39.823c-2.995,4.278-6.56,8.483-10.587,12.5
							L536.569,447.83z M479.079,405.507c6.743,0,13.296,0.811,19.477,2.412c12.634,3.273,23.125,9.712,31.181,19.135
							c3.146,3.675,5.917,7.807,8.262,12.316c2.846-3.049,5.401-6.181,7.625-9.357c8.977-12.793,13.416-25.501,12.837-36.746
							c-0.525-10.232-5.102-18.654-13.221-24.354c-5.344-3.745-11.267-5.646-17.603-5.646c-13.979,0-28.177,9.268-39.974,26.091
							c-3.388,4.837-6.389,10.256-8.941,16.148C478.837,405.507,478.958,405.507,479.079,405.507z"/>
					</g>
				</g>
			</g>
			<g>
				<g>
					<g>
						<path d="M308.83,538.09l-3.776-3.151c2.46-2.947,24.472-28.657,39.708-23.177l-1.665,4.628
							C332.91,512.73,314.91,530.812,308.83,538.09z"/>
					</g>
				</g>
			</g>
			<g>
				<g>
					<g>
						<path d="M456.376,543.146v0.004l-1.855,35.01l47.957,30.337c0,0,52.612-14.2,74.461-24.62l0.01-0.002
							C521.645,602.68,475.089,562.786,456.376,543.146z"/>
					</g>
				</g>
			</g>
		</g>
		<g>
			<g>
				<path d="M828.201,562.25c-9.15,0.001-17.995-9.052-21.204-12.729c-16.097,6.042-35.728-19.282-36.585-20.404l-0.264-0.437
					l-4.449-9.321l-1.457-3.611l4.564-1.832l1.392,3.468l4.272,8.945c5.521,7.124,21.574,23.685,32.037,18.019l1.827-0.99
					l1.279,1.636c0.145,0.18,14.042,17.684,23.659,10.604c4.131-3.041,7.385-8.558,8.932-15.141
					c2.047-8.742,0.486-16.634-3.811-19.188l-12.852-7.185l-7.536-3.596l0.133-1.686c0.901-11.242,0.872-24.633-0.614-26.649
					c0.206,0.273,0.865,0.54,1.44,0.339l-1.665-4.628c1.162-0.412,2.384-0.23,3.354,0.515c3.623,2.771,3.417,16.998,2.521,29.131
					l4.625,2.206l13.056,7.294c7.234,4.298,8.281,15.431,6.136,24.572c-1.808,7.703-5.748,14.255-10.798,17.972
					C833.59,561.475,830.884,562.25,828.201,562.25z"/>
			</g>
		</g>
	</g>
	<g>
		<g>
			<path d="M527.731,782.286c-20.219,0-40.799-3.504-61.165-10.411c-39.67-13.461-71.801-37.571-92.913-69.73
				c-21.069-32.081-30.558-71.606-27.607-114.663l-0.262,0.269l0.83-7.139c0.15-1.503,0.312-3,0.489-4.49h-34.433l-0.722-0.742
				c-3.302-3.373-9.853-5.156-18.948-5.156c-6.471,0-12.115,0.928-13.123,1.104l-0.789,0.264c-6.031,2.02-13.539,4.531-20.479,4.531
				c-10.567,0-17.047-5.777-19.262-17.169c-1.046-5.37-0.023-10.362,3.036-14.847c6.091-8.932,18.894-13.625,26.18-15.663
				l-18.004-12.975l-0.158-1.01c-0.895-5.658,0.19-10.332,3.229-13.89c4.256-4.982,12.154-7.505,23.474-7.505
				c8.375,0,16.148,1.383,18.89,1.931c7.193-4.614,14.373-6.953,21.355-6.953c6.125,0,11.021,1.795,14.469,3.669
				c-9.599-39.816-5.321-57.863-5.123-58.648c4.423-12.486,26.604-24.649,65.989-36.387c26.283-7.833,51.872-12.907,56.456-13.793
				l0.643-0.618c1.033-0.994,2.075-1.998,3.125-2.989l0.088-0.085c0.004-0.003,0.008-0.004,0.011-0.008l10.006-9.453l-0.31,0.626
				c14.364-12.636,29.305-23.871,44.545-33.487l0.669-0.294c28.114-7.613,54.903-11.478,79.633-11.478
				c30.079,0,56.99,5.765,79.979,17.137l0.518,0.257l0.351,0.464c22.466,29.661,39.891,74.899,47.998,124.455
				c1.019-0.201,2.012-0.305,2.987-0.305c11.732,0,19.262,13.895,22.382,41.292l3.369,75.064l29.478-44.222
				c-4.981-10.102-22.132-46.404-16.526-56.364c5.124-9.107,22.032-26.603,31.707-26.603c0.619,0,1.221,0.069,1.779,0.211
				c0.4,0.099,1.205,0.222,2.745,0.222c9.912,0,33.319-4.863,37.356-5.721l59.792-50.566l17.274-12.088
				c0.217-0.086,5.361-2.113,11.903-2.113c7.061,0,16.701,2.38,22.553,13.721c13.131,25.438,10.761,47.54-6.337,59.125l-0.476,0.248
				l-53.61,21.213c4.211,6.366,12.811,23.266,3.672,45.151c1.221,4.093,5.279,20.463-3.48,32.758
				c-6.369,8.94-17.896,13.475-34.256,13.475c0,0-0.004,0-0.007,0c-8.316,0-18.021-1.191-28.849-3.533l-4.62,0.923
				c-2.79,4.325-15.458,23.652-30.949,42.753c-23.861,29.408-42.84,44.314-56.421,44.314c-9.636,0-16.3-7.072-19.827-21.032
				l-0.969-5.94c-0.539,1.715-1.082,3.361-1.616,4.961C673.551,728.367,608.771,782.286,527.731,782.286z M351.609,580.127
				l-0.099,1.001c-4.376,44.578,4.701,85.492,26.251,118.315c20.508,31.235,51.762,54.67,90.385,67.77
				c19.857,6.735,39.902,10.153,59.584,10.153c78.805,0,141.881-52.703,173.058-144.592c1.529-4.51,3.029-9.451,4.587-15.107
				l2.99-10.848l4.486,27.514c2.897,11.446,7.819,17.112,15.011,17.112c11.854,0,30.045-14.693,52.6-42.496
				c17.314-21.345,31.049-42.96,31.188-43.174l0.56-0.886l7.686-1.54l0.507,0.108c10.687,2.341,20.206,3.527,28.3,3.527
				c0.003,0,0.007,0,0.007,0c14.67,0,24.837-3.831,30.236-11.389c8.407-11.766,2.614-29.078,2.557-29.253l-0.309-0.902l0.378-0.878
				c10.94-25.087-4.372-43.37-4.528-43.555l-2.247-2.616l59.522-23.555c5.758-3.997,21.881-18.982,4.509-52.643
				c-3.788-7.341-9.905-11.061-18.184-11.061c-4.813,0-8.82,1.312-9.837,1.674l-16.34,11.496l-60.557,51.231l-0.6,0.129
				c-1.119,0.242-27.65,5.958-38.993,5.958c-1.663,0-2.948-0.123-3.938-0.369c-0.17-0.041-0.367-0.064-0.586-0.064
				c-6.428,0-22.068,14.582-27.421,24.095c-3.376,6,8.074,34.625,17.278,53.036l0.638,1.278l-39.396,59.091l-4.024-89.902
				c-2.743-23.992-8.793-36.766-17.484-36.766c-1.288,0-2.675,0.273-4.122,0.812l-2.825,1.043l-0.46-2.97
				c-7.743-49.59-24.915-94.929-47.15-124.522c-22.189-10.862-48.183-16.367-77.275-16.367c-24.188,0-50.429,3.77-77.989,11.206
				c-18.331,11.598-36.228,25.576-53.191,41.548l-0.372,0.353c-0.993,0.941-1.901,1.814-2.807,2.688l-6.896,6.443l2.112-4.229
				c-32.197,6.24-109.52,25.387-117.01,46.454l0,0c0.013,0-4.493,19.615,6.822,62.498l2.42,9.167l-6.57-6.833
				c-0.057-0.058-6.324-6.352-16.721-6.352c-6.275,0-12.835,2.251-19.496,6.69l-0.875,0.586l-1.025-0.232
				c-0.091-0.017-9.201-2.025-18.849-2.025c-9.677,0-16.502,1.999-19.732,5.785c-1.923,2.253-2.664,5.183-2.245,8.932l25.338,18.26
				l-5.67,1.045c-0.208,0.039-20.913,3.965-28.352,14.883c-2.321,3.405-3.062,7.045-2.268,11.13
				c1.749,8.996,6.335,13.185,14.435,13.185c6.139,0,13.224-2.367,18.92-4.272l1.29-0.408c0.267-0.052,6.597-1.213,14.181-1.213
				c9.985,0,17.275,1.981,21.684,5.894h37.953l-0.374,3.245C352.023,576.362,351.802,578.249,351.609,580.127z"/>
		</g>
	</g>
	<g>
		<g>
			<path d="M569.746,716.312c-104.234,0-192.285-62.633-220.702-148.55c-2.666,17.462-3.357,34.085-2.249,49.775
				c37.494,71.767,120.061,121.609,215.901,121.609c30.501,0,59.66-5.054,86.45-14.251c8.403-9.028,16.293-19.181,23.548-30.518
				C641.714,708.404,606.753,716.312,569.746,716.312z"/>
		</g>
	</g>
	<g>
		<g>
			<path d="M415.311,639.01c0,0-21.806,29.149-16.227,52.83c0,0-0.017,1.856-3.288,7.008c-3.268,5.155,14.704,28.908,41.454,6.985
				l7.975-27.479C445.224,678.354,425.037,640.526,415.311,639.01z"/>
		</g>
		<g>
			<path fill="#6D6969" d="M415.532,716.199L415.532,716.199c-9.521,0-16.877-5.621-19.942-11.197
				c-1.521-2.768-1.823-5.246-0.831-6.812c2.497-3.936,2.986-5.814,3.077-6.289c-5.464-23.912,15.588-52.421,16.489-53.628
				l0.445-0.59l0.73,0.111c10.042,1.566,28.714,36.053,30.811,39.98l0.234,0.441l-8.222,28.324l-0.293,0.247
				C430.407,713.031,422.838,716.199,415.532,716.199z M415.824,640.403c-3.119,4.417-20.473,30.238-15.545,51.153l0.036,0.146
				l-0.002,0.151c-0.004,0.364-0.188,2.47-3.479,7.655c-0.375,0.593-0.251,2.196,0.911,4.309c2.717,4.935,9.27,9.923,17.787,9.923
				l0,0c6.632,0,13.572-2.896,20.644-8.618l7.727-26.628C438.339,668.143,423.45,642.987,415.824,640.403z"/>
		</g>
	</g>
	<g>
		<g>
			<path d="M457.288,710.322c0,0,24.184,36.656,35.315,36.879c0,0,7.224,4.048,12.04-4.315c4.815-8.359,17.748-41.396,17.748-41.396
				s3.616-28.966-51.755-17.161C415.268,696.131,457.288,710.322,457.288,710.322z"/>
		</g>
		<g>
			<path fill="#6D6969" d="M496.701,749.412L496.701,749.412c-2.095,0-3.77-0.688-4.415-0.993
				c-11.237-0.759-32.406-31.97-35.794-37.073c-2.902-1.023-16.106-6.086-15.696-13.188c0.347-5.943,10.021-10.863,29.583-15.034
				c24.34-5.186,41.033-3.235,48.824,5.593c5.216,5.907,4.443,12.645,4.406,12.927l-0.072,0.294
				c-0.532,1.358-13.023,33.217-17.826,41.564C502.898,748.385,499.256,749.412,496.701,749.412z M493.985,682.73
				c-6.606,0-14.376,0.943-23.093,2.8c-23.699,5.053-27.489,10.168-27.64,12.771c-0.278,4.782,10.599,9.559,14.43,10.857
				l0.397,0.134l0.234,0.351c6.629,10.048,25.714,36.16,34.315,36.327l0.307,0.008l0.269,0.149c0.013,0.008,1.522,0.825,3.497,0.825
				c2.775,0,5.087-1.572,6.874-4.683c4.547-7.887,16.615-38.547,17.608-41.063c0.067-0.92,0.255-6.271-3.856-10.901
				C512.858,685.279,505.008,682.73,493.985,682.73z"/>
		</g>
	</g>
	<g>
		<g>
			<path d="M473.289,697.504c-1.494,11.398-11.946,19.427-23.344,17.932c-11.4-1.494-19.431-11.949-17.935-23.344
				c1.496-11.399,11.947-19.428,23.346-17.935C466.755,675.648,474.783,686.103,473.289,697.504z"/>
		</g>
		<g>
			<path fill="#6D6969" d="M452.676,716.847c-0.96,0-1.934-0.064-2.893-0.188c-12.053-1.583-20.574-12.674-18.994-24.729
				c1.437-10.934,10.822-19.18,21.836-19.18c0.96,0,1.934,0.061,2.892,0.187c5.837,0.768,11.03,3.76,14.616,8.431
				c3.585,4.669,5.139,10.457,4.377,16.294C473.075,708.6,463.688,716.847,452.676,716.847z M452.625,675.212
				c-9.783,0-18.121,7.323-19.396,17.041c-1.405,10.707,6.165,20.562,16.876,21.966c0.853,0.111,1.717,0.169,2.57,0.169
				c9.783,0,18.122-7.327,19.393-17.048c0.68-5.186-0.699-10.326-3.887-14.474c-3.186-4.149-7.799-6.81-12.987-7.489
				C454.342,675.263,453.477,675.212,452.625,675.212z"/>
		</g>
	</g>
	<g>
		<g>
			<path fill="#6D6969" d="M432.731,685.362c-1.803-2.897-8.075-11.255-13.062-11.658l0.4-4.905
				c8.357,0.677,15.998,12.606,16.843,13.969L432.731,685.362z"/>
		</g>
	</g>
	<g>
		<g>
			<path fill="#6D6969" d="M474.634,699.561l-2.697-4.113c0.447-0.291,11.001-7.104,18.198-0.063l-3.436,3.518
				C482.326,694.635,474.712,699.514,474.634,699.561z"/>
		</g>
	</g>
	<g>
		<g>
			<path fill="#6D6969" d="M481.594,719.325c-6.986-2.757-12.807-12.411-13.049-12.819l4.222-2.521
				c1.432,2.393,6.133,8.991,10.635,10.764L481.594,719.325z"/>
		</g>
	</g>
</g>
</svg>
