<?xml version="1.0" encoding="utf-8"?>
<!-- Generator: Adobe Illustrator 16.0.0, SVG Export Plug-In . SVG Version: 6.00 Build 0)  -->
<!DOCTYPE svg PUBLIC "-//W3C//DTD SVG 1.1//EN" "http://www.w3.org/Graphics/SVG/1.1/DTD/svg11.dtd">
<svg version="1.1" id="Layer_1" xmlns="http://www.w3.org/2000/svg" xmlns:xlink="http://www.w3.org/1999/xlink" x="0px" y="0px"
	 width="1190.55px" height="841.89px" viewBox="0 0 1190.55 841.89" enable-background="new 0 0 1190.55 841.89"
	 xml:space="preserve">
<g>
	<g>
		<g>
			<path fill="#002F87" d="M636.037,214.889c0-1.35,1.096-2.451,2.451-2.451c1.367,0,2.455,1.101,2.455,2.451
				c0,1.372-1.088,2.475-2.455,2.475C637.133,217.364,636.037,216.261,636.037,214.889"/>
		</g>
		<g>
			<rect x="46.971" y="341.381" fill="#FFFFFF" stroke="#FFFFFF" stroke-miterlimit="10" width="1100.372" height="3.659"/>
		</g>
		<g>
			<rect x="46.971" y="496.582" fill="#FFFFFF" stroke="#FFFFFF" stroke-miterlimit="10" width="1100.372" height="3.662"/>
		</g>
		<g>
			<g>
				<polygon fill-rule="evenodd" clip-rule="evenodd" fill="#FFFFFF" points="600.878,225.693 632.903,202.828 624.235,202.828 
					597.044,222.242 				"/>
			</g>
			<g>
				<polygon fill-rule="evenodd" clip-rule="evenodd" fill="#FFFFFF" points="593.198,218.792 615.561,202.828 606.891,202.828 
					589.362,215.342 				"/>
			</g>
			<g>
				<path fill-rule="evenodd" clip-rule="evenodd" fill="#FFFFFF" d="M534.734,308.724v45.934c0.547,0.071,1.093,0.116,1.666,0.116
					h3.361l-0.038-42.05C539.367,312.419,536.271,309.856,534.734,308.724"/>
			</g>
			<g>
				<path fill-rule="evenodd" clip-rule="evenodd" fill="#FFFFFF" d="M612.154,245.313c-31.289,10.197-56.007,34.948-66.2,66.274
					c1.226,1.173,2.422,2.374,3.586,3.612c9.648-32.226,35.261-57.536,67.649-66.716v-16.343h-5.036V245.313z"/>
			</g>
			<g>
				<path fill-rule="evenodd" clip-rule="evenodd" fill="#FFFFFF" d="M553.484,319.651c1.385,1.681,2.692,3.427,3.943,5.205
					c7.434-34.613,35.009-61.729,69.852-68.438v-24.277h-5.035v20.216C588.745,260.375,562.234,286.401,553.484,319.651"/>
			</g>
			<g>
				<path fill-rule="evenodd" clip-rule="evenodd" fill="#FFFFFF" d="M524.657,343.019c0,3.999,1.985,7.531,5.039,9.649v-47.409
					c-0.19-0.117-3.572-2.158-5.085-2.974C524.611,302.285,524.657,343.012,524.657,343.019"/>
			</g>
			<g>
				<path fill-rule="evenodd" clip-rule="evenodd" fill="#FFFFFF" d="M634.278,208.035L607.582,227.1h24.672v33.605
					c-36.414,5.192-65.309,33.866-70.846,70.207c0,0.003,0.003,0.003,0.003,0.003c-0.454,2.985-0.738,6.015-0.869,9.091
					c-2.608-5.476-5.823-10.648-9.536-15.413c-1.94-2.479-4.006-4.846-6.202-7.091l-0.004,37.263h90.877
					c1.233,0,2.421-0.192,3.546-0.551c0.062-0.018,0.227-0.069,0.246-0.072c4.424-1.506,7.663-5.596,7.923-10.48
					c0.002-0.03,0.018-1.062,0.018-1.062c-0.065-1.82-0.547-3.541-1.344-5.059l-21.573-38.803h5.729l17.2,30.85V214.914v-0.024
					c0-4.611-3.722-8.339-8.389-8.339C637.273,206.55,635.629,207.099,634.278,208.035"/>
			</g>
			<g>
				<path fill="#E2231A" d="M541.836,307.879c10.702-30.702,34.812-55.118,65.31-66.199v-9.539h-6.618l-19.206-17.255l16.893-12.068
					h-25.755h-36.07c-6.486,0.004-11.737,5.256-11.743,11.745v82.042C530.815,299.7,536.579,303.491,541.836,307.879"/>
			</g>
			<g>
				<path fill-rule="evenodd" clip-rule="evenodd" fill="#002F87" d="M635.687,197.787L635.687,197.787H536.43h-0.04
					c-9.266,0-16.768,7.515-16.768,16.792v0.065v128.382c0,9.274,7.502,16.781,16.768,16.784h99.297
					c9.257,0,16.759-7.51,16.759-16.784V214.571C652.439,205.298,644.941,197.787,635.687,197.787 M519.622,214.579v-0.011V214.579z
					 M624.235,202.828h8.668l-32.025,22.865l-3.834-3.451L624.235,202.828z M593.198,218.792l-3.836-3.45l17.529-12.514h8.67
					L593.198,218.792z M529.696,352.668c-3.054-2.119-5.039-5.65-5.039-9.649c0,0-0.004-2.654-0.01-6.613v-34.102
					c1.539,0.835,4.859,2.84,5.049,2.959V352.668z M539.709,354.766h-3.761c-0.405-0.015-0.82-0.058-1.214-0.108v-45.934
					c1.537,1.136,4.633,3.695,4.989,4L539.709,354.766z M524.647,296.605v-82.042c0.006-6.489,5.257-11.741,11.743-11.745h61.828
					l-16.896,12.068l19.203,17.258h6.621v9.536c-30.493,11.086-54.602,35.497-65.31,66.199
					C536.583,303.491,530.815,299.702,524.647,296.605 M617.19,248.484L617.19,248.484c-32.389,9.18-58.001,34.49-67.649,66.716
					c-1.165-1.238-2.361-2.439-3.586-3.612c10.192-31.326,34.911-56.077,66.2-66.274v-13.169h5.036V248.484z M622.244,252.357
					v-20.213h5.035v24.274c-34.843,6.709-62.418,33.825-69.852,68.438c-1.259-1.778-2.558-3.524-3.943-5.205
					C562.234,286.401,588.745,260.375,622.244,252.357 M647.418,214.914L647.418,214.914v114.673l-17.195-30.85h-5.725
					l21.569,38.803c0.797,1.518,1.278,3.239,1.344,5.059c0,0-0.016,1.033-0.018,1.062c-0.265,4.885-3.499,8.974-7.923,10.48
					c-0.023,0.003-0.184,0.055-0.246,0.072c-1.082,0.348-2.232,0.537-3.415,0.551h-91.008l0.004-37.263
					c6.409,6.547,11.75,14.143,15.737,22.504c0.13-3.076,0.415-6.106,0.869-9.091c0,0-0.003,0-0.003-0.003
					c5.529-36.34,34.429-65.015,70.851-70.207l0.002-33.605h-24.679l26.696-19.065c1.351-0.936,2.992-1.485,4.756-1.485
					c4.667,0,8.384,3.728,8.384,8.339V214.914z"/>
			</g>
			<g>
				<path fill="#002F87" d="M637.491,217.074c0-1.312,1.073-2.38,2.383-2.38c1.336,0,2.395,1.068,2.395,2.38
					c0,1.333-1.059,2.407-2.395,2.407C638.564,219.481,637.491,218.407,637.491,217.074"/>
			</g>
		</g>
		<rect x="87.218" y="389.906" fill="none" width="1000.893" height="59.413"/>
		<text transform="matrix(1 0 0 1 87.2178 446.9785)" fill="#FFFFFF" font-family="'MyriadPro-BoldCond'" font-size="82.4768">Los Increíbles Incubadores de Provi</text>
		<rect x="76.519" y="537.504" fill="none" width="1024.331" height="54.652"/>
		<text transform="matrix(1 0 0 1 520.4033 590.0039)" fill="#FFFFFF" font-family="'MyriadPro-BoldCond'" font-size="75.87">Provi</text>
	</g>
</g>
</svg>
