<?xml version="1.0" encoding="utf-8"?>
<!-- Generator: Adobe Illustrator 16.0.0, SVG Export Plug-In . SVG Version: 6.00 Build 0)  -->
<!DOCTYPE svg PUBLIC "-//W3C//DTD SVG 1.1//EN" "http://www.w3.org/Graphics/SVG/1.1/DTD/svg11.dtd">
<svg version="1.1" id="Layer_1" xmlns="http://www.w3.org/2000/svg" xmlns:xlink="http://www.w3.org/1999/xlink" x="0px" y="0px"
	 width="1190.55px" height="841.89px" viewBox="0 0 1190.55 841.89" enable-background="new 0 0 1190.55 841.89"
	 xml:space="preserve">
<g>
	<g>
		<g>
			<path fill="#002F87" d="M634.36,239.903c0-1.355,1.104-2.463,2.466-2.463c1.374,0,2.468,1.107,2.468,2.463
				c0,1.38-1.094,2.488-2.468,2.488C635.464,242.392,634.36,241.283,634.36,239.903"/>
		</g>
		<g>
			<rect x="42.16" y="367.069" fill="#FFFFFF" stroke="#FFFFFF" stroke-miterlimit="10" width="1106.229" height="3.678"/>
		</g>
		<g>
			<rect x="42.16" y="523.097" fill="#FFFFFF" stroke="#FFFFFF" stroke-miterlimit="10" width="1106.229" height="3.679"/>
		</g>
		<g>
			<g>
				<polygon fill-rule="evenodd" clip-rule="evenodd" fill="#FFFFFF" points="599.017,250.765 631.211,227.778 622.497,227.778 
					595.161,247.296 				"/>
			</g>
			<g>
				<polygon fill-rule="evenodd" clip-rule="evenodd" fill="#FFFFFF" points="591.294,243.827 613.775,227.778 605.061,227.778 
					587.437,240.359 				"/>
			</g>
			<g>
				<path fill-rule="evenodd" clip-rule="evenodd" fill="#FFFFFF" d="M532.519,334.237v46.18c0.551,0.071,1.1,0.115,1.675,0.115
					h3.378l-0.035-42.273C537.177,337.953,534.064,335.377,532.519,334.237"/>
			</g>
			<g>
				<path fill-rule="evenodd" clip-rule="evenodd" fill="#FFFFFF" d="M610.353,270.489c-31.455,10.253-56.306,35.136-66.554,66.629
					c1.232,1.179,2.436,2.386,3.606,3.63c9.7-32.397,35.448-57.842,68.011-67.07v-16.43h-5.063V270.489z"/>
			</g>
			<g>
				<path fill-rule="evenodd" clip-rule="evenodd" fill="#FFFFFF" d="M551.369,345.224c1.393,1.69,2.708,3.445,3.964,5.232
					c7.474-34.798,35.196-62.057,70.226-68.801v-24.407h-5.064v20.323C586.818,285.633,560.167,311.796,551.369,345.224"/>
			</g>
			<g>
				<path fill-rule="evenodd" clip-rule="evenodd" fill="#FFFFFF" d="M522.39,368.715c0,4.021,1.993,7.571,5.065,9.7v-47.66
					c-0.191-0.118-3.59-2.169-5.112-2.989C522.343,327.766,522.39,368.709,522.39,368.715"/>
			</g>
			<g>
				<path fill-rule="evenodd" clip-rule="evenodd" fill="#FFFFFF" d="M632.593,233.013l-26.838,19.167h24.803v33.784
					c-36.606,5.22-65.655,34.046-71.222,70.581c0,0.002,0.004,0.002,0.004,0.002c-0.457,3.001-0.743,6.048-0.873,9.14
					c-2.624-5.504-5.855-10.704-9.588-15.494c-1.951-2.492-4.025-4.872-6.234-7.129l-0.004,37.461h91.362
					c1.238,0,2.434-0.193,3.563-0.553c0.063-0.019,0.227-0.07,0.248-0.073c4.446-1.515,7.702-5.627,7.963-10.536
					c0.004-0.03,0.019-1.068,0.019-1.068c-0.066-1.829-0.55-3.56-1.351-5.085l-21.688-39.011h5.758l17.291,31.014V239.929v-0.025
					c0-4.636-3.74-8.383-8.432-8.383C635.605,231.521,633.951,232.071,632.593,233.013"/>
			</g>
			<g>
				<path fill="#E2231A" d="M539.661,333.389c10.757-30.864,34.995-55.411,65.656-66.551v-9.59h-6.655l-19.307-17.347l16.983-12.133
					h-25.894h-36.261c-6.521,0.004-11.8,5.284-11.806,11.807v82.479C528.58,325.167,534.375,328.977,539.661,333.389"/>
			</g>
			<g>
				<path fill-rule="evenodd" clip-rule="evenodd" fill="#002F87" d="M634.01,222.71L634.01,222.71h-99.785h-0.04
					c-9.315,0-16.856,7.556-16.856,16.882v0.066v129.065c0,9.323,7.541,16.871,16.856,16.872h99.825
					c9.307,0,16.848-7.549,16.848-16.872v-129.14C650.852,230.261,643.314,222.71,634.01,222.71 M517.328,239.592v-0.011V239.592z
					 M622.497,227.778h8.714l-32.194,22.986l-3.855-3.469L622.497,227.778z M591.294,243.827l-3.857-3.468l17.624-12.581h8.715
					L591.294,243.827z M527.455,378.415c-3.072-2.129-5.065-5.68-5.065-9.7c0,0-0.005-2.668-0.011-6.648v-34.282
					c1.546,0.84,4.885,2.855,5.076,2.975V378.415z M537.521,380.524h-3.781c-0.407-0.014-0.824-0.058-1.222-0.107v-46.18
					c1.546,1.143,4.658,3.716,5.018,4.021L537.521,380.524z M522.379,322.055v-82.479c0.006-6.522,5.285-11.803,11.806-11.807
					h62.155l-16.984,12.133l19.305,17.35h6.657v9.587c-30.657,11.146-54.894,35.687-65.656,66.551
					C534.377,328.977,528.58,325.168,522.379,322.055 M615.416,273.678L615.416,273.678c-32.562,9.229-58.311,34.673-68.011,67.07
					c-1.171-1.244-2.374-2.451-3.606-3.63c10.248-31.493,35.099-56.376,66.554-66.629v-13.238h5.063V273.678z M620.494,277.571
					v-20.32h5.064v24.404c-35.029,6.744-62.752,34.003-70.226,68.801c-1.265-1.787-2.571-3.542-3.964-5.232
					C560.167,311.796,586.818,285.633,620.494,277.571 M645.803,239.929L645.803,239.929v115.283l-17.287-31.014h-5.754
					l21.684,39.011c0.801,1.525,1.284,3.256,1.351,5.085c0,0-0.015,1.038-0.019,1.068c-0.265,4.909-3.517,9.021-7.963,10.536
					c-0.024,0.003-0.185,0.055-0.248,0.073c-1.09,0.349-2.244,0.539-3.434,0.553h-91.492l0.004-37.461
					c6.444,6.582,11.812,14.218,15.822,22.623c0.13-3.092,0.416-6.139,0.873-9.14c0,0-0.004,0-0.004-0.002
					c5.559-36.535,34.61-65.361,71.227-70.581l0.003-33.784h-24.811l26.838-19.167c1.358-0.941,3.008-1.492,4.782-1.492
					c4.691,0,8.428,3.747,8.428,8.383V239.929z"/>
			</g>
			<g>
				<path fill="#002F87" d="M635.824,242.102c0-1.32,1.079-2.394,2.395-2.394c1.343,0,2.406,1.073,2.406,2.394
					c0,1.339-1.063,2.419-2.406,2.419C636.903,244.521,635.824,243.44,635.824,242.102"/>
			</g>
		</g>
		<rect x="154.864" y="408.774" fill="none" width="865.646" height="73.886"/>
		<text transform="matrix(1 0 0 1 154.8643 479.7471)" fill="#FFFFFF" font-family="'MyriadPro-BoldCond'" font-size="102.5658">Los Súper Tigres de la 18</text>
		<rect x="73.572" y="564.235" fill="none" width="1029.783" height="54.944"/>
		<text transform="matrix(1 0 0 1 462.6157 617.0146)" fill="#FFFFFF" font-family="'MyriadPro-BoldCond'" font-size="76.2739">Chorrillos</text>
	</g>
</g>
</svg>
