<?xml version="1.0" encoding="utf-8"?>
<!-- Generator: Adobe Illustrator 16.0.0, SVG Export Plug-In . SVG Version: 6.00 Build 0)  -->
<!DOCTYPE svg PUBLIC "-//W3C//DTD SVG 1.1//EN" "http://www.w3.org/Graphics/SVG/1.1/DTD/svg11.dtd">
<svg version="1.1" id="Layer_1" xmlns="http://www.w3.org/2000/svg" xmlns:xlink="http://www.w3.org/1999/xlink" x="0px" y="0px"
	 width="1190.55px" height="841.89px" viewBox="0 0 1190.55 841.89" enable-background="new 0 0 1190.55 841.89"
	 xml:space="preserve">
<g>
	<g>
		<g>
			<path fill="#002F87" d="M632.298,294.759c0-0.99,0.813-1.797,1.815-1.797c1.014,0,1.818,0.807,1.818,1.797
				c0,1.005-0.805,1.813-1.818,1.813C633.111,296.572,632.298,295.764,632.298,294.759"/>
		</g>
		<g>
			<rect x="74.29" y="387.458" fill="#FFFFFF" stroke="#FFFFFF" stroke-miterlimit="10" width="1041.97" height="2.681"/>
		</g>
		<g>
			<rect x="74.29" y="556.981" fill="#FFFFFF" stroke="#FFFFFF" stroke-miterlimit="10" width="1041.97" height="2.684"/>
		</g>
		<g>
			<g>
				<polygon fill-rule="evenodd" clip-rule="evenodd" fill="#FFFFFF" points="606.267,302.675 629.979,285.919 623.562,285.919 
					603.427,300.146 				"/>
			</g>
			<g>
				<polygon fill-rule="evenodd" clip-rule="evenodd" fill="#FFFFFF" points="600.579,297.618 617.137,285.919 610.718,285.919 
					597.739,295.09 				"/>
			</g>
			<g>
				<path fill-rule="evenodd" clip-rule="evenodd" fill="#FFFFFF" d="M557.291,363.524v33.663c0.405,0.053,0.81,0.085,1.233,0.085
					h2.489l-0.027-30.815C560.722,366.233,558.429,364.355,557.291,363.524"/>
			</g>
			<g>
				<path fill-rule="evenodd" clip-rule="evenodd" fill="#FFFFFF" d="M614.615,317.054c-23.167,7.475-41.469,25.613-49.015,48.57
					c0.907,0.859,1.792,1.74,2.655,2.647c7.144-23.617,26.108-42.166,50.09-48.893v-11.978h-3.729V317.054z"/>
			</g>
			<g>
				<path fill-rule="evenodd" clip-rule="evenodd" fill="#FFFFFF" d="M571.174,371.533c1.026,1.231,1.994,2.512,2.919,3.813
					c5.505-25.365,25.922-45.236,51.721-50.153v-17.792h-3.729v14.815C597.282,328.092,577.654,347.165,571.174,371.533"/>
			</g>
			<g>
				<path fill-rule="evenodd" clip-rule="evenodd" fill="#FFFFFF" d="M549.831,388.658c0,2.93,1.469,5.518,3.731,7.07v-34.742
					c-0.141-0.086-2.645-1.582-3.766-2.181L549.831,388.658"/>
			</g>
			<g>
				<path fill-rule="evenodd" clip-rule="evenodd" fill="#FFFFFF" d="M630.997,289.735l-19.767,13.971h18.268v24.629
					c-26.962,3.804-48.357,24.818-52.457,51.451l0.002,0.002c-0.336,2.188-0.546,4.408-0.643,6.662
					c-1.932-4.013-4.312-7.804-7.061-11.296c-1.437-1.816-2.965-3.551-4.592-5.195l-0.002,27.308h67.288
					c0.913,0,1.793-0.141,2.627-0.404c0.045-0.012,0.167-0.05,0.182-0.053c3.274-1.104,5.674-4.102,5.866-7.681
					c0.001-0.022,0.013-0.778,0.013-0.778c-0.048-1.334-0.404-2.595-0.995-3.707l-15.974-28.438h4.24l12.737,22.608v-84.038v-0.018
					c0-3.38-2.757-6.112-6.211-6.112C633.216,288.646,631.996,289.049,630.997,289.735"/>
			</g>
			<g>
				<path fill="#E2231A" d="M562.55,362.906c7.925-22.5,25.776-40.394,48.357-48.514v-6.991h-4.901l-14.221-12.646l12.509-8.845
					h-19.069h-26.708c-4.801,0.004-8.689,3.853-8.694,8.608v60.124C554.39,356.912,558.658,359.689,562.55,362.906"/>
			</g>
			<g>
				<path fill-rule="evenodd" clip-rule="evenodd" fill="#002F87" d="M632.04,282.225L632.04,282.225h-73.492h-0.031
					c-6.86,0-12.415,5.508-12.415,12.307v0.048v94.085c0,6.796,5.554,12.298,12.415,12.3h73.523c6.854,0,12.407-5.504,12.407-12.3
					v-94.14C644.444,287.729,638.893,282.225,632.04,282.225 M546.103,294.531v-0.008V294.531z M623.562,285.919h6.417
					l-23.712,16.756l-2.84-2.528L623.562,285.919z M600.579,297.618l-2.84-2.528l12.979-9.171h6.419L600.579,297.618z
					 M553.562,395.729c-2.262-1.553-3.731-4.141-3.731-7.07c0,0-0.003-1.946-0.008-4.847v-24.992c1.14,0.613,3.598,2.082,3.739,2.17
					V395.729z M560.976,397.267h-2.785c-0.3-0.011-0.607-0.042-0.9-0.079v-33.663c1.138,0.832,3.431,2.709,3.695,2.933
					L560.976,397.267z M549.823,354.644V294.52c0.005-4.756,3.893-8.604,8.694-8.608h45.78l-12.512,8.845l14.219,12.647h4.903v6.989
					c-22.579,8.125-40.429,26.014-48.357,48.514C558.66,359.689,554.39,356.913,549.823,354.644 M618.345,319.379L618.345,319.379
					c-23.981,6.727-42.946,25.275-50.09,48.893c-0.863-0.907-1.748-1.788-2.655-2.647c7.546-22.957,25.848-41.096,49.015-48.57
					v-9.65h3.729V319.379z M622.086,322.217v-14.813h3.729v17.79c-25.799,4.917-46.216,24.788-51.721,50.153
					c-0.931-1.302-1.894-2.582-2.919-3.813C577.654,347.165,597.282,328.092,622.086,322.217 M640.726,294.776L640.726,294.776
					v84.038l-12.733-22.608h-4.237l15.971,28.438c0.591,1.112,0.947,2.373,0.995,3.707c0,0-0.012,0.756-0.013,0.778
					c-0.195,3.579-2.592,6.577-5.866,7.681c-0.018,0.003-0.137,0.041-0.182,0.053c-0.803,0.256-1.653,0.394-2.529,0.404h-67.385
					l0.002-27.308c4.747,4.798,8.701,10.364,11.653,16.491c0.097-2.254,0.307-4.475,0.643-6.662l-0.002-0.002
					c4.094-26.633,25.493-47.647,52.459-51.451l0.002-24.629H611.23l19.767-13.971c0.999-0.687,2.216-1.089,3.521-1.089
					c3.454,0,6.207,2.732,6.207,6.112V294.776z"/>
			</g>
			<g>
				<path fill="#002F87" d="M633.377,296.359c0-0.961,0.793-1.744,1.763-1.744c0.989,0,1.773,0.783,1.773,1.744
					c0,0.977-0.784,1.765-1.773,1.765C634.17,298.124,633.377,297.336,633.377,296.359"/>
			</g>
		</g>
	</g>
	<rect x="81.679" y="418.349" fill="none" width="1041.969" height="55.722"/>
	<text transform="matrix(1 0 0 1 81.6797 471.8779)" fill="#FFFFFF" font-family="'MyriadPro-BoldCond'" font-size="77.3534">Los Poderosos Reproductores del Norte</text>
	<rect x="268.356" y="555.238" fill="none" width="654.253" height="34.987"/>
	<text transform="matrix(1 0 0 1 464.0078 588.8467)" fill="#FFFFFF" font-family="'MyriadPro-BoldCond'" font-size="48.57">Puente    Piedra</text>
</g>
</svg>
