<svg width="338" height="133" xmlns="http://www.w3.org/2000/svg">
 <g>
  <title>Layer 1</title>
  <g id="svg_1634">
   <g id="svg_1635">
    <g id="svg_1636">
     <path id="svg_1637" d="m25.42298,78.694h-6.828c-1.70197,0 -3.086,-1.38 -3.086,-3.086v-8.854c0,-1.699 1.38403,-3.081 3.086,-3.081h12.15601v15.021h-4.56097v-10.746c0,2.31001 0,0 0,0h-5.578v6.471h4.81v4.275l0.00098,0z" fill="#FFFFFF" clip-rule="evenodd" fill-rule="evenodd"/>
    </g>
    <g id="svg_1638">
     <path id="svg_1639" d="m142.43903,78.694h-6.828c-1.70105,0 -3.086,-1.38 -3.086,-3.086v-8.854c0,-1.699 1.38495,-3.081 3.086,-3.081h12.15594v15.021h-4.55896v-10.746c0,2.31001 0,0 0,0h-5.58002v6.471h4.81104v4.275l0,0z" fill="#FFFFFF" clip-rule="evenodd" fill-rule="evenodd"/>
    </g>
    <g id="svg_1640">
     <path id="svg_1641" d="m175.703,78.694h-6.828c-1.703,0 -3.08398,-1.38 -3.08398,-3.086v-8.854c0,-1.699 1.38098,-3.081 3.08398,-3.081h12.15802v15.021h-4.56201v-10.746c0,2.31001 0,0 0,0h-5.578v6.471h4.81097v4.275l-0.00098,0z" fill="#FFFFFF" clip-rule="evenodd" fill-rule="evenodd"/>
    </g>
    <g id="svg_1642">
     <path id="svg_1643" d="m230.21802,78.694h-6.828c-1.69904,0 -3.08405,-1.38 -3.08405,-3.086v-8.854c0,-1.699 1.38501,-3.081 3.08405,-3.081h12.15601v15.021h-4.56104v-10.746c0,2.31001 0,0 0,0h-5.57599v6.471h4.80902v4.275l0,0z" fill="#FFFFFF" clip-rule="evenodd" fill-rule="evenodd"/>
    </g>
    <g id="svg_1644">
     <path id="svg_1645" d="m256.76697,78.694h-6.82599c-1.703,0 -3.086,-1.38 -3.086,-3.086v-8.854c0,-1.699 1.383,-3.081 3.086,-3.081h12.15601v15.021h-4.56201v-10.746c0,2.31001 0,0 0,0h-5.578v6.471h4.81104v4.275l-0.00104,0z" fill="#FFFFFF" clip-rule="evenodd" fill-rule="evenodd"/>
    </g>
    <g id="svg_1646">
     <path id="svg_1647" d="m318.73999,78.694h-6.828c-1.70099,0 -3.08398,-1.38 -3.08398,-3.086v-8.854c0,-1.699 1.383,-3.081 3.08398,-3.081h12.16003v15.021h-4.56403v-10.746c0,2.31001 0,0 0,0h-5.57397v6.471h4.80695v4.275l-0.00098,0z" fill="#FFFFFF" clip-rule="evenodd" fill-rule="evenodd"/>
    </g>
    <g id="svg_1648">
     <path id="svg_1649" d="m42.01502,78.701h-9.76398v-4.27599h7.62097v-0.95901l-4.91797,-0.009c-1.37903,0.132 -2.70502,-0.89 -2.70502,-2.576v-4.87099c0,-0.908 0.914,-2.33701 2.33801,-2.33701h9.93201v4.277h-7.61304v0.957h4.95502c1.63098,0 2.65802,1.402 2.65802,2.391v4.315c-0.00006,3.088 -2.50403,3.088 -2.50403,3.088" fill="#FFFFFF" clip-rule="evenodd" fill-rule="evenodd"/>
    </g>
    <g id="svg_1650">
     <path id="svg_1651" d="m65.79602,63.682l-10.164,-0.01c-1.29303,0 -2.336,1.04501 -2.336,2.335v10.454c0,1.293 1.04297,2.337 2.336,2.337l10.164,0.012c1.28699,0 2.33795,-1.046 2.33795,-2.335v-10.453c0,-1.29 -1.04999,-2.34 -2.33795,-2.34zm-2.27099,10.796h-5.49805v-6.541h5.49805v6.541l0,0z" fill="#FFFFFF"/>
    </g>
    <g id="svg_1652">
     <path id="svg_1653" d="m192.33002,78.701h-9.76202v-4.27599h7.62103v-0.95901l-4.91998,-0.009c-1.37701,0.132 -2.70502,-0.89 -2.70502,-2.576v-4.87099c0,-0.908 0.914,-2.33701 2.33801,-2.33701h9.93201v4.277h-7.61304v0.957h4.95502c1.63098,0 2.65802,1.402 2.65802,2.391v4.315c-0.00006,3.088 -2.50403,3.088 -2.50403,3.088" fill="#FFFFFF" clip-rule="evenodd" fill-rule="evenodd"/>
    </g>
    <g id="svg_1654">
     <path id="svg_1655" d="m335.33502,78.701h-9.76599v-4.27599h7.62097v-0.95901l-4.91797,-0.009c-1.38098,0.132 -2.70502,-0.89 -2.70502,-2.576v-4.87099c0,-0.908 0.91602,-2.33701 2.34003,-2.33701h9.92999v4.277h-7.61304v0.957h4.953c1.633,0 2.66003,1.402 2.66003,2.391v4.315c-0.00006,3.088 -2.50201,3.088 -2.50201,3.088" fill="#FFFFFF" clip-rule="evenodd" fill-rule="evenodd"/>
    </g>
    <g id="svg_1656">
     <path id="svg_1657" d="m74.60498,74.478v-16.7h-0.24596h-4.72901v8.229v4.342v4.862v1.25c0,1.293 1.04297,2.337 2.33398,2.337l2.39503,0.001l3.58398,0.006v-4.327h-3.33801l0,0z" fill="#FFFFFF"/>
    </g>
    <g id="svg_1658">
     <path id="svg_1659" d="m242.01898,74.478v-16.7h-0.24396h-4.73004v8.229v4.342v4.862v1.25c0,1.293 1.04303,2.337 2.336,2.337l2.39502,0.001l3.58197,0.006v-4.327h-3.33899l0,0z" fill="#FFFFFF"/>
    </g>
    <g id="svg_1660">
     <path id="svg_1661" d="m10.67603,74.478v-16.7h-0.24603h-4.72998v8.229v4.342v4.862v1.25c0,1.293 1.04596,2.337 2.336,2.337l2.39496,0.001l3.58405,0.006v-4.327h-3.33899l0,0z" fill="#FFFFFF"/>
    </g>
    <g id="svg_1662">
     <polygon id="svg_1663" points="84.41400527954102,63.6719970703125 84.16699600219727,63.6719970703125 79.43902969360352,63.6719970703125 79.43902969360352,71.9010009765625 79.43902969360352,76.24400329589844 79.43902969360352,78.80999755859375 84.41400527954102,78.80999755859375 " fill="#FFFFFF"/>
    </g>
    <g id="svg_1664">
     <polygon id="svg_1665" points="84.41400527954102,57.77799987792969 84.16699600219727,57.77799987792969 79.43902969360352,57.77799987792969 79.43902969360352,59.987998962402344 79.43902969360352,61.15299987792969 79.43902969360352,61.842002868652344 84.41400527954102,61.842002868652344 " fill="#FFFFFF"/>
    </g>
    <g id="svg_1666">
     <g id="svg_1667">
      <polygon id="svg_1668" points="126.05401992797852,63.6719970703125 126.05401992797852,71.9010009765625 126.05401992797852,76.24400329589844 126.05401992797852,78.80999755859375 131.02899551391602,78.80999755859375 131.02899551391602,63.6719970703125 130.78302383422852,63.6719970703125 " fill="#FFFFFF"/>
     </g>
     <g id="svg_1669">
      <polygon id="svg_1670" points="130.78302383422852,57.77799987792969 126.05401992797852,57.77799987792969 126.05401992797852,59.987998962402344 126.05401992797852,61.15299987792969 126.05401992797852,61.842002868652344 131.02899551391602,61.842002868652344 131.02899551391602,57.77799987792969 " fill="#FFFFFF"/>
     </g>
    </g>
    <g id="svg_1671">
     <g id="svg_1672">
      <polygon id="svg_1673" points="289.02099990844727,63.6719970703125 289.02099990844727,71.9010009765625 289.02099990844727,76.24400329589844 289.02099990844727,78.80999755859375 293.99597549438477,78.80999755859375 293.99597549438477,63.6719970703125 293.75098037719727,63.6719970703125 " fill="#FFFFFF"/>
     </g>
     <g id="svg_1674">
      <polygon id="svg_1675" points="293.75098037719727,57.77799987792969 289.02099990844727,57.77799987792969 289.02099990844727,59.987998962402344 289.02099990844727,61.15299987792969 289.02099990844727,61.842002868652344 293.99597549438477,61.842002868652344 293.99597549438477,57.77799987792969 " fill="#FFFFFF"/>
     </g>
     <g id="svg_1676">
      <polygon id="svg_1677" points="263.59302139282227,58.00299835205078 262.60901260375977,57.891998291015625 260.7420082092285,57.676002502441406 258.57800674438477,57.427001953125 257.893985748291,57.3489990234375 257.955020904541,61.842002868652344 262.1890296936035,61.842002868652344 " fill="#FFFFFF"/>
     </g>
    </g>
    <g id="svg_1678">
     <path id="svg_1679" d="m159.021,63.902h-6.71899c-1.67603,0 -3.039,1.36 -3.039,3.04v8.72c0,1.675 1.36298,3.032 3.039,3.032h11.96497c0,-3.387 0.02502,-18.267 0.02502,-18.267h-4.50201l-0.00397,14.062c0,-2.277 0,0 0,0h-5.49603v-6.378h4.73004v-4.209l0.00098,0z" fill="#FFFFFF" clip-rule="evenodd" fill-rule="evenodd"/>
    </g>
    <g id="svg_1680">
     <path id="svg_1681" d="m121.51898,63.955h-11.96301c0,3.38499 -0.02899,18.269 -0.02899,18.269v2.354h4.50201v-2.354h0.00397l0.00201,-14.063h5.49597v6.379h-4.73199v4.207h6.72101c1.67603,0 3.03699,-1.359 3.03699,-3.038v-8.719c-0.00098,-1.67599 -1.36194,-3.035 -3.03796,-3.035z" fill="#FFFFFF" clip-rule="evenodd" fill-rule="evenodd"/>
    </g>
    <g id="svg_1682">
     <path id="svg_1683" d="m105.427,63.672h-8.742h-2.02899h-8.742l0.01202,15.138h4.89496v-10.858h3.75v10.857h0.10004h4.61896h0.27301v-10.857h3.75v10.857h4.719v-12.28c-0.00098,-1.032 -0.45802,-2.817 -2.60499,-2.857z" fill="#FFFFFF" clip-rule="evenodd" fill-rule="evenodd"/>
    </g>
    <g id="svg_1684">
     <path id="svg_1685" d="m273.50299,67.948v-0.009h1.92603v-4.26701h-1.92603h-4.95697h-1.86902c-1.70099,0 -3.08398,1.382 -3.08398,3.081v8.854c0,1.70599 1.383,3.086 3.08398,3.086h1.86902h4.95697h1.92603v-4.267h-1.92603v-0.009h-4.80902v-6.469h4.80902l0,0z" fill="#FFFFFF"/>
    </g>
    <g id="svg_1686">
     <path id="svg_1687" d="m305.40802,67.948v-0.009h1.92395v-4.26701h-1.92395h-4.95703h-1.87097c-1.70105,0 -3.08405,1.382 -3.08405,3.081v8.854c0,1.70599 1.383,3.086 3.08405,3.086h1.87097h4.95703h1.92395v-4.267h-1.92395v-0.009h-4.81104v-6.469h4.81104l0,0z" fill="#FFFFFF"/>
    </g>
    <g id="svg_1688">
     <path id="svg_1689" d="m284.18903,74.478v-6.526h1.90796v-4.279h-1.90796v-5.895h-0.24402h-4.73004v5.895h-2.28894v4.279h2.28894v2.397v4.862v1.25c0,1.293 1.04303,2.337 2.33405,2.337l2.396,0.001l3.58002,0.006v-4.327h-3.336l0,0z" fill="#FFFFFF"/>
    </g>
    <g id="svg_1690">
     <path id="svg_1691" d="m206.69702,63.672c-1.703,0 -3.086,1.382 -3.086,3.081v8.854c0,1.70599 1.383,3.086 3.086,3.086h6.828v-4.275h-4.81104v-6.47h5.48401v10.746h0.01001v0.669v0.238h-7.62299v4.274h9.76398c0,0 2.50397,0 2.50397,-3.088v-2.094v-0.062v-14.96h-12.15594l0,0.001z" fill="#FFFFFF" clip-rule="evenodd" fill-rule="evenodd"/>
    </g>
   </g>
   <g id="svg_1692">
    <path id="svg_1693" d="m180.85498,5.251c0,-0.415 0.336,-0.752 0.75201,-0.752c0.41998,0 0.75598,0.337 0.75598,0.752c0,0.421 -0.336,0.76 -0.75598,0.76c-0.41602,0 -0.75201,-0.339 -0.75201,-0.76" fill="#002F87"/>
   </g>
   <g id="svg_1694">
    <rect id="svg_1695" height="1.123" width="337.837" stroke-miterlimit="10" stroke="#FFFFFF" fill="#FFFFFF" y="44.086" x="0"/>
   </g>
   <g id="svg_1696">
    <rect id="svg_1697" height="1.125" width="337.837" stroke-miterlimit="10" stroke="#FFFFFF" fill="#FFFFFF" y="91.736" x="0"/>
   </g>
   <g id="svg_1698">
    <path id="svg_1699" d="m91.154,113.89001c-2.58198,0.51201 -4.74403,1.114 -6.48402,1.808c-1.047,1.535 -2.19299,3.37801 -3.44501,5.528l-0.90601,1.58701c-0.15796,0.284 -0.40198,0.694 -0.73199,1.229c-0.36298,0.625 -0.74597,0.93799 -1.14301,0.93799c-0.21497,0 -0.39794,-0.08499 -0.54498,-0.256c-0.14801,-0.14799 -0.22296,-0.312 -0.22296,-0.495c0,-0.31801 0.42597,-1.22301 1.279,-2.71201c0.46698,-0.80899 1.17199,-1.952 2.11498,-3.42999c0.36499,-0.569 0.65601,-1.035 0.87097,-1.399c-0.68396,0.19299 -1.30896,0.41499 -1.87897,0.66499c-0.271,0.125 -0.49798,0.188 -0.67999,0.188c-0.22901,0 -0.40601,-0.10201 -0.52906,-0.308c-0.09198,-0.12399 -0.13898,-0.271 -0.13898,-0.442c0,-0.386 0.13898,-0.66 0.41199,-0.819c0.44105,-0.27299 1.23804,-0.586 2.38904,-0.939c0.854,-0.271 1.529,-0.522 2.02698,-0.75c0.23798,-0.295 0.867,-1.166 1.88098,-2.61c0.42999,-0.627 1.65803,-2.105 3.68201,-4.437c1.45703,-1.70601 2.95905,-3.293 4.50605,-4.76001c0.89996,-0.86299 1.58794,-1.297 2.06598,-1.297c0.29498,0 0.549,0.119 0.76598,0.358c0.18201,0.216 0.27301,0.45599 0.27301,0.717c0,0.319 -0.16003,0.875 -0.479,1.673c-0.54699,1.396 -1.06799,2.894 -1.56799,4.485c-0.43403,1.412 -0.72303,2.492 -0.87104,3.243c0.20502,0 0.34003,-0.006 0.41003,-0.01599c0.328,-0.013 0.604,-0.01901 0.81799,-0.01901c0.65997,0 0.98999,0.25 0.98999,0.75c0,0.21701 -0.07202,0.43001 -0.21301,0.64101c-0.14301,0.211 -0.30499,0.338 -0.48596,0.384c-0.07001,0.021 -0.25799,0.033 -0.56403,0.033c-0.64801,0 -1.13098,0.03999 -1.44897,0.12c-0.27301,0.80699 -0.70502,2.871 -1.29902,6.19299c-0.307,2.20601 -0.453,3.56 -0.44299,4.061c0,0.82001 -0.23998,1.229 -0.73199,1.229c-0.38502,0 -0.68805,-0.19901 -0.904,-0.597c-0.16003,-0.272 -0.24005,-0.644 -0.24005,-1.10901c0,-1.56799 0.28101,-3.68599 0.83801,-6.34799c0.28198,-1.34102 0.49298,-2.37201 0.63001,-3.08701zm0.47802,-1.84401c0.102,-0.32899 0.36298,-1.20999 0.78302,-2.645c0.104,-0.375 0.36499,-1.12 0.78497,-2.235c0.422,-1.14699 0.758,-2.069 1.008,-2.76399c-0.73999,0.489 -1.48998,1.138 -2.25201,1.944c-2.68597,2.89101 -4.57996,5.25 -5.68201,7.08099c0.42004,-0.10199 1.32404,-0.358 2.71106,-0.767c0.39893,-0.11299 1.27997,-0.317 2.64697,-0.614z" stroke-miterlimit="10" stroke="#FFFFFF" fill="#FFFFFF"/>
    <path id="svg_1700" d="m100.81,112.729c0.90002,0 1.34998,0.47301 1.34998,1.41701c0,0.83099 -0.326,1.666 -0.97296,2.50699c-0.50202,0.638 -0.93903,0.957 -1.31202,0.957c-0.32,0 -0.47998,-0.183 -0.47998,-0.547c0,-0.192 0.04498,-0.347 0.13696,-0.45999c0.03302,-0.04601 0.17004,-0.177 0.41004,-0.39401c0.20496,-0.19199 0.414,-0.48299 0.63097,-0.87099c0.14801,-0.261 0.22302,-0.472 0.22302,-0.63c0,-0.18201 -0.104,-0.27299 -0.307,-0.27299c-0.24,0 -0.60401,0.18799 -1.094,0.564c-0.771,0.60201 -1.54504,1.54601 -2.32,2.83099c-0.79505,1.343 -1.193,2.40001 -1.193,3.17401c0,0.25099 0.07397,0.472 0.22296,0.666c0.21503,0.295 0.50605,0.44299 0.86903,0.44299c0.71503,0 1.56402,-0.44299 2.54296,-1.33099c0.828,-0.76201 1.52906,-1.52301 2.09802,-2.28601c0.297,-0.42099 0.55103,-0.631 0.76801,-0.631c0.12499,0 0.23998,0.056 0.34197,0.17c0.09003,0.114 0.13702,0.229 0.13702,0.34201c0,0.42099 -0.54102,1.239 -1.62103,2.45699c-1.719,1.91 -3.27699,2.86501 -4.67395,2.86501c-0.84205,0 -1.48602,-0.30099 -1.92999,-0.905c-0.31806,-0.442 -0.47705,-0.966 -0.47705,-1.56799c0,-1.18401 0.48804,-2.554 1.46703,-4.11101c0.943,-1.489 2.03497,-2.689 3.27496,-3.59999c0.724,-0.52301 1.36304,-0.78601 1.90802,-0.78601z" stroke-miterlimit="10" stroke="#FFFFFF" fill="#FFFFFF"/>
    <path id="svg_1701" d="m110.43298,112.32c-0.73797,1.14799 -1.41998,2.435 -2.04498,3.855c-0.90002,2.02501 -1.35004,3.539 -1.35004,4.539c0,0.283 0.06104,0.50101 0.17999,0.64801s0.29901,0.22198 0.53705,0.22198c0.568,0 1.258,-0.53499 2.06202,-1.60399c0.51599,-0.66101 0.96899,-1.319 1.36694,-1.979c0.21703,-0.375 0.44903,-0.562 0.69903,-0.562c0.14802,0 0.27301,0.05099 0.375,0.153c0.08997,0.10199 0.13696,0.20399 0.13696,0.30699c0,0.42101 -0.55096,1.36 -1.65399,2.815c-1.32,1.75101 -2.52496,2.627 -3.617,2.627c-0.57995,0 -1.06396,-0.267 -1.45099,-0.80099c-0.23999,-0.343 -0.35901,-0.825 -0.35901,-1.451c0,-1.375 0.40002,-2.979 1.19702,-4.811c0.19098,-0.45599 0.727,-1.55399 1.604,-3.29399c-0.30902,0.08 -0.54102,0.12 -0.70099,0.12c-0.23803,0 -0.44903,-0.058 -0.63104,-0.172c-0.25,-0.157 -0.375,-0.358 -0.375,-0.597c0,-0.285 0.164,-0.51199 0.49603,-0.68201c0.08997,-0.045 0.51001,-0.12 1.26202,-0.222c0.271,-0.04599 0.672,-0.15399 1.193,-0.325c0.39794,-0.71599 1.04699,-1.68799 1.94501,-2.918c0.49798,-0.68199 0.84795,-1.12599 1.04095,-1.33c0.271,-0.284 0.51202,-0.42799 0.71503,-0.42799c0.148,0 0.29901,0.08 0.445,0.239c0.13696,0.14799 0.20496,0.298 0.20496,0.44501c0,0.295 -0.31995,0.88199 -0.95697,1.75699c-0.41998,0.569 -0.73199,1.02901 -0.93799,1.38301c1.26196,-0.343 2.16595,-0.513 2.71301,-0.513c0.625,0 0.938,0.263 0.938,0.786c0,0.259 -0.10699,0.45399 -0.32404,0.578c-0.11096,0.06799 -0.40796,0.125 -0.88697,0.17099c-0.19299,-0.01099 -1.05103,0.20601 -2.57599,0.64801c-0.42004,0.127 -0.83599,0.259 -1.24603,0.396z" stroke-miterlimit="10" stroke="#FFFFFF" fill="#FFFFFF"/>
    <path id="svg_1702" d="m117.193,113.08601c0.18903,0 0.34997,0.07401 0.47698,0.22301c0.09003,0.125 0.13703,0.25 0.13703,0.375c0,0.20599 -0.16602,0.547 -0.49604,1.024c-1.182,1.83099 -2.02496,3.338 -2.52496,4.521c-0.53302,1.217 -1.00604,2.468 -1.41602,3.75299c-0.18402,0.569 -0.46697,0.854 -0.854,0.854c-0.229,0 -0.40802,-0.092 -0.54498,-0.27299c-0.125,-0.14799 -0.18903,-0.30701 -0.18903,-0.478c0,-0.34201 0.367,-1.479 1.09399,-3.41301c0.56799,-1.52299 1.48999,-3.20799 2.76405,-5.04999c0.40997,-0.60301 0.71697,-1.007 0.92199,-1.21201c0.20099,-0.21501 0.41199,-0.32401 0.63099,-0.32401zm3.23998,-6.32901c0.51203,0 0.76801,0.26201 0.76801,0.784c0,0.47801 -0.25201,1.00801 -0.75201,1.58801c-0.47699,0.55699 -0.93799,0.836 -1.38098,0.836c-0.21697,0 -0.39301,-0.07901 -0.52899,-0.23801c-0.13702,-0.14799 -0.20502,-0.33 -0.20502,-0.547c0,-0.54601 0.30103,-1.127 0.90601,-1.74001c0.44299,-0.455 0.84003,-0.683 1.19299,-0.683z" stroke-miterlimit="10" stroke="#FFFFFF" fill="#FFFFFF"/>
    <path id="svg_1703" d="m123.62299,118.65c-0.69299,1.194 -1.29102,2.08099 -1.79102,2.662c-1.21698,1.433 -2.229,2.149 -3.03699,2.149c-0.48797,0 -0.86297,-0.26801 -1.125,-0.802c-0.182,-0.35301 -0.27502,-0.72301 -0.27502,-1.10901c0,-0.75099 0.32605,-1.836 0.97302,-3.259c0.58204,-1.239 1.07001,-2.21899 1.46899,-2.935c0.29498,-0.51199 0.47302,-0.84799 0.52705,-1.00699c0.13897,-0.30801 0.25799,-0.541 0.36095,-0.69801c0.146,-0.23999 0.35199,-0.36 0.61304,-0.36c0.13697,0 0.25598,0.05801 0.357,0.17201c0.11297,0.136 0.17199,0.29599 0.17199,0.47699c0,0.513 -0.461,1.65601 -1.38104,3.431c-0.92395,1.752 -1.383,2.91101 -1.383,3.479c0,0.36501 0.141,0.547 0.42401,0.547c0.48999,0 1.18402,-0.638 2.08204,-1.911c0.39794,-0.56799 0.81396,-1.291 1.24596,-2.168c-0.01202,-0.283 -0.01801,-0.49901 -0.01801,-0.647c0,-0.853 0.16004,-1.593 0.479,-2.218c0.41003,-0.808 0.96101,-1.211 1.65601,-1.211c0.396,0 0.59601,0.23801 0.59601,0.715c0,0.763 -0.39801,1.884 -1.19501,3.36101c0.229,0.04601 0.41199,0.06999 0.547,0.06999c0.37702,0 0.86298,-0.23999 1.46698,-0.71799c0.479,-0.388 0.79102,-0.57901 0.93806,-0.57901c0.12695,0 0.25597,0.073 0.39294,0.22101c0.104,0.125 0.15601,0.25099 0.15601,0.37599c0,0.409 -0.28497,0.87001 -0.854,1.382c-0.65997,0.58 -1.41199,0.87 -2.25397,0.87c-0.33099,0 -0.71197,-0.097 -1.14301,-0.28999z" stroke-miterlimit="10" stroke="#FFFFFF" fill="#FFFFFF"/>
    <path id="svg_1704" d="m132.01697,120.493c-0.375,0.659 -0.74402,1.217 -1.10699,1.672c-0.71698,0.888 -1.42798,1.33099 -2.133,1.33099c-0.61499,0 -1.09399,-0.291 -1.43402,-0.86899c-0.21698,-0.37601 -0.32397,-0.819 -0.32397,-1.332c0,-1.263 0.39801,-2.655 1.19299,-4.18001c0.88501,-1.69499 1.95697,-2.998 3.20898,-3.908c0.81799,-0.59099 1.60901,-0.88699 2.37103,-0.88699c0.47699,0 0.87695,0.147 1.19299,0.44299c0.27301,0.263 0.40997,0.55901 0.40997,0.88901c0,0.25 -0.09601,0.597 -0.29102,1.03799c0.17401,0.24001 0.258,0.45001 0.258,0.63301c0,0.239 -0.15997,0.631 -0.47894,1.17799c-0.33002,0.55701 -0.66003,1.29601 -0.98804,2.218c-0.354,0.978 -0.53101,1.763 -0.53101,2.354c0,0.478 0.14301,0.87 0.42804,1.17799c0.07996,0.078 0.31195,0.21001 0.69897,0.39301c0.28302,0.13699 0.42603,0.375 0.42603,0.71599c0,0.216 -0.078,0.39301 -0.23804,0.53001c-0.16998,0.146 -0.36902,0.22099 -0.59796,0.22099c-0.61304,0 -1.14301,-0.272 -1.58801,-0.819c-0.36102,-0.444 -0.54504,-1.00101 -0.54504,-1.672c0.00104,-0.228 0.02405,-0.604 0.06903,-1.127zm2.13306,-5.61501c-0.13702,-0.25 -0.28302,-0.435 -0.44299,-0.554c-0.15802,-0.12 -0.33203,-0.179 -0.51001,-0.179c-0.867,0 -1.80499,0.756 -2.81598,2.269c-1.11499,1.673 -1.672,3.089 -1.672,4.248c0,0.28401 0.05298,0.50101 0.15997,0.649c0.10901,0.146 0.27002,0.22301 0.48804,0.22301c0.54498,0 1.18195,-0.582 1.90997,-1.742c0.40802,-0.63699 0.914,-1.57401 1.51801,-2.815c0.39996,-0.80699 0.68896,-1.341 0.86902,-1.603c0.09192,-0.136 0.25793,-0.30099 0.49597,-0.496z" stroke-miterlimit="10" stroke="#FFFFFF" fill="#FFFFFF"/>
    <path id="svg_1705" d="m151.02502,112.32c-0.73999,1.14799 -1.42401,2.435 -2.047,3.855c-0.89801,2.02501 -1.34802,3.539 -1.34802,4.539c0,0.283 0.05902,0.50101 0.17999,0.64801c0.117,0.14699 0.29706,0.22198 0.53705,0.22198c0.56799,0 1.25397,-0.53499 2.06396,-1.60399c0.51001,-0.66101 0.96503,-1.319 1.36499,-1.979c0.21503,-0.375 0.44702,-0.562 0.69904,-0.562c0.146,0 0.271,0.05099 0.375,0.153c0.08997,0.10199 0.13696,0.20399 0.13696,0.30699c0,0.42101 -0.55298,1.36 -1.65594,2.815c-1.32001,1.75101 -2.52502,2.627 -3.617,2.627c-0.58002,0 -1.06403,-0.267 -1.45105,-0.80099c-0.23798,-0.343 -0.35498,-0.825 -0.35498,-1.451c0,-1.375 0.396,-2.979 1.19299,-4.811c0.19104,-0.45599 0.729,-1.55399 1.604,-3.29399c-0.30902,0.08 -0.54102,0.12 -0.69897,0.12c-0.23804,0 -0.44904,-0.058 -0.633,-0.172c-0.25,-0.157 -0.375,-0.358 -0.375,-0.597c0,-0.285 0.164,-0.51199 0.49396,-0.68201c0.09204,-0.045 0.51404,-0.12 1.26404,-0.222c0.27301,-0.04599 0.66998,-0.15399 1.19501,-0.325c0.396,-0.71599 1.04498,-1.68799 1.94299,-2.918c0.5,-0.68199 0.84796,-1.12599 1.04095,-1.33c0.27502,-0.284 0.51404,-0.42799 0.71503,-0.42799c0.14801,0 0.29901,0.08 0.44501,0.239c0.13898,0.14799 0.20502,0.298 0.20502,0.44501c0,0.295 -0.31799,0.88199 -0.95502,1.75699c-0.41998,0.569 -0.73401,1.02901 -0.93903,1.38301c1.26404,-0.343 2.16803,-0.513 2.71503,-0.513c0.62299,0 0.93799,0.263 0.93799,0.786c0,0.259 -0.10901,0.45399 -0.32397,0.578c-0.11499,0.06799 -0.41003,0.125 -0.88702,0.17099c-0.19501,-0.01099 -1.05298,0.20601 -2.57599,0.64801c-0.42303,0.127 -0.83905,0.259 -1.24701,0.396z" stroke-miterlimit="10" stroke="#FFFFFF" fill="#FFFFFF"/>
    <path id="svg_1706" d="m158.07202,120.69801c-0.48999,0.683 -0.92401,1.229 -1.29901,1.63701c-0.65796,0.72899 -1.31097,1.092 -1.961,1.092c-0.55701,0 -0.98798,-0.24899 -1.29498,-0.75c-0.21899,-0.353 -0.32599,-0.772 -0.32599,-1.26199c0,-1.46901 0.62701,-3.15001 1.87897,-5.05101c0.578,-0.888 1.15204,-1.564 1.72101,-2.03c0.44299,-0.377 0.80902,-0.563 1.09204,-0.563c0.15997,0 0.30896,0.06801 0.44495,0.205c0.11304,0.12601 0.17004,0.25 0.17004,0.375c0,0.21701 -0.211,0.56801 -0.633,1.058c-0.94104,1.127 -1.65802,2.16 -2.14801,3.10501c-0.56799,1.10399 -0.854,1.96799 -0.854,2.595c0,0.15799 0.03699,0.28099 0.11096,0.366s0.17804,0.127 0.31403,0.127c0.58203,0 1.39099,-0.82901 2.42401,-2.491c0.53302,-0.86301 0.99597,-1.819 1.383,-2.864c0.20502,-0.57001 0.47101,-1.076 0.80096,-1.52101c0.31805,-0.397 0.63306,-0.597 0.93903,-0.597c0.16998,0 0.32202,0.07401 0.45898,0.222c0.15002,0.159 0.22302,0.334 0.22302,0.528c0,0.41 -0.39301,1.33101 -1.17798,2.765c-0.53302,0.99001 -0.80103,1.81401 -0.80103,2.47501c0,0.705 0.18799,1.308 0.56201,1.80901c0.104,0.13599 0.41602,0.35199 0.93896,0.64699c0.25,0.147 0.37305,0.38701 0.37305,0.71701c0,0.205 -0.086,0.381 -0.26202,0.528c-0.17798,0.14799 -0.39099,0.22299 -0.64301,0.22299c-0.56598,0 -1.08398,-0.228 -1.55096,-0.683c-0.42401,-0.409 -0.68805,-1 -0.80103,-1.774c-0.02301,-0.104 -0.05005,-0.40001 -0.08301,-0.888z" stroke-miterlimit="10" stroke="#FFFFFF" fill="#FFFFFF"/>
    <path id="svg_1707" d="m176.224,121.841c1.21899,-0.88899 2.12097,-1.69499 2.71301,-2.424c0.87701,-1.05901 1.49799,-1.916 1.86096,-2.576c0.17999,-0.29599 0.36902,-0.44299 0.56201,-0.44299c0.27301,0 0.41003,0.131 0.41003,0.39299c0,0.30701 -0.21704,0.819 -0.65002,1.535c-1.34003,2.185 -3.354,4.089 -6.03699,5.716c-1.25201,2.616 -2.17401,4.39001 -2.76599,5.324c-1.57001,2.45502 -3.04901,3.68399 -4.43604,3.68399c-0.72699,0 -1.25201,-0.28299 -1.57001,-0.85397c-0.18201,-0.328 -0.27295,-0.70403 -0.27295,-1.125c0,-1.785 1.14795,-3.49801 3.44696,-5.13601c0.36499,-0.27301 1.83801,-1.12601 4.41803,-2.55901c0.50195,-1.05901 0.88696,-1.88899 1.15997,-2.491c-1.19299,1.25099 -2.18402,1.877 -2.96899,1.877c-0.48798,0 -0.87097,-0.25101 -1.14099,-0.75101c-0.172,-0.33099 -0.25598,-0.672 -0.25598,-1.02399c0,-0.81801 0.33398,-1.87001 1.00397,-3.15601c0.95502,-1.854 2.10498,-3.321 3.44702,-4.40201c1.125,-0.89699 2.12097,-1.347 2.98596,-1.347c0.44305,0 0.82605,0.164 1.14502,0.49301c0.21503,0.217 0.32202,0.537 0.32202,0.95599c0,0.52299 -0.17603,1.173 -0.52899,1.94501c0.26398,0.25 0.39294,0.43799 0.39294,0.56299c0,0.07901 -0.05695,0.192 -0.16998,0.34201c-0.30701,0.42 -0.80298,1.211 -1.48401,2.37c-0.60297,1.013 -1.13196,2.043 -1.58698,3.09zm-3.34399,3.51401c-1.50201,0.638 -2.82599,1.60399 -3.97498,2.90101c-0.53503,0.603 -0.91602,1.23798 -1.14502,1.90997c-0.06799,0.20502 -0.09998,0.37601 -0.09998,0.511c0,0.14801 0.03094,0.27901 0.09998,0.39403c0.12701,0.20499 0.30298,0.30899 0.52899,0.30899c0.70502,0 1.53101,-0.758 2.47498,-2.271c0.82001,-1.30901 1.52704,-2.56001 2.11603,-3.75401zm3.22699,-7.45601c-0.16199,-0.17101 -0.23999,-0.289 -0.23999,-0.358c0,-0.10201 0.086,-0.233 0.25598,-0.39301c0.56799,-0.545 1.02899,-1.114 1.38098,-1.70599c0.28503,-0.46501 0.42804,-0.82901 0.42804,-1.09201c0,-0.308 -0.14301,-0.45999 -0.42804,-0.45999c-0.48798,0 -1.18896,0.465 -2.09796,1.39799c-1.08002,1.104 -1.92401,2.338 -2.52502,3.703c-0.29498,0.68201 -0.44501,1.205 -0.44501,1.569c0,0.205 0.04901,0.358 0.14105,0.46001c0.08795,0.103 0.21899,0.15399 0.39099,0.15399c0.396,0 0.95496,-0.409 1.672,-1.229c0.45496,-0.52299 0.84198,-1.03499 1.15796,-1.53499c0.21704,-0.32899 0.31903,-0.5 0.30902,-0.511z" stroke-miterlimit="10" stroke="#FFFFFF" fill="#FFFFFF"/>
    <path id="svg_1708" d="m183.11902,120.03201v0.30701c0,0.25 0.06097,0.467 0.18799,0.64799c0.28101,0.422 0.75,0.632 1.39801,0.632c1.422,0 3.06403,-1.092 4.93201,-3.27499c0.33002,-0.37701 0.60699,-0.563 0.83801,-0.563c0.12299,0 0.23596,0.063 0.33795,0.187c0.06805,0.092 0.104,0.17799 0.104,0.258c0,0.442 -0.547,1.19301 -1.63898,2.252c-0.854,0.83 -1.76398,1.507 -2.729,2.03c-0.96698,0.52301 -1.867,0.78401 -2.69501,0.78401c-0.85498,0 -1.52301,-0.295 -2.01398,-0.88701c-0.33203,-0.409 -0.49603,-0.967 -0.49603,-1.673c0,-1.922 0.90399,-3.80499 2.71301,-5.64699c1.46899,-1.50101 2.74603,-2.252 3.83801,-2.252c0.297,0 0.56403,0.09099 0.80499,0.27299c0.29303,0.23801 0.44098,0.55099 0.44098,0.938c0,0.60399 -0.27698,1.343 -0.83398,2.218c-1.151,1.81898 -2.88,3.07498 -5.18799,3.76999zm0.375,-1.33101c0.79498,-0.27299 1.422,-0.58 1.875,-0.92099c0.797,-0.61401 1.42798,-1.30901 1.896,-2.082c0.16998,-0.272 0.25598,-0.51801 0.25598,-0.733c0,-0.228 -0.10901,-0.341 -0.32397,-0.341c-0.29901,0 -0.71698,0.222 -1.26398,0.66499c-0.97803,0.78401 -1.79303,1.92201 -2.43903,3.412z" stroke-miterlimit="10" stroke="#FFFFFF" fill="#FFFFFF"/>
    <path id="svg_1709" d="m194.53302,117.454c0.146,-0.13701 0.289,-0.272 0.42603,-0.408c2.37695,-2.321 3.96899,-3.481 4.77698,-3.481c0.44299,0 0.664,0.244 0.664,0.733c0,0.34201 -0.19702,0.74501 -0.59601,1.213c-2.17401,2.535 -3.258,4.77101 -3.258,6.705c0,0.62401 0.16998,1.222 0.51202,1.79201c0.15796,0.261 0.23798,0.466 0.23798,0.614c0,0.13699 -0.06799,0.26599 -0.20502,0.392c-0.14801,0.159 -0.32397,0.239 -0.52899,0.239c-0.46497,0 -0.85901,-0.297 -1.17603,-0.888c-0.30695,-0.558 -0.461,-1.23399 -0.461,-2.03101c0,-1.53499 0.58002,-3.23499 1.74005,-5.10199c-1.547,0.991 -2.98602,2.743 -4.31799,5.256c-0.34003,0.604 -0.70502,0.90401 -1.09003,0.90401c-0.19299,0 -0.354,-0.06801 -0.47699,-0.20401c-0.16199,-0.159 -0.242,-0.36499 -0.242,-0.61499c0,-0.61401 0.70099,-2.224 2.09998,-4.82701c0.75,-1.412 1.34204,-2.43599 1.77502,-3.07199c0.43201,-0.62601 0.80298,-0.938 1.10699,-0.938c0.146,0 0.29102,0.06599 0.42999,0.20399c0.15802,0.16101 0.23798,0.34201 0.23798,0.54701c0,0.25 -0.16797,0.60799 -0.49597,1.075c-0.47601,0.694 -0.86401,1.325 -1.159,1.892z" stroke-miterlimit="10" stroke="#FFFFFF" fill="#FFFFFF"/>
    <path id="svg_1710" d="m212.685,116.721c0.61298,0 0.92401,0.25099 0.92401,0.752c0,0.375 -0.28699,0.659 -0.854,0.853c-0.97998,0.35201 -1.46899,0.98401 -1.46899,1.895c0,0.72701 0.28296,1.297 0.85498,1.70599c0.48798,0.341 1.10498,0.511 1.85699,0.511c1.50201,0 2.81403,-0.437 3.94104,-1.313c0.70697,-0.558 1.05896,-1.26199 1.05896,-2.11499c0,-0.52299 -0.104,-0.995 -0.30896,-1.416c-0.21503,-0.43401 -0.54504,-0.979 -0.99005,-1.63901c-0.68201,-1.02299 -1.25598,-1.957 -1.72296,-2.797c-0.52301,-0.933 -0.78503,-1.84999 -0.78503,-2.748c0,-2.127 1.05499,-4.11699 3.15802,-5.972c1.11499,-0.967 2.34399,-1.752 3.68597,-2.354c1.11304,-0.48999 2.18903,-0.73399 3.22705,-0.73399c0.66797,0 1.23798,0.17599 1.70294,0.52901c0.57001,0.41899 0.854,0.995 0.854,1.724c0,1.136 -0.61499,2.364 -1.84399,3.685c-1.15997,1.23999 -2.51398,2.252 -4.06097,3.036c-0.771,0.388 -1.35901,0.58101 -1.758,0.58101c-0.26001,0 -0.49402,-0.108 -0.69904,-0.32401c-0.13495,-0.147 -0.203,-0.312 -0.203,-0.496c0,-0.41901 0.375,-0.75999 1.12701,-1.022c1.375,-0.48799 2.59204,-1.17799 3.65002,-2.065c1.36298,-1.13599 2.047,-2.13199 2.047,-2.98399c0,-0.33099 -0.13702,-0.599 -0.40802,-0.80299c-0.21698,-0.15901 -0.47296,-0.23801 -0.76801,-0.23801c-0.78699,0 -1.76996,0.30099 -2.953,0.903c-1.59198,0.808 -2.84399,1.85001 -3.75397,3.12199c-0.797,1.104 -1.19299,2.179 -1.19299,3.22501c0,0.76401 0.211,1.548 0.63098,2.354c0.354,0.649 0.80103,1.38199 1.34802,2.202c0.52295,0.785 0.96698,1.51401 1.32996,2.185c0.422,0.797 0.63104,1.541 0.63104,2.233c0,1.34399 -0.76801,2.53101 -2.30103,3.567c-1.31097,0.86301 -2.789,1.297 -4.43799,1.297c-1.62701,0 -2.90198,-0.45 -3.82202,-1.349c-0.69299,-0.681 -1.04102,-1.467 -1.04102,-2.354c0,-0.989 0.33002,-1.819 0.98804,-2.48999c0.39996,-0.41101 0.87097,-0.718 1.41797,-0.923c0.37903,-0.14999 0.68701,-0.224 0.93903,-0.224z" stroke-miterlimit="10" stroke="#FFFFFF" fill="#FFFFFF"/>
    <path id="svg_1711" d="m235.51501,103.89201c-0.59003,0.659 -1.37701,1.75101 -2.354,3.274c-0.98999,1.549 -1.70099,2.742 -2.133,3.584c2.45502,-0.489 4.15601,-0.733 5.10199,-0.733c0.453,0 0.80103,0.045 1.04102,0.136c0.27002,0.092 0.40802,0.302 0.40802,0.632c0,0.70599 -0.39801,1.05699 -1.19305,1.05699c-0.04498,0 -0.13696,0 -0.27295,0c-0.34204,-0.01199 -0.59204,-0.017 -0.75,-0.017c-1.12903,0 -2.99805,0.37001 -5.61505,1.108c-1.65997,2.855 -3.12299,6.26801 -4.38495,10.23801c-0.17004,0.603 -0.43903,0.90399 -0.80499,0.90399c-0.31604,0 -0.58203,-0.177 -0.79901,-0.52899c-0.172,-0.26201 -0.25604,-0.52301 -0.25604,-0.784c0,-0.29701 0.31201,-1.29701 0.93805,-3.00401c1.03497,-2.80899 2.51398,-5.823 4.43799,-9.043c1.21698,-2.01399 2.55298,-4.146 4.01001,-6.39799c-0.38702,-0.056 -0.58002,-0.272 -0.58002,-0.647c0,-0.55699 0.53699,-0.98399 1.617,-1.28c1.50397,-0.42099 2.96698,-0.744 4.38696,-0.97299c1.61505,-0.261 2.84601,-0.39201 3.68805,-0.39201c1.32996,0 1.99597,0.33601 1.99597,1.007c0,0.34201 -0.15399,0.619 -0.45898,0.836c-0.12903,0.09201 -0.27002,0.138 -0.42798,0.138c-0.13702,0 -0.33002,-0.019 -0.58002,-0.05299c-0.38904,-0.05701 -0.72504,-0.08501 -1.008,-0.08501c-0.61304,0 -1.64801,0.119 -3.10504,0.35701c-1.04797,0.15999 -2.01501,0.38298 -2.90198,0.66699z" stroke-miterlimit="10" stroke="#FFFFFF" fill="#FFFFFF"/>
   </g>
   <g id="svg_1712">
    <g id="svg_1713">
     <polygon id="svg_1714" points="170.06000137329102,8.569000244140625 179.89398574829102,1.5480003356933594 177.23199844360352,1.5480003356933594 168.88397598266602,7.507999420166016 " fill="#FFFFFF" clip-rule="evenodd" fill-rule="evenodd"/>
    </g>
    <g id="svg_1715">
     <polygon id="svg_1716" points="167.70300674438477,6.449001312255859 174.56799697875977,1.5480003356933594 171.90600967407227,1.5480003356933594 166.52502822875977,5.3899993896484375 " fill="#FFFFFF" clip-rule="evenodd" fill-rule="evenodd"/>
    </g>
    <g id="svg_1717">
     <path id="svg_1718" d="m149.75299,34.059v14.104c0.16797,0.021 0.336,0.034 0.51202,0.034h1.03296l-0.01398,-12.909c-0.10901,-0.093 -1.06,-0.88 -1.53101,-1.229" fill="#FFFFFF" clip-rule="evenodd" fill-rule="evenodd"/>
    </g>
    <g id="svg_1719">
     <path id="svg_1720" d="m173.521,14.592c-9.604,3.13 -17.19299,10.73 -20.32202,20.347c0.375,0.36 0.74402,0.729 1.10205,1.10899c2.961,-9.895 10.82397,-17.664 20.76996,-20.483v-5.017h-1.54901v4.044l-0.00098,0z" fill="#FFFFFF" clip-rule="evenodd" fill-rule="evenodd"/>
    </g>
    <g id="svg_1721">
     <path id="svg_1722" d="m155.50897,37.415c0.42401,0.516 0.82599,1.052 1.211,1.598c2.28302,-10.62701 10.74799,-18.951 21.44702,-21.012v-7.453h-1.547v6.206c-10.28497,2.462 -18.42297,10.452 -21.11102,20.661" fill="#FFFFFF" clip-rule="evenodd" fill-rule="evenodd"/>
    </g>
    <g id="svg_1723">
     <path id="svg_1724" d="m146.65802,44.589c0,1.228 0.60901,2.312 1.54901,2.96301v-14.55601c-0.05902,-0.036 -1.09802,-0.66199 -1.56104,-0.91299c0,0 0.01202,12.505 0.01202,12.506" fill="#FFFFFF" clip-rule="evenodd" fill-rule="evenodd"/>
    </g>
    <g id="svg_1725">
     <path id="svg_1726" d="m180.31598,3.146l-8.19702,5.854h7.57404v10.316c-11.17999,1.595 -20.05103,10.39801 -21.75,21.555c0,0.002 0,0.002 0,0.002c-0.13904,0.916 -0.22699,1.848 -0.26599,2.791c-0.80103,-1.681 -1.789,-3.27 -2.93005,-4.733c-0.59399,-0.76 -1.22894,-1.486 -1.90198,-2.176l-0.00201,11.44h27.90302c0.37903,0 0.742,-0.06 1.09003,-0.169c0.01801,-0.006 0.06598,-0.021 0.07397,-0.022c1.35699,-0.463 2.35199,-1.71799 2.43201,-3.217c0.00201,-0.01 0.00598,-0.327 0.00598,-0.327c-0.01996,-0.559 -0.16998,-1.087 -0.41199,-1.553l-6.62299,-11.91399h1.758l5.28101,9.47299v-35.208v-0.007c0,-1.416 -1.14099,-2.561 -2.57599,-2.561c-0.53998,0.001 -1.04602,0.169 -1.46002,0.456" fill="#FFFFFF" clip-rule="evenodd" fill-rule="evenodd"/>
    </g>
    <g id="svg_1727">
     <path id="svg_1728" d="m151.93298,33.801c3.28497,-9.427 10.68799,-16.923 20.05103,-20.324v-2.929h-2.02905l-5.89996,-5.299l5.18896,-3.705h-7.90997h-11.07001c-1.992,0.001 -3.60498,1.613 -3.60699,3.606v25.188c1.89301,0.952 3.66101,2.11499 5.276,3.463" fill="#E2231A"/>
    </g>
    <g id="svg_1729">
     <path id="svg_1730" d="m180.74799,0l0,0h-30.47296h-0.01202c-2.84802,0 -5.15002,2.308 -5.15002,5.155v0.021v39.416c0,2.847 2.30304,5.15099 5.15002,5.152h30.48401c2.83997,0 5.14496,-2.30601 5.14496,-5.152v-39.438c-0.00195,-2.848 -2.30499,-5.154 -5.14398,-5.154m-35.63501,5.156v-0.004v0.004l0,0zm32.11902,-3.608h2.66199l-9.83398,7.021l-1.17603,-1.061l8.34802,-5.96zm-9.52899,4.901l-1.17798,-1.059l5.38098,-3.842h2.66199l-6.86499,4.901zm-19.49603,41.103c-0.93896,-0.651 -1.54895,-1.735 -1.54895,-2.96301c0,0 0,-0.81499 -0.00201,-2.03v-10.47c0.47498,0.256 1.492,0.872 1.55096,0.908v14.555l0,0zm3.07404,0.644h-1.15399c-0.125,-0.004 -0.25201,-0.018 -0.37305,-0.032v-14.105c0.47101,0.35001 1.42206,1.136 1.53101,1.229l-0.00397,12.908zm-4.625,-17.857v-25.188c0.00201,-1.993 1.61499,-3.605 3.60699,-3.606h18.97998l-5.18896,3.705l5.89801,5.299h2.03094v2.929c-9.36096,3.402 -16.76398,10.897 -20.05096,20.32399c-1.612,-1.349 -3.38202,-2.51199 -5.276,-3.463m28.414,-14.774l0,0c-9.94501,2.819 -17.80902,10.589 -20.77002,20.483c-0.35699,-0.38 -0.72699,-0.74899 -1.10199,-1.10899c3.12903,-9.616 10.71899,-17.217 20.32202,-20.347v-4.044h1.54895v5.017l0.00104,0zm1.55096,1.189v-6.206h1.547v7.453c-10.69897,2.061 -19.164,10.38499 -21.44696,21.012c-0.38702,-0.546 -0.78699,-1.082 -1.211,-1.598c2.68701,-10.209 10.82501,-18.199 21.11096,-20.661m7.72803,-11.496l0,0v35.208l-5.27899,-9.47299h-1.758l6.62299,11.91399c0.242,0.466 0.39301,0.994 0.41199,1.553c0,0 -0.00397,0.317 -0.00598,0.327c-0.08002,1.499 -1.07404,2.754 -2.43201,3.217c-0.008,0.001 -0.05701,0.017 -0.07397,0.022c-0.33405,0.106 -0.68805,0.165 -1.05103,0.169h-27.94098l0.00195,-11.44c1.96906,2.01 3.60706,4.342 4.83203,6.909c0.039,-0.943 0.12701,-1.875 0.26599,-2.791c0,0 0,0 0,-0.002c1.69702,-11.156 10.57001,-19.96 21.75201,-21.555v-10.316h-7.57599l8.19696,-5.854c0.414,-0.287 0.91803,-0.455 1.45905,-0.455c1.43597,0 2.57397,1.145 2.57397,2.561v0.006l0,0z" fill="#002F87" clip-rule="evenodd" fill-rule="evenodd"/>
    </g>
    <g id="svg_1731">
     <path id="svg_1732" d="m181.302,5.922c0,-0.403 0.328,-0.731 0.72998,-0.731c0.41205,0 0.73602,0.328 0.73602,0.731c0,0.408 -0.32397,0.738 -0.73602,0.738c-0.40198,0 -0.72998,-0.33 -0.72998,-0.738" fill="#002F87"/>
    </g>
   </g>
  </g>
 </g>
</svg>