<svg xmlns:svg="http://www.w3.org/2000/svg" xmlns="http://www.w3.org/2000/svg" width="770" height="240" viewBox="0 0 770 240" id="svg5938" version="1.1"><defs id="defs5940"/><metadata id="metadata5943"/><g id="layer1" transform="translate(0,-812.36212)"><g id="g9" transform="translate(-41.418528,690.99999)"><g id="g11"><path d="m444.1 144.3c0-0.7 0.5-1.2 1.2-1.2 0.7 0 1.2 0.5 1.2 1.2 0 0.7-0.5 1.2-1.2 1.2-0.7 0-1.2-0.5-1.2-1.2" id="path13" fill="#002f87"/></g><g id="g15" transform="matrix(1.0382056,0,0,0.99160978,-30.453003,1.7370766)"><rect x="71.7" y="206.1" stroke-miterlimit="10" width="725.2" height="1.8" id="rect17" style="fill:#fff;stroke-miterlimit:10;stroke-width:1;stroke:#fff"/></g><g id="g19" transform="matrix(1.0853628,0,0,0.98193498,-35.802867,5.7843918)"><rect x="71.6" y="319.3" stroke-miterlimit="10" width="695.5" height="1.8" id="rect21" style="fill:#fff;stroke-miterlimit:10;stroke:#fff"/></g><g id="g23"><g id="g25"><polygon points="426.8 149.5 442.6 138.4 438.3 138.4 424.9 147.9 " id="polygon27" style="fill-rule:evenodd;fill:#fff"/></g><g id="g29"><polygon points="423 146.2 434 138.4 429.7 138.4 421.1 144.5 " id="polygon31" style="fill-rule:evenodd;fill:#fff"/></g><g id="g33"><path d="m394.1 190.2 0 22.5c0.3 0 0.5 0.1 0.8 0.1l1.7 0 0-20.6c-0.2-0.1-1.7-1.4-2.5-2" id="path35" style="fill-rule:evenodd;fill:#fff"/></g><g id="g37"><path d="m432.3 159.1c-15.5 5-27.7 17.1-32.7 32.4 0.6 0.6 1.2 1.2 1.8 1.8 4.8-15.8 17.4-28.1 33.4-32.6l0-8-2.5 0 0 6.4z" id="path39" style="fill-rule:evenodd;fill:#fff"/></g><g id="g41"><path d="m403.3 195.5c0.7 0.8 1.3 1.7 1.9 2.5 3.7-16.9 17.3-30.2 34.5-33.5l0-11.9-2.5 0 0 9.9c-16.6 3.9-29.7 16.7-34 32.9" id="path43" style="fill-rule:evenodd;fill:#fff"/></g><g id="g45"><path d="m389.1 206.9c0 2 1 3.7 2.5 4.7l0-23.2c-0.1-0.1-1.8-1.1-2.5-1.5l0 19.9" id="path47" style="fill-rule:evenodd;fill:#fff"/></g><g id="g49"><path d="m443.3 140.9-13.2 9.3 12.2 0 0 16.4c-18 2.5-32.3 16.6-35 34.3l0 0c-0.2 1.5-0.4 2.9-0.4 4.4-1.3-2.7-2.9-5.2-4.7-7.5-1-1.2-2-2.4-3.1-3.5l0 18.2 44.9 0c0.6 0 1.2-0.1 1.8-0.3 0 0 0.1 0 0.1 0 2.2-0.7 3.8-2.7 3.9-5.1 0 0 0-0.5 0-0.5 0-0.9-0.3-1.7-0.7-2.5l-10.7-19 2.8 0 8.5 15.1 0-56.1 0 0c0-2.3-1.8-4.1-4.1-4.1-0.9 0-1.7 0.3-2.3 0.7" id="path51" style="fill-rule:evenodd;fill:#fff"/></g><g id="g53"><path d="m397.6 189.8c5.3-15 17.2-27 32.3-32.4l0-4.7-3.3 0-9.5-8.4 8.4-5.9-12.7 0-17.8 0c-3.2 0-5.8 2.6-5.8 5.7l0 40.1c3 1.5 5.9 3.4 8.5 5.5" id="path55" fill="#e2231a"/></g><g id="g57"><path d="m444 135.9 0 0-49.1 0 0 0c-4.6 0-8.3 3.7-8.3 8.2l0 0 0 62.8c0 4.5 3.7 8.2 8.3 8.2l49.1 0c4.6 0 8.3-3.7 8.3-8.2l0-62.8c0-4.5-3.7-8.2-8.3-8.2m-57.4 8.2 0 0 0 0zm51.7-5.7 4.3 0-15.8 11.2-1.9-1.7 13.4-9.5zm-15.3 7.8-1.9-1.7 8.7-6.1 4.3 0-11.1 7.8zm-31.4 65.5c-1.5-1-2.5-2.8-2.5-4.7 0 0 0-1.3 0-3.2l0-16.7c0.8 0.4 2.4 1.4 2.5 1.4l0 23.2zm4.9 1-1.9 0c-0.2 0-0.4 0-0.6-0.1l0-22.5c0.8 0.6 2.3 1.8 2.5 2l0 20.6zm-7.4-28.5 0-40.1c0-3.2 2.6-5.7 5.8-5.7l30.6 0-8.4 5.9 9.5 8.4 3.3 0 0 4.7c-15.1 5.4-27 17.4-32.3 32.4-2.6-2.1-5.4-4-8.5-5.5m45.7-23.5 0 0c-16 4.5-28.7 16.9-33.4 32.6-0.6-0.6-1.2-1.2-1.8-1.8 5-15.3 17.3-27.4 32.7-32.4l0-6.4 2.5 0 0 8zm2.5 1.9 0-9.9 2.5 0 0 11.9c-17.2 3.3-30.8 16.5-34.5 33.5-0.6-0.9-1.3-1.7-1.9-2.5 4.3-16.3 17.4-29 34-32.9m12.4-18.3 0 0 0 56.1-8.5-15.1-2.8 0 10.7 19c0.4 0.7 0.6 1.6 0.7 2.5 0 0 0 0.5 0 0.5-0.1 2.4-1.7 4.4-3.9 5.1 0 0-0.1 0-0.1 0-0.5 0.2-1.1 0.3-1.7 0.3l-45 0 0-18.2c3.2 3.2 5.8 6.9 7.8 11 0.1-1.5 0.2-3 0.4-4.4l0 0c2.7-17.8 17-31.8 35-34.3l0-16.4-12.2 0 13.2-9.3c0.7-0.5 1.5-0.7 2.4-0.7 2.3 0 4.1 1.8 4.1 4.1l0 0z" id="path59" style="fill-rule:evenodd;fill:#002f87"/></g><g id="g61"><path d="m444.9 145.3c0-0.6 0.5-1.2 1.2-1.2 0.7 0 1.2 0.5 1.2 1.2 0 0.7-0.5 1.2-1.2 1.2-0.6 0-1.2-0.5-1.2-1.2" id="path63" fill="#002f87"/></g></g><rect x="71.6" y="246.6" width="695.5" height="37.2" id="rect65" fill="none"/><text font-size="51.6" id="text67" x="57.6" y="282.3" style="fill:#fff;font-family:MyriadPro-BoldCond;font-size:51.6"><tspan id="tspan5845" style="-inkscape-font-specification:'Myriad Pro Bold';font-family:'Myriad Pro';font-weight:bold">L</tspan></text><text font-size="51.6" id="text69" x="79" y="282.3" style="-inkscape-font-specification:'Myriad Pro Bold';fill:#fff;font-family:'Myriad Pro';font-size:51.6;font-weight:bold">o</text><text font-size="51.6" id="text71" x="103.3" y="282.3" style="-inkscape-font-specification:'Myriad Pro Bold';fill:#fff;font-family:'Myriad Pro';font-size:51.6;font-weight:bold">s</text><text transform="translate(129.9941,282.2915)" font-size="51.6" id="text73" style="fill:#fff;font-family:MyriadPro-BoldCond;font-size:51.6"/><text font-size="51.6" id="text75" x="128.2" y="282.3" style="-inkscape-font-specification:'Myriad Pro Bold';fill:#fff;font-family:'Myriad Pro';font-size:51.6;font-weight:bold">P</text><text font-size="51.6" id="text77" x="150.7" y="282.3" style="-inkscape-font-specification:'Myriad Pro Bold';fill:#fff;font-family:'Myriad Pro';font-size:51.6;font-weight:bold">o</text><text font-size="51.6" id="text79" x="175" y="282.3" style="-inkscape-font-specification:'Myriad Pro Bold';fill:#fff;font-family:'Myriad Pro';font-size:51.6;font-weight:bold">d</text><text font-size="51.6" id="text81" x="200.1" y="282.3" style="-inkscape-font-specification:'Myriad Pro Bold';fill:#fff;font-family:'Myriad Pro';font-size:51.6;font-weight:bold">e</text><text font-size="51.6" id="text83" x="221.7" y="282.3" style="-inkscape-font-specification:'Myriad Pro Bold';fill:#fff;font-family:'Myriad Pro';font-size:51.6;font-weight:bold">r</text><text font-size="51.6" id="text85" x="236.7" y="282.3" style="-inkscape-font-specification:'Myriad Pro Bold';fill:#fff;font-family:'Myriad Pro';font-size:51.6;font-weight:bold">o</text><text font-size="51.6" id="text87" x="262.9" y="282.3" style="-inkscape-font-specification:'Myriad Pro Bold';fill:#fff;font-family:'Myriad Pro';font-size:51.6;font-weight:bold">s</text><text font-size="51.6" id="text89" x="281.6" y="282.3" style="-inkscape-font-specification:'Myriad Pro Bold';fill:#fff;font-family:'Myriad Pro';font-size:51.6;font-weight:bold">o</text><text font-size="51.6" id="text91" x="305.9" y="282.3" style="-inkscape-font-specification:'Myriad Pro Bold';fill:#fff;font-family:'Myriad Pro';font-size:51.6;font-weight:bold">s</text><text transform="translate(320.6284,282.2915)" font-size="51.6" id="text93" style="fill:#fff;font-family:MyriadPro-BoldCond;font-size:51.6"/><text font-size="51.6" id="text95" x="330.8" y="282.3" style="-inkscape-font-specification:'Myriad Pro Bold';fill:#fff;font-family:'Myriad Pro';font-size:51.6;font-weight:bold">R</text><text font-size="51.6" id="text97" x="355" y="282.3" style="-inkscape-font-specification:'Myriad Pro Bold';fill:#fff;font-family:'Myriad Pro';font-size:51.6;font-weight:bold">e</text><text font-size="51.6" id="text99" x="376.6" y="282.3" style="-inkscape-font-specification:'Myriad Pro Bold';fill:#fff;font-family:'Myriad Pro';font-size:51.6;font-weight:bold">p</text><text font-size="51.6" id="text101" x="399.7" y="282.3" style="-inkscape-font-specification:'Myriad Pro Bold';fill:#fff;font-family:'Myriad Pro';font-size:51.6;font-weight:bold">r</text><text font-size="51.6" id="text103" x="414.6" y="282.3" style="-inkscape-font-specification:'Myriad Pro Bold';fill:#fff;font-family:'Myriad Pro';font-size:51.6;font-weight:bold">o</text><text font-size="51.6" id="text105" x="438.9" y="282.3" style="-inkscape-font-specification:'Myriad Pro Bold';fill:#fff;font-family:'Myriad Pro';font-size:51.6;font-weight:bold">d</text><text font-size="51.6" id="text107" x="462" y="282.3" style="-inkscape-font-specification:'Myriad Pro Bold';fill:#fff;font-family:'Myriad Pro';font-size:51.6;font-weight:bold">u</text><text font-size="51.6" id="text109" x="485.3" y="282.3" style="-inkscape-font-specification:'Myriad Pro Bold';fill:#fff;font-family:'Myriad Pro';font-size:51.6;font-weight:bold">c</text><text font-size="51.6" id="text111" x="505" y="282.3" style="-inkscape-font-specification:'Myriad Pro Bold';fill:#fff;font-family:'Myriad Pro';font-size:51.6;font-weight:bold">t</text><text font-size="51.6" id="text113" x="518.7" y="282.3" style="-inkscape-font-specification:'Myriad Pro Bold';fill:#fff;font-family:'Myriad Pro';font-size:51.6;font-weight:bold">o</text><text font-size="51.6" id="text115" x="545" y="282.3" style="-inkscape-font-specification:'Myriad Pro Bold';fill:#fff;font-family:'Myriad Pro';font-size:51.6;font-weight:bold">r</text><text font-size="51.6" id="text117" x="560" y="282.3" style="-inkscape-font-specification:'Myriad Pro Bold';fill:#fff;font-family:'Myriad Pro';font-size:51.6;font-weight:bold">e</text><text font-size="51.6" id="text119" x="583.6" y="282.3" style="-inkscape-font-specification:'Myriad Pro Bold';fill:#fff;font-family:'Myriad Pro';font-size:51.6;font-weight:bold">s</text><text transform="translate(590.3145,282.2915)" font-size="51.6" id="text121" style="fill:#fff;font-family:MyriadPro-BoldCond;font-size:51.6"/><text font-size="51.6" id="text123" x="608.5" y="282.3" style="-inkscape-font-specification:'Myriad Pro Bold';fill:#fff;font-family:'Myriad Pro';font-size:51.6;font-weight:bold">d</text><text font-size="51.6" id="text125" x="635.6" y="282.3" style="-inkscape-font-specification:'Myriad Pro Bold';fill:#fff;font-family:'Myriad Pro';font-size:51.6;font-weight:bold">e</text><text font-size="51.6" id="text127" x="659.2" y="282.3" style="-inkscape-font-specification:'Myriad Pro Bold';fill:#fff;font-family:'Myriad Pro';font-size:51.6;font-weight:bold">l</text><text transform="translate(654.8564,282.2915)" font-size="51.6" id="text129" style="fill:#fff;font-family:MyriadPro-BoldCond;font-size:51.6"/><text font-size="51.6" id="text131" x="674.1" y="282.3" style="-inkscape-font-specification:'Myriad Pro Bold';fill:#fff;font-family:'Myriad Pro';font-size:51.6;font-weight:bold">N</text><text font-size="51.6" id="text133" x="705.5" y="282.3" style="-inkscape-font-specification:'Myriad Pro Bold';fill:#fff;font-family:'Myriad Pro';font-size:51.6;font-weight:bold">o</text><text font-size="51.6" id="text135" x="729.7" y="282.3" style="-inkscape-font-specification:'Myriad Pro Bold';fill:#fff;font-family:'Myriad Pro';font-size:51.6;font-weight:bold">r</text><text font-size="51.6" id="text137" x="747.8" y="282.3" style="-inkscape-font-specification:'Myriad Pro Bold';fill:#fff;font-family:'Myriad Pro';font-size:51.6;font-weight:bold">t</text><text font-size="51.6" id="text139" x="763.5" y="282.3" style="fill:#fff;font-family:MyriadPro-BoldCond;font-size:51.6"><tspan id="tspan5843" style="-inkscape-font-specification:'Myriad Pro Bold';font-family:'Myriad Pro';font-weight:bold">e</tspan></text><rect x="196.3" y="337.9" width="436.7" height="23.4" id="rect141" fill="none"/><text font-size="32.4" id="text143" x="316.3" y="361.4" style="fill:#fff;font-family:MyriadPro-BoldCond;font-size:32.4">P</text><text font-size="32.4" id="text145" x="334.9" y="360.4" style="fill:#fff;font-family:MyriadPro-BoldCond;font-size:32.4">u</text><text font-size="32.4" id="text147" x="353.5" y="360.4" style="fill:#fff;font-family:MyriadPro-BoldCond;font-size:32.4">e</text><text font-size="32.4" id="text149" x="369.1" y="360.4" style="fill:#fff;font-family:MyriadPro-BoldCond;font-size:32.4">n</text><text font-size="32.4" id="text151" x="386" y="360.4" style="fill:#fff;font-family:MyriadPro-BoldCond;font-size:32.4">t</text><text font-size="32.4" id="text153" x="395.9" y="360.4" style="fill:#fff;font-family:MyriadPro-BoldCond;font-size:32.4">e</text><text transform="translate(413.4424,360.3721)" font-size="32.4" id="text155" style="fill:#fff;font-family:MyriadPro-BoldCond;font-size:32.4"/><text transform="translate(418.5972,360.3721)" font-size="32.4" id="text157" style="fill:#fff;font-family:MyriadPro-BoldCond;font-size:32.4"/><text font-size="32.4" id="text159" x="425.8" y="360.4" style="fill:#fff;font-family:MyriadPro-BoldCond;font-size:32.4">P</text><text font-size="32.4" id="text161" x="444.6" y="360.4" style="fill:#fff;font-family:MyriadPro-BoldCond;font-size:32.4">i</text><text font-size="32.4" id="text163" x="451.8" y="360.4" style="fill:#fff;font-family:MyriadPro-BoldCond;font-size:32.4">e</text><text font-size="32.4" id="text165" x="471.4" y="360.4" style="fill:#fff;font-family:MyriadPro-BoldCond;font-size:32.4">d</text><text font-size="32.4" id="text167" x="489.9" y="360.4" style="fill:#fff;font-family:MyriadPro-BoldCond;font-size:32.4">r</text><text font-size="32.4" id="text169" x="503.4" y="360.4" style="fill:#fff;font-family:MyriadPro-BoldCond;font-size:32.4">a</text></g></g></svg>