<?xml version="1.0" encoding="UTF-8" standalone="no"?>
<!-- Created with Inkscape (http://www.inkscape.org/) -->

<svg
   xmlns:dc="http://purl.org/dc/elements/1.1/"
   xmlns:cc="http://creativecommons.org/ns#"
   xmlns:rdf="http://www.w3.org/1999/02/22-rdf-syntax-ns#"
   xmlns:svg="http://www.w3.org/2000/svg"
   xmlns="http://www.w3.org/2000/svg"
   xmlns:sodipodi="http://sodipodi.sourceforge.net/DTD/sodipodi-0.dtd"
   xmlns:inkscape="http://www.inkscape.org/namespaces/inkscape"
   width="770"
   height="240"
   viewBox="0 0 770 240"
   id="svg5938"
   version="1.1"
   inkscape:version="0.91 r13725"
   sodipodi:docname="logo_puente_piedra.svg">
  <defs
     id="defs5940" />
  <sodipodi:namedview
     id="base"
     pagecolor="#ffffff"
     bordercolor="#666666"
     borderopacity="1.0"
     inkscape:pageopacity="0.0"
     inkscape:pageshadow="2"
     inkscape:zoom="0.35"
     inkscape:cx="375"
     inkscape:cy="520"
     inkscape:document-units="px"
     inkscape:current-layer="layer1"
     showgrid="false"
     borderlayer="false"
     units="px"
     inkscape:window-width="1366"
     inkscape:window-height="705"
     inkscape:window-x="-8"
     inkscape:window-y="-8"
     inkscape:window-maximized="1" />
  <metadata
     id="metadata5943">
    <rdf:RDF>
      <cc:Work
         rdf:about="">
        <dc:format>image/svg+xml</dc:format>
        <dc:type
           rdf:resource="http://purl.org/dc/dcmitype/StillImage" />
        <dc:title></dc:title>
      </cc:Work>
    </rdf:RDF>
  </metadata>
  <g
     inkscape:label="Capa 1"
     inkscape:groupmode="layer"
     id="layer1"
     transform="translate(0,-812.36212)">
    <g
       id="g9"
       transform="translate(-41.418528,690.99999)">
      <g
         id="g11">
        <path
           d="m 444.134,144.261 c 0,-0.661 0.543,-1.199 1.212,-1.199 0.676,0 1.213,0.538 1.213,1.199 0,0.67 -0.537,1.21 -1.213,1.21 -0.669,0 -1.212,-0.539 -1.212,-1.21"
           id="path13"
           inkscape:connector-curvature="0"
           style="fill:#002f87" />
      </g>
      <g
         id="g15"
         transform="matrix(1.0382056,0,0,0.99160978,-30.453003,1.7370766)">
        <rect
           x="71.656212"
           y="206.14922"
           stroke-miterlimit="10"
           width="725.23053"
           height="1.7735773"
           id="rect17"
           style="fill:#ffffff;stroke:#ffffff;stroke-width:1.01642263;stroke-miterlimit:10" />
      </g>
      <g
         id="g19"
         transform="matrix(1.0853628,0,0,0.98193498,-35.802867,5.7843918)">
        <rect
           x="71.648003"
           y="319.30301"
           stroke-miterlimit="10"
           width="695.54401"
           height="1.791"
           id="rect21"
           style="fill:#ffffff;stroke:#ffffff;stroke-miterlimit:10" />
      </g>
      <g
         id="g23">
        <g
           id="g25">
          <polygon
             points="426.757,149.545 442.586,138.36 438.302,138.36 424.862,147.857 "
             id="polygon27"
             style="fill:#ffffff;fill-rule:evenodd" />
        </g>
        <g
           id="g29">
          <polygon
             points="422.961,146.169 434.014,138.36 429.729,138.36 421.065,144.482 "
             id="polygon31"
             style="fill:#ffffff;fill-rule:evenodd" />
        </g>
        <g
           id="g33">
          <path
             d="m 394.065,190.164 0,22.471 c 0.27,0.035 0.54,0.057 0.824,0.057 l 1.661,0 -0.019,-20.571 c -0.176,-0.149 -1.706,-1.402 -2.466,-1.957"
             id="path35"
             inkscape:connector-curvature="0"
             style="fill:#ffffff;fill-rule:evenodd" />
        </g>
        <g
           id="g37">
          <path
             d="m 432.331,159.144 c -15.465,4.988 -27.683,17.097 -32.72,32.421 0.605,0.574 1.196,1.162 1.772,1.768 4.769,-15.766 17.427,-28.147 33.436,-32.637 l 0,-7.996 -2.488,0 0,6.444 z"
             id="path39"
             inkscape:connector-curvature="0"
             style="fill:#ffffff;fill-rule:evenodd" />
        </g>
        <g
           id="g41">
          <path
             d="m 403.332,195.51 c 0.685,0.823 1.331,1.677 1.949,2.546 3.675,-16.932 17.303,-30.197 34.525,-33.479 l 0,-11.877 -2.488,0 0,9.89 c -16.558,3.922 -29.66,16.654 -33.986,32.92"
             id="path43"
             inkscape:connector-curvature="0"
             style="fill:#ffffff;fill-rule:evenodd" />
        </g>
        <g
           id="g45">
          <path
             d="m 389.084,206.941 c 0,1.956 0.981,3.684 2.491,4.72 l 0,-23.191 c -0.094,-0.057 -1.765,-1.056 -2.514,-1.455 l 0.023,19.926"
             id="path47"
             inkscape:connector-curvature="0"
             style="fill:#ffffff;fill-rule:evenodd" />
        </g>
        <g
           id="g49">
          <path
             d="m 443.267,140.907 -13.196,9.327 12.194,0 0,16.44 c -17.997,2.539 -32.279,16.567 -35.016,34.345 l 10e-4,0.001 c -0.224,1.46 -0.364,2.942 -0.429,4.447 -1.29,-2.679 -2.878,-5.209 -4.713,-7.541 -0.959,-1.212 -1.979,-2.37 -3.066,-3.468 l -10e-4,18.229 44.917,0 c 0.609,0 1.197,-0.094 1.753,-0.27 0.03,-0.008 0.11,-0.034 0.122,-0.035 2.185,-0.737 3.786,-2.738 3.915,-5.128 0.001,-0.015 0.009,-0.519 0.009,-0.519 -0.032,-0.891 -0.27,-1.733 -0.664,-2.475 l -10.664,-18.982 2.831,0 8.502,15.091 0,-56.098 0,-0.012 c 0,-2.256 -1.839,-4.081 -4.146,-4.081 -0.869,0.003 -1.684,0.271 -2.349,0.729"
             id="path51"
             inkscape:connector-curvature="0"
             style="fill:#ffffff;fill-rule:evenodd" />
        </g>
        <g
           id="g53">
          <path
             d="m 397.576,189.751 c 5.29,-15.02 17.206,-26.963 32.28,-32.385 l 0,-4.666 -3.271,0 -9.493,-8.441 8.351,-5.904 -12.73,0 -17.828,0 c -3.205,0.002 -5.8,2.571 -5.804,5.746 l 0,40.134 c 3.047,1.515 5.896,3.369 8.495,5.516"
             id="path55"
             inkscape:connector-curvature="0"
             style="fill:#e2231a" />
        </g>
        <g
           id="g57">
          <path
             d="m 443.963,135.894 0,0 -49.059,0 -0.021,0 c -4.579,0 -8.287,3.677 -8.287,8.215 l 0,0.032 0,62.804 c 0,4.537 3.708,8.209 8.287,8.211 l 49.08,0 c 4.574,0 8.281,-3.674 8.281,-8.211 l 0,-62.841 c -0.002,-4.536 -3.708,-8.21 -8.281,-8.21 m -57.367,8.215 0,-0.005 0,0.005 z m 51.706,-5.749 4.284,0 -15.829,11.186 -1.895,-1.688 13.44,-9.498 z m -15.341,7.809 -1.896,-1.687 8.664,-6.123 4.285,0 -11.053,7.81 z m -31.386,65.492 c -1.51,-1.036 -2.491,-2.764 -2.491,-4.72 0,0 -10e-4,-1.298 -0.005,-3.235 l 0,-16.683 c 0.761,0.409 2.401,1.391 2.496,1.448 l 0,23.19 z m 4.949,1.027 -1.859,0 c -0.2,-0.007 -0.405,-0.028 -0.601,-0.053 l 0,-22.471 c 0.76,0.556 2.291,1.808 2.466,1.957 l -0.006,20.567 z m -7.444,-28.453 0,-40.134 c 0.003,-3.174 2.599,-5.743 5.804,-5.746 l 30.559,0 -8.352,5.904 9.49,8.443 3.274,0 0,4.665 c -15.072,5.424 -26.987,17.365 -32.28,32.385 -2.596,-2.148 -5.447,-4.001 -8.495,-5.517 m 45.739,-23.539 0,0 c -16.008,4.49 -28.667,16.872 -33.436,32.637 -0.576,-0.605 -1.167,-1.194 -1.772,-1.768 5.037,-15.325 17.254,-27.433 32.72,-32.421 l 0,-6.442 2.488,0 0,7.994 z m 2.498,1.894 0,-9.888 2.488,0 0,11.875 c -17.222,3.282 -30.85,16.547 -34.525,33.479 -0.621,-0.869 -1.264,-1.723 -1.949,-2.546 4.327,-16.266 17.429,-28.998 33.986,-32.92 m 12.443,-18.317 0,0 0,56.098 -8.5,-15.091 -2.828,0 10.661,18.982 c 0.395,0.742 0.632,1.584 0.664,2.475 0,0 -0.008,0.504 -0.009,0.519 -0.131,2.39 -1.73,4.391 -3.915,5.128 -0.013,0.001 -0.092,0.027 -0.122,0.035 -0.535,0.171 -1.104,0.263 -1.688,0.27 l -44.981,0 0.001,-18.229 c 3.168,3.203 5.809,6.918 7.779,11.008 0.065,-1.505 0.205,-2.987 0.429,-4.447 l -10e-4,-10e-4 c 2.732,-17.778 17.016,-31.806 35.019,-34.345 l 10e-4,-16.44 -12.2,0 13.196,-9.327 c 0.665,-0.458 1.478,-0.727 2.35,-0.727 2.307,0 4.144,1.825 4.144,4.081 l 0,0.011 z"
             id="path59"
             inkscape:connector-curvature="0"
             style="fill:#002f87;fill-rule:evenodd" />
        </g>
        <g
           id="g61">
          <path
             d="m 444.854,145.33 c 0,-0.642 0.529,-1.165 1.178,-1.165 0.659,0 1.183,0.522 1.183,1.165 0,0.652 -0.523,1.178 -1.183,1.178 -0.648,-0.001 -1.178,-0.526 -1.178,-1.178"
             id="path63"
             inkscape:connector-curvature="0"
             style="fill:#002f87" />
        </g>
      </g>
      <rect
         x="71.647003"
         y="246.561"
         width="695.54401"
         height="37.195999"
         id="rect65"
         style="fill:none" />
      <text
         font-size="51.6356"
         id="text67"
         style="font-size:51.63560104px;font-family:MyriadPro-BoldCond;fill:#ffffff"
         x="57.647499"
         y="282.2915">
        <tspan
           style="font-style:normal;font-variant:normal;font-weight:bold;font-stretch:normal;font-family:'Myriad Pro';-inkscape-font-specification:'Myriad Pro Bold'"
           id="tspan5845">L</tspan>
      </text>
      <text
         font-size="51.6356"
         id="text69"
         style="font-style:normal;font-variant:normal;font-weight:bold;font-stretch:normal;font-size:51.63560104px;font-family:'Myriad Pro';-inkscape-font-specification:'Myriad Pro Bold';fill:#ffffff"
         x="79.0103"
         y="282.2915">o</text>
      <text
         font-size="51.6356"
         id="text71"
         style="font-style:normal;font-variant:normal;font-weight:bold;font-stretch:normal;font-size:51.63560104px;font-family:'Myriad Pro';-inkscape-font-specification:'Myriad Pro Bold';fill:#ffffff"
         x="103.2651"
         y="282.2915">s</text>
      <text
         transform="translate(129.9941,282.2915)"
         font-size="51.6356"
         id="text73"
         style="font-size:51.63560104px;font-family:MyriadPro-BoldCond;fill:#ffffff" />
      <text
         font-size="51.6356"
         id="text75"
         style="font-style:normal;font-variant:normal;font-weight:bold;font-stretch:normal;font-size:51.63560104px;font-family:'Myriad Pro';-inkscape-font-specification:'Myriad Pro Bold';fill:#ffffff"
         x="128.2041"
         y="282.2915">P</text>
      <text
         font-size="51.6356"
         id="text77"
         style="font-style:normal;font-variant:normal;font-weight:bold;font-stretch:normal;font-size:51.63560104px;font-family:'Myriad Pro';-inkscape-font-specification:'Myriad Pro Bold';fill:#ffffff"
         x="150.7168"
         y="282.2915">o</text>
      <text
         font-size="51.6356"
         id="text79"
         style="font-style:normal;font-variant:normal;font-weight:bold;font-stretch:normal;font-size:51.63560104px;font-family:'Myriad Pro';-inkscape-font-specification:'Myriad Pro Bold';fill:#ffffff"
         x="174.97169"
         y="282.2915">d</text>
      <text
         font-size="51.6356"
         id="text81"
         style="font-style:normal;font-variant:normal;font-weight:bold;font-stretch:normal;font-size:51.63560104px;font-family:'Myriad Pro';-inkscape-font-specification:'Myriad Pro Bold';fill:#ffffff"
         x="200.0522"
         y="282.2915">e</text>
      <text
         font-size="51.6356"
         id="text83"
         style="font-style:normal;font-variant:normal;font-weight:bold;font-stretch:normal;font-size:51.63560104px;font-family:'Myriad Pro';-inkscape-font-specification:'Myriad Pro Bold';fill:#ffffff"
         x="221.687"
         y="282.2915">r</text>
      <text
         font-size="51.6356"
         id="text85"
         style="font-style:normal;font-variant:normal;font-weight:bold;font-stretch:normal;font-size:51.63560104px;font-family:'Myriad Pro';-inkscape-font-specification:'Myriad Pro Bold';fill:#ffffff"
         x="236.6606"
         y="282.2915">o</text>
      <text
         font-size="51.6356"
         id="text87"
         style="font-style:normal;font-variant:normal;font-weight:bold;font-stretch:normal;font-size:51.63560104px;font-family:'Myriad Pro';-inkscape-font-specification:'Myriad Pro Bold';fill:#ffffff"
         x="262.9155"
         y="282.2915">s</text>
      <text
         font-size="51.6356"
         id="text89"
         style="font-style:normal;font-variant:normal;font-weight:bold;font-stretch:normal;font-size:51.63560104px;font-family:'Myriad Pro';-inkscape-font-specification:'Myriad Pro Bold';fill:#ffffff"
         x="281.6445"
         y="282.2915">o</text>
      <text
         font-size="51.6356"
         id="text91"
         style="font-style:normal;font-variant:normal;font-weight:bold;font-stretch:normal;font-size:51.63560104px;font-family:'Myriad Pro';-inkscape-font-specification:'Myriad Pro Bold';fill:#ffffff"
         x="305.89941"
         y="282.2915">s</text>
      <text
         transform="translate(320.6284,282.2915)"
         font-size="51.6356"
         id="text93"
         style="font-size:51.63560104px;font-family:MyriadPro-BoldCond;fill:#ffffff" />
      <text
         font-size="51.6356"
         id="text95"
         style="font-style:normal;font-variant:normal;font-weight:bold;font-stretch:normal;font-size:51.63560104px;font-family:'Myriad Pro';-inkscape-font-specification:'Myriad Pro Bold';fill:#ffffff"
         x="330.83841"
         y="282.2915">R</text>
      <text
         font-size="51.6356"
         id="text97"
         style="font-style:normal;font-variant:normal;font-weight:bold;font-stretch:normal;font-size:51.63560104px;font-family:'Myriad Pro';-inkscape-font-specification:'Myriad Pro Bold';fill:#ffffff"
         x="354.95169"
         y="282.2915">e</text>
      <text
         font-size="51.6356"
         id="text99"
         style="font-style:normal;font-variant:normal;font-weight:bold;font-stretch:normal;font-size:51.63560104px;font-family:'Myriad Pro';-inkscape-font-specification:'Myriad Pro Bold';fill:#ffffff"
         x="376.5864"
         y="282.2915">p</text>
      <text
         font-size="51.6356"
         id="text101"
         style="font-style:normal;font-variant:normal;font-weight:bold;font-stretch:normal;font-size:51.63560104px;font-family:'Myriad Pro';-inkscape-font-specification:'Myriad Pro Bold';fill:#ffffff"
         x="399.66699"
         y="282.2915">r</text>
      <text
         font-size="51.6356"
         id="text103"
         style="font-style:normal;font-variant:normal;font-weight:bold;font-stretch:normal;font-size:51.63560104px;font-family:'Myriad Pro';-inkscape-font-specification:'Myriad Pro Bold';fill:#ffffff"
         x="414.64059"
         y="282.2915">o</text>
      <text
         font-size="51.6356"
         id="text105"
         style="font-style:normal;font-variant:normal;font-weight:bold;font-stretch:normal;font-size:51.63560104px;font-family:'Myriad Pro';-inkscape-font-specification:'Myriad Pro Bold';fill:#ffffff"
         x="438.89551"
         y="282.2915">d</text>
      <text
         font-size="51.6356"
         id="text107"
         style="font-style:normal;font-variant:normal;font-weight:bold;font-stretch:normal;font-size:51.63560104px;font-family:'Myriad Pro';-inkscape-font-specification:'Myriad Pro Bold';fill:#ffffff"
         x="461.97559"
         y="282.2915">u</text>
      <text
         font-size="51.6356"
         id="text109"
         style="font-style:normal;font-variant:normal;font-weight:bold;font-stretch:normal;font-size:51.63560104px;font-family:'Myriad Pro';-inkscape-font-specification:'Myriad Pro Bold';fill:#ffffff"
         x="485.31451"
         y="282.2915">c</text>
      <text
         font-size="51.6356"
         id="text111"
         style="font-style:normal;font-variant:normal;font-weight:bold;font-stretch:normal;font-size:51.63560104px;font-family:'Myriad Pro';-inkscape-font-specification:'Myriad Pro Bold';fill:#ffffff"
         x="504.9736"
         y="282.2915">t</text>
      <text
         font-size="51.6356"
         id="text113"
         style="font-style:normal;font-variant:normal;font-weight:bold;font-stretch:normal;font-size:51.63560104px;font-family:'Myriad Pro';-inkscape-font-specification:'Myriad Pro Bold';fill:#ffffff"
         x="518.7207"
         y="282.2915">o</text>
      <text
         font-size="51.6356"
         id="text115"
         style="font-style:normal;font-variant:normal;font-weight:bold;font-stretch:normal;font-size:51.63560104px;font-family:'Myriad Pro';-inkscape-font-specification:'Myriad Pro Bold';fill:#ffffff"
         x="544.97559"
         y="282.2915">r</text>
      <text
         font-size="51.6356"
         id="text117"
         style="font-style:normal;font-variant:normal;font-weight:bold;font-stretch:normal;font-size:51.63560104px;font-family:'Myriad Pro';-inkscape-font-specification:'Myriad Pro Bold';fill:#ffffff"
         x="559.9502"
         y="282.2915">e</text>
      <text
         font-size="51.6356"
         id="text119"
         style="font-style:normal;font-variant:normal;font-weight:bold;font-stretch:normal;font-size:51.63560104px;font-family:'Myriad Pro';-inkscape-font-specification:'Myriad Pro Bold';fill:#ffffff"
         x="583.58502"
         y="282.2915">s</text>
      <text
         transform="translate(590.3145,282.2915)"
         font-size="51.6356"
         id="text121"
         style="font-size:51.63560104px;font-family:MyriadPro-BoldCond;fill:#ffffff" />
      <text
         font-size="51.6356"
         id="text123"
         style="font-style:normal;font-variant:normal;font-weight:bold;font-stretch:normal;font-size:51.63560104px;font-family:'Myriad Pro';-inkscape-font-specification:'Myriad Pro Bold';fill:#ffffff"
         x="608.52441"
         y="282.2915">d</text>
      <text
         font-size="51.6356"
         id="text125"
         style="font-style:normal;font-variant:normal;font-weight:bold;font-stretch:normal;font-size:51.63560104px;font-family:'Myriad Pro';-inkscape-font-specification:'Myriad Pro Bold';fill:#ffffff"
         x="635.60449"
         y="282.2915">e</text>
      <text
         font-size="51.6356"
         id="text127"
         style="font-style:normal;font-variant:normal;font-weight:bold;font-stretch:normal;font-size:51.63560104px;font-family:'Myriad Pro';-inkscape-font-specification:'Myriad Pro Bold';fill:#ffffff"
         x="659.23932"
         y="282.2915">l</text>
      <text
         transform="translate(654.8564,282.2915)"
         font-size="51.6356"
         id="text129"
         style="font-size:51.63560104px;font-family:MyriadPro-BoldCond;fill:#ffffff" />
      <text
         font-size="51.6356"
         id="text131"
         style="font-style:normal;font-variant:normal;font-weight:bold;font-stretch:normal;font-size:51.63560104px;font-family:'Myriad Pro';-inkscape-font-specification:'Myriad Pro Bold';fill:#ffffff"
         x="674.09613"
         y="282.2915">N</text>
      <text
         font-size="51.6356"
         id="text133"
         style="font-style:normal;font-variant:normal;font-weight:bold;font-stretch:normal;font-size:51.63560104px;font-family:'Myriad Pro';-inkscape-font-specification:'Myriad Pro Bold';fill:#ffffff"
         x="705.45209"
         y="282.2915">o</text>
      <text
         font-size="51.6356"
         id="text135"
         style="font-style:normal;font-variant:normal;font-weight:bold;font-stretch:normal;font-size:51.63560104px;font-family:'Myriad Pro';-inkscape-font-specification:'Myriad Pro Bold';fill:#ffffff"
         x="729.68719"
         y="282.2915">r</text>
      <text
         font-size="51.6356"
         id="text137"
         style="font-style:normal;font-variant:normal;font-weight:bold;font-stretch:normal;font-size:51.63560104px;font-family:'Myriad Pro';-inkscape-font-specification:'Myriad Pro Bold';fill:#ffffff"
         x="747.79657"
         y="282.2915">t</text>
      <text
         font-size="51.6356"
         id="text139"
         x="763.54468"
         y="282.2915"
         style="font-size:51.63560104px;font-family:MyriadPro-BoldCond;fill:#ffffff">
        <tspan
           style="font-style:normal;font-variant:normal;font-weight:bold;font-stretch:normal;font-family:'Myriad Pro';-inkscape-font-specification:'Myriad Pro Bold'"
           id="tspan5843">e</tspan>
      </text>
      <rect
         x="196.25999"
         y="337.93701"
         width="436.73199"
         height="23.355"
         id="rect141"
         style="fill:none" />
      <text
         font-size="32.4218"
         id="text143"
         x="316.2626"
         y="361.36221"
         style="font-size:32.42179871px;font-family:MyriadPro-BoldCond;fill:#ffffff">P</text>
      <text
         font-size="32.4218"
         id="text145"
         x="334.88229"
         y="360.3721"
         style="font-size:32.42179871px;font-family:MyriadPro-BoldCond;fill:#ffffff">u</text>
      <text
         font-size="32.4218"
         id="text147"
         x="353.53659"
         y="360.3721"
         style="font-size:32.42179871px;font-family:MyriadPro-BoldCond;fill:#ffffff">e</text>
      <text
         font-size="32.4218"
         id="text149"
         style="font-size:32.42179871px;font-family:MyriadPro-BoldCond;fill:#ffffff"
         x="369.12109"
         y="360.3721">n</text>
      <text
         font-size="32.4218"
         id="text151"
         x="385.9697"
         y="360.3721"
         style="font-size:32.42179871px;font-family:MyriadPro-BoldCond;fill:#ffffff">t</text>
      <text
         font-size="32.4218"
         id="text153"
         style="font-size:32.42179871px;font-family:MyriadPro-BoldCond;fill:#ffffff"
         x="395.85791"
         y="360.3721">e</text>
      <text
         transform="translate(413.4424,360.3721)"
         font-size="32.4218"
         id="text155"
         style="font-size:32.42179871px;font-family:MyriadPro-BoldCond;fill:#ffffff" />
      <text
         transform="translate(418.5972,360.3721)"
         font-size="32.4218"
         id="text157"
         style="font-size:32.42179871px;font-family:MyriadPro-BoldCond;fill:#ffffff" />
      <text
         font-size="32.4218"
         id="text159"
         x="425.7529"
         y="360.3721"
         style="font-size:32.42179871px;font-family:MyriadPro-BoldCond;fill:#ffffff">P</text>
      <text
         font-size="32.4218"
         id="text161"
         x="444.56931"
         y="360.3721"
         style="font-size:32.42179871px;font-family:MyriadPro-BoldCond;fill:#ffffff">i</text>
      <text
         font-size="32.4218"
         id="text163"
         x="451.7988"
         y="360.3721"
         style="font-size:32.42179871px;font-family:MyriadPro-BoldCond;fill:#ffffff">e</text>
      <text
         font-size="32.4218"
         id="text165"
         x="471.38281"
         y="360.3721"
         style="font-size:32.42179871px;font-family:MyriadPro-BoldCond;fill:#ffffff">d</text>
      <text
         font-size="32.4218"
         id="text167"
         x="489.875"
         y="360.3721"
         style="font-size:32.42179871px;font-family:MyriadPro-BoldCond;fill:#ffffff">r</text>
      <text
         font-size="32.4218"
         id="text169"
         x="503.40631"
         y="360.3721"
         style="font-size:32.42179871px;font-family:MyriadPro-BoldCond;fill:#ffffff">a</text>
    </g>
  </g>
</svg>
