<svg xmlns="http://www.w3.org/2000/svg" width="338" height="133"><title>Layer 1</title><path d="m25.4 78.7h-6.8c-1.7 0-3.1-1.4-3.1-3.1v-8.9c0-1.7 1.4-3.1 3.1-3.1h12.2v15h-4.6v-10.7c0 2.3 0 0 0 0h-5.6v6.5h4.8v4.3l0 0z" fill="#FFFFFF" clip-rule="evenodd" fill-rule="evenodd"/><path d="m142.4 78.7h-6.8c-1.7 0-3.1-1.4-3.1-3.1v-8.9c0-1.7 1.4-3.1 3.1-3.1h12.2v15h-4.6v-10.7c0 2.3 0 0 0 0h-5.6v6.5h4.8v4.3l0 0z" fill="#FFFFFF" clip-rule="evenodd" fill-rule="evenodd"/><path d="m175.7 78.7h-6.8c-1.7 0-3.1-1.4-3.1-3.1v-8.9c0-1.7 1.4-3.1 3.1-3.1h12.2v15h-4.6v-10.7c0 2.3 0 0 0 0h-5.6v6.5h4.8v4.3l0 0z" fill="#FFFFFF" clip-rule="evenodd" fill-rule="evenodd"/><path d="m230.2 78.7h-6.8c-1.7 0-3.1-1.4-3.1-3.1v-8.9c0-1.7 1.4-3.1 3.1-3.1h12.2v15h-4.6v-10.7c0 2.3 0 0 0 0h-5.6v6.5h4.8v4.3l0 0z" fill="#FFFFFF" clip-rule="evenodd" fill-rule="evenodd"/><path d="m256.8 78.7h-6.8c-1.7 0-3.1-1.4-3.1-3.1v-8.9c0-1.7 1.4-3.1 3.1-3.1h12.2v15h-4.6v-10.7c0 2.3 0 0 0 0h-5.6v6.5h4.8v4.3l0 0z" fill="#FFFFFF" clip-rule="evenodd" fill-rule="evenodd"/><path d="m318.7 78.7h-6.8c-1.7 0-3.1-1.4-3.1-3.1v-8.9c0-1.7 1.4-3.1 3.1-3.1h12.2v15h-4.6v-10.7c0 2.3 0 0 0 0h-5.6v6.5h4.8v4.3l0 0z" fill="#FFFFFF" clip-rule="evenodd" fill-rule="evenodd"/><path d="m42 78.7h-9.8v-4.3h7.6v-1l-4.9 0c-1.4 0.1-2.7-0.9-2.7-2.6v-4.9c0-0.9 0.9-2.3 2.3-2.3h9.9v4.3h-7.6v1h5c1.6 0 2.7 1.4 2.7 2.4v4.3c0 3.1-2.5 3.1-2.5 3.1" fill="#FFFFFF" clip-rule="evenodd" fill-rule="evenodd"/><path d="m65.8 63.7l-10.2 0c-1.3 0-2.3 1-2.3 2.3v10.5c0 1.3 1 2.3 2.3 2.3l10.2 0c1.3 0 2.3-1 2.3-2.3v-10.5c0-1.3-1-2.3-2.3-2.3zm-2.3 10.8h-5.5v-6.5h5.5v6.5l0 0z" fill="#FFFFFF"/><path d="m192.3 78.7h-9.8v-4.3h7.6v-1l-4.9 0c-1.4 0.1-2.7-0.9-2.7-2.6v-4.9c0-0.9 0.9-2.3 2.3-2.3h9.9v4.3h-7.6v1h5c1.6 0 2.7 1.4 2.7 2.4v4.3c0 3.1-2.5 3.1-2.5 3.1" fill="#FFFFFF" clip-rule="evenodd" fill-rule="evenodd"/><path d="m335.3 78.7h-9.8v-4.3h7.6v-1l-4.9 0c-1.4 0.1-2.7-0.9-2.7-2.6v-4.9c0-0.9 0.9-2.3 2.3-2.3h9.9v4.3h-7.6v1h5c1.6 0 2.7 1.4 2.7 2.4v4.3c0 3.1-2.5 3.1-2.5 3.1" fill="#FFFFFF" clip-rule="evenodd" fill-rule="evenodd"/><path d="m74.6 74.5v-16.7h-0.2 -4.7v8.2 4.3 4.9 1.3c0 1.3 1 2.3 2.3 2.3l2.4 0 3.6 0v-4.3h-3.3l0 0z" fill="#FFFFFF"/><path d="m242 74.5v-16.7h-0.2 -4.7v8.2 4.3 4.9 1.3c0 1.3 1 2.3 2.3 2.3l2.4 0 3.6 0v-4.3h-3.3l0 0z" fill="#FFFFFF"/><path d="m10.7 74.5v-16.7h-0.2 -4.7v8.2 4.3 4.9 1.3c0 1.3 1 2.3 2.3 2.3l2.4 0 3.6 0v-4.3h-3.3l0 0z" fill="#FFFFFF"/><polygon points="84.4 63.7 84.2 63.7 79.4 63.7 79.4 71.9 79.4 76.2 79.4 78.8 84.4 78.8 " fill="#FFFFFF"/><polygon points="84.4 57.8 84.2 57.8 79.4 57.8 79.4 60 79.4 61.2 79.4 61.8 84.4 61.8 " fill="#FFFFFF"/><polygon points="126.1 63.7 126.1 71.9 126.1 76.2 126.1 78.8 131 78.8 131 63.7 130.8 63.7 " fill="#FFFFFF"/><polygon points="130.8 57.8 126.1 57.8 126.1 60 126.1 61.2 126.1 61.8 131 61.8 131 57.8 " fill="#FFFFFF"/><polygon points="289 63.7 289 71.9 289 76.2 289 78.8 294 78.8 294 63.7 293.8 63.7 " fill="#FFFFFF"/><polygon points="293.8 57.8 289 57.8 289 60 289 61.2 289 61.8 294 61.8 294 57.8 " fill="#FFFFFF"/><polygon points="263.6 58 262.6 57.9 260.7 57.7 258.6 57.4 257.9 57.3 258 61.8 262.2 61.8 " fill="#FFFFFF"/><path d="m159 63.9h-6.7c-1.7 0-3 1.4-3 3v8.7c0 1.7 1.4 3 3 3h12c0-3.4 0-18.3 0-18.3h-4.5l0 14.1c0-2.3 0 0 0 0h-5.5v-6.4h4.7v-4.2l0 0z" fill="#FFFFFF" clip-rule="evenodd" fill-rule="evenodd"/><path d="m121.5 64h-12c0 3.4 0 18.3 0 18.3v2.4h4.5v-2.4h0l0-14.1h5.5v6.4h-4.7v4.2h6.7c1.7 0 3-1.4 3-3v-8.7c0-1.7-1.4-3-3-3z" fill="#FFFFFF" clip-rule="evenodd" fill-rule="evenodd"/><path d="m105.4 63.7h-8.7 -2 -8.7l0 15.1h4.9v-10.9h3.8v10.9h0.1 4.6 0.3v-10.9h3.8v10.9h4.7v-12.3c0-1-0.5-2.8-2.6-2.9z" fill="#FFFFFF" clip-rule="evenodd" fill-rule="evenodd"/><path d="m273.5 67.9v0h1.9v-4.3h-1.9 -5 -1.9c-1.7 0-3.1 1.4-3.1 3.1v8.9c0 1.7 1.4 3.1 3.1 3.1h1.9 5 1.9v-4.3h-1.9v0h-4.8v-6.5h4.8l0 0z" fill="#FFFFFF"/><path d="m305.4 67.9v0h1.9v-4.3h-1.9 -5 -1.9c-1.7 0-3.1 1.4-3.1 3.1v8.9c0 1.7 1.4 3.1 3.1 3.1h1.9 5 1.9v-4.3h-1.9v0h-4.8v-6.5h4.8l0 0z" fill="#FFFFFF"/><path d="m284.2 74.5v-6.5h1.9v-4.3h-1.9v-5.9h-0.2 -4.7v5.9h-2.3v4.3h2.3v2.4 4.9 1.3c0 1.3 1 2.3 2.3 2.3l2.4 0 3.6 0v-4.3h-3.3l0 0z" fill="#FFFFFF"/><path d="m206.7 63.7c-1.7 0-3.1 1.4-3.1 3.1v8.9c0 1.7 1.4 3.1 3.1 3.1h6.8v-4.3h-4.8v-6.5h5.5v10.7h0v0.7 0.2h-7.6v4.3h9.8c0 0 2.5 0 2.5-3.1v-2.1 -0.1 -15h-12.2l0 0z" fill="#FFFFFF" clip-rule="evenodd" fill-rule="evenodd"/><path d="m180.9 5.3c0-0.4 0.3-0.8 0.8-0.8 0.4 0 0.8 0.3 0.8 0.8 0 0.4-0.3 0.8-0.8 0.8 -0.4 0-0.8-0.3-0.8-0.8" fill="#002F87"/><rect height="1.1" width="337.8" stroke-miterlimit="10" stroke="#FFFFFF" fill="#FFFFFF" y="44.1" x="0"/><rect height="1.1" width="337.8" stroke-miterlimit="10" stroke="#FFFFFF" fill="#FFFFFF" y="91.7" x="0"/><path d="m91.2 113.9c-2.6 0.5-4.7 1.1-6.5 1.8 -1 1.5-2.2 3.4-3.4 5.5l-0.9 1.6c-0.2 0.3-0.4 0.7-0.7 1.2 -0.4 0.6-0.7 0.9-1.1 0.9 -0.2 0-0.4-0.1-0.5-0.3 -0.1-0.1-0.2-0.3-0.2-0.5 0-0.3 0.4-1.2 1.3-2.7 0.5-0.8 1.2-2 2.1-3.4 0.4-0.6 0.7-1 0.9-1.4 -0.7 0.2-1.3 0.4-1.9 0.7 -0.3 0.1-0.5 0.2-0.7 0.2 -0.2 0-0.4-0.1-0.5-0.3 -0.1-0.1-0.1-0.3-0.1-0.4 0-0.4 0.1-0.7 0.4-0.8 0.4-0.3 1.2-0.6 2.4-0.9 0.9-0.3 1.5-0.5 2-0.7 0.2-0.3 0.9-1.2 1.9-2.6 0.4-0.6 1.7-2.1 3.7-4.4 1.5-1.7 3-3.3 4.5-4.8 0.9-0.9 1.6-1.3 2.1-1.3 0.3 0 0.5 0.1 0.8 0.4 0.2 0.2 0.3 0.5 0.3 0.7 0 0.3-0.2 0.9-0.5 1.7 -0.5 1.4-1.1 2.9-1.6 4.5 -0.4 1.4-0.7 2.5-0.9 3.2 0.2 0 0.3 0 0.4 0 0.3 0 0.6 0 0.8 0 0.7 0 1 0.3 1 0.8 0 0.2-0.1 0.4-0.2 0.6 -0.1 0.2-0.3 0.3-0.5 0.4 -0.1 0-0.3 0-0.6 0 -0.6 0-1.1 0-1.4 0.1 -0.3 0.8-0.7 2.9-1.3 6.2 -0.3 2.2-0.5 3.6-0.4 4.1 0 0.8-0.2 1.2-0.7 1.2 -0.4 0-0.7-0.2-0.9-0.6 -0.2-0.3-0.2-0.6-0.2-1.1 0-1.6 0.3-3.7 0.8-6.3 0.3-1.3 0.5-2.4 0.6-3.1zm0.5-1.8c0.1-0.3 0.4-1.2 0.8-2.6 0.1-0.4 0.4-1.1 0.8-2.2 0.4-1.1 0.8-2.1 1-2.8 -0.7 0.5-1.5 1.1-2.3 1.9 -2.7 2.9-4.6 5.3-5.7 7.1 0.4-0.1 1.3-0.4 2.7-0.8 0.4-0.1 1.3-0.3 2.6-0.6zM100.8 112.7c0.9 0 1.3 0.5 1.3 1.4 0 0.8-0.3 1.7-1 2.5 -0.5 0.6-0.9 1-1.3 1 -0.3 0-0.5-0.2-0.5-0.5 0-0.2 0-0.3 0.1-0.5 0 0 0.2-0.2 0.4-0.4 0.2-0.2 0.4-0.5 0.6-0.9 0.1-0.3 0.2-0.5 0.2-0.6 0-0.2-0.1-0.3-0.3-0.3 -0.2 0-0.6 0.2-1.1 0.6 -0.8 0.6-1.5 1.5-2.3 2.8 -0.8 1.3-1.2 2.4-1.2 3.2 0 0.3 0.1 0.5 0.2 0.7 0.2 0.3 0.5 0.4 0.9 0.4 0.7 0 1.6-0.4 2.5-1.3 0.8-0.8 1.5-1.5 2.1-2.3 0.3-0.4 0.6-0.6 0.8-0.6 0.1 0 0.2 0.1 0.3 0.2 0.1 0.1 0.1 0.2 0.1 0.3 0 0.4-0.5 1.2-1.6 2.5 -1.7 1.9-3.3 2.9-4.7 2.9 -0.8 0-1.5-0.3-1.9-0.9 -0.3-0.4-0.5-1-0.5-1.6 0-1.2 0.5-2.6 1.5-4.1 0.9-1.5 2-2.7 3.3-3.6 0.7-0.5 1.4-0.8 1.9-0.8zM110.4 112.3c-0.7 1.1-1.4 2.4-2 3.9 -0.9 2-1.4 3.5-1.4 4.5 0 0.3 0.1 0.5 0.2 0.6s0.3 0.2 0.5 0.2c0.6 0 1.3-0.5 2.1-1.6 0.5-0.7 1-1.3 1.4-2 0.2-0.4 0.4-0.6 0.7-0.6 0.1 0 0.3 0.1 0.4 0.2 0.1 0.1 0.1 0.2 0.1 0.3 0 0.4-0.6 1.4-1.7 2.8 -1.3 1.8-2.5 2.6-3.6 2.6 -0.6 0-1.1-0.3-1.5-0.8 -0.2-0.3-0.4-0.8-0.4-1.5 0-1.4 0.4-3 1.2-4.8 0.2-0.5 0.7-1.6 1.6-3.3 -0.3 0.1-0.5 0.1-0.7 0.1 -0.2 0-0.4-0.1-0.6-0.2 -0.2-0.2-0.4-0.4-0.4-0.6 0-0.3 0.2-0.5 0.5-0.7 0.1 0 0.5-0.1 1.3-0.2 0.3 0 0.7-0.2 1.2-0.3 0.4-0.7 1-1.7 1.9-2.9 0.5-0.7 0.8-1.1 1-1.3 0.3-0.3 0.5-0.4 0.7-0.4 0.1 0 0.3 0.1 0.4 0.2 0.1 0.1 0.2 0.3 0.2 0.4 0 0.3-0.3 0.9-1 1.8 -0.4 0.6-0.7 1-0.9 1.4 1.3-0.3 2.2-0.5 2.7-0.5 0.6 0 0.9 0.3 0.9 0.8 0 0.3-0.1 0.5-0.3 0.6 -0.1 0.1-0.4 0.1-0.9 0.2 -0.2 0-1.1 0.2-2.6 0.6 -0.4 0.1-0.8 0.3-1.2 0.4zM117.2 113.1c0.2 0 0.3 0.1 0.5 0.2 0.1 0.1 0.1 0.3 0.1 0.4 0 0.2-0.2 0.5-0.5 1 -1.2 1.8-2 3.3-2.5 4.5 -0.5 1.2-1 2.5-1.4 3.8 -0.2 0.6-0.5 0.9-0.9 0.9 -0.2 0-0.4-0.1-0.5-0.3 -0.1-0.1-0.2-0.3-0.2-0.5 0-0.3 0.4-1.5 1.1-3.4 0.6-1.5 1.5-3.2 2.8-5 0.4-0.6 0.7-1 0.9-1.2 0.2-0.2 0.4-0.3 0.6-0.3zm3.2-6.3c0.5 0 0.8 0.3 0.8 0.8 0 0.5-0.3 1-0.8 1.6 -0.5 0.6-0.9 0.8-1.4 0.8 -0.2 0-0.4-0.1-0.5-0.2 -0.1-0.1-0.2-0.3-0.2-0.5 0-0.5 0.3-1.1 0.9-1.7 0.4-0.5 0.8-0.7 1.2-0.7zM123.6 118.7c-0.7 1.2-1.3 2.1-1.8 2.7 -1.2 1.4-2.2 2.1-3 2.1 -0.5 0-0.9-0.3-1.1-0.8 -0.2-0.4-0.3-0.7-0.3-1.1 0-0.8 0.3-1.8 1-3.3 0.6-1.2 1.1-2.2 1.5-2.9 0.3-0.5 0.5-0.8 0.5-1 0.1-0.3 0.3-0.5 0.4-0.7 0.1-0.2 0.4-0.4 0.6-0.4 0.1 0 0.3 0.1 0.4 0.2 0.1 0.1 0.2 0.3 0.2 0.5 0 0.5-0.5 1.7-1.4 3.4 -0.9 1.8-1.4 2.9-1.4 3.5 0 0.4 0.1 0.5 0.4 0.5 0.5 0 1.2-0.6 2.1-1.9 0.4-0.6 0.8-1.3 1.2-2.2 0-0.3 0-0.5 0-0.6 0-0.9 0.2-1.6 0.5-2.2 0.4-0.8 1-1.2 1.7-1.2 0.4 0 0.6 0.2 0.6 0.7 0 0.8-0.4 1.9-1.2 3.4 0.2 0 0.4 0.1 0.5 0.1 0.4 0 0.9-0.2 1.5-0.7 0.5-0.4 0.8-0.6 0.9-0.6 0.1 0 0.3 0.1 0.4 0.2 0.1 0.1 0.2 0.3 0.2 0.4 0 0.4-0.3 0.9-0.9 1.4 -0.7 0.6-1.4 0.9-2.3 0.9 -0.3 0-0.7-0.1-1.1-0.3zM132 120.5c-0.4 0.7-0.7 1.2-1.1 1.7 -0.7 0.9-1.4 1.3-2.1 1.3 -0.6 0-1.1-0.3-1.4-0.9 -0.2-0.4-0.3-0.8-0.3-1.3 0-1.3 0.4-2.7 1.2-4.2 0.9-1.7 2-3 3.2-3.9 0.8-0.6 1.6-0.9 2.4-0.9 0.5 0 0.9 0.1 1.2 0.4 0.3 0.3 0.4 0.6 0.4 0.9 0 0.3-0.1 0.6-0.3 1 0.2 0.2 0.3 0.5 0.3 0.6 0 0.2-0.2 0.6-0.5 1.2 -0.3 0.6-0.7 1.3-1 2.2 -0.4 1-0.5 1.8-0.5 2.4 0 0.5 0.1 0.9 0.4 1.2 0.1 0.1 0.3 0.2 0.7 0.4 0.3 0.1 0.4 0.4 0.4 0.7 0 0.2-0.1 0.4-0.2 0.5 -0.2 0.1-0.4 0.2-0.6 0.2 -0.6 0-1.1-0.3-1.6-0.8 -0.4-0.4-0.5-1-0.5-1.7 0-0.2 0-0.6 0.1-1.1zm2.1-5.6c-0.1-0.2-0.3-0.4-0.4-0.6 -0.2-0.1-0.3-0.2-0.5-0.2 -0.9 0-1.8 0.8-2.8 2.3 -1.1 1.7-1.7 3.1-1.7 4.2 0 0.3 0.1 0.5 0.2 0.6 0.1 0.1 0.3 0.2 0.5 0.2 0.5 0 1.2-0.6 1.9-1.7 0.4-0.6 0.9-1.6 1.5-2.8 0.4-0.8 0.7-1.3 0.9-1.6 0.1-0.1 0.3-0.3 0.5-0.5zM151 112.3c-0.7 1.1-1.4 2.4-2 3.9 -0.9 2-1.3 3.5-1.3 4.5 0 0.3 0.1 0.5 0.2 0.6 0.1 0.1 0.3 0.2 0.5 0.2 0.6 0 1.3-0.5 2.1-1.6 0.5-0.7 1-1.3 1.4-2 0.2-0.4 0.4-0.6 0.7-0.6 0.1 0 0.3 0.1 0.4 0.2 0.1 0.1 0.1 0.2 0.1 0.3 0 0.4-0.6 1.4-1.7 2.8 -1.3 1.8-2.5 2.6-3.6 2.6 -0.6 0-1.1-0.3-1.5-0.8 -0.2-0.3-0.4-0.8-0.4-1.5 0-1.4 0.4-3 1.2-4.8 0.2-0.5 0.7-1.6 1.6-3.3 -0.3 0.1-0.5 0.1-0.7 0.1 -0.2 0-0.4-0.1-0.6-0.2 -0.2-0.2-0.4-0.4-0.4-0.6 0-0.3 0.2-0.5 0.5-0.7 0.1 0 0.5-0.1 1.3-0.2 0.3 0 0.7-0.2 1.2-0.3 0.4-0.7 1-1.7 1.9-2.9 0.5-0.7 0.8-1.1 1-1.3 0.3-0.3 0.5-0.4 0.7-0.4 0.1 0 0.3 0.1 0.4 0.2 0.1 0.1 0.2 0.3 0.2 0.4 0 0.3-0.3 0.9-1 1.8 -0.4 0.6-0.7 1-0.9 1.4 1.3-0.3 2.2-0.5 2.7-0.5 0.6 0 0.9 0.3 0.9 0.8 0 0.3-0.1 0.5-0.3 0.6 -0.1 0.1-0.4 0.1-0.9 0.2 -0.2 0-1.1 0.2-2.6 0.6 -0.4 0.1-0.8 0.3-1.2 0.4zM158.1 120.7c-0.5 0.7-0.9 1.2-1.3 1.6 -0.7 0.7-1.3 1.1-2 1.1 -0.6 0-1-0.2-1.3-0.7 -0.2-0.4-0.3-0.8-0.3-1.3 0-1.5 0.6-3.2 1.9-5.1 0.6-0.9 1.2-1.6 1.7-2 0.4-0.4 0.8-0.6 1.1-0.6 0.2 0 0.3 0.1 0.4 0.2 0.1 0.1 0.2 0.3 0.2 0.4 0 0.2-0.2 0.6-0.6 1.1 -0.9 1.1-1.7 2.2-2.1 3.1 -0.6 1.1-0.9 2-0.9 2.6 0 0.2 0 0.3 0.1 0.4s0.2 0.1 0.3 0.1c0.6 0 1.4-0.8 2.4-2.5 0.5-0.9 1-1.8 1.4-2.9 0.2-0.6 0.5-1.1 0.8-1.5 0.3-0.4 0.6-0.6 0.9-0.6 0.2 0 0.3 0.1 0.5 0.2 0.2 0.2 0.2 0.3 0.2 0.5 0 0.4-0.4 1.3-1.2 2.8 -0.5 1-0.8 1.8-0.8 2.5 0 0.7 0.2 1.3 0.6 1.8 0.1 0.1 0.4 0.4 0.9 0.6 0.3 0.1 0.4 0.4 0.4 0.7 0 0.2-0.1 0.4-0.3 0.5 -0.2 0.1-0.4 0.2-0.6 0.2 -0.6 0-1.1-0.2-1.6-0.7 -0.4-0.4-0.7-1-0.8-1.8 0-0.1-0.1-0.4-0.1-0.9zM176.2 121.8c1.2-0.9 2.1-1.7 2.7-2.4 0.9-1.1 1.5-1.9 1.9-2.6 0.2-0.3 0.4-0.4 0.6-0.4 0.3 0 0.4 0.1 0.4 0.4 0 0.3-0.2 0.8-0.7 1.5 -1.3 2.2-3.4 4.1-6 5.7 -1.3 2.6-2.2 4.4-2.8 5.3 -1.6 2.5-3 3.7-4.4 3.7 -0.7 0-1.3-0.3-1.6-0.9 -0.2-0.3-0.3-0.7-0.3-1.1 0-1.8 1.1-3.5 3.4-5.1 0.4-0.3 1.8-1.1 4.4-2.6 0.5-1.1 0.9-1.9 1.2-2.5 -1.2 1.3-2.2 1.9-3 1.9 -0.5 0-0.9-0.3-1.1-0.8 -0.2-0.3-0.3-0.7-0.3-1 0-0.8 0.3-1.9 1-3.2 1-1.9 2.1-3.3 3.4-4.4 1.1-0.9 2.1-1.3 3-1.3 0.4 0 0.8 0.2 1.1 0.5 0.2 0.2 0.3 0.5 0.3 1 0 0.5-0.2 1.2-0.5 1.9 0.3 0.3 0.4 0.4 0.4 0.6 0 0.1-0.1 0.2-0.2 0.3 -0.3 0.4-0.8 1.2-1.5 2.4 -0.6 1-1.1 2-1.6 3.1zm-3.3 3.5c-1.5 0.6-2.8 1.6-4 2.9 -0.5 0.6-0.9 1.2-1.1 1.9 -0.1 0.2-0.1 0.4-0.1 0.5 0 0.1 0 0.3 0.1 0.4 0.1 0.2 0.3 0.3 0.5 0.3 0.7 0 1.5-0.8 2.5-2.3 0.8-1.3 1.5-2.6 2.1-3.8zm3.2-7.5c-0.2-0.2-0.2-0.3-0.2-0.4 0-0.1 0.1-0.2 0.3-0.4 0.6-0.5 1-1.1 1.4-1.7 0.3-0.5 0.4-0.8 0.4-1.1 0-0.3-0.1-0.5-0.4-0.5 -0.5 0-1.2 0.5-2.1 1.4 -1.1 1.1-1.9 2.3-2.5 3.7 -0.3 0.7-0.4 1.2-0.4 1.6 0 0.2 0 0.4 0.1 0.5 0.1 0.1 0.2 0.2 0.4 0.2 0.4 0 1-0.4 1.7-1.2 0.5-0.5 0.8-1 1.2-1.5 0.2-0.3 0.3-0.5 0.3-0.5zM183.1 120v0.3c0 0.3 0.1 0.5 0.2 0.6 0.3 0.4 0.8 0.6 1.4 0.6 1.4 0 3.1-1.1 4.9-3.3 0.3-0.4 0.6-0.6 0.8-0.6 0.1 0 0.2 0.1 0.3 0.2 0.1 0.1 0.1 0.2 0.1 0.3 0 0.4-0.5 1.2-1.6 2.3 -0.9 0.8-1.8 1.5-2.7 2 -1 0.5-1.9 0.8-2.7 0.8 -0.9 0-1.5-0.3-2-0.9 -0.3-0.4-0.5-1-0.5-1.7 0-1.9 0.9-3.8 2.7-5.6 1.5-1.5 2.7-2.3 3.8-2.3 0.3 0 0.6 0.1 0.8 0.3 0.3 0.2 0.4 0.6 0.4 0.9 0 0.6-0.3 1.3-0.8 2.2 -1.2 1.8-2.9 3.1-5.2 3.8zm0.4-1.3c0.8-0.3 1.4-0.6 1.9-0.9 0.8-0.6 1.4-1.3 1.9-2.1 0.2-0.3 0.3-0.5 0.3-0.7 0-0.2-0.1-0.3-0.3-0.3 -0.3 0-0.7 0.2-1.3 0.7 -1 0.8-1.8 1.9-2.4 3.4zM194.5 117.5c0.1-0.1 0.3-0.3 0.4-0.4 2.4-2.3 4-3.5 4.8-3.5 0.4 0 0.7 0.2 0.7 0.7 0 0.3-0.2 0.7-0.6 1.2 -2.2 2.5-3.3 4.8-3.3 6.7 0 0.6 0.2 1.2 0.5 1.8 0.2 0.3 0.2 0.5 0.2 0.6 0 0.1-0.1 0.3-0.2 0.4 -0.1 0.2-0.3 0.2-0.5 0.2 -0.5 0-0.9-0.3-1.2-0.9 -0.3-0.6-0.5-1.2-0.5-2 0-1.5 0.6-3.2 1.7-5.1 -1.5 1-3 2.7-4.3 5.3 -0.3 0.6-0.7 0.9-1.1 0.9 -0.2 0-0.4-0.1-0.5-0.2 -0.2-0.2-0.2-0.4-0.2-0.6 0-0.6 0.7-2.2 2.1-4.8 0.8-1.4 1.3-2.4 1.8-3.1 0.4-0.6 0.8-0.9 1.1-0.9 0.1 0 0.3 0.1 0.4 0.2 0.2 0.2 0.2 0.3 0.2 0.5 0 0.3-0.2 0.6-0.5 1.1 -0.5 0.7-0.9 1.3-1.2 1.9zM212.7 116.7c0.6 0 0.9 0.3 0.9 0.8 0 0.4-0.3 0.7-0.9 0.9 -1 0.4-1.5 1-1.5 1.9 0 0.7 0.3 1.3 0.9 1.7 0.5 0.3 1.1 0.5 1.9 0.5 1.5 0 2.8-0.4 3.9-1.3 0.7-0.6 1.1-1.3 1.1-2.1 0-0.5-0.1-1-0.3-1.4 -0.2-0.4-0.5-1-1-1.6 -0.7-1-1.3-2-1.7-2.8 -0.5-0.9-0.8-1.8-0.8-2.7 0-2.1 1.1-4.1 3.2-6 1.1-1 2.3-1.8 3.7-2.4 1.1-0.5 2.2-0.7 3.2-0.7 0.7 0 1.2 0.2 1.7 0.5 0.6 0.4 0.9 1 0.9 1.7 0 1.1-0.6 2.4-1.8 3.7 -1.2 1.2-2.5 2.3-4.1 3 -0.8 0.4-1.4 0.6-1.8 0.6 -0.3 0-0.5-0.1-0.7-0.3 -0.1-0.1-0.2-0.3-0.2-0.5 0-0.4 0.4-0.8 1.1-1 1.4-0.5 2.6-1.2 3.7-2.1 1.4-1.1 2-2.1 2-3 0-0.3-0.1-0.6-0.4-0.8 -0.2-0.2-0.5-0.2-0.8-0.2 -0.8 0-1.8 0.3-3 0.9 -1.6 0.8-2.8 1.9-3.8 3.1 -0.8 1.1-1.2 2.2-1.2 3.2 0 0.8 0.2 1.5 0.6 2.4 0.4 0.6 0.8 1.4 1.3 2.2 0.5 0.8 1 1.5 1.3 2.2 0.4 0.8 0.6 1.5 0.6 2.2 0 1.3-0.8 2.5-2.3 3.6 -1.3 0.9-2.8 1.3-4.4 1.3 -1.6 0-2.9-0.4-3.8-1.3 -0.7-0.7-1-1.5-1-2.4 0-1 0.3-1.8 1-2.5 0.4-0.4 0.9-0.7 1.4-0.9 0.4-0.1 0.7-0.2 0.9-0.2zM235.5 103.9c-0.6 0.7-1.4 1.8-2.4 3.3 -1 1.5-1.7 2.7-2.1 3.6 2.5-0.5 4.2-0.7 5.1-0.7 0.5 0 0.8 0 1 0.1 0.3 0.1 0.4 0.3 0.4 0.6 0 0.7-0.4 1.1-1.2 1.1 0 0-0.1 0-0.3 0 -0.3 0-0.6 0-0.7 0 -1.1 0-3 0.4-5.6 1.1 -1.7 2.9-3.1 6.3-4.4 10.2 -0.2 0.6-0.4 0.9-0.8 0.9 -0.3 0-0.6-0.2-0.8-0.5 -0.2-0.3-0.3-0.5-0.3-0.8 0-0.3 0.3-1.3 0.9-3 1-2.8 2.5-5.8 4.4-9 1.2-2 2.6-4.1 4-6.4 -0.4-0.1-0.6-0.3-0.6-0.6 0-0.6 0.5-1 1.6-1.3 1.5-0.4 3-0.7 4.4-1 1.6-0.3 2.8-0.4 3.7-0.4 1.3 0 2 0.3 2 1 0 0.3-0.2 0.6-0.5 0.8 -0.1 0.1-0.3 0.1-0.4 0.1 -0.1 0-0.3 0-0.6-0.1 -0.4-0.1-0.7-0.1-1-0.1 -0.6 0-1.6 0.1-3.1 0.4 -1 0.2-2 0.4-2.9 0.7z" stroke-miterlimit="10" stroke="#FFFFFF" fill="#FFFFFF"/><polygon points="170.1 8.6 179.9 1.5 177.2 1.5 168.9 7.5 " fill="#FFFFFF" clip-rule="evenodd" fill-rule="evenodd"/><polygon points="167.7 6.4 174.6 1.5 171.9 1.5 166.5 5.4 " fill="#FFFFFF" clip-rule="evenodd" fill-rule="evenodd"/><path d="m149.8 34.1v14.1c0.2 0 0.3 0 0.5 0h1l0-12.9c-0.1-0.1-1.1-0.9-1.5-1.2" fill="#FFFFFF" clip-rule="evenodd" fill-rule="evenodd"/><path d="m173.5 14.6c-9.6 3.1-17.2 10.7-20.3 20.3 0.4 0.4 0.7 0.7 1.1 1.1 3-9.9 10.8-17.7 20.8-20.5v-5h-1.5v4l0 0z" fill="#FFFFFF" clip-rule="evenodd" fill-rule="evenodd"/><path d="m155.5 37.4c0.4 0.5 0.8 1.1 1.2 1.6 2.3-10.6 10.7-19 21.4-21v-7.5h-1.5v6.2c-10.3 2.5-18.4 10.5-21.1 20.7" fill="#FFFFFF" clip-rule="evenodd" fill-rule="evenodd"/><path d="m146.7 44.6c0 1.2 0.6 2.3 1.5 3v-14.6c-0.1 0-1.1-0.7-1.6-0.9 0 0 0 12.5 0 12.5" fill="#FFFFFF" clip-rule="evenodd" fill-rule="evenodd"/><path d="m180.3 3.1l-8.2 5.9h7.6v10.3c-11.2 1.6-20.1 10.4-21.7 21.6 0 0 0 0 0 0 -0.1 0.9-0.2 1.8-0.3 2.8 -0.8-1.7-1.8-3.3-2.9-4.7 -0.6-0.8-1.2-1.5-1.9-2.2l0 11.4h27.9c0.4 0 0.7-0.1 1.1-0.2 0 0 0.1 0 0.1 0 1.4-0.5 2.4-1.7 2.4-3.2 0 0 0-0.3 0-0.3 0-0.6-0.2-1.1-0.4-1.6l-6.6-11.9h1.8l5.3 9.5v-35.2 0c0-1.4-1.1-2.6-2.6-2.6 -0.5 0-1 0.2-1.5 0.5" fill="#FFFFFF" clip-rule="evenodd" fill-rule="evenodd"/><path d="m151.9 33.8c3.3-9.4 10.7-16.9 20.1-20.3v-2.9h-2l-5.9-5.3 5.2-3.7h-7.9 -11.1c-2 0-3.6 1.6-3.6 3.6v25.2c1.9 1 3.7 2.1 5.3 3.5" fill="#E2231A"/><path d="m180.7 0l0 0h-30.5 0c-2.8 0-5.2 2.3-5.2 5.2v0 39.4c0 2.8 2.3 5.2 5.2 5.2h30.5c2.8 0 5.1-2.3 5.1-5.2v-39.4c0-2.8-2.3-5.2-5.1-5.2m-35.6 5.2v0 0l0 0zm32.1-3.6h2.7l-9.8 7 -1.2-1.1 8.3-6zm-9.5 4.9l-1.2-1.1 5.4-3.8h2.7l-6.9 4.9zm-19.5 41.1c-0.9-0.7-1.5-1.7-1.5-3 0 0 0-0.8 0-2v-10.5c0.5 0.3 1.5 0.9 1.6 0.9v14.6l0 0zm3.1 0.6h-1.2c-0.1 0-0.3 0-0.4 0v-14.1c0.5 0.4 1.4 1.1 1.5 1.2l0 12.9zm-4.6-17.9v-25.2c0-2 1.6-3.6 3.6-3.6h19l-5.2 3.7 5.9 5.3h2v2.9c-9.4 3.4-16.8 10.9-20.1 20.3 -1.6-1.3-3.4-2.5-5.3-3.5m28.4-14.8l0 0c-9.9 2.8-17.8 10.6-20.8 20.5 -0.4-0.4-0.7-0.7-1.1-1.1 3.1-9.6 10.7-17.2 20.3-20.3v-4h1.5v5l0 0zm1.6 1.2v-6.2h1.5v7.5c-10.7 2.1-19.2 10.4-21.4 21 -0.4-0.5-0.8-1.1-1.2-1.6 2.7-10.2 10.8-18.2 21.1-20.7m7.7-11.5l0 0v35.2l-5.3-9.5h-1.8l6.6 11.9c0.2 0.5 0.4 1 0.4 1.6 0 0 0 0.3 0 0.3 -0.1 1.5-1.1 2.8-2.4 3.2 0 0-0.1 0-0.1 0 -0.3 0.1-0.7 0.2-1.1 0.2h-27.9l0-11.4c2 2 3.6 4.3 4.8 6.9 0-0.9 0.1-1.9 0.3-2.8 0 0 0 0 0 0 1.7-11.2 10.6-20 21.8-21.6v-10.3h-7.6l8.2-5.9c0.4-0.3 0.9-0.5 1.5-0.5 1.4 0 2.6 1.1 2.6 2.6v0l0 0z" fill="#002F87" clip-rule="evenodd" fill-rule="evenodd"/><path d="m181.3 5.9c0-0.4 0.3-0.7 0.7-0.7 0.4 0 0.7 0.3 0.7 0.7 0 0.4-0.3 0.7-0.7 0.7 -0.4 0-0.7-0.3-0.7-0.7" fill="#002F87"/></svg>