<svg xmlns:svg="http://www.w3.org/2000/svg" xmlns="http://www.w3.org/2000/svg" width="95mm" height="25mm" viewBox="0 0 336.61416 88.582675" id="svg9684" version="1.1"><defs id="defs9686"/><metadata id="metadata9689"/><g id="layer1" transform="translate(0,-963.77952)"><path d="m330.8245 1030.7599c0 9.414-8.323 17.048-18.592 17.048l-288.204965-0.001c-10.269 0-18.5920001-7.633-18.5920001-17.048l0-44.08904c0-9.415 8.3230001-17.047 18.5920001-17.047l288.204965 0c10.269 0 18.592 7.633 18.592 17.047l0 44.09004z" id="path2085" fill="#661016"/><text y="1018.1815" x="39.99509" font-size="50.7258" id="text2089" style="fill:#fff;font-family:MyriadPro-BoldCond;font-size:50.72579956px">G</text><text y="1018.1815" x="63.936497" font-size="50.7258" id="text2091" style="fill:#fff;font-family:MyriadPro-BoldCond;font-size:50.72579956px">r</text><text y="1018.1815" x="78.849098" font-size="50.7258" id="text2093" style="fill:#fff;font-family:MyriadPro-BoldCond;font-size:50.72579956px">i</text><text y="1018.1815" x="90.160622" font-size="50.7258" id="text2095" style="fill:#fff;font-family:MyriadPro-BoldCond;font-size:50.72579956px">t</text><text y="1018.1815" x="105.63132" font-size="50.7258" id="text2097" style="fill:#fff;font-family:MyriadPro-BoldCond;font-size:50.72579956px">o</text><text y="1018.1815" x="135.56003" font-size="50.7258" id="text2101" style="fill:#fff;font-family:MyriadPro-BoldCond;font-size:50.72579956px">d</text><text y="1018.1815" x="158.23392" font-size="50.7258" id="text2103" style="fill:#fff;font-family:MyriadPro-BoldCond;font-size:50.72579956px">e</text><text y="1018.1815" x="187.55222" font-size="50.7258" id="text2107" style="fill:#fff;font-family:MyriadPro-BoldCond;font-size:50.72579956px">F</text><text y="1018.1815" x="207.03073" font-size="50.7258" id="text2109" style="fill:#fff;font-family:MyriadPro-BoldCond;font-size:50.72579956px">u</text><text y="1018.1815" x="229.95853" font-size="50.7258" id="text2111" style="fill:#fff;font-family:MyriadPro-BoldCond;font-size:50.72579956px">e</text><text y="1018.1815" x="251.21243" font-size="50.7258" id="text2113" style="fill:#fff;font-family:MyriadPro-BoldCond;font-size:50.72579956px">r</text><text y="1018.1815" x="266.43008" font-size="50.7258" id="text2115" style="fill:#fff;font-family:MyriadPro-BoldCond;font-size:50.72579956px">z</text><text y="1018.1815" x="284.23477" font-size="50.7258" id="text2117" style="fill:#fff;font-family:MyriadPro-BoldCond;font-size:50.72579956px">a</text></g></svg>