<svg xmlns:svg="http://www.w3.org/2000/svg" xmlns="http://www.w3.org/2000/svg" width="165mm" height="120mm" viewBox="0 0 584.64568 425.19685" id="svg7888" version="1.1"><defs id="defs7890"/><metadata id="metadata7893"/><g id="layer1" transform="translate(0,-627.16536)"><g transform="translate(-126.0569,-442.06566)" id="g1115"><image width="2448" height="1768" transform="matrix(0.24,0,0,0.24,132.2969,1085.125)" id="image1117"/><g id="g1119"><g id="g1121"><rect x="140.297" y="1093.125" width="557.39398" height="394.15799" id="rect1123" fill="#fff"/><g id="g1125"><path d="m466.033 1216.577 56.692 46.12c2.556 2.556 2.556 6.739 0 9.41-2.672 2.557-6.854 2.557-9.41 0l-47.282-55.53 47.282 55.53-47.282-55.53 0 0z" id="path1127" fill="#fada2c"/><path d="m619.818 1244.142-56.346 28.345c-2.323 1.046-5.111 0-6.156-2.323-1.046-2.323 0-5.11 2.439-6.157l60.063-19.865-60.063 19.864 60.063-19.864 0 0z" id="path1129" fill="#fada2c"/><path d="m498.948 1204.774 28.811 56.692c1.047 2.324 0 5.111-2.438 6.158-2.325 0.929-4.996-0.116-6.041-2.438l-20.332-60.412 20.331 60.412-20.331-60.412 0 0z" id="path1131" fill="#fada2c"/><path d="m566.564 1205.058-20.099 60.062c-0.813 2.438-3.602 3.603-5.924 2.672-2.441-0.813-3.604-3.602-2.673-5.925l28.696-56.809-28.695 56.809 28.695-56.809 0 0z" id="path1133" fill="#fada2c"/><path d="m449.571 1242.798 60.061 19.981c2.439 0.93 3.602 3.601 2.672 6.04-0.929 2.324-3.601 3.604-5.924 2.675l-56.809-28.696 56.809 28.696-56.809-28.696 0 0z" id="path1135" fill="#fada2c"/><path d="m602.537 1216.344-46.819 56.113c-2.555 2.557-6.737 2.557-9.409 0-2.559-2.555-2.559-6.739 0-9.41l56.228-46.703-56.229 46.703 56.229-46.703 0 0z" id="path1137" fill="#fada2c"/><path d="m534.342 1187.997 6.623 72.843c0 3.6-2.905 6.621-6.623 6.621-3.717 0-6.622-3.021-6.622-6.621l6.622-72.843-6.622 72.843 6.622-72.843 0 0z" id="path1139" fill="#fada2c"/><path d="m621.868 1275.175-72.842 6.623c-3.602 0-6.622-3.021-6.622-6.623 0-3.718 3.021-6.738 6.622-6.738l72.842 6.738-72.842-6.738 72.842 6.738 0 0z" id="path1141" fill="#fada2c"/><path d="m520.007 1281.798-72.841-6.623 72.841 6.623c3.602 0 6.622-3.021 6.622-6.623 0-3.718-3.021-6.738-6.622-6.738l-72.841 6.738 72.841 6.623 0 0z" id="path1143" fill="#fada2c"/><path d="m621.868 1282.045-72.842 6.623c-3.602 0-6.622-3.021-6.622-6.623 0-3.718 3.021-6.738 6.622-6.738l72.842 6.738-72.842-6.738 72.842 6.738 0 0z" id="path1145" fill="#fada2c"/><path d="m520.007 1288.668-72.841-6.623 72.841 6.623c3.602 0 6.622-3.021 6.622-6.623 0-3.718-3.021-6.738-6.622-6.738l-72.841 6.738 72.841 6.623 0 0z" id="path1147" fill="#fada2c"/><circle cx="534.271" cy="1275.703" r="14.501" id="circle1149" fill="#fce226"/></g><path d="m681.825 1307.155c-0.922-2.43-22.748-15.363-28.282-13.201-5.528 2.16-31.72-2.474-33.063-3.145l-18.867-9.628-7.645-3.292-9.813-1.541-5.833-2.166-20.996 11.096-11.481-6.56-5.471-0.558-21.319 10.395-11.482-10.395-24.6-12.56-38.819 20.22-13.115-8.748-18.949-6.7-45.568 24.741 0.013 0.166c-4.703 2.88-15.976 9.445-21.015 9.445-6.457 0-22.749 0.865-23.979 2.43-1.23 1.565-5.738 2.086-5.738 2.086l54.496 0 116.848-0.001 139.725 0 50.036 0 1.436 0c1.664-0.072 4.101-0.449 3.481-2.084z" id="path1151" fill="#754c28"/><path d="m615.04 1293.027c0 0.415-0.454 0.584-0.621 0.765-4.523 1.049-7.025-3.292-10.499-4.834-0.505-0.377-0.337-1.245 0.26-1.296 3.718 1.465 7.179 3.615 10.86 5.365l0 0z" id="path1153" fill="#603813"/><path d="m539.544 1278.953c-1.697 0.814-3.383 1.646-5.055 2.463-3.564 1.813-7.089 3.704-10.55 5.688 0.339 1.748 2.166 2.1 3.188 3.396 2.088 0.947 3.293-1.995 5.314-1.919 1.815-0.245 1.127-2.228 1.542-3.188 0.144-0.207 0.338-0.376 0.505-0.558 1.519-1.256 3.592-1.359 5.327-2.151 0.843 0.337 1.465 1.31 2.255 1.464 1.129-0.232 2.774 0.183 3.021-0.854-1.825-1.748-3.459-3.462-5.547-4.341l0 0z" id="path1155" fill="#603813"/><path d="m491.047 1283.916c-3.292-2.086-7.31-3.396-10.421-5.897l0.351-0.545c3.213-0.751 6.506-1.541 9.449-2.954 0.166-1.024-0.338-1.646-0.585-2.333-0.336-4.171-4.521-5.365-7.465-6.571-17.445 8.904-35.227 19.598-52.686 28.516-3.966 2.02-7.88 4.705-12.221 6.271-3.564-0.896-8.671-0.336-9.293-5.212 1.918-1.981 5.378-0.349 7.399-2.37 0.168-1.802-0.545-3.968 0.688-5.276 2.839-1.374 5.547-3.628 8.943-3.898 0.934-0.352 0.413-1.544 0.688-2.271 0.96-1.814 3.394-0.57 4.938-1.127 1.062 0.377 2.254 1.75 3.214 1.298 2.954-3.462-14.218-7.985-21.957-11.173-6.895 4.25-15.15 7.854-22.214 12.208-0.544 0.339-1.089 0.713-1.646 1.064l0.519 1.126c0.336 0.349 0.79-0.17 1.127-0.17 1.398-0.932 3.124-0.231 4.07 1.13 0.116 1.542-1.88 2.604-2.762 4.068-0.687 1.037 0.674 1.932 1.466 2.788 1.231 1.294 3.395 0.621 5.042 0.621l2.707 2.397c0.506 0.958-1.063 1.569-0.792 2.592 4.07 3.41 8.945 5.833 13.364 8.71l1.374 0.246 7.906-6.752c4.603-0.336 9.202-1.309 13.893-1.647 2.231 0.688 3.967 2.335 6.404 2.606 1.193-0.621 2.772-0.621 3.46-1.919-1.646-2.151-4.315-2.787-6.155-4.703 2.255-1.712 5.198-2.425 7.802-3.631 2.191-0.673 4.016 1.31 6.066 1.919 3.396 2.411 2.267-2.968 4.457-3.823l7.025 1.05 1.296 1.193c1.141 4.781 6.415 4.263 9.811 6.183 1.297-0.273 3.177 0 3.732-1.401-1.749-3.201-4.252-5.975-6.442-8.853l-0.064-0.854c1.648-1.309 3.449-2.605 5.366-2.775 2.685 1.817 4.939 4.759 7.453 6.404 1.918-0.271 4.004-0.351 5.716-1.192 0.375-1.855 0.208-3.747-1.023-5.043l0 0z" id="path1157" fill="#603813"/><path d="m389.875 1298.651c-0.518-0.996-1.166-1.892-2.333-2.423-2.876 0.168-5.144-0.867-7.917-0.622-1.53 1.049-1.194 3.396-2.05 4.964l0.339 0.415c4.226-1.686 8.023 0.687 11.962 1.335 0.441 0.064 0.856 0.128 1.309 0.128l0.337-0.231c-0.648-1.088-1.025-2.397-1.647-3.566l0 0z" id="path1159" fill="#603813"/><path d="m590.623 1290.15c-1.114-1.192 0.116-2.877 0-4.419-0.673-1.4-2.152-1.465-3.46-1.815-2.151-1.478-3.967-4.004-4.239-6.61-1.478-0.583-2.605-1.71-4.328-1.71-14.723 7.568-29.498 14.722-44.106 22.577-1.153 0.609-2.319 1.27-3.46 1.894-1.632 1.295-1.374-1.23-2.332-1.686-5.988-4.938-12.054-10.837-18.288-15.696-2.436 0.272-4.082 2.19-6.272 2.879-0.766 0.606-2.502 0.958-2.165 2.331l7.479 9.735c1.645 1.813 3.732-0.104 5.781 0.167 6.387 1.335 12.828 2.853 19.257 4.187 1.582 0.337 3.124 0.647 4.692 0.92 4.417 2.131 8.478 5.041 13.204 6.337l6.256 0c-0.117-0.129-0.259-0.236-0.433-0.271-3.732-1.815-8.154-1.892-11.031-5.21 0-1.543 1.647-1.893 2.774-2.516 5.483 0.364 11.211 0.453 16.59 0.973 1.71-0.35 3.979 0.958 4.588-1.127-4.006-2.605-8.32-4.187-12.339-6.507l-0.338-0.52c4.356-1.814 9.566-1.995 14.154-3.227 3.979 1.983 7.259 5.392 11.276 7.297 4.691-0.271 10.238 3.733 14.152-0.504 0.687-0.623 1.814-1.065 1.983-2.023-2.773-2.397-6.351-3.538-9.395-5.456z" id="path1161" fill="#603813"/><polygon points="140.297 1093.125 453.042 1290.464 140.297 1487.283 " id="polygon1163" fill="#2b388f"/><polygon points="202.003 1281.459 220.6 1284.161 207.143 1297.277 210.32 1315.798 193.688 1307.054 177.055 1315.799 180.232 1297.277 166.776 1284.161 185.372 1281.459 193.688 1264.609 " id="polygon1165" fill="#fff"/><polygon points="202.003 1197.227 220.6 1199.93 207.143 1213.045 210.32 1231.566 193.688 1222.821 177.055 1231.566 180.232 1213.045 166.776 1199.93 185.372 1197.227 193.688 1180.376 " id="polygon1167" fill="#fff"/><polygon points="202.003 1365.691 220.6 1368.395 207.143 1381.51 210.32 1400.031 193.688 1391.287 177.055 1400.031 180.232 1381.51 166.776 1368.395 185.372 1365.691 193.688 1348.842 " id="polygon1169" fill="#fff"/><g id="g1171"><g id="g1173"><g id="g1175"><path d="m325.65 1216.168c0 0-0.741 4.626 0 4.953 0.74 0.324 2.276-2.095 2.936-2.134 0.66-0.039-2.167-3.135-3.266-2.694" id="path1177" fill="#ec1c24"/></g><g id="g1179"><path d="m325.799 1221.451c-0.091 0-0.182-0.018-0.271-0.058-0.351-0.153-0.836-1.021-0.204-5.087l-0.116-0.291c0.863-0.346 2.169 0.798 2.689 1.306 0.569 0.555 1.213 1.301 1.06 1.714-0.055 0.147-0.187 0.241-0.354 0.251-0.178 0.017-0.706 0.563-1.022 0.887-0.633 0.654-1.238 1.278-1.782 1.278zm0.083-4.834c-0.307 2.105-0.357 3.999-0.098 4.237 0.213 0.091 0.994-0.712 1.37-1.098 0.497-0.513 0.853-0.868 1.17-1.006-0.247-0.436-1.172-1.456-2.08-1.964-0.129-0.071-0.251-0.128-0.362-0.169z" id="path1181" fill="#231f20"/></g></g><g id="g1183"><g id="g1185"><path d="m392.906 1271.737c-0.598-3.987-13.558 0.3-15.053 0-1.496-0.299 0.499-2.493 0.499-2.493 9.271-13.856-1.894-25.419-1.894-25.419 1.993 15.252-7.153 27.114-7.751 27.712-0.598 0.599-0.523 2.468-0.523 2.468 0.224 6.58-1.123 7.028-1.123 7.028-2.242 4.036-13.458 9.904-14.151 10.43-0.691 0.522-0.577-0.262-0.577-0.262 2.093-3.217-2.168-10.018-2.168-10.018 0.374-10.095-6.579-15.029-6.579-15.029-4.113-7.327-13.158-6.13-13.158-6.13-0.375-0.149-0.225-7.178 4.859-7.85 5.083-0.675 9.744-6.207 10.017-7.054 0.275-0.848 0.848-0.447 0.848-0.447 0.35 0.149 0.449 1.743 0.449 1.743 2.94-3.388 1.345-8.673 1.345-8.673 2.443 1.895 3.838 0.449 3.838 0.449-0.647-0.199-3.189-5.084-2.791-4.337 0.398 0.748 3.339 0.748 3.339 0.748-3.738-1.495-4.785-5.981-4.785-5.981-0.298-7.178-8.075-11.065-8.075-11.065-12.41-5.383-21.232 3.289-21.232 3.289l-1.763 1.206c1.009 0.379 2.682 1.299 5.088 3.529 0 0 1.809 0.724 3.055-0.311 0 0 0.299 0.063 0.25 0.311-0.051 0.251-2.542 2.992-6.581-0.896 0 0-0.954-1.421-1.545-1.496-0.076-0.01-0.165-0.01-0.258 0l-0.042 0.202-0.199 0.797c-2.094 1.396-2.89 5.085-2.89 5.085l-0.162 0.459 0.252 0.97c0.454-0.148 0.895-0.171 1.205 0.091 0.971 0.824 1.645 2.542 2.242 2.468 0.599-0.075 4.736-0.025 5.034-0.175 0.3-0.15 0.724 0.374 0.698 0.523-0.025 0.149-0.374 3.09 0.448 3.688 0 0 1.32 2.469 9.171 1.446 0 0 2.616 0.101 1.545 2.567 0 0-5.187 4.616-12.889 6.244 0.527 0.097 0.889 0.27 0.927 0.563 0 0-0.498 4.723-5.28 4.584l-3.293 3.487-0.698-0.4c-12.461-6.379-20.236 2.991-20.236 2.991-8.873-4.086-15.352 5.981-15.352 5.981l-0.201-3.986c-1.38-1.25-4.455-7.668-6.501-12.919l0.482 0.01c-2.04-4.05-3.761-5.719-3.761-5.719-0.672-1.308 4.893 0.1 4.893 0.1 7.778-0.58 5.751-9.596 5.751-9.596 1.926-5.085-3.515-7.377-3.515-7.377 0.134-3.538-7.279-7.186-7.279-7.186-3.625-1.766-7.436 11.341-8.531 12.402-1.093 1.063-1.77-1.821-1.77-1.821-6.163-15.491-22.018-12.846-22.018-12.846 13.696 7.001 18.288 21.26 18.441 22.091 0.154 0.832 1.736 1.829 1.736 1.829 5.548 3.544 5.155 4.906 5.155 4.906 0.385 0.777 0.645 1.849 0.813 3.086l0.194 0c-1.833 6.518-1.136 16.429-1.136 16.429l0.448 1.246 0.349 0.248 0 1.446 0.299 0.299 0.249 1.246 0.599 0.3c0 0 0.05 0.746 0.399 0.696 0.349-0.048 0.548 0.699 0.548 0.699 1.295 1.296 3.252 10.468 3.252 10.468 1.57-1.271 1.881-6.282 1.881-6.282 4.386 7.528 8.872 6.58 8.872 6.58-2.892-2.84-1.745-3.838-1.745-3.838 5.035 4.286 11.265 1.993 10.518 1.943-0.748-0.049-1.945-1.296-1.745-1.196 0.199 0.1 3.639 0.1 3.639 0.1-0.599 3.216 0.523 9.046 0.449 8.074-0.075-0.972 1.719-3.663 1.719-3.663-0.522 1.121 0.075 5.358 0.873 6.255 0.798 0.897 2.392 7.278 2.392 7.278 0.101 2.99 0.998 17.146 0.798 18.343-0.199 1.195-0.798 2.491-0.798 2.491l24.125 0c-0.698-2.79-0.4-9.57-0.4-9.57-1.096-1.794 4.188-11.563 7.179-13.557 2.99-1.994 5.682-5.799 5.682-5.799 1.296-2.01 4.486 12.178 4.486 12.178 0 0 1.595 0.498 1.496 0.2-0.1-0.3 0.697-1.196 0.697-1.196 7.577 10.568 12.361 11.564 13.457 11.464 1.097-0.101 3.788-2.394 3.788-2.394l-0.198 3.292c18.242-14.755 20.136-26.02 20.136-26.02 0.697-1.297 2.691 4.087 2.691 4.087 4.884 6.081 11.164-0.697 11.164-0.697 5.284-1.297 4.088-7.078 4.088-7.078 2.994-1.891 1.799-10.066 1.799-10.066z" id="path1187" fill="#eeec81"/></g><g id="g1189"><path d="m317.42 1317.344-25.399 0 0.293-0.637c0.006-0.012 0.576-1.258 0.762-2.378 0.126-0.757-0.26-7.865-0.516-12.572-0.134-2.48-0.251-4.629-0.286-5.634-0.608-2.43-1.757-6.454-2.28-7.042-0.614-0.691-1.092-2.855-1.171-4.614-0.377 0.713-0.662 1.381-0.639 1.688 0.009 0.119 0.022 0.296-0.118 0.447l-0.133 0.144-0.408 0-0.138-0.162c-0.283-0.341-0.974-5.109-0.62-8.02-0.806 0-1.41-0.01-1.865-0.022 0.194 0.125 0.382 0.215 0.523 0.224 0.326 0.021 0.488 0.264 0.48 0.49-0.029 0.878-3.22 1.063-3.846 1.063-1.832 0-4.477-0.413-6.962-2.298 0.051 0.488 0.443 1.392 1.841 2.767l0.596 0.585-0.817 0.174c-0.024 0-0.239 0.049-0.6 0.049-1.34 0-4.68-0.584-8.049-5.703-0.211 1.648-0.727 4.302-1.917 5.265l-0.568 0.459-0.152-0.715c-0.746-3.495-2.256-9.366-3.13-10.243l-0.086-0.085-0.031-0.116c-0.035-0.13-0.105-0.286-0.157-0.363-0.451-0.01-0.685-0.408-0.771-0.854l-0.581-0.29-0.266-1.327-0.334-0.333 0-1.402-0.275-0.196-0.517-1.437-0.004-0.063c-0.028-0.396-0.644-9.52 1.002-16.017l-0.004 0-0.052-0.384c-0.174-1.273-0.433-2.266-0.771-2.946l-0.078-0.157 0.036-0.122c-0.02-0.156-0.325-1.492-4.953-4.449-0.289-0.183-1.755-1.149-1.936-2.125-0.026-0.139-4.203-14.618-18.205-21.773l-1.209-0.618 1.34-0.224c0.043-0.01 1.084-0.177 2.736-0.177 4.354 0 14.996 1.295 19.771 13.298l0.02 0.063c0.218 0.923 0.652 1.712 0.856 1.712 0.021 0 0.078-0.022 0.167-0.108 0.238-0.231 0.818-1.617 1.379-2.955 2.152-5.131 4.288-9.736 6.776-9.736 0.302 0 0.599 0.068 0.883 0.209 0.306 0.148 7.289 3.627 7.525 7.302 1.115 0.572 5.214 3.038 3.537 7.698 0.156 0.793 0.81 4.807-1.213 7.538-1.092 1.474-2.764 2.304-4.971 2.469l-0.072 0.01-0.071-0.02c-0.025 0-2.557-0.642-3.916-0.642-0.145 0-0.254 0.01-0.335 0.019 0.536 0.588 1.978 2.326 3.629 5.608l0.333 0.658-0.553-0.01c2.019 5.071 4.882 10.987 6.141 12.126l0.139 0.125 0.145 2.911c0.535-0.675 1.34-1.6 2.38-2.529 2.629-2.35 5.506-3.592 8.32-3.592 1.387 0 2.78 0.296 4.148 0.881 1.001-1.08 5.183-5.12 11.818-5.12 2.852 0 5.793 0.766 8.741 2.273l0.41 0.233 3.189-3.377 0.201 0.01c0.064 0 0.128 0 0.192 0 3.812 0 4.515-3.433 4.614-4.085-0.042-0.024-0.181-0.106-0.546-0.174l-2.244-0.408 2.231-0.474c7.008-1.479 11.951-5.516 12.609-6.075 0.222-0.551 0.242-0.978 0.057-1.271-0.266-0.423-0.947-0.556-1.212-0.574-1.268 0.163-2.448 0.246-3.507 0.246-4.458 0-5.747-1.434-6.021-1.842-0.898-0.801-0.637-3.376-0.565-3.949-0.032-0.044-0.085-0.099-0.126-0.127-0.28 0.084-0.956 0.11-3.165 0.137-0.84 0.011-1.711 0.02-1.927 0.047-0.032 0.01-0.063 0.01-0.095 0.01-0.559 0-0.948-0.565-1.442-1.282-0.313-0.454-0.668-0.969-1.052-1.294-0.047-0.039-0.131-0.093-0.311-0.093-0.131 0-0.286 0.027-0.465 0.087l-0.453 0.147-0.407-1.564 0.198-0.563c0.083-0.371 0.892-3.745 2.928-5.231l0.194-0.817 0.067-0.335 0.34-0.024c0.127-0.01 0.245-0.01 0.349 0.01 0.694 0.087 1.494 1.151 1.833 1.649 1.326 1.269 2.59 1.91 3.76 1.91 0.145 0 0.284-0.01 0.416-0.029-0.777-0.025-1.386-0.266-1.414-0.277l-0.077-0.029-0.061-0.057c-2.372-2.2-3.996-3.084-4.94-3.438l-0.809-0.304 2.445-1.673c0.475-0.455 5.557-5.15 13.373-5.15 2.772 0 5.572 0.606 8.324 1.799 0.103 0.051 2.048 1.033 4.054 2.926 2.666 2.515 4.147 5.447 4.288 8.486 0.11 0.423 1.208 4.311 4.506 5.63l2.163 0.863-2.33 0c-0.534 0-1.476-0.028-2.292-0.206 0.668 1.181 1.58 2.695 1.904 2.928l0.669 0.206-0.507 0.524c-0.026 0.027-0.655 0.666-1.774 0.666-0.552 0-1.124-0.152-1.708-0.454 0.318 1.792 0.578 5.385-1.687 7.995l-0.716 0.827-0.07-1.093c-0.037-0.592-0.153-1.225-0.252-1.401l-0.005 0c-0.005 0-0.033-0.014-0.048-0.014 0 0-0.057 0.049-0.116 0.231-0.318 0.98-5.038 6.651-10.387 7.359-1.446 0.192-2.594 0.965-3.409 2.296-1.052 1.719-1.234 3.857-1.18 4.628 0.258-0.018 0.637-0.038 1.108-0.038 2.544 0 8.794 0.62 12.067 6.348 0.801 0.618 6.979 5.691 6.687 15.211 0.552 0.912 3.783 6.48 2.396 9.807 0.205-0.123 0.497-0.291 0.908-0.526 2.998-1.726 10.96-6.309 12.748-9.529l0.084-0.15 0.122-0.041c0.117-0.104 1.046-1.113 0.859-6.604-0.014-0.341-0.047-2.097 0.655-2.798 0.099-0.099 9.66-11.752 7.623-27.337l-0.176-1.348 0.944 0.978c0.117 0.12 2.877 3.015 4.523 7.675 1.525 4.316 2.313 10.993-2.579 18.306l-0.041 0.052c-0.511 0.565-1.019 1.396-0.93 1.664 0.012 0.04 0.109 0.071 0.188 0.087 0.028 0.01 0.057 0 0.106 0.01 0.503 0 1.71-0.253 3.112-0.544 2.386-0.498 5.655-1.178 8.138-1.178 2.481 0 3.844 0.701 4.054 2.088 0.049 0.339 1.14 8.063-1.753 10.339 0.162 1.243 0.453 6.018-4.337 7.276-0.554 0.565-3.381 3.277-6.689 3.277-0.001 0 0 0-0.001 0-1.918 0-3.621-0.909-5.06-2.702l-0.045-0.057-0.026-0.067c-0.649-1.752-1.451-3.371-1.891-3.863-0.439 1.936-3.497 12.451-20.234 25.987l-0.792 0.64 0.2-3.284c-0.937 0.731-2.396 1.768-3.238 1.847-0.055 0-0.118 0.01-0.188 0.01-0.876 0-5.58-0.546-13.328-11.176-0.118 0.164-0.208 0.311-0.235 0.393 0.023 0.134-0.007 0.268-0.086 0.377-0.108 0.151-0.284 0.229-0.521 0.229-0.437 0-1.299-0.262-1.466-0.314l-0.248-0.079-0.057-0.251c-1.179-5.242-2.896-11.115-3.728-11.955-0.417 0.577-2.928 3.965-5.755 5.85-1.3 0.866-3.299 3.556-4.974 6.691-1.805 3.379-2.407 5.707-2.069 6.26l0.071 0.115-0.005 0.137c-0.003 0.067-0.288 6.746 0.386 9.442l0.137 0.553zm-24.027-0.899 22.899 0c-0.519-2.854-0.334-8.145-0.299-9.024-1.022-2.403 4.363-12.015 7.382-14.026 2.888-1.926 5.538-5.647 5.564-5.685 0.215-0.332 0.498-0.384 0.647-0.384 0.595 0 1.372 0.503 3.068 6.512 0.723 2.559 1.33 5.146 1.517 5.953 0.24 0.069 0.518 0.14 0.726 0.177 0.094-0.255 0.306-0.614 0.753-1.116l0.372-0.418 0.328 0.455c7.863 10.967 12.449 11.283 12.946 11.283 0.04 0 0.075 0 0.105 0 0.696-0.063 2.54-1.438 3.539-2.288l0.802-0.684-0.201 3.32c8.827-7.282 13.552-13.627 15.977-17.714 2.7-4.552 3.202-7.355 3.207-7.383l0.012-0.073 0.036-0.065c0.205-0.382 0.502-0.438 0.661-0.438 0.757 0 1.705 1.519 2.819 4.512 1.252 1.533 2.703 2.31 4.317 2.31 3.219 0 6.097-3.056 6.125-3.086l0.091-0.099 0.131-0.032c2.011-0.493 3.254-1.734 3.693-3.688 0.336-1.494 0.063-2.85 0.061-2.862l-0.063-0.305 0.262-0.165c2.25-1.425 1.912-7.431 1.592-9.624-0.133-0.88-1.198-1.326-3.167-1.326-2.392 0-5.608 0.672-7.957 1.161-1.506 0.315-2.697 0.563-3.293 0.563-0.11 0-0.201-0.01-0.281-0.023-0.565-0.113-0.783-0.438-0.865-0.686-0.289-0.879 0.736-2.121 1.096-2.524 3.748-5.614 4.575-11.493 2.462-17.48-1-2.833-2.454-5.013-3.395-6.238 1.321 15.231-7.94 26.506-8.04 26.606-0.315 0.314-0.419 1.436-0.392 2.131 0.19 5.594-0.74 7.015-1.239 7.371-2.013 3.424-9.714 7.856-13.023 9.761-0.585 0.337-1.088 0.627-1.188 0.701-0.245 0.185-0.452 0.271-0.654 0.271-0.185 0-0.351-0.074-0.47-0.212-0.221-0.256-0.186-0.632-0.169-0.742l0.014-0.098 0.054-0.083c1.913-2.937-2.131-9.469-2.173-9.534l-0.073-0.118 0.006-0.137c0.359-9.718-6.324-14.598-6.392-14.646l-0.082-0.059-0.049-0.087c-3.025-5.394-8.933-5.976-11.331-5.976-0.843 0-1.373 0.068-1.378 0.069l-0.115 0.016-0.11-0.044c-0.162-0.063-0.589-0.235-0.336-2.256 0.171-1.373 1.062-5.895 5.305-6.456 4.827-0.639 9.398-5.978 9.649-6.745 0.24-0.742 0.71-0.853 0.969-0.853 0.237 0 0.429 0.092 0.515 0.145 0.125 0.06 0.369 0.225 0.537 0.963 1.852-3.133 0.631-7.317 0.617-7.365l-0.402-1.341 1.107 0.857c0.755 0.586 1.465 0.883 2.112 0.883 0.297 0 0.539-0.063 0.723-0.141-0.279-0.343-0.686-0.936-1.301-1.985-0.678-1.156-0.993-1.734-1.137-2.042-0.007-0.013-0.014-0.024-0.021-0.037l-0.035-0.065 0.008 0c-0.079-0.185-0.071-0.235-0.063-0.286l0.058-0.382 0.385 0c0.224 0 0.337 0.142 0.404 0.252l0 0c0 0 0 0 0 0 0.013 0.023 0.025 0.044 0.034 0.063 0.084 0.131 0.474 0.258 1.016 0.353-2.494-1.962-3.257-5.113-3.295-5.273l-0.011-0.084c-0.284-6.823-7.751-10.646-7.827-10.684-2.615-1.133-5.296-1.712-7.944-1.712-7.662 0-12.724 4.873-12.773 4.922l-0.062 0.049-1.097 0.751c1.031 0.512 2.495 1.462 4.405 3.225 0.168 0.056 0.619 0.187 1.138 0.187 0.562 0 1.031-0.151 1.394-0.452l0.167-0.138 0.211 0.043c0.356 0.073 0.688 0.391 0.599 0.838-0.089 0.445-1.221 1.531-2.914 1.531-1.419 0-2.906-0.737-4.417-2.192l-0.061-0.072c-0.358-0.533-0.821-1.048-1.089-1.231l-0.188 0.76-0.145 0.096c-1.915 1.277-2.694 4.771-2.702 4.805l-0.015 0.055-0.115 0.33 0.107 0.413c0.476-0.069 0.869 0.029 1.171 0.285 0.473 0.402 0.865 0.97 1.21 1.47 0.224 0.324 0.561 0.813 0.721 0.893 0.251-0.029 0.927-0.04 1.995-0.052 1.039-0.013 2.6-0.031 2.896-0.092 0.088-0.038 0.182-0.059 0.28-0.059 0.384 0 0.676 0.298 0.784 0.426 0.134 0.157 0.283 0.398 0.242 0.647-0.125 0.795-0.187 2.92 0.27 3.251l0.083 0.062 0.048 0.09c0.003 0.01 0.927 1.457 5.285 1.457 1.033 0 2.188-0.083 3.432-0.244l0.038-0.01 0.037 0c0.057 0 1.385 0.064 1.972 0.994 0.363 0.576 0.352 1.316-0.032 2.2l-0.039 0.09-0.073 0.066c-0.205 0.182-4.854 4.265-11.935 6.077 0.064 0.102 0.104 0.216 0.119 0.339l0.006 0.052-0.004 0.051c-0.006 0.05-0.583 4.987-5.52 4.988-0.005 0-0.009 0-0.015 0l-3.4 3.602-1.004-0.575c-2.801-1.433-5.605-2.166-8.314-2.166-7.064 0-11.313 5.003-11.355 5.054l-0.219 0.266-0.313-0.145c-1.348-0.62-2.72-0.936-4.079-0.936-6.291 0-10.664 6.684-10.708 6.751l-0.755 1.174-0.261-5.206c-1.502-1.574-4.489-7.842-6.48-12.952l-0.242-0.62 0.4 0c-1.823-3.445-3.316-4.923-3.333-4.938l-0.052-0.051-0.034-0.065c-0.188-0.365-0.084-0.634-0.007-0.762 0.243-0.398 0.809-0.45 1.273-0.45 1.352 0 3.621 0.543 4.063 0.651 1.899-0.155 3.327-0.861 4.245-2.103 1.966-2.65 1.041-6.898 1.032-6.94l-0.03-0.131 0.048-0.126c1.746-4.615-3.065-6.718-3.271-6.807l-0.285-0.121 0.011-0.309c0.102-2.66-5.04-5.785-7.028-6.765-0.162-0.08-0.322-0.117-0.488-0.117-2.098 0-4.603 5.976-5.948 9.186-0.797 1.901-1.229 2.91-1.583 3.253-0.247 0.239-0.513 0.362-0.791 0.362-1.061 0-1.578-1.771-1.722-2.371-4.413-11.051-13.75-12.703-18.926-12.703-0.427 0-0.812 0.012-1.147 0.029 13.305 7.545 17.342 21.564 17.368 21.703 0.08 0.436 0.962 1.171 1.534 1.53 4.718 3.013 5.359 4.584 5.371 5.199 0.32 0.686 0.571 1.602 0.747 2.729l0.395 0-0.158 0.563c-1.717 6.106-1.178 15.372-1.125 16.214l0.379 1.056 0.423 0.302 0 1.489 0.264 0.265 0.233 1.163 0.631 0.316 0.018 0.257c0.006 0.091 0.029 0.205 0.055 0.28 0.501 0.048 0.75 0.622 0.846 0.921 1.129 1.348 2.55 7.282 3.088 9.678 0.787-1.422 1.127-4.176 1.197-5.295l0.092-1.475 0.744 1.277c2.97 5.096 5.917 6.178 7.447 6.361-0.939-1.076-1.403-2.012-1.379-2.794 0.019-0.598 0.318-0.888 0.378-0.939l0.292-0.252 0.293 0.25c2.42 2.06 5.082 2.493 6.89 2.493 0.908 0 1.669-0.109 2.212-0.227-0.577-0.381-1.1-0.896-1.09-1.194l0.015-0.433 0.545 0 0.064 0.028c0.314 0.049 1.992 0.077 3.485 0.077l0.539 0-0.098 0.53c-0.331 1.779-0.106 4.443 0.124 6.188 0.456-0.929 1.049-1.838 1.229-2.109l0.78 0.44c-0.446 0.952 0.117 4.996 0.801 5.766 0.829 0.934 2.221 6.385 2.492 7.467l0.013 0.094c0.033 0.973 0.151 3.147 0.288 5.663 0.366 6.751 0.636 11.979 0.504 12.769-0.121 0.717-0.373 1.46-0.569 1.967z" id="path1191" fill="#231f20"/></g></g><g id="g1193"><g id="g1195"><g id="g1197"><path d="m260.722 1265.177c0 0 1.15-7.097 1.97-8.691 0 0-0.84 10.528 0 11.015 0.841 0.487 1.021 3.54 1.021 3.54l1.218-9.59c0 0 0.857 14.765 0.735 16.336" id="path1199" fill="#c6c070"/></g></g><g id="g1201"><g id="g1203"><g id="g1205"><path d="m315.645 1295.86c0.138-0.067 0.259-0.183 0.368-0.325-0.454 0.307-0.668 0.477-0.368 0.325z" id="path1207" fill="#c6c070"/></g></g><g id="g1209"><g id="g1211"><path d="m348.046 1303.836c-0.697-7.577 2.345-9.969 2.345-9.969 0 0-5.334 2.021-6.929 6.314 0 0-2.791-3.225-2.393-3.723 0.399-0.498 0.399-0.498 0.399-0.498 0 0-3.53-3.344-2.892-4.485l-0.076-0.948c0 0-3.662-3.438-3.325-3.664 0.337-0.223 3.411-5.134 4.066-5.232 0.654-0.099 1.978-0.264 3.124-0.207 1.146 0.058 1.744-0.353 1.744-0.353l-12.099-2.501c-1.45-1.542-7.075-2.088-7.075-2.088-8.559 9.131-23.873 1.792-23.873 1.792 0 0 8.007 7.916 17.179 5.823 0 0-1.994 2.194-3.19 2.593-1.196 0.399 3.121 1.494 6.446-1.794 0 0-5.256 6.958-5.852 7.217-0.594 0.259 1.201 0.521 1.201 0.521 0 0-0.155 2.022-0.833 2.901 1.045-0.703 3.367-2.137 3.636-2.067 0.387 0.101 1.284-0.198 1.633 0l1.473 1.028c0.303-0.299 0.596-0.546 0.87-0.729 2.084-1.39 4.021-3.657 5.005-4.904 0.428-0.543 0.676-0.895 0.676-0.895 0.313-0.486 0.737-0.023 1.2 0.953 1.451 3.066 3.286 11.225 3.286 11.225 0 0 1.595 0.498 1.496 0.2-0.1-0.3 0.697-1.196 0.697-1.196 7.577 10.568 12.361 11.564 13.457 11.464 0.284-0.025 0.676-0.2 1.099-0.441-2.053-2.61-2.495-6.337-2.495-6.337z" id="path1213" fill="#c6c070"/></g></g></g><g id="g1215"><g id="g1217"><path d="m324.935 1276.482c0 0-1.676-2.404-1.493-3.127 0.183-0.721 4.451 3.586 7.151 3.127 0 0 14.119 1.836 14.491 2.482 0.371 0.647-0.975 2.106-0.975 2.106 0 0-17.366-2.633-19.174-4.588z" id="path1219" fill="#c6c070"/></g></g><g id="g1221"><g id="g1223"><path d="m327.627 1271.04c0 0 7.86 3.985 11.846 3.139 0 0-10.334-2.741-11.846-3.139z" id="path1225" fill="#c6c070"/></g></g><g id="g1227"><g id="g1229"><path d="m341.169 1273.355c0 0-5.267-1.357-7.12-5.924 0 0.001 5.524 5.252 7.12 5.924z" id="path1231" fill="#c6c070"/></g></g><g id="g1233"><g id="g1235"><path d="m339.473 1271.04-3.042-7.077-0.299 0c0.001 0 1.349 5.482 3.341 7.077z" id="path1237" fill="#c6c070"/></g></g><g id="g1239"><g id="g1241"><path d="m268.497 1269.126c0 0 2.03 6.001 3.059 6l1.128-2.457c0 0 0.598 4.408 1.396 4.504 0.797 0.097 2.542 3.935 2.542 3.935 0 0-9.82-3.032-8.125-11.982z" id="path1243" fill="#c6c070"/></g></g><g id="g1245"><g id="g1247"><path d="m273.781 1269.307c0 0 2.904 10.904 10.474 10.208l1.133-0.302-2.137-2.04 2.991 0.939 2.99-7.718c0 0-13.026-0.594-13.026-3.259 0 0-0.505 1.511-0.456 2.171 0.05 0.662-0.835-4.386-0.835-4.386l-0.449 4.524-0.896-2.28 0.211 2.143z" id="path1249" fill="#c6c070"/></g></g><g id="g1251"><g id="g1253"><path d="m294.814 1284.995c0 0-0.731 5.482-0.564 5.981 0.166 0.499 1.761 3.289 1.761 3.289l0 4.585c0 0 0 11.564 2.044 12.662l0-10.169 1.034-4.894-1.667-2.899-1.866-4.869-0.742-3.686z" id="path1255" fill="#c6c070"/></g></g><g id="g1257"><g id="g1259"><path d="m298.79 1274.179c0 0 4.947-4.435 5.344-4.733 0.4-0.301-0.547-0.799-0.547-0.799l3.444-3.29c0 0-0.255-1.123-0.504-0.886l-5.856 4.975 1.644 0-3.388 4.359c0 0-0.425 0.35-0.137 0.374z" id="path1261" fill="#f3efcd"/></g></g><g id="g1263"><g id="g1265"><path d="m303.837 1291.373c0 0 3.101-3.437 3.194-4.234 0.095-0.798 0.892 1.494 1.44 1.794 0.548 0.299 2.791 1.845 3.489 1.694 0.698-0.149-1.745 1.919-3.14 2.007-1.396 0.087-0.598-0.91-0.299-0.961 0.299-0.049-4.087 0.2-4.684-0.3z" id="path1267" fill="#f3efcd"/></g></g><g id="g1269"><g id="g1271"><path d="m312.409 1293.551-1.745 1.275c0.15 0.088 2.741 0.212 2.841 0" id="path1273" fill="#f3efcd"/></g></g><g id="g1275"><g id="g1277"><path d="m347.181 1241.283c0 0-0.53-3.669-1.926-4.525l0 3.938 1.926 0.587z" id="path1279" fill="#c6c070"/></g></g><g id="g1281"><g id="g1283"><path d="m346.808 1230.039c0 0 0.881 5.129 1.385 5.459 0.504 0.328-2.306-0.646-2.306-0.646l0.921-4.813z" id="path1285" fill="#c6c070"/></g></g><g id="g1287"><g id="g1289"><path d="m269.506 1247.302-2.281-3.994c0.415 6.205 2.13 17.243 8.979 21.163l0-2.901c0.001-0.001-3.946-7.813-6.698-14.268z" id="path1291" fill="#c6c070"/></g></g></g><g id="g1293"><g id="g1295"><path d="m313.71 1231.712-0.263-1.012c-0.116 0.037-0.233 0.084-0.349 0.134 0.144 0.403 0.342 0.73 0.612 0.878z" id="path1297" fill="#eeec81"/></g><g id="g1299"><path d="m314.406 1232.602-0.91-0.495c-0.349-0.191-0.618-0.558-0.819-1.119l-0.141-0.392 0.379-0.17c0.134-0.061 0.267-0.111 0.394-0.153l0.453-0.146 0.644 2.475z" id="path1301" fill="#231f20"/></g></g><g id="g1303"><g id="g1305"><path d="m312.966 1230.389c0.038 0.154 0.082 0.306 0.132 0.445 0.116-0.05 0.233-0.097 0.349-0.134l-0.252-0.97-0.229 0.659z" id="path1307" fill="#eeec81"/></g><g id="g1309"><path d="m312.839 1231.443-0.163-0.456c-0.055-0.153-0.104-0.318-0.146-0.493l-0.032-0.129 0.761-2.174 0.729 2.805-0.402 0.131c-0.101 0.032-0.202 0.073-0.304 0.118l-0.443 0.198z" id="path1311" fill="#231f20"/></g></g><g id="g1313"><g id="g1315"><path d="m332.797 1232.281c-0.407-0.788-0.916-1.25-1.525-1.596-0.171-0.276-0.443-0.503-0.833-0.614-0.374-0.106-0.742-0.162-1.103-0.173-0.201-0.038-0.385-0.03-0.552 0.016-1.121 0.114-2.13 0.694-2.863 1.715-0.232 0.321-0.478 0.707-0.692 1.123-0.273 0.387-0.541 0.78-0.849 1.159-1.974 2.431 1.046 4.099 3.24 4.383 2.261 0.292 5.439 0.292 5.776-2.632 0.127-1.102-0.092-2.396-0.599-3.381z" id="path1317" fill="#fff"/></g></g><g id="g1319"><g id="g1321"><path d="m321.1 1229.179c-0.098-0.608-0.31-1.234-0.671-1.752-0.455-1.063-1.382-1.968-2.652-1.626-0.013 0.01-0.024 0.01-0.038 0.014-0.095 0.02-0.184 0.047-0.27 0.085-0.201 0.051-0.392 0.141-0.578 0.23-0.009 0-0.018 0.01-0.027 0.015-0.262 0.112-0.492 0.256-0.692 0.44-1.068 0.608-1.921 1.736-2.367 2.918-0.113 0.297-0.117 0.563-0.051 0.795 0.009 0.078 0.026 0.159 0.051 0.237 0.169 0.517 0.46 0.982 0.9 1.319 0.112 0.085 0.226 0.165 0.342 0.241 0.536 0.494 1.232 0.853 1.879 1.099 1.266 0.479 2.766-0.087 3.728-0.925 0.836-0.729 0.6-2.135 0.446-3.09z" id="path1323" fill="#fff"/></g></g><g id="g1325"><g id="g1327"><path d="m330.452 1221.793c0 0 0.4 0.997 1.396 0.997 0.997 0 6.031-0.398 5.683 5.583 0 0 0.049 2.594 0.548 2.692 0.498 0.1 0.697-0.848 0.697-0.848 0 0 0.897-7.228-2.591-8.025-3.49-0.796-5.931-0.742-5.733-0.399z" id="path1329" fill="#231f20"/></g><g id="g1331"><path d="m338.15 1231.372 0 0c-0.042 0-0.085-0.01-0.13-0.014-0.488-0.098-0.753-1.1-0.789-2.979 0.103-1.778-0.266-3.115-1.096-3.996-0.824-0.874-2.062-1.3-3.783-1.3-0.121 0-0.229 0-0.32 0-0.071 0.001-0.133 0-0.185 0-1.122 0-1.602-1.022-1.666-1.17-0.056-0.112-0.053-0.24 0.009-0.348 0.089-0.153 0.27-0.318 1.296-0.318 0.583 0 2.215 0.064 4.763 0.646 3.709 0.849 2.86 8.046 2.823 8.353-0.027 0.138-0.253 1.119-0.922 1.119zm-5.798-8.886c1.867 0 3.286 0.5 4.217 1.486 0.948 1.005 1.372 2.492 1.259 4.418 0.021 1.064 0.177 2.151 0.339 2.38 0.1-0.031 0.256-0.331 0.316-0.614 0.004-0.045 0.82-6.943-2.366-7.672-1.728-0.395-3.458-0.629-4.631-0.629-0.315 0-0.518 0.016-0.645 0.035 0.155 0.241 0.476 0.602 1.005 0.602l0.174 0c0.096 0 0.208 0 0.332 0z" id="path1333" fill="#231f20"/></g></g><g id="g1335"><g id="g1337"><path d="m324.621 1225.271c-1.247 1.034-3.055 0.311-3.055 0.311-1.612-1.493-2.894-2.398-3.868-2.946 0.164-0.086 0.26-0.204 0.148-0.292-0.409-0.318-0.823-0.44-1.339-0.361-0.076 0.011-0.15 0.027-0.222 0.048-0.312 0-0.623 0.018-0.93 0.074-0.339 0.063-0.909 0.211-1.05 0.583-0.056 0.038-0.09 0.078-0.086 0.12 0.065 0.525 0.23 0.754 0.777 0.702 0.257-0.022 0.557-0.109 0.776-0.252 0.064-0.041 0.209-0.126 0.236-0.127 0.276 0 0.566 0.091 0.829 0.169 0.039 0.011 0.101 0.01 0.174-0.01 0.573 0.341 1.28 1.393 1.28 1.393 4.038 3.889 6.53 1.147 6.581 0.896 0.047-0.248-0.251-0.311-0.251-0.311z" id="path1339" fill="#231f20"/></g></g><g id="g1341"><g id="g1343"><path d="m321.83 1248.115c-0.038-0.293-0.399-0.466-0.927-0.563-1.622 0.344-3.354 0.552-5.174 0.559-0.43 1.98 0.917 4.485 0.917 4.485l-0.096 0.103c4.782 0.139 5.28-4.584 5.28-4.584z" id="path1345" fill="#ec1c24"/></g><g id="g1347"><path d="m316.756 1253 0 0c-0.07 0-0.142-0.001-0.214 0l-0.667-0.02 0.409-0.432c-0.313-0.645-1.229-2.737-0.847-4.498l0.051-0.234 0.241 0c1.688-0.01 3.41-0.192 5.113-0.553l0.058-0.012 0.057 0.011c0.27 0.048 1.09 0.199 1.169 0.819l0.005 0.033-0.004 0.034c-0.005 0.051-0.567 4.856-5.371 4.856zm-0.776-4.591c-0.234 1.653 0.721 3.64 0.9 3.992 3.956-0.076 4.579-3.778 4.646-4.269-0.033-0.072-0.191-0.19-0.619-0.275-1.64 0.343-3.296 0.53-4.927 0.552z" id="path1349" fill="#231f20"/></g></g><g id="g1351"><g id="g1353"><path d="m333.452 1235.662c0.126-1.103-0.092-2.396-0.598-3.381-0.064-0.125-0.131-0.237-0.2-0.346-0.39-0.143-0.809-0.224-1.248-0.224-2.048 0-3.708 1.689-3.708 3.775 0 1.179 0.531 2.232 1.362 2.925 1.998 0.068 4.121-0.386 4.392-2.749z" id="path1355" fill="#3b98b1"/></g></g><g id="g1357"><g id="g1359"><path d="m320.859 1232.33c0.889-0.741 0.637-2.167 0.474-3.134-0.07-0.413-0.199-0.83-0.388-1.222-1.958 0.259-3.467 1.854-3.467 3.789 0 0.603 0.15 1.17 0.41 1.68 1.081 0.018 2.191-0.466 2.971-1.113z" id="path1361" fill="#3b98b1"/></g></g><g id="g1363"><g id="g1365"><path d="m313.995 1228.822c0 0 3.788-4.785 6.081-1.495 0 0 1.445 2.642 1.445 3.389 0 0.747 0.998-5.134-3.763-5.283 0 0-2.667 0.298-3.763 3.389z" id="path1367" fill="#231f20"/></g></g><g id="g1369"><g id="g1371"><path d="m331.073 1228.633c-3.005-1.794-5.872 3.189-6.104 4.036 0 0 0.035-0.049 0.102-0.136-0.067 0.14-0.114 0.252-0.137 0.33 0 0 4.038-5.493 6.979-2.086 0 0 1.447 1.678 1.515 2.926 0 0 0.033-0.144 0.05-0.387 0.009-0.037 0.584-2.901-2.405-4.683z" id="path1373" fill="#c6c070"/></g></g><g id="g1375"><g id="g1377"><path d="m321.503 1230.659c-0.14-0.047-0.286-0.078-0.441-0.078-0.773 0-1.4 0.626-1.4 1.401 0 0.364 0.143 0.693 0.372 0.942 0.319-0.171 0.614-0.373 0.871-0.596 0.469-0.41 0.601-1.032 0.598-1.669z" id="path1379"/></g></g><g id="g1381"><g id="g1383"><circle cx="331.55399" cy="1235.954" r="1.4" id="circle1385" fill="#231f20"/></g></g><g id="g1387"><g id="g1389"><path d="m316.457 1246.487c-0.133 0-0.269 0-0.406-0.01-0.722-0.015-1.408-0.07-2.096-0.167l-0.078-0.021c-0.04-0.017-0.994-0.437-1.3-1.393-0.203-0.632-0.077-1.33 0.375-2.077 0.553-0.915 0.91-1.322 1.146-1.59 0.284-0.325 0.306-0.353 0.306-0.995 0-1.185-0.256-1.666-0.259-1.672l-0.047-0.08 0.009-0.093c0.029-0.35 0.248-0.723 0.657-0.723 0.075 0 0.153 0.012 0.234 0.04 0.072 0.023 0.182 0.079 0.446 0.216 0.951 0.49 3.478 1.79 6.577 2.477 2.232 0.494 4.342 0.574 6.239 0.238l0.771-0.138-0.485 0.616c-0.044 0.055-4.308 5.369-12.089 5.369zm-2.377-0.759c0.651 0.09 1.302 0.141 1.985 0.155 6.156 0.142 10.08-3.146 11.457-4.532-1.752 0.199-3.646 0.075-5.632-0.364-3.175-0.703-5.751-2.029-6.722-2.529-0.16-0.081-0.323-0.166-0.363-0.181-0.024-0.01-0.039-0.01-0.043-0.01-0.014 0.012-0.035 0.06-0.047 0.108 0.096 0.225 0.286 0.803 0.286 1.861 0 0.833-0.094 0.976-0.456 1.388-0.222 0.254-0.556 0.637-1.083 1.508-0.358 0.592-0.465 1.125-0.317 1.584 0.197 0.615 0.79 0.94 0.935 1.011z" id="path1391" fill="#231f20"/></g></g><g id="g1393"><g id="g1395"><g id="g1397"><path d="m332.247 1238.741c-7.851 1.022-9.171-1.446-9.171-1.446-0.822-0.598-0.473-3.538-0.448-3.688 0.026-0.149-0.398-0.674-0.698-0.523-0.298 0.149-4.435 0.1-5.034 0.175-0.597 0.074-1.271-1.644-2.242-2.468-0.471-0.397-1.237-0.146-1.904 0.217l-0.09 0.257 0.1 2.293c0 0-3.688 1.595-4.387 1.494-0.697-0.1-0.597 1.696-0.597 1.696 3.488 0.299 4.186 1.196 4.186 1.196 2.293 0.897 0 5.184 0 5.184-2.599 2.15 2.534 4.38 3.598 4.809 0.12 0.05 0.19 0.076 0.19 0.076-0.009 0.032-0.012 0.066-0.02 0.099 1.82-0.01 3.552-0.215 5.174-0.559 7.702-1.628 12.889-6.244 12.889-6.244 1.07-2.467-1.546-2.568-1.546-2.568z" id="path1399" fill="#f0a622"/></g><g id="g1401"><path d="m315.357 1248.411 0.047-0.214c-1.284-0.522-4.189-1.876-4.45-3.555-0.096-0.614 0.163-1.187 0.767-1.705 0.188-0.369 1.325-2.688 0.844-3.996-0.128-0.346-0.361-0.581-0.714-0.719l-0.077-0.03-0.05-0.064c-0.002 0-0.736-0.805-3.977-1.082l-0.259-0.022-0.014-0.259c-0.012-0.224-0.053-1.356 0.375-1.809 0.15-0.159 0.341-0.232 0.565-0.199l0 0c0.58 0 2.657-0.804 4.036-1.392l-0.094-2.145 0.147-0.422 0.102-0.053c0.99-0.539 1.753-0.596 2.24-0.184 0.459 0.389 0.844 0.948 1.184 1.44 0.247 0.359 0.661 0.959 0.827 0.959 0.261-0.032 1.073-0.041 2.014-0.053 1.081-0.014 2.716-0.033 2.947-0.103 0.056-0.028 0.139-0.048 0.227-0.048 0.321 0 0.576 0.26 0.669 0.371 0.113 0.135 0.241 0.335 0.208 0.527-0.11 0.68-0.224 2.994 0.331 3.396l0.055 0.04 0.033 0.061c0.006 0.012 0.939 1.536 5.416 1.536 1.039 0 2.201-0.082 3.452-0.245l0.026 0 0.024 0c0.053 0.001 1.307 0.059 1.851 0.922 0.333 0.533 0.32 1.227-0.043 2.062l-0.025 0.062-0.049 0.043c-0.052 0.047-5.335 4.688-13.025 6.314-1.744 0.367-3.505 0.559-5.235 0.564l-0.375 0zm-3.223-10.719c0.479 0.204 0.812 0.556 0.992 1.044 0.615 1.665-0.839 4.416-0.901 4.532l-0.028 0.053-0.046 0.036c-0.471 0.391-0.67 0.78-0.606 1.192 0.178 1.141 2.333 2.388 4.125 3.11 0.114 0.045 0.181 0.07 0.183 0.072l0.207 0.076c1.583-0.027 3.19-0.211 4.783-0.549 7.145-1.509 12.154-5.664 12.701-6.132 0.255-0.614 0.274-1.1 0.059-1.443-0.342-0.542-1.2-0.632-1.346-0.643-1.265 0.164-2.443 0.246-3.5 0.246-4.443 0-5.683-1.462-5.906-1.79-0.885-0.748-0.579-3.467-0.526-3.886-0.046-0.094-0.208-0.252-0.281-0.256-0.175 0.092-0.771 0.121-3.167 0.15-0.883 0.011-1.718 0.021-1.944 0.049-0.025 0-0.05 0-0.076 0-0.48 0-0.85-0.538-1.319-1.218-0.318-0.462-0.68-0.986-1.078-1.322-0.271-0.231-0.788-0.155-1.467 0.196l-0.032 0.093 0.106 2.44-0.19 0.081c-0.361 0.157-3.551 1.524-4.433 1.524l0 0c-0.042 0-0.081 0-0.114-0.01-0.019 0-0.026 0-0.046 0.019-0.151 0.16-0.212 0.683-0.217 1.106 2.889 0.287 3.828 0.986 4.067 1.221z" id="path1403" fill="#231f20"/></g></g><g id="g1405"><g id="g1407"><path d="m321.341 1235.751c0 0 0.223 2.143 0.311 2.417 0.088 0.275-0.386 0.226-0.486 0.248-0.1 0.027-0.823-2.441-0.573-2.665 0.249-0.226 0.726-0.195 0.748 0z" id="path1409" fill="#231f20"/></g></g><g id="g1411"><g id="g1413"><path d="m323.441 1236.594c0.647 2.692 3.041 2.543 5.333 2.344 1.097-0.102 2.741-0.349 3.838-0.051 1.097 0.3 1.295 1.446 1.346 2.394 0.797-0.749 0.697-2.292-0.348-2.892-0.948-0.549-2.443-0.349-3.491-0.199-1.396 0.199-2.591 0.448-3.887-0.05-0.448-0.149-0.997-0.199-1.396-0.398-0.398-0.2-1.096-1.297-1.346-1.147" id="path1415" fill="#231f20"/></g></g><g id="g1417"><g id="g1419"><path d="m321.955 1240.695c-3.824-0.849-6.758-2.603-7.053-2.701-0.449-0.15-0.5 0.423-0.5 0.423 0 0 0.3 0.523 0.3 1.82 0 1.295-0.199 0.598-1.496 2.741-1.296 2.143 0.789 3.04 0.789 3.04 0.714 0.099 1.399 0.149 2.063 0.164 0.145-1.293 1.049-3.99 5.897-5.487z" id="path1421" fill="#462b38"/></g></g><g id="g1423"><g id="g1425"><path d="m321.955 1240.695c-4.848 1.497-5.752 4.193-5.897 5.487 7.982 0.185 12.251-5.248 12.251-5.248-2.195 0.392-4.392 0.195-6.354-0.239z" id="path1427" fill="#be6a5d"/></g></g><g id="g1429"><g id="g1431"><path d="m316.457 1246.487c-0.133 0-0.269 0-0.406-0.01-0.722-0.015-1.408-0.07-2.096-0.167l-0.078-0.021c-0.04-0.017-0.994-0.437-1.3-1.393-0.203-0.632-0.077-1.33 0.375-2.077 0.553-0.915 0.91-1.322 1.146-1.59 0.284-0.325 0.306-0.353 0.306-0.995 0-1.185-0.256-1.666-0.259-1.672l-0.047-0.08 0.009-0.093c0.029-0.35 0.248-0.723 0.657-0.723 0.075 0 0.153 0.012 0.234 0.04 0.072 0.023 0.182 0.079 0.446 0.216 0.951 0.49 3.478 1.79 6.577 2.477 2.232 0.494 4.342 0.574 6.239 0.238l0.771-0.138-0.485 0.616c-0.044 0.055-4.308 5.369-12.089 5.369zm-2.377-0.759c0.651 0.09 1.302 0.141 1.985 0.155 6.156 0.142 10.08-3.146 11.457-4.532-1.752 0.199-3.646 0.075-5.632-0.364-3.175-0.703-5.751-2.029-6.722-2.529-0.16-0.081-0.323-0.166-0.363-0.181-0.024-0.01-0.039-0.01-0.043-0.01-0.014 0.012-0.035 0.06-0.047 0.108 0.096 0.225 0.286 0.803 0.286 1.861 0 0.833-0.094 0.976-0.456 1.388-0.222 0.254-0.556 0.637-1.083 1.508-0.358 0.592-0.465 1.125-0.317 1.584 0.197 0.615 0.79 0.94 0.935 1.011z" id="path1433" fill="#231f20"/></g></g><g id="g1435"><g id="g1437"><path d="m326.484 1241.392c-3.489 0-9.279-1.117-10.945-2.761-1.781-1.759-7.512-1.57-7.569-1.568l-0.022-0.598c0.247-0.01 6.048-0.197 8.012 1.739 1.762 1.738 9.56 3.089 12.281 2.439l0.139 0.581c-0.478 0.116-1.132 0.168-1.896 0.168z" id="path1439" fill="#231f20"/></g></g><g id="g1441"><g id="g1443"><path d="m308.072 1235.46c-0.001 0-0.002 0-0.003 0l0.001-0.599c0 0 0 0 0 0 0.026 0 2.212-0.011 4.326-0.987 2.241-1.035 7.849-0.991 8.086-0.991l2.023 0.142-0.042 0.597-2.006-0.141c-0.002 0-0.04 0-0.108 0-0.797 0-5.75 0.035-7.702 0.937-2.222 1.026-4.447 1.042-4.575 1.042z" id="path1445" fill="#231f20"/></g></g></g><g id="g1447"><g id="g1449"><path stroke-miterlimit="10" d="M320.909 1232.973" id="path1451" style="fill:#eeec81;stroke:#ede836"/></g></g><g id="g1453"><g id="g1455"><path d="m323.741 1226.475c-0.058-0.36-0.3 0.113-0.3 0.113 0.341 1.447-0.641 3.228-1.632 4.574 0.01-0.78-0.026-1.678-0.239-1.893-0.23-0.235-0.099 1.422-0.326 2.615-0.087 0.106-0.171 0.207-0.254 0.303l-0.984 0.709c0.01 0.013 0.023 0.021 0.037 0.031-0.003 0-0.01 0-0.01 0 0.006 0.01 0.012 0.01 0.018 0.01 0.013 0.01 0.027 0.015 0.042 0.019 0.052 0.024 0.101 0.043 0.15 0.058-0.108 0.111-0.172 0.172-0.172 0.172l1.029-0.257c0.153-0.109 0.294-0.221 0.431-0.336 0.078-0.058 0.155-0.121 0.228-0.194l0 0c2.757-2.517 1.982-5.916 1.982-5.916z" id="path1457" fill="#231f20"/></g></g><g id="g1459"><g id="g1461"><path d="m324.262 1233.906c0 0 4.236-5.582 7.477-2.243 0 0 1.594 1.645 1.694 2.891 0 0 0.647-2.891-2.591-4.685-3.24-1.795-6.33 3.19-6.58 4.037z" id="path1463" fill="#231f20"/></g></g><g id="g1465"><g id="g1467"><path d="m318.182 1254.9c-0.076 0-0.133-0.01-0.169-0.02l-0.214-0.264c-0.008-0.072 0.002-0.207 0.153-0.314 0.013-0.132-0.173-0.53-0.393-0.833l0.484-0.351c0.123 0.169 0.486 0.705 0.504 1.147 0.686-0.13 2.072-0.539 2.741-1.186l0.416 0.43c-0.919 0.89-2.871 1.391-3.522 1.391z" id="path1469" fill="#231f20"/></g></g><g id="g1471"><g id="g1473"><g id="g1475"><path d="m263.923 1269.445c-0.499-0.797-1.496-9.072-1.496-7.876 0 0.709-1.088 2.613-1.973 4.043l0.061 0.043 0 1.446 0.299 0.299 0.25 1.246 0.598 0.3c0 0 0.049 0.746 0.398 0.696 0.349-0.048 0.548 0.699 0.548 0.699 0.665 0.664 1.501 3.397 2.161 5.904 0.549-2.848-0.456-6.175-0.846-6.8z" id="path1477" fill="#231f20"/></g></g><g id="g1479"><g id="g1481"><path d="m344.993 1242.755c-1.515 2.911-6.661 7.413-8.86 9.26 4.741-1.124 8.906-6.093 9.166-6.894 0.273-0.848 0.847-0.447 0.847-0.447 0.35 0.149 0.449 1.743 0.449 1.743 0.222-0.255 0.414-0.522 0.587-0.797-0.086-1.869-0.992-2.085-0.992-2.865-0.001-0.899-1.197 0-1.197 0z" id="path1483" fill="#231f20"/></g></g><g id="g1485"><g id="g1487"><path d="m323.436 1267.873c0 0 3.539-11.811 18.192-3.438l-1.569 0.22 0 0.826c0 0 5.682 2.811 8.432 12.085 0.226 0.763 0.432 1.568 0.613 2.42 0 0 0.345-1.627 0.587-3.928-1.519-6.643-6.112-9.904-6.112-9.904-4.113-7.327-13.158-6.13-13.158-6.13-0.052-0.021-0.093-0.175-0.114-0.421-9.203 2.99-6.871 8.27-6.871 8.27z" id="path1489" fill="#231f20"/></g></g><g id="g1491"><g id="g1493"><path d="m350.31 1281.424-1.206-1.438 0.348-4.86c0 0 1.266 4.782 0.858 6.298z" id="path1495" fill="#231f20"/></g></g><g id="g1497"><g id="g1499"><path d="m347.011 1297.554c0 0 1.271-5.008 5.009-4.783 0 0 2.168-0.673 3.514-1.196 1.22-0.473 10.987-6.669 10.956-9.713-3.128 3.966-12.94 9.113-13.585 9.602-0.693 0.522-0.579-0.262-0.579-0.262 0.059-0.093 0.112-0.188 0.162-0.286-5.75 0.913-5.477 6.638-5.477 6.638z" id="path1501" fill="#231f20"/></g></g><g id="g1503"><g id="g1505"><path d="m346.514 1279.515c0 0 4.411 3.886 5.383 12.408 0 0 0.812-1.275 0.972-3.651-0.41-1.892-1.326-3.805-1.938-4.944-2.05-2.141-4.417-3.813-4.417-3.813z" id="path1507" fill="#231f20"/></g></g><g id="g1509"><g id="g1511"><path d="m294.029 1298.054c-0.5-5.882-3.29-10.085-3.29-10.085l0-8.454c-1.272 0-2.543 3.04-3.297 5.244 0.163 1.146 0.317 1.815 0.289 1.432-0.075-0.972 1.718-3.663 1.718-3.663-0.522 1.121 0.076 5.358 0.873 6.255 0.797 0.897 2.392 7.278 2.392 7.278 0.1 2.99 0.998 17.146 0.798 18.343-0.201 1.195-0.798 2.491-0.798 2.491l1.487 0-0.172-1.794c0 0 0.498-11.165 0-17.047z" id="path1513" fill="#231f20"/></g></g><g id="g1515"><g id="g1517"><path d="m354.487 1304.731c-0.1-0.197-0.647 0-0.647 0-0.49 1.885-3.229 4.649-4.536 5.888 0.047-0.001 0.092-0.001 0.131 0 1.096-0.101 3.787-2.394 3.787-2.394l-0.198 3.292c0.061-0.051 0.12-0.099 0.18-0.147 0.612-2.297 1.36-6.477 1.283-6.634z" id="path1519" fill="#231f20"/></g></g><g id="g1521"><g id="g1523"><path d="m274.689 1275.704c0 0 0.254 0.948 0.971 2.174 4.871 3.442 10.436 1.385 9.728 1.335 0 0-8.206-0.237-10.699-3.509z" id="path1525" fill="#231f20"/></g></g><g id="g1527"><g id="g1529"><path d="m267.512 1271.438c0 0-0.414-0.598-0.406-1.992 0.006-1.221 0.024 5.926-1.441 10.477 0.124 0.552 0.196 0.888 0.196 0.888 1.57-1.271 1.882-6.282 1.882-6.282 2.848 4.888 5.736 6.201 7.412 6.521-2.298-2.192-7.337-7.232-7.643-9.612z" id="path1531" fill="#231f20"/></g></g><g id="g1533"><g id="g1535"><path d="m333.853 1295.014c-0.599 0.674-1.197-6.205-3.589-8.15l0.748-1.719 0.448-1.679c0 0-0.075 0.259-1.943 2.352-1.87 2.094-3.987 4.263-5.483 5.009-1.496 0.748-8.772 6.431-9.371 18.69 0 0-4.685 5.187-4.486 6.681 0 0 3.489-4.585 4.087-4.484 0.384 0.063-0.219 1.615 0.841 5.182l1.732 0c-0.698-2.79-0.399-9.57-0.399-9.57-1.096-1.794 4.188-11.563 7.178-13.557 2.991-1.994 5.683-5.799 5.683-5.799 1.296-2.01 4.485 12.178 4.485 12.178 0 0 1.595 0.498 1.496 0.2-0.1-0.3 0.698-1.196 0.698-1.196 3.76 5.244 6.831 8.129 9.106 9.694-2.615-3.465-8.45-11.4-8.913-13.831 0 0-1.719-0.675-2.318 0z" id="path1537" fill="#231f20"/></g></g><g id="g1539"><g id="g1541"><path d="m292.316 1258.777c-8.873-4.086-15.353 5.981-15.353 5.981l-0.199-3.986c-1.669-1.51-5.805-10.55-7.619-15.978l-1.78-2.19c1.38 11.365 7.821 19.898 8.52 20.161 0.798 0.299 0 3.58 0 3.58l1.097 0c6.778-7.086 8.572-6.671 8.572-6.671 0.398-0.897 7.577 0 7.577 0-0.299-0.897 8.972-4.486 8.972-4.486 1.366-0.144 5.769-0.338 8.118-0.438-11.092-4.182-17.905 4.027-17.905 4.027z" id="path1543"/></g></g></g><g id="g1545"><g id="g1547"><path d="m288.663 1264.36c0 0 3.161-0.397 4.557-1.495 1.395-1.097 5.184-4.885 13.656-4.088 0 0 0.35 0.655 0 0.826-0.349 0.172-5.383-0.976-10.367 2.215 0 0-5.125 3.289-7.846 2.542z" id="path1549" fill="#231f20"/></g></g><g id="g1551"><g id="g1553"><path d="m305.63 1261.171c0 0 2.344 1.396 2.393 1.545 0.049 0.149 13.258-0.251 13.258-0.251l-0.2 0.284-12.809 0.564c0 0-3.09-1.844-2.642-2.142z" id="path1555" fill="#231f20"/></g></g><g id="g1557"><g id="g1559"><path d="m342.365 1292.634c0 0-6.581-5.432-6.528-9.633-0.001 0-1.199 5.022 6.528 9.633z" id="path1561" fill="#231f20"/></g></g><g id="g1563"><g id="g1565"><path d="m295.812 1282.677 0 5.292c0 0 2.467 5.699 2.915 6.297 0.45 0.598 0.524 3.814 0 5.234l-0.672 7.477 0-8.3 0-0.473 0-3.378-2.543-5.117 0.3-7.032z" id="path1567" fill="#231f20"/></g></g><g id="g1569"><g id="g1571"><path d="m287.441 1281.424 1.641-6.82-1.641 0c0 0 4.407-8.674 5.604-8.973 0 0 0.261-0.468 0-0.504-0.262-0.038-0.859 0.074-1.103 0.485-0.243 0.412-5.59 4.271-5.7 12.5l0.859 0 0.188 0 0.153 3.476" id="path1573" fill="#231f20"/></g></g><g id="g1575"><g id="g1577"><path d="m278.865 1268.597c0 0 4.958 0.97 5.383 0.71 0 0 0.049 0.139-0.125 0.237-0.174 0.099-4.811 0.422-5.258-0.872" id="path1579" fill="#231f20"/></g></g><g id="g1581"><g id="g1583"><g id="g1585"><path d="m383.895 1274.814c0.177 0.01 0.278 0.013 0.278 0.013-0.055-0.017-0.152-0.018-0.278-0.013z" id="path1587" fill="#231f20"/></g></g><g id="g1589"><g id="g1591"><path d="m392.906 1271.737c-0.452-3.014-7.969-1.301-12.256-0.413 1.75 0.094 4.188 0.144 5.841-0.16l4.487 0.232c0 0 0.522 0.141 0.522 0.814 0 0.672 1.496 11.064-6.878 7.625l-10.018-1.568c0 0-0.524-1.271 0.374-1.422 0.831-0.139 7.36-1.942 8.918-2.031-1.618-0.063-9.902-0.274-11.385 1.882 0 0-0.448 2.318 0 2.468 0.448 0.148 10.916 2.617 10.916 2.617 0 0 4.737 0.945 7.383-0.15 0.333 1.459-1.478 4.261-1.478 4.261-2.916 4.562-15.253-4.259-15.253-4.259 0 0-0.261 2.016 1.832 3.213 1.934 1.104 4.65 4.271 10.276 3.99l0 0c-1.2 2.385-5.417 2.397-7.359 1.949-1.944-0.449-4.759-6.578-4.759-6.578 0 0 0.055 0.816 0.139 1.816 0.79 1.226 1.651 3.553 1.651 3.553 4.535 5.645 10.27 0.21 11.069-0.6 0.063-0.062 0.095-0.098 0.095-0.098 0.22-0.053 0.425-0.117 0.623-0.188 4.561-1.582 3.466-6.891 3.466-6.891 0.237-0.149 0.445-0.343 0.632-0.565 0.193-0.229 0.364-0.492 0.51-0.784 0.034-0.067 0.065-0.135 0.096-0.203 0.014-0.03 0.03-0.058 0.042-0.088 1.302-3.04 0.514-8.426 0.514-8.426z" id="path1593" fill="#231f20"/></g></g><g id="g1595"><g id="g1597"><path d="m369.293 1273.706c0 0 0-0.563 0.262-0.599 0.232-0.033 9.162-13.049 6.999-21.346-1.151 11.256-7.358 19.286-7.847 19.775-0.599 0.599-0.524 2.468-0.524 2.468 0.108 3.158-0.146 4.9-0.44 5.863 1.043 1.521 1.551 3.233 1.551 3.233l0.026-0.699c0 0-0.2-4.585 0.499-5.681-0.001 0-0.078-2.415-0.526-3.014z" id="path1599" fill="#231f20"/></g></g></g><g id="g1601"><g id="g1603"><path d="m328.384 1240.287c0 0 1.022-0.049 0.655 0.816 0 0-0.133 0.109-0.169 0.177-0.038 0.065 0.075-0.894-0.71-0.869l0.224-0.124z" id="path1605" fill="#231f20"/></g></g><g id="g1607"><g id="g1609"><path d="m291.475 1276.396c0 0 4.037-0.521 6.58 2.021 2.542 2.54 14.597 5.341 19.747 2.631 5.149-2.706 5.748-2.918 6.271-3.262 0.523-0.344-6.43 2.2-9.645 2.725-3.214 0.522-11.962-1.122-13.083-2.094-0.001 0-8.151-4.188-9.87-2.021z" id="path1611" fill="#231f20"/></g><g id="g1613"><path d="m311.983 1282.305c-5.269 0-12.09-1.839-14.035-3.783-1.757-1.757-4.25-2.02-5.58-2.02-0.533 0-0.871 0.043-0.875 0.044l-0.365 0.045 0.229-0.286c0.358-0.452 0.986-0.681 1.866-0.681 2.979 0 7.976 2.551 8.188 2.659l0.029 0.02c0.924 0.801 7.584 2.158 11.453 2.158 0.6 0 1.108-0.034 1.51-0.1 2.023-0.33 5.593-1.482 7.727-2.17 1.375-0.444 1.829-0.587 1.955-0.587l0.111 0 0.047 0.111c0.013 0.044 0.017 0.126-0.09 0.195-0.25 0.164-0.518 0.3-1.233 0.662-0.854 0.433-2.285 1.153-5.049 2.608-1.419 0.749-3.4 1.125-5.888 1.125zm-19.615-6.102c1.376 0 3.958 0.273 5.792 2.107 1.71 1.709 8.121 3.696 13.823 3.696 2.405 0 4.393-0.376 5.748-1.089 2.768-1.454 4.199-2.179 5.054-2.612 0.019-0.01 0.038-0.02 0.056-0.028-0.194 0.063-0.403 0.131-0.618 0.198-2.141 0.692-5.726 1.848-7.771 2.182-0.418 0.066-0.942 0.102-1.558 0.102-3.714 0-10.528-1.3-11.633-2.218-0.31-0.156-5.208-2.618-8.036-2.618-0.561 0-1.002 0.099-1.316 0.29 0.129-0.01 0.284-0.01 0.459-0.01z" id="path1615" fill="#231f20"/></g></g><g id="g1617"><g id="g1619"><path d="m326.24 1276.321c0 0 8.897 2.919 17.869 3.89-0.001 0-14.355 1.27-17.869-3.89z" id="path1621" fill="#231f20"/></g></g><g id="g1623"><g id="g1625"><polygon points="299.807 1269.646 306.786 1264.292 306.967 1264.529 300.688 1269.346 302.82 1269.346 298.764 1273.978 298.539 1273.781 302.16 1269.646 " id="polygon1627" fill="#231f20"/></g></g><g id="g1629"><g id="g1631"><path d="m313.505 1294.826c0.1-0.211 0.199-1.01 0-1.01-0.199 0-1.096-0.266-1.096-0.266" id="path1633" fill="#f3efcd"/></g></g><g id="g1635"><g id="g1637"><path d="m349.186 1220.692 9.813-8.469 0.308-0.872c0 0-8.343 4.806-10.298 4.018-1.956-0.787-0.174-5.328-0.174-5.328 0 0-3.831 3.019-6.661 1.713-2.83-1.309 1.207-13.891 1.207-13.891 0 0-5.547 12.697-8.925 11.772-3.377-0.925-4.022-4.089-4.022-4.089 0 0-0.964 2.893-2.603 2.871-1.637-0.023-5.11-8.33-5.11-8.33l-0.417-0.146c0 0 1.014 10.52 1.166 12.293-0.002 0 19.582 3.194 25.716 8.458" id="path1639" fill="#fdce07"/></g></g><g id="g1641"><g id="g1643"><path d="m338.817 1214.261 2.22-8.533c0 0-1.059 4.949 0.392 6.395l-1.197 2.639-1.415-0.501z" id="path1645" fill="#f9a11b"/></g></g><g id="g1647"><g id="g1649"><path d="m346.728 1217.844 1.917-1.92c0 0 2.414 1.298 9.221-3.362l0.248 0.088-8.379 6.894-3.007-1.7z" id="path1651" fill="#f9a11b"/></g></g><g id="g1653"><g id="g1655"><path d="m323.789 1211.391c0 0-0.673-8.131-1.08-9.791 0 0 1.697 5.974 4.096 7.454 2.4 1.48 3.378-2.038 3.378-2.038l0.007 5.239c0 0-4.7-0.783-6.401-0.864" id="path1657" fill="#fdeb85"/></g></g><g id="g1659"><g id="g1661"><path d="m342.004 1201.118c0 0-2.492 8.024-7.351 9.012l-0.529 2.993c0 0 3.134 1.016 4.067 1.219 0 0 3.508-12.25 3.813-13.224" id="path1663" fill="#fdeb85"/></g></g><g id="g1665"><g id="g1667"><path d="m340.908 1215.097c0 0 1.324-2.396 1.502-2.599 0 0 3.392 0.355 5.44-1.471l-3.51 5.489c0 0.001-2.413-1.003-3.432-1.419" id="path1669" fill="#fdeb85"/></g></g><g id="g1671"><g id="g1673"><path d="m323.569 1200.348c-0.27 0.764-0.98 1.211-1.586 0.996-0.607-0.215-0.878-1.008-0.609-1.772 0.271-0.765 0.981-1.211 1.587-0.995 0.606 0.214 0.878 1.006 0.608 1.771" id="path1675" fill="#fdce07"/></g></g><g id="g1677"><g id="g1679"><path d="m322.218 1200.195c0.061-0.2 0.114-0.387 0.196-0.582 0.192-0.459-0.479-0.768-0.756-0.388-0.181 0.247-0.271 0.612-0.208 0.913 0.041 0.198 0.22 0.663 0.514 0.488 0.173-0.102 0.2-0.25 0.254-0.431" id="path1681" fill="#fdeb85"/></g></g><g id="g1683"><g id="g1685"><path d="m322.098 1199.792c0.005-0.039 0.006-0.046 0.003-0.021 0.009-0.021 0.015-0.043 0.02-0.067 0.014-0.071 0.033-0.133 0.01-0.205-0.045-0.142-0.146-0.212-0.295-0.199-0.346 0.029-0.51 0.646-0.212 0.829 0.108 0.066 0.22 0.059 0.321-0.015 0.052-0.037 0.083-0.083 0.107-0.14 0.031-0.073 0.037-0.113 0.046-0.182" id="path1687" fill="#fff"/></g></g><g id="g1689"><g id="g1691"><path d="m331.53 1205.935c-0.271 0.766-0.98 1.211-1.586 0.997-0.606-0.214-0.878-1.008-0.608-1.771 0.269-0.766 0.981-1.211 1.586-0.998 0.606 0.215 0.879 1.008 0.608 1.772" id="path1693" fill="#fdce07"/></g></g><g id="g1695"><g id="g1697"><path d="m330.342 1205.577c0.059-0.243 0.132-0.471 0.027-0.711-0.065-0.147-0.253-0.208-0.395-0.14-0.482 0.232-0.715 1.223-0.329 1.612 0.182 0.182 0.529 0.167 0.615-0.112 0.069-0.216 0.029-0.431 0.082-0.649" id="path1699" fill="#fdeb85"/></g></g><g id="g1701"><g id="g1703"><path d="m330.192 1205.479c0.008-0.085 0.013-0.168-0.003-0.255-0.024-0.137-0.179-0.211-0.302-0.151-0.236 0.109-0.352 0.448-0.237 0.683 0.11 0.223 0.405 0.183 0.499-0.027 0.035-0.077 0.036-0.166 0.043-0.25" id="path1705" fill="#fff"/></g></g><g id="g1707"><g id="g1709"><path d="m344.478 1198.251c-0.27 0.764-0.98 1.21-1.587 0.995-0.607-0.215-0.878-1.008-0.608-1.772 0.271-0.764 0.981-1.209 1.586-0.995 0.607 0.213 0.879 1.008 0.609 1.772" id="path1711" fill="#fdce07"/></g></g><g id="g1713"><g id="g1715"><path d="m343.35 1197.684c0.077-0.243 0.244-0.434 0.294-0.685 0.029-0.145-0.114-0.259-0.239-0.276-0.376-0.049-0.692 0.287-0.833 0.602-0.146 0.324-0.282 0.893 0.019 1.166 0.232 0.213 0.526 0.161 0.667-0.123 0.104-0.208 0.018-0.461 0.092-0.684" id="path1717" fill="#fdeb85"/></g></g><g id="g1719"><g id="g1721"><path d="m343.197 1197.516c0.061-0.174 0.083-0.39-0.124-0.476-0.36-0.148-0.701 0.484-0.529 0.761 0.095 0.152 0.313 0.246 0.464 0.099 0.114-0.111 0.138-0.241 0.189-0.384" id="path1723" fill="#fff"/></g></g><g id="g1725"><g id="g1727"><path d="m349.931 1210.43c-0.27 0.764-0.98 1.209-1.586 0.996-0.606-0.215-0.878-1.008-0.608-1.771 0.27-0.766 0.981-1.211 1.587-0.998 0.605 0.215 0.878 1.008 0.607 1.773" id="path1729" fill="#fdce07"/></g></g><g id="g1731"><g id="g1733"><path d="m348.787 1209.923c0.069-0.264 0.3-0.483 0.319-0.755 0.01-0.148-0.101-0.258-0.241-0.279-0.775-0.112-1.366 1.564-0.665 1.939 0.203 0.108 0.462 0.064 0.549-0.178 0.084-0.238-0.026-0.479 0.038-0.727" id="path1735" fill="#fdeb85"/></g></g><g id="g1737"><g id="g1739"><path d="m348.639 1209.727c0.005-0.021 0.01-0.043 0.017-0.063 0.005-0.023 0.01-0.048 0.014-0.071 0-0.021 0-0.037-0.001-0.048 0.025-0.16-0.129-0.355-0.302-0.25-0.035 0.021-0.106 0.045-0.157 0.099-0.059 0.061-0.112 0.12-0.148 0.199-0.073 0.16-0.096 0.308 0.012 0.46 0.047 0.069 0.162 0.109 0.243 0.085 0.154-0.042 0.229-0.14 0.284-0.282 0.006-0.023 0.047-0.17 0.038-0.129" id="path1741" fill="#fff"/></g></g><g id="g1743"><g id="g1745"><path d="m360.38 1211.807c-0.269 0.763-0.98 1.209-1.586 0.995-0.606-0.214-0.878-1.007-0.609-1.771 0.271-0.765 0.981-1.21 1.587-0.996 0.606 0.214 0.879 1.006 0.608 1.772" id="path1747" fill="#fdce07"/></g></g><g id="g1749"><g id="g1751"><path d="m359.667 1210.693c0.068-0.159-0.067-0.335-0.229-0.349-0.4-0.035-0.736 0.278-0.938 0.593-0.196 0.303-0.443 0.879-0.124 1.171 0.159 0.147 0.331 0.164 0.511 0.044 0.243-0.162 0.225-0.497 0.327-0.748 0.104-0.26 0.342-0.449 0.453-0.711" id="path1753" fill="#fdeb85"/></g></g><g id="g1755"><g id="g1757"><path d="m359.308 1210.754c-0.008-0.1-0.136-0.185-0.23-0.157-0.169 0.051-0.282 0.159-0.386 0.299-0.112 0.154-0.247 0.34-0.236 0.54 0.011 0.223 0.218 0.329 0.406 0.205 0.145-0.093 0.222-0.268 0.307-0.412 0.088-0.156 0.152-0.295 0.139-0.475" id="path1759" fill="#fff"/></g></g><g id="g1761"><g id="g1763"><path d="m323.288 1209.631c-0.003-0.01-0.006-0.011-0.008-0.018-0.037-0.075-0.131-0.107-0.207-0.072-0.006 0-0.01 0.01-0.016 0.01-0.136 0.064-0.125 0.269 0.017 0.319 0.142 0.05 0.279-0.101 0.214-0.237" id="path1765" fill="#fff"/></g></g><g id="g1767"><g id="g1769"><ellipse transform="matrix(0.3335,-0.9427,0.9427,0.3335,-920.517,1119.1802)" cx="331.30499" cy="1210.645" rx="1.029" ry="0.81699997" id="ellipse1771" fill="#ec1c24"/></g><g id="g1773"><path d="m331.183 1211.953 0 0c-0.11 0-0.218-0.019-0.321-0.056-0.289-0.102-0.518-0.343-0.626-0.662-0.104-0.298-0.096-0.64 0.017-0.962 0.198-0.56 0.67-0.937 1.174-0.937 0.11 0 0.218 0.02 0.321 0.056 0.289 0.102 0.517 0.343 0.626 0.661 0.104 0.297 0.097 0.64-0.016 0.963-0.198 0.56-0.67 0.937-1.175 0.937zm0.245-2.018c-0.244 0-0.501 0.228-0.611 0.538-0.068 0.193-0.073 0.4-0.015 0.568 0.028 0.085 0.101 0.235 0.26 0.291 0.267 0.096 0.604-0.15 0.733-0.515 0.067-0.193 0.073-0.4 0.016-0.568-0.029-0.086-0.102-0.235-0.261-0.294-0.04-0.013-0.081-0.02-0.122-0.02z" id="path1775" fill="#231f20"/></g></g><g id="g1777"><g id="g1779"><path d="m351.986 1218.698c-0.128 0.363-0.466 0.577-0.755 0.474-0.29-0.101-0.418-0.479-0.29-0.843 0.129-0.364 0.468-0.577 0.755-0.474 0.29 0.101 0.419 0.48 0.29 0.843" id="path1781" fill="#e46a26"/></g></g><g id="g1783"><g id="g1785"><path d="m351.897 1218.57c0.025-0.119 0.041-0.231-0.015-0.35-0.084-0.178-0.258-0.25-0.446-0.235-0.179 0.014-0.28 0.152-0.354 0.297-0.058 0.111-0.098 0.211-0.073 0.341 0.03 0.155 0.142 0.285 0.292 0.34 0.112 0.039 0.237 0.032 0.344-0.019 0.158-0.076 0.22-0.211 0.252-0.374" id="path1787" fill="#f69655"/></g></g><g id="g1789"><g id="g1791"><path d="m351.254 1218.187c-0.009 0.01-0.016 0.017-0.025 0.024-0.104 0.105-0.133 0.264-0.032 0.382 0.114 0.136 0.33 0.125 0.43-0.02 0.007-0.01 0.013-0.021 0.02-0.029 0.168-0.243-0.174-0.576-0.393-0.357" id="path1793" fill="#fff"/></g></g><g id="g1795"><g id="g1797"><path d="m323.538 1212.1-0.366 4.175 24.28 8.584 2.074-4.163c0-0.001-15.81-8.709-25.988-8.596" id="path1799" fill="#fdce07"/></g></g><g id="g1801"><g id="g1803"><path d="m322.832 1216.058 0.03 0.966c0 0 17.644 5.093 24.593 8.482l0.696-0.915c-0.001 0-10.91-5.025-25.319-8.533" id="path1805" fill="#fdea3f"/></g></g><g id="g1807"><g id="g1809"><path d="m323.198 1211.752 0.027 0.838c0 0 13.302 1.354 26.474 8.531l0.436-0.449c0 0-8.465-6.434-26.937-8.92" id="path1811" fill="#fdea3f"/></g></g><g id="g1813"><g id="g1815"><path d="m338.799 1215.51c-0.193-0.047-0.39-0.113-0.584-0.043-0.087 0.031-0.134 0.163-0.086 0.243 0.107 0.176 0.302 0.249 0.481 0.333 0.33 0.156 0.544-0.446 0.189-0.533" id="path1817" fill="#fff"/></g></g><g id="g1819"><g id="g1821"><path d="m325.063 1216.244c0 0 1.614-1.301 1.055-2.632 0 0 2.244 0.13 3.788 0.576 0 0-1.674 1.099-0.315 2.967 0 0-3.812-0.774-4.528-0.911" id="path1823" fill="#fdeb85"/></g></g><g id="g1825"><g id="g1827"><path d="m331.682 1214.749c0 0 0.599 1.938-0.821 2.855l3.411 1.205c0 0-1.302-2.257 0.966-3.225 0 0.001-2.744-0.853-3.556-0.835" id="path1829" fill="#fdeb85"/></g></g><g id="g1831"><g id="g1833"><path d="m337.972 1216.553c0 0 0.727 2.103-1.09 3.181 0 0 3.589 1.133 4.165 1.336 0 0-1.826-2.095 0.823-3.139 0 0-2.45-1.115-3.898-1.378" id="path1835" fill="#fdeb85"/></g></g><g id="g1837"><g id="g1839"><path d="m325.53 1214.923c-0.326 0.924-1.229 1.449-2.016 1.17-0.787-0.277-1.159-1.253-0.833-2.177 0.328-0.926 1.23-1.449 2.017-1.172 0.786 0.279 1.16 1.254 0.832 2.179" id="path1841" fill="#d3ac2a"/></g></g><g id="g1843"><g id="g1845"><path d="m324.478 1214.655c0-0.012 0-0.023 0.001-0.042-0.023 0.075-0.022 0.068 0.003-0.021 0.033-0.119 0.092-0.236 0.137-0.353 0.156-0.396 0.108-0.825-0.317-1.02-0.438-0.198-0.807 0.174-1.044 0.49-0.247 0.331-0.301 0.809-0.257 1.203 0.046 0.406 0.501 0.669 0.878 0.596 0.411-0.078 0.642-0.456 0.599-0.853" id="path1847" fill="#fdce07"/></g></g><g id="g1849"><g id="g1851"><path d="m324.093 1214.311c0.016-0.049 0.028-0.098 0.035-0.146 0-0.028 0.023-0.12-0.004-0.012 0.042-0.16 0.065-0.413-0.102-0.512-0.221-0.132-0.471-0.051-0.628 0.137-0.143 0.17-0.224 0.462-0.099 0.665 0.079 0.13 0.185 0.225 0.345 0.235 0.149 0.011 0.278-0.062 0.369-0.178 0.032-0.037 0.055-0.078 0.071-0.125 0.026-0.132 0.031-0.152 0.013-0.064" id="path1853" fill="#fdeb85"/></g></g><g id="g1855"><g id="g1857"><path d="m331.218 1216.058c-0.208 0.587-0.781 0.92-1.279 0.743-0.5-0.177-0.735-0.795-0.527-1.383 0.207-0.585 0.78-0.918 1.278-0.741 0.499 0.176 0.736 0.794 0.528 1.381" id="path1859" fill="#d3ac2a"/></g></g><g id="g1861"><g id="g1863"><path d="m330.714 1216.055c0.005-0.028 0.011-0.056 0.017-0.083 0.003-0.01 0.004-0.021 0.008-0.03 0-0.001 0 0 0 0 0 0 0-0.001 0 0 0.002-0.01 0.004-0.02 0.006-0.031-0.001 0-0.001 0.01-0.001 0.012 0.021-0.109 0.034-0.216 0.005-0.331-0.056-0.222-0.199-0.42-0.444-0.44-0.343-0.031-0.604 0.259-0.681 0.565-0.077 0.303 0.034 0.622 0.35 0.732 0.143 0.05 0.302 0.042 0.439-0.023 0.174-0.083 0.263-0.227 0.308-0.399-0.002 0.01-0.004 0.023-0.007 0.034" id="path1865" fill="#fdce07"/></g></g><g id="g1867"><g id="g1869"><path d="m330.288 1215.419c-0.03-0.025-0.091-0.051-0.133-0.05-0.002 0-0.004 0-0.007 0-0.114 0-0.256 0.059-0.283 0.187-0.003 0.01-0.004 0.019-0.006 0.028-0.033 0.147 0.013 0.298 0.168 0.353 0.155 0.056 0.285-0.033 0.352-0.169 0.004-0.01 0.009-0.016 0.013-0.024 0.059-0.119-0.018-0.252-0.104-0.325" id="path1871" fill="#fdeb85"/></g></g><g id="g1873"><g id="g1875"><path d="m337.474 1218.06c-0.327 0.925-1.229 1.449-2.015 1.172-0.787-0.279-1.16-1.255-0.832-2.179 0.326-0.926 1.229-1.45 2.015-1.171 0.786 0.277 1.159 1.253 0.832 2.178" id="path1877" fill="#d3ac2a"/></g><g id="g1879"><path d="m335.894 1219.604c-0.183 0-0.363-0.029-0.535-0.091-0.941-0.333-1.396-1.482-1.015-2.561 0.306-0.864 1.054-1.444 1.863-1.444 0.184 0 0.363 0.031 0.535 0.091 0.464 0.165 0.825 0.528 1.013 1.022 0.183 0.478 0.184 1.023 0.001 1.537-0.306 0.865-1.054 1.446-1.862 1.446zm0.313-3.499c-0.547 0-1.082 0.431-1.299 1.047-0.272 0.768 0.02 1.573 0.649 1.796 0.108 0.038 0.221 0.058 0.336 0.058 0.547 0 1.081-0.432 1.298-1.045 0.134-0.382 0.136-0.781 0.004-1.127-0.125-0.328-0.358-0.566-0.654-0.671-0.106-0.038-0.22-0.058-0.334-0.058z" id="path1881" fill="#231f20"/></g></g><g id="g1883"><g id="g1885"><path d="m342.715 1219.912c-0.207 0.586-0.78 0.919-1.279 0.742-0.498-0.176-0.734-0.795-0.527-1.381 0.208-0.585 0.78-0.918 1.278-0.743 0.499 0.178 0.735 0.796 0.528 1.382" id="path1887" fill="#d3ac2a"/></g></g><g id="g1889"><g id="g1891"><path d="m342.274 1219.593c0.021-0.089 0.041-0.177 0.054-0.267 0.031-0.21-0.098-0.438-0.264-0.554-0.196-0.138-0.41-0.129-0.624-0.052-0.395 0.143-0.665 0.744-0.433 1.117 0.127 0.207 0.293 0.355 0.547 0.374 0.244 0.017 0.437-0.101 0.588-0.282 0.084-0.101 0.109-0.216 0.132-0.336" id="path1893" fill="#fdce07"/></g></g><g id="g1895"><g id="g1897"><path d="m341.607 1219.208c-0.04-0.095-0.161-0.154-0.26-0.131-0.215 0.05-0.331 0.232-0.296 0.45 0.034 0.205 0.297 0.292 0.45 0.158 0.146-0.126 0.179-0.301 0.106-0.477" id="path1899" fill="#fdeb85"/></g></g><g id="g1901"><g id="g1903"><path d="m349.365 1222.952c-0.328 0.925-1.23 1.448-2.016 1.171-0.787-0.278-1.16-1.253-0.833-2.178 0.327-0.926 1.23-1.449 2.017-1.171 0.786 0.279 1.158 1.254 0.832 2.178" id="path1905" fill="#d3ac2a"/></g></g><g id="g1907"><g id="g1909"><path d="m347.942 1222.262c0.117-0.286 0.263-0.518 0.313-0.827 0.031-0.191-0.157-0.4-0.348-0.4-1.008-0.001-1.69 1.509-1.092 2.295 0.259 0.341 0.813 0.21 0.948-0.173 0.105-0.299 0.057-0.601 0.179-0.895" id="path1911" fill="#fdce07"/></g></g><g id="g1913"><g id="g1915"><path d="m347.706 1221.957c0.03-0.104 0.06-0.204 0.032-0.313-0.039-0.148-0.146-0.249-0.3-0.267-0.459-0.053-0.875 0.729-0.455 1.023 0.246 0.17 0.512-0.01 0.617-0.248 0.003-0.01 0.021-0.042 0.029-0.059 0.029-0.043 0.061-0.083 0.077-0.136" id="path1917" fill="#fdeb85"/></g></g><g id="g1919"><g id="g1921"><path d="m347.589 1226.071-0.332-0.161c-6.835-3.336-24.345-8.405-24.521-8.457l-0.313-0.09-0.053-1.724c-0.288-0.536-0.342-1.222-0.111-1.874 0.116-0.328 0.297-0.625 0.527-0.868l-0.054-1.663 0.198 0.027c-0.011-0.117-0.022-0.24-0.035-0.369-0.51-0.19-0.755-0.819-0.546-1.41 0.076-0.216 0.203-0.402 0.364-0.541-0.22-2.327-0.501-5.259-0.68-7.121-0.066-0.012-0.134-0.031-0.199-0.054-0.838-0.296-1.234-1.349-0.881-2.345 0.284-0.808 0.965-1.349 1.694-1.349 0.158 0 0.315 0.027 0.464 0.08 0.418 0.148 0.75 0.496 0.907 0.958 0.149 0.429 0.139 0.922-0.025 1.387-0.079 0.223-0.193 0.432-0.335 0.617 2.42 5.399 3.79 6.847 4.18 6.854 0.556 0 1.038-0.49 1.389-1.003-0.431-0.473-0.569-1.234-0.315-1.956 0.286-0.807 0.967-1.349 1.695-1.349 0.16 0 0.315 0.026 0.464 0.079 0.838 0.298 1.234 1.349 0.881 2.346-0.105 0.296-0.27 0.566-0.48 0.785 0.528 0.872 1.47 1.885 3.102 2.332 1.588 0.436 4.54-3.436 7.637-9.884-0.459-0.47-0.613-1.253-0.35-1.995 0.285-0.807 0.966-1.349 1.694-1.349 0.16 0 0.315 0.027 0.463 0.079 0.839 0.297 1.235 1.349 0.883 2.345-0.274 0.774-0.914 1.303-1.611 1.341-1.831 6.48-2.198 11.021-0.928 11.605 0.412 0.19 0.88 0.288 1.391 0.288 1.235 0 2.517-0.551 3.457-1.073-0.054-0.343-0.019-0.707 0.105-1.057 0.285-0.808 0.966-1.35 1.694-1.35 0.16 0 0.316 0.026 0.466 0.079 0.419 0.149 0.748 0.497 0.907 0.958 0.147 0.431 0.137 0.923-0.026 1.388-0.274 0.774-0.917 1.305-1.614 1.343-0.221 1.003-0.443 2.678 0.436 3.031 0.063 0.025 0.179 0.055 0.382 0.055 1.3 0 4.238-1.182 8.083-3.249-0.021-0.292 0.02-0.591 0.123-0.878 0.284-0.808 0.966-1.349 1.694-1.349 0.16 0 0.315 0.026 0.465 0.078 0.838 0.298 1.234 1.349 0.881 2.346-0.284 0.805-0.965 1.348-1.695 1.348l0 0c-0.159 0-0.315-0.026-0.464-0.078-0.027-0.011-0.055-0.021-0.081-0.033l-6.08 5.247c-0.001 0.137-0.027 0.274-0.074 0.408-0.169 0.479-0.581 0.8-1.027 0.8-0.087 0-0.173-0.013-0.256-0.038l-0.771 0.667c0.034 0.025 0.051 0.037 0.051 0.037l0.405 0.307-0.974 1.002c0.138 0.465 0.125 0.987-0.05 1.479-0.197 0.56-0.571 1.008-1.029 1.274l0.086 0.04-1.258 1.657zm-24.289-9.387c2.367 0.691 17.436 5.146 24.019 8.259l0.131-0.173-0.372-0.166 0.426-0.855 0.279 0c0.486 0 0.961-0.389 1.158-0.944 0.155-0.436 0.115-0.898-0.104-1.235l-0.141-0.215 0.416-0.837-0.231-0.154 2.204-1.902 0.294 0.286c0.029 0 0.134-0.054 0.185-0.197 0.023-0.066 0.028-0.138 0.015-0.199l-0.061-0.264 6.203-5.352c-2.482 1.316-6.308 3.171-8.164 3.171-0.283 0-0.517-0.039-0.717-0.121-0.838-0.337-1.671-1.385-0.88-4.461l0.05-0.188-0.053 0.031c-1.051 0.622-2.634 1.365-4.205 1.365-0.642 0-1.236-0.125-1.768-0.37-1.88-0.868-1.377-5.313-0.308-9.801-1.979 3.699-4.657 7.771-6.857 7.772l0 0c-0.165 0-0.326-0.021-0.483-0.064-2.14-0.586-3.265-2.004-3.832-3.091l-0.107-0.206-0.191 0.324c-0.681 1.157-1.496 1.77-2.356 1.77-0.441 0-1.692-0.022-4.932-7.208 0.185 1.931 0.487 5.073 0.714 7.473l0.031 0.332-0.309 0.126c-0.048 0.02-0.12 0.082-0.159 0.193-0.053 0.149-0.006 0.258 0.016 0.271l0.49-0.1 0.054 0.495c0.048 0.517 0.089 0.959 0.12 1.296l0.043 0.478 0.059 0.01-0.082 0.946-0.188 0.119c-0.272 0.17-0.484 0.445-0.601 0.772-0.205 0.579-0.056 1.208 0.355 1.496l0.211 0.149-0.088 0.998-0.286-0.069 0.002 0.044zm35.332-4.53 0.167 0.136c0.056 0.045 0.102 0.073 0.144 0.088 0.362 0.13 0.834-0.214 1.015-0.722 0.184-0.521 0.03-1.07-0.335-1.2-0.366-0.129-0.835 0.215-1.016 0.723-0.105 0.302-0.081 0.557-0.041 0.716l0.066 0.259zm-10.369-1.224 0.258 0.075c0.362 0.105 0.813-0.23 0.988-0.726 0.096-0.271 0.104-0.562 0.023-0.797-0.04-0.116-0.14-0.325-0.358-0.402-0.363-0.128-0.835 0.214-1.014 0.723-0.099 0.278-0.104 0.577-0.013 0.819l0.116 0.308zm-17.656-6.372c-0.338 0-0.695 0.316-0.849 0.752-0.17 0.48-0.05 0.992 0.272 1.163l0.292 0.155-0.003 0 0.332-0.224c0.203-0.139 0.366-0.357 0.456-0.613 0.185-0.521 0.031-1.07-0.335-1.2-0.052-0.019-0.108-0.028-0.165-0.028zm-7.961-5.587c-0.339 0-0.695 0.314-0.85 0.75-0.183 0.521-0.029 1.07 0.336 1.199 0.077 0.027 0.161 0.035 0.244 0.021l0.232-0.032 0.211-0.202c0.145-0.136 0.257-0.313 0.326-0.508 0.097-0.272 0.105-0.562 0.024-0.798-0.041-0.117-0.141-0.327-0.358-0.403-0.052-0.019-0.108-0.027-0.165-0.027zm20.385-0.156 0.045 0.013c0.361 0.096 0.806-0.238 0.978-0.728 0.185-0.521 0.032-1.069-0.334-1.2-0.365-0.127-0.834 0.215-1.014 0.723-0.17 0.483-0.05 0.995 0.273 1.165l0.052 0.027z" id="path1923" fill="#231f20"/></g></g><g id="g1925"><g id="g1927"><ellipse transform="matrix(0.3334,-0.9428,0.9428,0.3334,-925.028,1111)" cx="323.13199" cy="1209.636" rx="1.03" ry="0.81599998" id="ellipse1929" fill="#ec1c24"/></g><g id="g1931"><path d="m323.01 1210.943 0 0c-0.11 0-0.219-0.019-0.321-0.055-0.58-0.204-0.854-0.934-0.609-1.624 0.198-0.561 0.669-0.936 1.174-0.936 0.109 0 0.219 0.02 0.321 0.056 0.581 0.203 0.854 0.934 0.609 1.623-0.197 0.561-0.668 0.936-1.174 0.936zm0.244-2.015c-0.243 0-0.5 0.225-0.61 0.536-0.132 0.373-0.02 0.768 0.244 0.861 0.265 0.095 0.603-0.151 0.732-0.516 0.131-0.373 0.02-0.77-0.246-0.861-0.038-0.013-0.077-0.02-0.12-0.02z" id="path1933" fill="#231f20"/></g></g><g id="g1935"><g id="g1937"><ellipse transform="matrix(0.3338,-0.9426,0.9426,0.3338,-914.478,1143.0634)" cx="351.46399" cy="1218.514" rx="1.03" ry="0.81699997" id="ellipse1939" fill="#ec1c24"/></g><g id="g1941"><path d="m351.342 1219.821 0 0c-0.11 0-0.219-0.02-0.321-0.056-0.579-0.203-0.853-0.932-0.609-1.623 0.198-0.561 0.67-0.937 1.174-0.937 0.11 0 0.218 0.019 0.32 0.055 0.581 0.204 0.854 0.934 0.609 1.624-0.196 0.561-0.668 0.937-1.173 0.937zm0.244-2.016c-0.243 0-0.5 0.225-0.609 0.535-0.132 0.374-0.02 0.77 0.244 0.862 0.265 0.094 0.603-0.15 0.731-0.517 0.131-0.373 0.021-0.768-0.244-0.86-0.039-0.013-0.079-0.02-0.122-0.02z" id="path1943" fill="#231f20"/></g></g><g id="g1945"><g id="g1947"><path d="m343.133 1213.371c-0.424-0.15-0.924 0.162-1.112 0.699-0.19 0.535 0 1.092 0.427 1.241 0.424 0.153 0.923-0.161 1.113-0.697 0.189-0.535-0.002-1.093-0.428-1.243z" id="path1949" fill="#ec1c24"/></g><g id="g1951"><path d="m342.667 1215.649 0 0c-0.109 0-0.218-0.019-0.321-0.055-0.58-0.204-0.852-0.934-0.609-1.624 0.199-0.562 0.67-0.936 1.174-0.936 0.111 0 0.219 0.018 0.322 0.055 0.579 0.204 0.853 0.934 0.609 1.624-0.198 0.56-0.669 0.936-1.175 0.936zm0.245-2.016c-0.244 0-0.5 0.225-0.609 0.537-0.132 0.373-0.021 0.768 0.244 0.86 0.265 0.096 0.603-0.151 0.733-0.516 0.131-0.374 0.02-0.768-0.245-0.861-0.041-0.013-0.081-0.02-0.123-0.02z" id="path1953" fill="#231f20"/></g></g><g id="g1955"><g id="g1957"><path d="m325.098 1214.846c-0.327 0.924-1.229 1.449-2.016 1.172-0.786-0.279-1.159-1.254-0.833-2.18 0.326-0.923 1.23-1.447 2.016-1.171 0.787 0.28 1.16 1.254 0.833 2.179" id="path1959" fill="#d3ac2a"/></g><g id="g1961"><path d="m323.518 1216.39c-0.183 0-0.364-0.029-0.536-0.091-0.464-0.163-0.823-0.526-1.013-1.022-0.182-0.478-0.183-1.023-0.001-1.538 0.306-0.863 1.053-1.445 1.862-1.445 0.183 0 0.364 0.033 0.536 0.093 0.464 0.164 0.823 0.527 1.013 1.021 0.183 0.478 0.183 1.024 0 1.538-0.305 0.864-1.053 1.444-1.861 1.444zm0.312-3.496c-0.547 0-1.082 0.429-1.298 1.045-0.135 0.38-0.136 0.78-0.004 1.124 0.125 0.329 0.357 0.567 0.654 0.673 0.108 0.038 0.221 0.057 0.336 0.057 0.547 0 1.08-0.43 1.299-1.046 0.134-0.38 0.136-0.779 0.003-1.125-0.125-0.328-0.358-0.565-0.653-0.671-0.109-0.038-0.222-0.057-0.337-0.057z" id="path1963" fill="#231f20"/></g></g><g id="g1965"><g id="g1967"><path d="m349.758 1222.971c-0.326 0.926-1.229 1.449-2.016 1.172-0.786-0.277-1.158-1.253-0.832-2.178 0.327-0.926 1.23-1.449 2.016-1.172 0.787 0.278 1.159 1.254 0.832 2.178" id="path1969" fill="#d3ac2a"/></g><g id="g1971"><path d="m348.178 1224.516c-0.183 0-0.363-0.03-0.535-0.092-0.941-0.333-1.396-1.48-1.015-2.559 0.306-0.865 1.054-1.446 1.863-1.446 0.183 0 0.363 0.032 0.535 0.092 0.465 0.164 0.824 0.526 1.013 1.023 0.183 0.477 0.183 1.021 0.001 1.537-0.305 0.864-1.054 1.445-1.862 1.445zm0.313-3.498c-0.547 0-1.081 0.43-1.298 1.046-0.272 0.769 0.019 1.574 0.649 1.798 0.108 0.036 0.221 0.056 0.335 0.056 0.547 0 1.081-0.429 1.299-1.045 0.135-0.381 0.136-0.779 0.004-1.124-0.125-0.328-0.358-0.567-0.654-0.672-0.106-0.04-0.219-0.059-0.335-0.059z" id="path1973" fill="#231f20"/></g></g><g id="g1975"><g id="g1977"><path d="m342.729 1219.918c-0.21 0.595-0.792 0.934-1.298 0.753-0.507-0.179-0.747-0.807-0.536-1.402 0.211-0.595 0.792-0.934 1.298-0.754 0.507 0.178 0.746 0.807 0.536 1.403" id="path1979" fill="#d3ac2a"/></g><g id="g1981"><path d="m341.711 1220.943c-0.122 0-0.242-0.021-0.356-0.062-0.308-0.108-0.547-0.348-0.671-0.675-0.121-0.315-0.121-0.675-0.002-1.013 0.202-0.569 0.696-0.952 1.23-0.952 0.121 0 0.241 0.021 0.354 0.061 0.309 0.108 0.546 0.35 0.672 0.677 0.121 0.315 0.121 0.674 0.001 1.013-0.2 0.569-0.694 0.951-1.228 0.951zm0.202-2.253c-0.339 0-0.671 0.269-0.807 0.653-0.084 0.238-0.085 0.487-0.002 0.702 0.077 0.203 0.22 0.35 0.402 0.413 0.383 0.137 0.847-0.151 1.011-0.617 0.085-0.237 0.086-0.488 0.003-0.703-0.078-0.202-0.22-0.349-0.402-0.413-0.066-0.022-0.136-0.035-0.205-0.035z" id="path1983" fill="#231f20"/></g></g><g id="g1985"><g id="g1987"><path d="m331.231 1216.076c-0.21 0.596-0.791 0.935-1.298 0.755-0.507-0.18-0.747-0.808-0.536-1.403 0.21-0.595 0.792-0.933 1.299-0.753 0.507 0.178 0.747 0.805 0.535 1.401" id="path1989" fill="#d3ac2a"/></g><g id="g1991"><path d="m330.213 1217.103c-0.121 0-0.241-0.021-0.355-0.06-0.622-0.221-0.924-0.979-0.672-1.689 0.201-0.569 0.695-0.952 1.229-0.952 0.123 0 0.242 0.021 0.355 0.062 0.309 0.108 0.546 0.35 0.672 0.677 0.121 0.314 0.121 0.673 0.001 1.011-0.201 0.568-0.695 0.951-1.23 0.951zm0.202-2.252c-0.338 0-0.67 0.269-0.806 0.652-0.17 0.478 0.009 0.979 0.399 1.116 0.383 0.136 0.849-0.152 1.013-0.618 0.083-0.237 0.084-0.487 0.002-0.702-0.078-0.202-0.219-0.349-0.402-0.412-0.066-0.026-0.135-0.036-0.206-0.036z" id="path1993" fill="#231f20"/></g></g><g id="g1995"><g id="g1997"><g id="g1999"><path d="m264.272 1227.25c0.105-0.141 0.167-0.22 0.167-0.22-0.046 0.036-0.103 0.116-0.167 0.22z" id="path2001" fill="#231f20"/></g></g><g id="g2003"><g id="g2005"><path d="m266.841 1218.083c-2.74-1.335-5.587 5.829-7.286 9.864 1.07-1.388 2.493-3.368 3.179-4.903l2.733-3.564c0 0 0.414-0.351 0.967 0.031 0.555 0.381 9.964 5.038 2.386 9.988l-6.972 7.365c0 0-1.343-0.288-0.958-1.113 0.357-0.763 2.571-7.164 3.382-8.501-0.97 1.3-5.84 8.006-4.903 10.449 0 0 1.656 1.684 2.034 1.398 0.376-0.285 8.341-7.511 8.341-7.511 0 0 3.464-3.368 4.061-6.169 1.389 0.553 2.673 3.632 2.673 3.632 2.106 4.987-12.153 10.153-12.153 10.153 0 0 1.515 1.359 3.686 0.312 2.004-0.966 6.154-1.409 9.112-6.205l0.002 0c1.286 2.341-1.093 5.822-2.564 7.169-1.471 1.348-8.117 0.192-8.117 0.192 0 0 0.705 0.418 1.577 0.913 1.457 0.046 3.863 0.655 3.863 0.655 7.221-0.537 5.992-8.343 5.778-9.461-0.016-0.086-0.027-0.135-0.027-0.135 0.08-0.211 0.144-0.417 0.199-0.618 1.28-4.653-3.714-6.759-3.714-6.759 0.011-0.282-0.031-0.563-0.109-0.843-0.079-0.291-0.199-0.577-0.356-0.864-0.036-0.066-0.073-0.132-0.113-0.196-0.016-0.027-0.03-0.055-0.049-0.082-1.768-2.795-6.652-5.199-6.652-5.199z" id="path2007" fill="#231f20"/></g></g><g id="g2009"><g id="g2011"><path d="m255.083 1238.653c0 0-0.461-0.315-0.344-0.554 0.104-0.21-5.559-14.943-13.622-17.863 8.622 7.327 11.721 16.992 11.847 17.673 0.154 0.832 1.736 1.829 1.736 1.829 2.663 1.701 3.955 2.898 4.581 3.686 1.846 0 3.543 0.555 3.543 0.555l-0.56-0.417c0 0-3.891-2.434-4.399-3.631-0.001 0-2.036-1.305-2.782-1.278z" id="path2013" fill="#231f20"/></g></g></g><g id="g2015"><g id="g2017"><g id="g2019"><path d="m330.353 1317.02c-0.728 20.093-15.557 31.691-27.618 31.272-13.684-0.474-26.128-13.354-25.4-33.444 0.094-2.583 0.399-5.158 0.891-7.686l3.094 4.494 4.373-0.88 2.79 1.141 5.498-3.294 2.67 4.438 2.101-0.679 3.273 3.421 6.004-4.217 5.74 3.038 6.068-3.365 2.008 2.031 5.174-2.337 3.349 3.062c0.026 1.002 0.021 2.005-0.015 3.005z" id="path2021" fill="#fdd4ab"/></g></g></g><g id="g2023"><g id="g2025"><path d="m330.368 1314.016-3.349-3.062-5.174 2.337-1.069-1.082c-0.479 3.548-1.478 7.168-3.032 10.722-5.662 12.95-16.985 21.088-27.729 21.02 3.819 2.678 8.202 4.186 12.719 4.342 12.062 0.419 26.89-11.18 27.618-31.272 0.037-1.001 0.042-2.004 0.016-3.005z" id="path2027" fill="#deb184"/></g></g><g id="g2029"><g id="g2031"><g id="g2033"><path d="m303.368 1348.752c-0.217 0-0.434 0-0.649-0.01-6.425-0.224-12.539-3.113-17.218-8.138-5.927-6.361-8.986-15.516-8.614-25.773 0.093-2.56 0.395-5.167 0.897-7.755l0.206-1.048 3.531 5.13 4.215-0.848 2.707 1.104 5.69-3.405 2.719 4.517 2.029-0.657 3.202 3.346 5.914-4.152 5.768 3.053 6.152-3.413 2.029 2.051 5.158-2.329 3.708 3.39 0.005 0.189c0.026 1.021 0.021 2.042-0.015 3.034-0.331 9.103-3.671 17.392-9.409 23.34-5.136 5.323-11.705 8.374-18.025 8.374zm-24.898-40.441c-0.378 2.189-0.609 4.389-0.687 6.554-0.363 10.019 2.61 18.942 8.374 25.13 4.516 4.848 10.408 7.637 16.593 7.852 6.146 0.206 12.934-2.844 17.998-8.093 5.583-5.788 8.836-13.867 9.157-22.749 0.034-0.912 0.04-1.85 0.02-2.786l-2.991-2.734-5.188 2.345-1.99-2.012-5.983 3.318-5.712-3.023-6.094 4.281-3.346-3.496-2.171 0.701-2.623-4.359-5.306 3.178-2.874-1.171-4.53 0.91-2.647-3.846z" id="path2035" fill="#231f20"/></g></g></g></g><path d="m635.074 1297.996c0 0 0.44 0.025 1.007 0l-1.007 0z" id="path2037" style="fill:none;stroke-linecap:round;stroke-linejoin:round;stroke-width:0.52700001;stroke:#000"/></g></g></g></g></svg>