<svg xmlns:svg="http://www.w3.org/2000/svg" xmlns="http://www.w3.org/2000/svg" width="70mm" height="26mm" viewBox="0 0 248.0315 92.125991" id="svg9416" version="1.1"><defs id="defs9418"/><metadata id="metadata9421"/><g id="layer1" transform="translate(0,-960.23621)"><g id="g2039" transform="translate(-561.81036,-415.2919)"><path d="m802.978 1439.271c0.455 9.846-7.157 18.195-17.001 18.65l-199.127 9.216c-9.844 0.455-18.195-7.156-18.65-17.001l-1.843-39.813c-0.455-9.846 7.157-18.195 17.001-18.651l199.127-9.215c9.844-0.455 18.195 7.156 18.65 17.001l1.843 39.813z" id="path2041" fill="#661016"/><rect x="583.37097" y="1403.741" transform="matrix(0.9989,-0.0462,0.0462,0.9989,-65.1257,33.1698)" width="202.592" height="42.112999" id="rect2043" fill="none"/><text transform="matrix(0.9989,-0.0462,0.0462,0.9989,585.7324,1443.5996)" font-size="50.9829" id="text2045" style="fill:#fff;font-family:MyriadPro-BoldCond;font-size:50.98289871px">L</text><text transform="matrix(0.9989,-0.0462,0.0462,0.9989,605.3896,1442.6904)" font-size="50.9829" id="text2047" style="fill:#fff;font-family:MyriadPro-BoldCond;font-size:50.98289871px">a</text><text transform="matrix(0.9989,-0.0462,0.0462,0.9989,626.8818,1441.6953)" font-size="50.9829" id="text2049" style="fill:#fff;font-family:MyriadPro-BoldCond;font-size:50.98289871px"/><text transform="matrix(0.9989,-0.0462,0.0462,0.9989,634.9795,1441.3213)" font-size="50.9829" id="text2051" style="fill:#fff;font-family:MyriadPro-BoldCond;font-size:50.98289871px">B</text><text transform="matrix(0.9989,-0.0462,0.0462,0.9989,659.5771,1440.1826)" font-size="50.9829" id="text2053" style="fill:#fff;font-family:MyriadPro-BoldCond;font-size:50.98289871px">a</text><text transform="matrix(0.9989,-0.0462,0.0462,0.9989,681.0684,1439.1875)" font-size="50.9829" id="text2055" style="fill:#fff;font-family:MyriadPro-BoldCond;font-size:50.98289871px">n</text><text transform="matrix(0.9989,-0.0462,0.0462,0.9989,704.3936,1438.1084)" font-size="50.9829" id="text2057" style="fill:#fff;font-family:MyriadPro-BoldCond;font-size:50.98289871px">d</text><text transform="matrix(0.9989,-0.0462,0.0462,0.9989,727.1582,1437.0547)" font-size="50.9829" id="text2059" style="fill:#fff;font-family:MyriadPro-BoldCond;font-size:50.98289871px">e</text><text transform="matrix(0.9989,-0.0462,0.0462,0.9989,748.4961,1436.0674)" font-size="50.9829" id="text2061" style="fill:#fff;font-family:MyriadPro-BoldCond;font-size:50.98289871px">r</text><text transform="matrix(0.9989,-0.0462,0.0462,0.9989,763.4688,1435.374)" font-size="50.9829" id="text2063" style="fill:#fff;font-family:MyriadPro-BoldCond;font-size:50.98289871px">a</text></g></g></svg>