<svg xmlns:svg="http://www.w3.org/2000/svg" xmlns="http://www.w3.org/2000/svg" width="96mm" height="28mm" viewBox="0 0 340.15748 99.212598" id="svg9747" version="1.1"><defs id="defs9749"/><metadata id="metadata9752"/><g id="layer1" transform="translate(0,-953.14961)"><path d="m334.12308 1025.8353c0 9.414-8.323 17.048-18.592 17.048l-288.205008-0.001c-10.269 0-18.5920003-7.633-18.5920003-17.048l0-44.08902c0-9.415 8.3230003-17.047 18.5920003-17.047l288.205008 0c10.269 0 18.592 7.633 18.592 17.047l0 44.09002z" id="path2119" fill="#661016"/><text y="1018.1791" x="26.16827" font-size="50.7258" id="text2123" style="fill:#fff;font-family:MyriadPro-BoldCond;font-size:50.72579956px">G</text><text y="1018.1791" x="50.56567" font-size="50.7258" id="text2125" style="fill:#fff;font-family:MyriadPro-BoldCond;font-size:50.72579956px">a</text><text y="1018.1791" x="71.971474" font-size="50.7258" id="text2127" style="fill:#fff;font-family:MyriadPro-BoldCond;font-size:50.72579956px">l</text><text y="1018.1791" x="83.384071" font-size="50.7258" id="text2129" style="fill:#fff;font-family:MyriadPro-BoldCond;font-size:50.72579956px">e</text><text y="1018.1791" x="104.63747" font-size="50.7258" id="text2131" style="fill:#fff;font-family:MyriadPro-BoldCond;font-size:50.72579956px">r</text><text y="1018.1791" x="119.55057" font-size="50.7258" id="text2133" style="fill:#fff;font-family:MyriadPro-BoldCond;font-size:50.72579956px">í</text><text y="1018.1791" x="130.86206" font-size="50.7258" id="text2135" style="fill:#fff;font-family:MyriadPro-BoldCond;font-size:50.72579956px">a</text><text y="1018.1791" x="160.33376" font-size="50.7258" id="text2139" style="fill:#fff;font-family:MyriadPro-BoldCond;font-size:50.72579956px">d</text><text y="1018.1791" x="183.00757" font-size="50.7258" id="text2141" style="fill:#fff;font-family:MyriadPro-BoldCond;font-size:50.72579956px">e</text><text y="1018.1791" x="212.32697" font-size="50.7258" id="text2145" style="fill:#fff;font-family:MyriadPro-BoldCond;font-size:50.72579956px">F</text><text y="1018.1791" x="230.99387" font-size="50.7258" id="text2147" style="fill:#fff;font-family:MyriadPro-BoldCond;font-size:50.72579956px">o</text><text y="1018.1791" x="252.85617" font-size="50.7258" id="text2149" style="fill:#fff;font-family:MyriadPro-BoldCond;font-size:50.72579956px">t</text><text y="1018.1791" x="268.32697" font-size="50.7258" id="text2151" style="fill:#fff;font-family:MyriadPro-BoldCond;font-size:50.72579956px">o</text><text y="1018.1791" x="290.18927" font-size="50.7258" id="text2153" style="fill:#fff;font-family:MyriadPro-BoldCond;font-size:50.72579956px">s</text></g></svg>