<?xml version="1.0" encoding="utf-8"?>
<!-- Generator: Adobe Illustrator 16.0.0, SVG Export Plug-In . SVG Version: 6.00 Build 0)  -->
<!DOCTYPE svg PUBLIC "-//W3C//DTD SVG 1.1//EN" "http://www.w3.org/Graphics/SVG/1.1/DTD/svg11.dtd">
<svg version="1.1" id="Layer_1" xmlns="http://www.w3.org/2000/svg" xmlns:xlink="http://www.w3.org/1999/xlink" x="0px" y="0px"
	 width="1190.551px" height="841.891px" viewBox="0 0 1190.551 841.891" enable-background="new 0 0 1190.551 841.891"
	 xml:space="preserve">
<g>
	<g>
		<g>
			<path fill="#002F87" d="M636.037,214.889c0-1.351,1.097-2.451,2.451-2.451c1.367,0,2.455,1.101,2.455,2.451
				c0,1.372-1.088,2.475-2.455,2.475C637.134,217.364,636.037,216.261,636.037,214.889"/>
		</g>
		<g>
			<rect x="46.971" y="341.381" fill="#FFFFFF" stroke="#FFFFFF" stroke-miterlimit="10" width="1100.372" height="3.659"/>
		</g>
		<g>
			<rect x="46.971" y="496.582" fill="#FFFFFF" stroke="#FFFFFF" stroke-miterlimit="10" width="1100.372" height="3.662"/>
		</g>
		<g>
			<g>
				<polygon fill="#FFFFFF" points="600.879,225.693 632.903,202.828 624.235,202.828 597.045,222.242 				"/>
			</g>
			<g>
				<polygon fill="#FFFFFF" points="593.198,218.792 615.561,202.828 606.891,202.828 589.362,215.342 				"/>
			</g>
			<g>
				<path fill="#FFFFFF" d="M534.734,308.724v45.934c0.547,0.071,1.093,0.116,1.666,0.116h3.361l-0.038-42.05
					C539.367,312.419,536.271,309.856,534.734,308.724"/>
			</g>
			<g>
				<path fill="#FFFFFF" d="M612.154,245.313c-31.289,10.197-56.007,34.948-66.2,66.273c1.227,1.174,2.422,2.374,3.586,3.612
					c9.648-32.226,35.262-57.536,67.649-66.716V232.14h-5.036L612.154,245.313L612.154,245.313z"/>
			</g>
			<g>
				<path fill="#FFFFFF" d="M553.484,319.651c1.385,1.681,2.692,3.427,3.943,5.205c7.434-34.613,35.009-61.729,69.852-68.438
					v-24.276h-5.035v20.216C588.745,260.375,562.234,286.401,553.484,319.651"/>
			</g>
			<g>
				<path fill="#FFFFFF" d="M524.657,343.019c0,3.999,1.985,7.531,5.039,9.648V305.26c-0.189-0.117-3.572-2.158-5.085-2.975
					C524.611,302.285,524.657,343.012,524.657,343.019"/>
			</g>
			<g>
				<path fill="#FFFFFF" d="M634.278,208.035L607.582,227.1h24.673v33.604c-36.414,5.192-65.31,33.866-70.847,70.207
					c0,0.003,0.003,0.003,0.003,0.003c-0.454,2.985-0.737,6.016-0.869,9.091c-2.607-5.476-5.822-10.647-9.535-15.412
					c-1.94-2.479-4.007-4.847-6.202-7.092l-0.004,37.264h90.877c1.232,0,2.421-0.192,3.546-0.552
					c0.062-0.018,0.227-0.068,0.246-0.071c4.424-1.506,7.663-5.597,7.923-10.48c0.002-0.03,0.018-1.062,0.018-1.062
					c-0.064-1.82-0.547-3.541-1.344-5.06l-21.573-38.803h5.729l17.2,30.85V214.914v-0.023c0-4.611-3.723-8.339-8.39-8.339
					C637.273,206.55,635.63,207.099,634.278,208.035"/>
			</g>
			<g>
				<path fill="#E2231A" d="M541.837,307.879c10.701-30.701,34.812-55.117,65.31-66.198v-9.539h-6.618l-19.206-17.255l16.894-12.068
					h-25.755h-36.07c-6.486,0.004-11.737,5.256-11.743,11.745v82.042C530.815,299.7,536.579,303.491,541.837,307.879"/>
			</g>
			<g>
				<path fill="#002F87" d="M635.687,197.787L635.687,197.787H536.43h-0.04c-9.267,0-16.769,7.516-16.769,16.792v0.065v128.382
					c0,9.273,7.502,16.781,16.769,16.784h99.297c9.257,0,16.759-7.511,16.759-16.784V214.571
					C652.439,205.298,644.941,197.787,635.687,197.787 M519.622,214.579v-0.011V214.579z M624.235,202.828h8.668l-32.024,22.865
					l-3.834-3.451L624.235,202.828z M593.198,218.792l-3.836-3.449l17.529-12.515h8.67L593.198,218.792z M529.696,352.668
					c-3.054-2.119-5.039-5.649-5.039-9.648c0,0-0.004-2.654-0.01-6.613v-34.102c1.539,0.835,4.859,2.84,5.049,2.959V352.668z
					 M539.71,354.766h-3.762c-0.404-0.016-0.819-0.059-1.214-0.108v-45.934c1.537,1.136,4.633,3.694,4.989,4L539.71,354.766z
					 M524.647,296.605v-82.042c0.006-6.489,5.257-11.741,11.743-11.745h61.828l-16.896,12.068l19.203,17.258h6.621v9.536
					c-30.493,11.086-54.603,35.497-65.31,66.198C536.583,303.491,530.815,299.702,524.647,296.605 M617.19,248.484L617.19,248.484
					c-32.389,9.18-58.001,34.49-67.648,66.716c-1.165-1.238-2.361-2.438-3.587-3.612c10.192-31.325,34.911-56.076,66.2-66.273
					v-13.169h5.036L617.19,248.484L617.19,248.484z M622.244,252.357v-20.213h5.035v24.273
					c-34.843,6.709-62.418,33.825-69.852,68.438c-1.259-1.778-2.559-3.524-3.943-5.205
					C562.234,286.401,588.745,260.375,622.244,252.357 M647.419,214.914L647.419,214.914v114.673l-17.195-30.85h-5.725
					l21.568,38.803c0.797,1.519,1.278,3.239,1.344,5.06c0,0-0.016,1.032-0.018,1.062c-0.265,4.885-3.499,8.975-7.923,10.48
					c-0.023,0.003-0.185,0.055-0.246,0.071c-1.082,0.349-2.232,0.537-3.415,0.552h-91.008l0.004-37.264
					c6.409,6.547,11.75,14.144,15.737,22.504c0.13-3.075,0.415-6.105,0.868-9.091c0,0-0.003,0-0.003-0.003
					c5.529-36.34,34.43-65.015,70.852-70.207l0.002-33.604h-24.679l26.695-19.065c1.352-0.936,2.992-1.485,4.756-1.485
					c4.667,0,8.385,3.729,8.385,8.34V214.914L647.419,214.914z"/>
			</g>
			<g>
				<path fill="#002F87" d="M637.491,217.074c0-1.312,1.073-2.38,2.383-2.38c1.337,0,2.396,1.068,2.396,2.38
					c0,1.333-1.059,2.407-2.396,2.407C638.564,219.481,637.491,218.407,637.491,217.074"/>
			</g>
		</g>
		<rect x="87.219" y="389.906" fill="none" width="1000.893" height="59.413"/>
		<g enable-background="new    ">
			<path fill="#FFFFFF" d="M92.002,391.391h10.804v46.433h14.268v9.154H92.002V391.391z"/>
			<path fill="#FFFFFF" d="M151.384,426.69c0,16.824-9.319,20.948-15.422,20.948c-9.649,0-15.423-7.588-15.423-20.701
				c0-14.516,7.588-20.948,15.588-20.948C145.611,405.989,151.384,413.989,151.384,426.69z M131.26,426.69
				c0,6.928,1.072,12.7,4.948,12.7c3.464,0,4.371-6.763,4.371-12.7c0-5.526-0.907-12.536-4.536-12.536
				C132.085,414.154,131.26,421.164,131.26,426.69z"/>
			<path fill="#FFFFFF" d="M157.158,437.247c1.567,0.989,4.536,2.144,7.258,2.144c2.804,0,4.371-1.236,4.371-3.629
				c0-2.062-1.155-3.381-4.701-5.443c-6.598-3.711-8.165-7.917-8.165-11.628c0-7.258,5.196-12.701,13.278-12.701
				c3.382,0,6.021,0.824,8.165,1.814l-1.897,7.917c-1.567-0.907-3.464-1.649-5.608-1.649c-2.722,0-4.042,1.649-4.042,3.464
				s0.907,2.805,4.701,5.031c5.938,3.381,8.165,7.588,8.165,12.206c0,8.247-5.938,12.701-14.268,12.701
				c-3.381,0-7.34-0.907-9.237-2.31L157.158,437.247z"/>
			<path fill="#FFFFFF" d="M209.117,391.391v55.587h-10.804v-55.587H209.117z"/>
			<path fill="#FFFFFF" d="M217.777,418.772c0-4.453-0.248-8.33-0.33-12.124h9.319l0.495,4.619h0.165
				c2.144-3.217,5.608-5.278,9.814-5.278c7.67,0,10.721,6.103,10.721,15.093v25.896h-10.804v-25.237c0-3.464-0.825-6.68-3.959-6.68
				c-1.814,0-3.299,1.236-4.041,3.629c-0.33,0.824-0.578,2.144-0.578,3.711v24.577h-10.804V418.772z"/>
			<path fill="#FFFFFF" d="M277.9,446.318c-1.072,0.495-3.793,1.155-6.845,1.155c-10.227,0-16.907-7.093-16.907-20.289
				c0-12.453,7.34-21.113,18.474-21.113c2.557,0,4.866,0.577,5.938,1.072l-1.402,8.495c-0.907-0.33-2.227-0.742-4.041-0.742
				c-5.196,0-8.248,4.948-8.248,11.958c0,7.341,3.052,11.794,8.083,11.794c1.567,0,2.887-0.247,4.041-0.824L277.9,446.318z"/>
			<path fill="#FFFFFF" d="M282.108,418.772c0-4.041-0.165-8.412-0.33-12.124h9.402l0.578,5.856h0.248
				c1.814-4.289,5.031-6.516,8-6.516c1.072,0,1.65,0,2.31,0.165v10.722c-0.66-0.165-1.402-0.165-2.31-0.165
				c-2.309,0-5.36,1.566-6.598,5.772c-0.248,0.907-0.413,2.31-0.413,4.042v20.453h-10.886V418.772z"/>
			<path fill="#FFFFFF" d="M315.097,430.648c0.165,6.269,3.794,8.577,8.578,8.577c3.051,0,5.773-0.659,7.67-1.319l1.484,7.753
				c-2.804,1.072-7.01,1.814-11.134,1.814c-10.969,0-16.99-7.258-16.99-19.876c0-13.526,7.01-21.608,16.165-21.608
				c8.66,0,13.69,6.845,13.69,19.051c0,2.887-0.083,4.454-0.33,5.608H315.097z M324.746,423.061c0-5.196-1.319-9.237-4.536-9.237
				c-3.546,0-4.949,5.195-5.031,9.237H324.746z"/>
			<path fill="#FFFFFF" d="M340.665,446.978v-40.33h10.804v40.33H340.665z M357.407,390.154l-8.33,11.546h-6.763l5.69-11.546
				H357.407z"/>
			<path fill="#FFFFFF" d="M358.644,446.978c0.165-3.546,0.33-8.082,0.33-11.959v-45.113h10.804v20.784h0.165
				c1.979-2.887,4.536-4.701,8.413-4.701c7.835,0,11.381,8.824,11.381,19.711c0,14.104-5.608,21.938-13.113,21.938
				c-3.381,0-5.773-1.402-7.917-5.443h-0.248l-0.577,4.783H358.644z M369.778,432.546c0,0.989,0.165,1.979,0.413,2.557
				c0.907,2.887,2.392,3.711,3.711,3.711c3.629,0,5.113-4.536,5.113-12.288c0-6.928-1.567-11.464-5.196-11.464
				c-1.649,0-3.052,1.731-3.629,3.711c-0.248,0.66-0.413,1.732-0.413,2.475V432.546z"/>
			<path fill="#FFFFFF" d="M395.923,389.906h10.804v57.072h-10.804V389.906z"/>
			<path fill="#FFFFFF" d="M423.469,430.648c0.165,6.269,3.794,8.577,8.578,8.577c3.051,0,5.773-0.659,7.67-1.319l1.484,7.753
				c-2.804,1.072-7.01,1.814-11.134,1.814c-10.969,0-16.99-7.258-16.99-19.876c0-13.526,7.01-21.608,16.165-21.608
				c8.66,0,13.69,6.845,13.69,19.051c0,2.887-0.083,4.454-0.33,5.608H423.469z M433.118,423.061c0-5.196-1.32-9.237-4.536-9.237
				c-3.546,0-4.949,5.195-5.031,9.237H433.118z"/>
			<path fill="#FFFFFF" d="M448.706,437.247c1.567,0.989,4.536,2.144,7.258,2.144c2.804,0,4.371-1.236,4.371-3.629
				c0-2.062-1.155-3.381-4.701-5.443c-6.598-3.711-8.165-7.917-8.165-11.628c0-7.258,5.196-12.701,13.278-12.701
				c3.382,0,6.021,0.824,8.165,1.814l-1.897,7.917c-1.567-0.907-3.464-1.649-5.608-1.649c-2.722,0-4.042,1.649-4.042,3.464
				s0.907,2.805,4.701,5.031c5.938,3.381,8.165,7.588,8.165,12.206c0,8.247-5.938,12.701-14.268,12.701
				c-3.381,0-7.34-0.907-9.237-2.31L448.706,437.247z"/>
			<path fill="#FFFFFF" d="M500.665,391.391v55.587h-10.804v-55.587H500.665z"/>
			<path fill="#FFFFFF" d="M509.324,418.772c0-4.453-0.248-8.33-0.33-12.124h9.319l0.495,4.619h0.165
				c2.144-3.217,5.608-5.278,9.814-5.278c7.67,0,10.721,6.103,10.721,15.093v25.896h-10.804v-25.237c0-3.464-0.825-6.68-3.959-6.68
				c-1.814,0-3.299,1.236-4.041,3.629c-0.33,0.824-0.578,2.144-0.578,3.711v24.577h-10.804V418.772z"/>
			<path fill="#FFFFFF" d="M569.448,446.318c-1.072,0.495-3.793,1.155-6.845,1.155c-10.227,0-16.907-7.093-16.907-20.289
				c0-12.453,7.34-21.113,18.474-21.113c2.557,0,4.866,0.577,5.938,1.072l-1.402,8.495c-0.907-0.33-2.227-0.742-4.041-0.742
				c-5.196,0-8.248,4.948-8.248,11.958c0,7.341,3.052,11.794,8.083,11.794c1.567,0,2.887-0.247,4.041-0.824L569.448,446.318z"/>
			<path fill="#FFFFFF" d="M604.006,434.689c0,4.289,0.164,8.495,0.33,12.289h-9.32l-0.577-4.289h-0.165
				c-1.897,2.722-5.196,4.949-9.319,4.949c-7.67,0-10.804-5.691-10.804-16.577v-24.413h10.887v23.258c0,5.278,0.99,8.66,4.041,8.66
				c1.814,0,2.969-1.402,3.464-2.722c0.413-0.825,0.66-2.062,0.66-3.464v-25.732h10.805V434.689z"/>
			<path fill="#FFFFFF" d="M611.345,446.978c0.166-3.546,0.33-8.082,0.33-11.959v-45.113h10.805v20.784h0.164
				c1.98-2.887,4.537-4.701,8.413-4.701c7.835,0,11.382,8.824,11.382,19.711c0,14.104-5.609,21.938-13.113,21.938
				c-3.382,0-5.773-1.402-7.918-5.443h-0.248l-0.576,4.783H611.345z M622.48,432.546c0,0.989,0.164,1.979,0.412,2.557
				c0.907,2.887,2.392,3.711,3.711,3.711c3.629,0,5.113-4.536,5.113-12.288c0-6.928-1.566-11.464-5.195-11.464
				c-1.649,0-3.052,1.731-3.629,3.711c-0.248,0.66-0.412,1.732-0.412,2.475V432.546z"/>
			<path fill="#FFFFFF" d="M666.687,446.978l-0.578-3.959h-0.164c-2.227,3.134-5.361,4.619-8.908,4.619
				c-6.103,0-10.639-5.113-10.639-12.289c0-10.557,9.32-14.928,18.475-15.01v-0.907c0-3.135-1.897-5.443-5.691-5.443
				c-3.217,0-5.855,0.824-8.247,2.309l-1.979-7.257c2.227-1.32,6.928-3.052,12.536-3.052c12.288,0,14.269,8.577,14.269,16.742v15.01
				c0,3.217,0.164,6.516,0.659,9.237H666.687z M665.203,427.349c-3.629,0.083-8.578,1.237-8.578,6.846
				c0,4.041,2.227,5.525,3.877,5.525c1.731,0,3.711-1.072,4.453-3.464c0.165-0.577,0.248-1.237,0.248-1.896V427.349z"/>
			<path fill="#FFFFFF" d="M712.709,389.906v45.113c0,3.877,0.164,8.248,0.33,11.959h-9.32l-0.578-4.536h-0.164
				c-1.484,2.804-4.701,5.196-8.412,5.196c-8.578,0-12.537-9.484-12.537-20.784c0-14.021,6.104-20.865,12.949-20.865
				c3.547,0,5.773,1.731,6.762,4.041h0.166v-20.124H712.709z M701.904,422.154c0-0.742,0-1.567-0.082-2.393
				c-0.412-2.474-1.732-4.7-3.877-4.7c-3.793,0-5.195,5.525-5.195,12.041c0,7.67,2.061,11.711,5.113,11.711
				c1.318,0,2.887-0.742,3.711-3.546c0.248-0.578,0.33-1.484,0.33-2.475V422.154z"/>
			<path fill="#FFFFFF" d="M749.74,426.69c0,16.824-9.32,20.948-15.424,20.948c-9.648,0-15.422-7.588-15.422-20.701
				c0-14.516,7.588-20.948,15.588-20.948C743.967,405.989,749.74,413.989,749.74,426.69z M729.615,426.69
				c0,6.928,1.072,12.7,4.949,12.7c3.463,0,4.371-6.763,4.371-12.7c0-5.526-0.908-12.536-4.537-12.536
				C730.441,414.154,729.615,421.164,729.615,426.69z"/>
			<path fill="#FFFFFF" d="M755.761,418.772c0-4.041-0.166-8.412-0.33-12.124h9.402l0.576,5.856h0.248
				c1.814-4.289,5.031-6.516,8-6.516c1.072,0,1.65,0,2.309,0.165v10.722c-0.658-0.165-1.4-0.165-2.309-0.165
				c-2.309,0-5.361,1.566-6.598,5.772c-0.248,0.907-0.412,2.31-0.412,4.042v20.453h-10.887V418.772z"/>
			<path fill="#FFFFFF" d="M788.752,430.648c0.164,6.269,3.793,8.577,8.576,8.577c3.053,0,5.773-0.659,7.672-1.319l1.484,7.753
				c-2.805,1.072-7.012,1.814-11.135,1.814c-10.969,0-16.99-7.258-16.99-19.876c0-13.526,7.012-21.608,16.166-21.608
				c8.66,0,13.689,6.845,13.689,19.051c0,2.887-0.082,4.454-0.33,5.608H788.752z M798.4,423.061c0-5.196-1.318-9.237-4.535-9.237
				c-3.547,0-4.949,5.195-5.031,9.237H798.4z"/>
			<path fill="#FFFFFF" d="M813.988,437.247c1.568,0.989,4.537,2.144,7.258,2.144c2.805,0,4.371-1.236,4.371-3.629
				c0-2.062-1.154-3.381-4.701-5.443c-6.598-3.711-8.164-7.917-8.164-11.628c0-7.258,5.195-12.701,13.277-12.701
				c3.383,0,6.021,0.824,8.166,1.814l-1.896,7.917c-1.568-0.907-3.465-1.649-5.609-1.649c-2.721,0-4.041,1.649-4.041,3.464
				s0.908,2.805,4.701,5.031c5.938,3.381,8.164,7.588,8.164,12.206c0,8.247-5.938,12.701-14.268,12.701
				c-3.381,0-7.34-0.907-9.236-2.31L813.988,437.247z"/>
			<path fill="#FFFFFF" d="M883.431,389.906v45.113c0,3.877,0.166,8.248,0.33,11.959h-9.32l-0.576-4.536h-0.166
				c-1.484,2.804-4.701,5.196-8.412,5.196c-8.576,0-12.535-9.484-12.535-20.784c0-14.021,6.104-20.865,12.947-20.865
				c3.547,0,5.773,1.731,6.764,4.041h0.164v-20.124H883.431z M872.627,422.154c0-0.742,0-1.567-0.082-2.393
				c-0.412-2.474-1.732-4.7-3.875-4.7c-3.795,0-5.197,5.525-5.197,12.041c0,7.67,2.062,11.711,5.113,11.711
				c1.32,0,2.887-0.742,3.713-3.546c0.246-0.578,0.328-1.484,0.328-2.475V422.154z"/>
			<path fill="#FFFFFF" d="M900.01,430.648c0.166,6.269,3.795,8.577,8.578,8.577c3.051,0,5.773-0.659,7.67-1.319l1.484,7.753
				c-2.805,1.072-7.01,1.814-11.135,1.814c-10.969,0-16.988-7.258-16.988-19.876c0-13.526,7.01-21.608,16.164-21.608
				c8.66,0,13.691,6.845,13.691,19.051c0,2.887-0.082,4.454-0.33,5.608H900.01z M909.66,423.061c0-5.196-1.32-9.237-4.537-9.237
				c-3.545,0-4.947,5.195-5.029,9.237H909.66z"/>
			<path fill="#FFFFFF" d="M939.679,392.216c3.053-0.659,7.176-1.072,11.299-1.072c6.434,0,11.465,0.907,15.094,4.289
				c3.299,2.887,4.783,7.505,4.783,12.206c0,6.021-1.814,10.227-4.701,13.36c-3.463,3.629-9.072,5.278-13.525,5.278
				c-0.742,0-1.484,0-2.145,0v20.701h-10.805V392.216z M950.484,417.453c0.494,0.165,1.072,0.165,1.732,0.165
				c5.443,0,7.918-3.877,7.918-9.072c0-4.866-1.98-8.66-7.012-8.66c-0.988,0-1.979,0.165-2.639,0.413V417.453z"/>
			<path fill="#FFFFFF" d="M976.299,418.772c0-4.041-0.166-8.412-0.33-12.124h9.402l0.576,5.856h0.248
				c1.814-4.289,5.031-6.516,8-6.516c1.072,0,1.65,0,2.309,0.165v10.722c-0.658-0.165-1.4-0.165-2.309-0.165
				c-2.309,0-5.361,1.566-6.598,5.772c-0.248,0.907-0.412,2.31-0.412,4.042v20.453h-10.887V418.772z"/>
			<path fill="#FFFFFF" d="M1029.742,426.69c0,16.824-9.32,20.948-15.422,20.948c-9.65,0-15.424-7.588-15.424-20.701
				c0-14.516,7.588-20.948,15.588-20.948C1023.969,405.989,1029.742,413.989,1029.742,426.69z M1009.619,426.69
				c0,6.928,1.072,12.7,4.947,12.7c3.465,0,4.371-6.763,4.371-12.7c0-5.526-0.906-12.536-4.535-12.536
				C1010.443,414.154,1009.619,421.164,1009.619,426.69z"/>
			<path fill="#FFFFFF" d="M1043.187,406.648l3.053,17.979c0.576,3.629,1.154,7.258,1.732,11.299h0.164
				c0.494-4.123,0.99-7.505,1.566-11.299l3.135-17.979h10.639l-10.805,40.33h-9.979l-10.969-40.33H1043.187z"/>
			<path fill="#FFFFFF" d="M1078.486,395.927c0.084,3.464-2.391,5.855-5.689,5.855c-2.969,0-5.443-2.392-5.361-5.855
				c-0.082-3.629,2.557-5.856,5.525-5.856C1076.095,390.071,1078.486,392.299,1078.486,395.927z M1067.683,446.978v-40.33h10.803
				v40.33H1067.683z"/>
		</g>
		<rect x="76.519" y="537.505" fill="none" width="1024.331" height="54.651"/>
		<g enable-background="new    ">
			<path fill="#FFFFFF" d="M524.804,539.629c2.807-0.607,6.6-0.986,10.394-0.986c5.917,0,10.545,0.834,13.884,3.944
				c3.035,2.655,4.4,6.904,4.4,11.229c0,5.538-1.669,9.407-4.325,12.29c-3.187,3.339-8.345,4.855-12.442,4.855
				c-0.683,0-1.366,0-1.973,0v19.043h-9.938V539.629z M534.742,562.844c0.455,0.151,0.986,0.151,1.593,0.151
				c5.007,0,7.283-3.565,7.283-8.345c0-4.477-1.821-7.967-6.449-7.967c-0.911,0-1.821,0.152-2.428,0.38V562.844z"/>
			<path fill="#FFFFFF" d="M558.489,564.057c0-3.718-0.152-7.738-0.304-11.152h8.649l0.531,5.387h0.228
				c1.669-3.945,4.628-5.994,7.359-5.994c0.986,0,1.518,0,2.125,0.152v9.862c-0.607-0.151-1.29-0.151-2.125-0.151
				c-2.124,0-4.931,1.441-6.069,5.311c-0.228,0.834-0.379,2.124-0.379,3.718v18.814h-10.014V564.057z"/>
			<path fill="#FFFFFF" d="M607.651,571.341c0,15.477-8.573,19.271-14.187,19.271c-8.876,0-14.187-6.98-14.187-19.043
				c0-13.353,6.979-19.271,14.339-19.271C602.341,552.298,607.651,559.657,607.651,571.341z M589.14,571.341
				c0,6.373,0.986,11.684,4.552,11.684c3.187,0,4.021-6.222,4.021-11.684c0-5.083-0.834-11.532-4.173-11.532
				C589.898,559.808,589.14,566.258,589.14,571.341z"/>
			<path fill="#FFFFFF" d="M620.019,552.905l2.808,16.539c0.53,3.338,1.062,6.676,1.593,10.394h0.152
				c0.455-3.793,0.91-6.904,1.441-10.394l2.883-16.539h9.787l-9.939,37.099h-9.18l-10.09-37.099H620.019z"/>
			<path fill="#FFFFFF" d="M652.491,543.042c0.076,3.187-2.2,5.387-5.235,5.387c-2.73,0-5.006-2.2-4.931-5.387
				c-0.075-3.338,2.353-5.386,5.083-5.386C650.291,537.656,652.491,539.704,652.491,543.042z M642.552,590.004v-37.099h9.938v37.099
				H642.552z"/>
		</g>
	</g>
</g>
</svg>
