<?xml version="1.0" encoding="utf-8"?>
<!-- Generator: Adobe Illustrator 16.0.0, SVG Export Plug-In . SVG Version: 6.00 Build 0)  -->
<!DOCTYPE svg PUBLIC "-//W3C//DTD SVG 1.1//EN" "http://www.w3.org/Graphics/SVG/1.1/DTD/svg11.dtd">
<svg version="1.1" id="Layer_1" xmlns="http://www.w3.org/2000/svg" xmlns:xlink="http://www.w3.org/1999/xlink" x="0px" y="0px"
	 width="1190.551px" height="841.891px" viewBox="0 0 1190.551 841.891" enable-background="new 0 0 1190.551 841.891"
	 xml:space="preserve">
<g>
	<g>
		<g>
			<path fill="#002F87" d="M634.36,239.903c0-1.355,1.104-2.463,2.466-2.463c1.374,0,2.469,1.106,2.469,2.463
				c0,1.38-1.095,2.488-2.469,2.488C635.465,242.392,634.36,241.283,634.36,239.903"/>
		</g>
		<g>
			<rect x="42.16" y="367.069" fill="#FFFFFF" stroke="#FFFFFF" stroke-miterlimit="10" width="1106.229" height="3.678"/>
		</g>
		<g>
			<rect x="42.16" y="523.097" fill="#FFFFFF" stroke="#FFFFFF" stroke-miterlimit="10" width="1106.229" height="3.679"/>
		</g>
		<g>
			<g>
				<polygon fill="#FFFFFF" points="599.017,250.765 631.212,227.778 622.497,227.778 595.161,247.296 				"/>
			</g>
			<g>
				<polygon fill="#FFFFFF" points="591.295,243.827 613.775,227.778 605.061,227.778 587.437,240.359 				"/>
			</g>
			<g>
				<path fill="#FFFFFF" d="M532.519,334.237v46.18c0.551,0.071,1.1,0.115,1.675,0.115h3.378l-0.035-42.273
					C537.177,337.953,534.064,335.377,532.519,334.237"/>
			</g>
			<g>
				<path fill="#FFFFFF" d="M610.353,270.489c-31.455,10.253-56.306,35.136-66.554,66.629c1.231,1.179,2.436,2.386,3.605,3.63
					c9.7-32.396,35.448-57.842,68.012-67.069v-16.431h-5.063V270.489z"/>
			</g>
			<g>
				<path fill="#FFFFFF" d="M551.369,345.224c1.394,1.689,2.708,3.444,3.964,5.231c7.475-34.798,35.196-62.057,70.227-68.801
					v-24.407h-5.064v20.323C586.818,285.633,560.167,311.796,551.369,345.224"/>
			</g>
			<g>
				<path fill="#FFFFFF" d="M522.39,368.715c0,4.021,1.993,7.571,5.064,9.7v-47.66c-0.19-0.117-3.59-2.169-5.111-2.988
					C522.344,327.766,522.39,368.709,522.39,368.715"/>
			</g>
			<g>
				<path fill="#FFFFFF" d="M632.594,233.013l-26.838,19.167h24.803v33.783c-36.606,5.221-65.655,34.047-71.222,70.581
					c0,0.002,0.004,0.002,0.004,0.002c-0.457,3.001-0.743,6.049-0.873,9.141c-2.624-5.504-5.855-10.704-9.588-15.494
					c-1.951-2.492-4.025-4.872-6.234-7.129l-0.004,37.461h91.362c1.237,0,2.434-0.193,3.562-0.553
					c0.063-0.02,0.228-0.07,0.248-0.073c4.446-1.515,7.702-5.627,7.963-10.536c0.004-0.03,0.02-1.068,0.02-1.068
					c-0.066-1.829-0.551-3.56-1.352-5.085l-21.688-39.011h5.758l17.291,31.014V239.929v-0.025c0-4.636-3.74-8.383-8.433-8.383
					C635.605,231.521,633.951,232.071,632.594,233.013"/>
			</g>
			<g>
				<path fill="#E2231A" d="M539.661,333.389c10.758-30.864,34.995-55.411,65.656-66.552v-9.59h-6.655l-19.307-17.347l16.983-12.133
					h-25.895h-36.261c-6.521,0.004-11.8,5.284-11.806,11.807v82.479C528.58,325.167,534.376,328.977,539.661,333.389"/>
			</g>
			<g>
				<path fill="#002F87" d="M634.01,222.71L634.01,222.71h-99.785h-0.04c-9.315,0-16.856,7.557-16.856,16.883v0.065v129.065
					c0,9.322,7.541,16.871,16.856,16.872h99.825c9.307,0,16.848-7.55,16.848-16.872V239.583
					C650.852,230.261,643.314,222.71,634.01,222.71 M517.328,239.592v-0.011V239.592z M622.497,227.778h8.715l-32.194,22.986
					l-3.855-3.47L622.497,227.778z M591.295,243.827l-3.857-3.468l17.624-12.581h8.715L591.295,243.827z M527.455,378.415
					c-3.071-2.129-5.064-5.68-5.064-9.7c0,0-0.005-2.668-0.011-6.647v-34.282c1.546,0.84,4.885,2.855,5.075,2.976V378.415z
					 M537.521,380.524h-3.781c-0.407-0.014-0.823-0.059-1.222-0.107v-46.18c1.546,1.143,4.658,3.716,5.018,4.021L537.521,380.524z
					 M522.38,322.055v-82.479c0.006-6.521,5.284-11.803,11.806-11.807h62.155l-16.984,12.133l19.305,17.35h6.657v9.587
					c-30.657,11.146-54.894,35.688-65.656,66.552C534.378,328.977,528.58,325.168,522.38,322.055 M615.417,273.678L615.417,273.678
					c-32.562,9.229-58.312,34.673-68.012,67.069c-1.171-1.244-2.374-2.451-3.605-3.63c10.248-31.493,35.099-56.376,66.554-66.629
					v-13.238h5.063V273.678z M620.494,277.571v-20.32h5.064v24.404c-35.029,6.744-62.752,34.003-70.226,68.801
					c-1.266-1.787-2.571-3.542-3.965-5.231C560.167,311.796,586.818,285.633,620.494,277.571 M645.803,239.929L645.803,239.929
					v115.282l-17.287-31.014h-5.754l21.684,39.011c0.801,1.525,1.284,3.256,1.352,5.085c0,0-0.016,1.038-0.02,1.068
					c-0.265,4.909-3.517,9.021-7.963,10.536c-0.023,0.003-0.185,0.055-0.248,0.073c-1.09,0.349-2.244,0.539-3.434,0.553h-91.492
					l0.004-37.461c6.444,6.582,11.812,14.218,15.822,22.623c0.13-3.092,0.416-6.14,0.873-9.141c0,0-0.004,0-0.004-0.002
					c5.559-36.535,34.609-65.36,71.227-70.581l0.003-33.783h-24.811l26.838-19.167c1.357-0.941,3.008-1.492,4.782-1.492
					c4.69,0,8.428,3.747,8.428,8.383V239.929z"/>
			</g>
			<g>
				<path fill="#002F87" d="M635.824,242.102c0-1.32,1.079-2.395,2.396-2.395c1.343,0,2.406,1.073,2.406,2.395
					c0,1.339-1.063,2.419-2.406,2.419C636.903,244.521,635.824,243.44,635.824,242.102"/>
			</g>
		</g>
		<rect x="154.864" y="408.774" fill="none" width="865.646" height="73.886"/>
		<g enable-background="new    ">
			<path fill="#FFFFFF" d="M160.814,410.616h13.437v57.747h17.745v11.385h-31.181V410.616z"/>
			<path fill="#FFFFFF" d="M234.662,454.515c0,20.925-11.59,26.053-19.181,26.053c-12,0-19.18-9.437-19.18-25.745
				c0-18.052,9.437-26.053,19.386-26.053C227.483,428.77,234.662,438.72,234.662,454.515z M209.635,454.515
				c0,8.616,1.333,15.796,6.154,15.796c4.308,0,5.436-8.41,5.436-15.796c0-6.872-1.128-15.59-5.641-15.59
				C210.661,438.926,209.635,447.643,209.635,454.515z"/>
			<path fill="#FFFFFF" d="M241.841,467.644c1.949,1.231,5.641,2.667,9.026,2.667c3.487,0,5.436-1.538,5.436-4.513
				c0-2.564-1.436-4.206-5.846-6.77c-8.206-4.616-10.154-9.847-10.154-14.463c0-9.025,6.462-15.796,16.514-15.796
				c4.205,0,7.487,1.026,10.154,2.257l-2.359,9.847c-1.949-1.128-4.308-2.051-6.975-2.051c-3.385,0-5.026,2.051-5.026,4.308
				s1.128,3.487,5.847,6.257c7.385,4.205,10.154,9.437,10.154,15.18c0,10.257-7.385,15.796-17.745,15.796
				c-4.205,0-9.128-1.128-11.488-2.872L241.841,467.644z"/>
			<path fill="#FFFFFF" d="M291.481,466.004c2.769,1.538,7.487,2.667,11.385,2.667c6.359,0,9.436-3.282,9.436-7.796
				c0-5.025-3.077-7.487-8.923-11.282c-9.437-5.744-13.026-13.026-13.026-19.283c0-11.077,7.385-20.309,21.847-20.309
				c4.513,0,8.821,1.23,10.873,2.462l-2.154,11.59c-1.949-1.23-4.923-2.359-8.821-2.359c-5.744,0-8.513,3.487-8.513,7.18
				c0,4.104,2.051,6.257,9.539,10.771c9.128,5.538,12.514,12.514,12.514,19.796c0,12.616-9.334,20.924-22.873,20.924
				c-5.539,0-10.975-1.436-13.231-2.77L291.481,466.004z"/>
			<path fill="#FFFFFF" d="M370.149,464.465c0,5.334,0.205,10.565,0.411,15.283h-11.591l-0.718-5.334h-0.205
				c-2.359,3.385-6.462,6.154-11.59,6.154c-9.539,0-13.437-7.077-13.437-20.616v-30.36h13.539v28.925
				c0,6.564,1.231,10.77,5.026,10.77c2.256,0,3.692-1.744,4.308-3.385c0.513-1.026,0.82-2.564,0.82-4.309v-32.001h13.437V464.465z
				 M366.252,409.077l-10.359,14.36h-8.411l7.078-14.36H366.252z"/>
			<path fill="#FFFFFF" d="M379.686,445.49c0-6.052-0.205-11.181-0.41-15.898h11.693l0.718,5.743h0.205
				c2.052-4.103,5.847-6.564,10.462-6.564c11.077,0,15.59,11.898,15.59,25.848c0,17.848-7.898,25.95-16.309,25.95
				c-4.103,0-6.872-2.564-8.308-4.923h-0.205v23.796h-13.437V445.49z M393.123,461.387c0,1.744,0.205,3.282,0.718,4.309
				c1.026,3.077,2.77,3.897,4.308,3.897c4.718,0,6.359-6.975,6.359-14.873c0-9.539-2.256-14.667-6.257-14.667
				c-2.051,0-4,1.948-4.513,4.308c-0.513,1.026-0.615,2.359-0.615,3.59V461.387z"/>
			<path fill="#FFFFFF" d="M436.815,459.439c0.205,7.795,4.718,10.667,10.667,10.667c3.795,0,7.18-0.82,9.539-1.641l1.846,9.642
				c-3.487,1.333-8.718,2.256-13.847,2.256c-13.642,0-21.129-9.026-21.129-24.719c0-16.821,8.718-26.874,20.104-26.874
				c10.77,0,17.026,8.514,17.026,23.694c0,3.59-0.103,5.538-0.41,6.975H436.815z M448.815,450.003
				c0-6.462-1.641-11.488-5.641-11.488c-4.411,0-6.154,6.462-6.257,11.488H448.815z"/>
			<path fill="#FFFFFF" d="M468.506,444.669c0-5.025-0.205-10.462-0.41-15.077h11.693l0.718,7.282h0.308
				c2.257-5.334,6.257-8.104,9.949-8.104c1.333,0,2.052,0,2.872,0.206v13.334c-0.82-0.205-1.744-0.205-2.872-0.205
				c-2.872,0-6.667,1.948-8.206,7.18c-0.308,1.128-0.513,2.872-0.513,5.025v25.438h-13.539V444.669z"/>
			<path fill="#FFFFFF" d="M522.661,423.027h-12.206v-12.411h37.951v12.411h-12.309v56.721h-13.437V423.027z"/>
			<path fill="#FFFFFF" d="M568.097,416.258c0.103,4.308-2.975,7.282-7.077,7.282c-3.692,0-6.77-2.975-6.667-7.282
				c-0.103-4.514,3.18-7.283,6.872-7.283C565.122,408.974,568.097,411.744,568.097,416.258z M554.66,479.748v-50.156h13.437v50.156
				H554.66z"/>
			<path fill="#FFFFFF" d="M614.559,429.592c-0.205,4.513-0.513,9.847-0.513,15.898v28.616c0,10.771-1.949,16.719-6.052,20.617
				c-3.692,3.487-8.923,5.538-16.308,5.538c-4.616,0-8.924-0.82-12.514-2.358l2.461-10.36c2.564,1.129,5.744,2.154,9.642,2.154
				c6.77,0,9.437-4.513,9.437-12.206v-3.077h-0.205c-1.744,3.18-5.231,5.026-9.026,5.026c-11.283,0-15.693-12.309-15.693-24.31
				c0-16.719,7.59-26.36,16.924-26.36c4,0,7.283,2.052,9.231,5.847h0.205l0.719-5.025H614.559z M600.713,447.848
				c0-1.333-0.205-2.667-0.513-3.692c-0.616-2.154-2.052-4.103-4.308-4.103c-4.821,0-6.77,6.564-6.77,14.77
				c0,9.334,2.667,14.053,6.462,14.053c1.744,0,3.488-0.924,4.513-3.59c0.41-1.129,0.615-2.667,0.615-4.001V447.848z"/>
			<path fill="#FFFFFF" d="M623.275,444.669c0-5.025-0.205-10.462-0.41-15.077h11.693l0.717,7.282h0.309
				c2.256-5.334,6.256-8.104,9.949-8.104c1.333,0,2.051,0,2.871,0.206v13.334c-0.82-0.205-1.743-0.205-2.871-0.205
				c-2.872,0-6.668,1.948-8.206,7.18c-0.308,1.128-0.513,2.872-0.513,5.025v25.438h-13.539V444.669z"/>
			<path fill="#FFFFFF" d="M664.302,459.439c0.205,7.795,4.718,10.667,10.667,10.667c3.795,0,7.18-0.82,9.539-1.641l1.846,9.642
				c-3.486,1.333-8.718,2.256-13.846,2.256c-13.643,0-21.13-9.026-21.13-24.719c0-16.821,8.718-26.874,20.104-26.874
				c10.771,0,17.026,8.514,17.026,23.694c0,3.59-0.103,5.538-0.41,6.975H664.302z M676.302,450.003
				c0-6.462-1.642-11.488-5.642-11.488c-4.411,0-6.154,6.462-6.257,11.488H676.302z"/>
			<path fill="#FFFFFF" d="M695.685,467.644c1.949,1.231,5.641,2.667,9.025,2.667c3.488,0,5.437-1.538,5.437-4.513
				c0-2.564-1.436-4.206-5.847-6.77c-8.205-4.616-10.154-9.847-10.154-14.463c0-9.025,6.463-15.796,16.514-15.796
				c4.205,0,7.488,1.026,10.154,2.257l-2.359,9.847c-1.948-1.128-4.307-2.051-6.975-2.051c-3.385,0-5.025,2.051-5.025,4.308
				s1.129,3.487,5.847,6.257c7.385,4.205,10.154,9.437,10.154,15.18c0,10.257-7.386,15.796-17.745,15.796
				c-4.205,0-9.128-1.128-11.487-2.872L695.685,467.644z"/>
			<path fill="#FFFFFF" d="M782.045,408.769v56.105c0,4.821,0.205,10.258,0.41,14.873h-11.59l-0.719-5.642h-0.205
				c-1.846,3.487-5.846,6.462-10.461,6.462c-10.668,0-15.591-11.795-15.591-25.848c0-17.437,7.591-25.95,16.103-25.95
				c4.412,0,7.182,2.154,8.412,5.026h0.205v-25.027H782.045z M768.609,448.875c0-0.924,0-1.949-0.104-2.975
				c-0.512-3.077-2.154-5.847-4.82-5.847c-4.719,0-6.463,6.872-6.463,14.975c0,9.539,2.564,14.565,6.359,14.565
				c1.643,0,3.592-0.923,4.617-4.41c0.307-0.719,0.41-1.847,0.41-3.077V448.875z"/>
			<path fill="#FFFFFF" d="M802.66,459.439c0.205,7.795,4.717,10.667,10.666,10.667c3.795,0,7.18-0.82,9.539-1.641l1.848,9.642
				c-3.488,1.333-8.719,2.256-13.848,2.256c-13.643,0-21.129-9.026-21.129-24.719c0-16.821,8.719-26.874,20.104-26.874
				c10.77,0,17.025,8.514,17.025,23.694c0,3.59-0.102,5.538-0.41,6.975H802.66z M814.66,450.003c0-6.462-1.641-11.488-5.641-11.488
				c-4.412,0-6.154,6.462-6.258,11.488H814.66z"/>
			<path fill="#FFFFFF" d="M850.76,408.769h13.438v70.979H850.76V408.769z"/>
			<path fill="#FFFFFF" d="M896.301,479.748l-0.719-4.924h-0.205c-2.77,3.898-6.666,5.744-11.076,5.744
				c-7.592,0-13.232-6.359-13.232-15.282c0-13.129,11.59-18.565,22.977-18.668v-1.128c0-3.898-2.359-6.77-7.078-6.77
				c-4,0-7.283,1.025-10.258,2.871l-2.461-9.025c2.77-1.642,8.615-3.796,15.59-3.796c15.283,0,17.746,10.668,17.746,20.822v18.667
				c0,4.001,0.205,8.104,0.82,11.488H896.301z M894.455,455.337c-4.514,0.103-10.668,1.538-10.668,8.513
				c0,5.026,2.77,6.872,4.82,6.872c2.154,0,4.615-1.333,5.539-4.308c0.205-0.718,0.309-1.539,0.309-2.359V455.337z"/>
			<path fill="#FFFFFF" d="M947.07,425.694h-0.205l-11.283,5.846l-2.258-10.564l15.283-7.897h11.797v66.67H947.07V425.694z"/>
			<path fill="#FFFFFF" d="M974.453,462.414c0-8.309,4.615-14.258,10.053-17.745v-0.205c-5.643-3.692-8.207-9.437-8.207-14.667
				c0-10.873,8.617-17.54,18.873-17.54c9.539,0,17.232,6.462,17.232,16.411c0,4.411-1.744,10.36-8.719,14.771v0.205
				c6.154,3.385,10.258,9.539,10.258,17.437c0,12.309-9.027,19.488-20.002,19.488C982.556,480.568,974.453,473.286,974.453,462.414z
				 M1000.916,461.593c0-6.256-3.896-10.359-7.693-12.308c-3.385,2.358-5.742,6.462-5.742,11.59c0,5.744,2.357,10.668,6.975,10.668
				C998.66,471.543,1000.916,467.234,1000.916,461.593z M988.916,429.386c0,4.718,2.666,8,6.564,10.052
				c2.871-1.539,4.615-5.642,4.615-9.539c0-4.514-1.539-8.616-5.436-8.616C990.761,421.283,988.916,425.283,988.916,429.386z"/>
		</g>
		<rect x="73.572" y="564.235" fill="none" width="1029.783" height="54.944"/>
		<g enable-background="new    ">
			<path fill="#FFFFFF" d="M491.678,616.252c-1.449,0.687-4.271,1.221-7.78,1.221c-13.12,0-19.375-10.832-19.375-25.401
				c0-19.375,10.755-26.926,20.748-26.926c3.509,0,5.95,0.687,6.941,1.373l-1.678,8.391c-1.144-0.534-2.441-0.992-4.653-0.992
				c-5.645,0-10.755,4.882-10.755,17.62c0,12.281,4.653,17.087,10.755,17.087c1.678,0,3.585-0.382,4.805-0.763L491.678,616.252z"/>
			<path fill="#FFFFFF" d="M496.71,564.229h9.993v19.375h0.152c0.839-1.297,1.983-2.364,3.204-3.203
				c1.449-0.84,3.204-1.297,5.035-1.297c6.865,0,9.535,5.797,9.535,15.256v22.654h-9.993V594.36c0-3.662-0.686-6.865-3.661-6.865
				c-1.678,0-3.127,0.991-3.89,3.509c-0.153,0.61-0.381,1.983-0.381,2.822v23.188h-9.993V564.229z"/>
			<path fill="#FFFFFF" d="M558.874,598.25c0,15.561-8.62,19.375-14.264,19.375c-8.924,0-14.264-7.018-14.264-19.146
				c0-13.425,7.018-19.374,14.417-19.374C553.534,579.104,558.874,586.503,558.874,598.25z M540.262,598.25
				c0,6.407,0.992,11.747,4.577,11.747c3.204,0,4.043-6.255,4.043-11.747c0-5.11-0.839-11.595-4.196-11.595
				C541.025,586.655,540.262,593.139,540.262,598.25z"/>
			<path fill="#FFFFFF" d="M564.44,590.927c0-3.738-0.153-7.781-0.305-11.213h8.696l0.534,5.415h0.229
				c1.678-3.966,4.653-6.025,7.399-6.025c0.992,0,1.526,0,2.136,0.152v9.916c-0.61-0.152-1.296-0.152-2.136-0.152
				c-2.136,0-4.958,1.449-6.102,5.34c-0.229,0.839-0.381,2.136-0.381,3.737v18.917H564.44V590.927z"/>
			<path fill="#FFFFFF" d="M586.864,590.927c0-3.738-0.153-7.781-0.305-11.213h8.696l0.534,5.415h0.229
				c1.678-3.966,4.652-6.025,7.398-6.025c0.992,0,1.526,0,2.137,0.152v9.916c-0.61-0.152-1.297-0.152-2.137-0.152
				c-2.135,0-4.957,1.449-6.102,5.34c-0.229,0.839-0.381,2.136-0.381,3.737v18.917h-10.069V590.927z"/>
			<path fill="#FFFFFF" d="M619.357,569.798c0.076,3.204-2.213,5.416-5.264,5.416c-2.746,0-5.035-2.212-4.959-5.416
				c-0.076-3.356,2.365-5.415,5.111-5.415C617.144,564.383,619.357,566.441,619.357,569.798z M609.364,617.014v-37.3h9.993v37.3
				H609.364z"/>
			<path fill="#FFFFFF" d="M626.373,564.229h9.992v52.785h-9.992V564.229z"/>
			<path fill="#FFFFFF" d="M643.533,564.229h9.993v52.785h-9.993V564.229z"/>
			<path fill="#FFFFFF" d="M687.926,598.25c0,15.561-8.619,19.375-14.264,19.375c-8.924,0-14.264-7.018-14.264-19.146
				c0-13.425,7.018-19.374,14.416-19.374C682.587,579.104,687.926,586.503,687.926,598.25z M669.314,598.25
				c0,6.407,0.992,11.747,4.576,11.747c3.204,0,4.043-6.255,4.043-11.747c0-5.11-0.839-11.595-4.195-11.595
				C670.077,586.655,669.314,593.139,669.314,598.25z"/>
			<path fill="#FFFFFF" d="M693.263,608.013c1.449,0.915,4.195,1.983,6.713,1.983c2.594,0,4.043-1.145,4.043-3.356
				c0-1.907-1.068-3.127-4.348-5.034c-6.104-3.433-7.553-7.323-7.553-10.756c0-6.712,4.807-11.746,12.281-11.746
				c3.127,0,5.568,0.763,7.552,1.678l-1.755,7.323c-1.449-0.84-3.203-1.526-5.187-1.526c-2.517,0-3.737,1.526-3.737,3.204
				s0.839,2.594,4.348,4.653c5.492,3.127,7.551,7.018,7.551,11.289c0,7.628-5.491,11.747-13.195,11.747
				c-3.128,0-6.789-0.84-8.543-2.136L693.263,608.013z"/>
		</g>
	</g>
</g>
</svg>
