<?xml version="1.0" encoding="utf-8"?>
<!-- Generator: Adobe Illustrator 16.0.0, SVG Export Plug-In . SVG Version: 6.00 Build 0)  -->
<!DOCTYPE svg PUBLIC "-//W3C//DTD SVG 1.1//EN" "http://www.w3.org/Graphics/SVG/1.1/DTD/svg11.dtd">
<svg version="1.1" id="Layer_1" xmlns="http://www.w3.org/2000/svg" xmlns:xlink="http://www.w3.org/1999/xlink" x="0px" y="0px"
	 width="1190.551px" height="841.891px" viewBox="0 0 1190.551 841.891" enable-background="new 0 0 1190.551 841.891"
	 xml:space="preserve">
<g>
	<g>
		<g>
			<path fill="#002F87" d="M632.299,294.76c0-0.99,0.812-1.798,1.814-1.798c1.015,0,1.818,0.808,1.818,1.798
				c0,1.005-0.806,1.812-1.818,1.812C633.111,296.572,632.299,295.764,632.299,294.76"/>
		</g>
		<g>
			<rect x="74.29" y="387.458" fill="#FFFFFF" stroke="#FFFFFF" stroke-miterlimit="10" width="1041.971" height="2.682"/>
		</g>
		<g>
			<rect x="74.29" y="556.981" fill="#FFFFFF" stroke="#FFFFFF" stroke-miterlimit="10" width="1041.971" height="2.685"/>
		</g>
		<g>
			<g>
				<polygon fill="#FFFFFF" points="606.267,302.675 629.979,285.919 623.562,285.919 603.427,300.146 				"/>
			</g>
			<g>
				<polygon fill="#FFFFFF" points="600.579,297.618 617.137,285.919 610.719,285.919 597.739,295.09 				"/>
			</g>
			<g>
				<path fill="#FFFFFF" d="M557.292,363.524v33.663c0.404,0.053,0.81,0.085,1.232,0.085h2.489l-0.027-30.815
					C560.722,366.233,558.429,364.355,557.292,363.524"/>
			</g>
			<g>
				<path fill="#FFFFFF" d="M614.615,317.054c-23.167,7.475-41.469,25.612-49.015,48.569c0.907,0.859,1.792,1.74,2.655,2.647
					c7.144-23.617,26.107-42.166,50.09-48.894V307.4h-3.729L614.615,317.054L614.615,317.054z"/>
			</g>
			<g>
				<path fill="#FFFFFF" d="M571.175,371.533c1.025,1.231,1.994,2.512,2.919,3.813c5.505-25.365,25.922-45.236,51.721-50.153
					v-17.792h-3.729v14.814C597.282,328.093,577.654,347.165,571.175,371.533"/>
			</g>
			<g>
				<path fill="#FFFFFF" d="M549.831,388.658c0,2.93,1.47,5.519,3.731,7.07v-34.742c-0.141-0.086-2.646-1.582-3.766-2.181
					L549.831,388.658"/>
			</g>
			<g>
				<path fill="#FFFFFF" d="M630.997,289.735l-19.767,13.971h18.268v24.629c-26.962,3.805-48.356,24.818-52.456,51.451l0.002,0.002
					c-0.336,2.188-0.547,4.408-0.644,6.662c-1.932-4.013-4.312-7.804-7.061-11.296c-1.438-1.816-2.966-3.551-4.593-5.195
					l-0.002,27.309h67.288c0.913,0,1.793-0.142,2.627-0.404c0.046-0.012,0.167-0.05,0.183-0.053
					c3.273-1.104,5.674-4.103,5.866-7.682c0.001-0.021,0.013-0.777,0.013-0.777c-0.048-1.334-0.404-2.596-0.995-3.707
					l-15.974-28.438h4.239l12.737,22.608v-84.038v-0.019c0-3.38-2.757-6.111-6.211-6.111
					C633.217,288.646,631.996,289.049,630.997,289.735"/>
			</g>
			<g>
				<path fill="#E2231A" d="M562.551,362.906c7.925-22.5,25.775-40.394,48.356-48.514v-6.991h-4.9l-14.222-12.646l12.509-8.845
					h-19.068h-26.708c-4.801,0.004-8.689,3.854-8.694,8.608v60.124C554.39,356.912,558.658,359.689,562.551,362.906"/>
			</g>
			<g>
				<path fill="#002F87" d="M632.04,282.225L632.04,282.225h-73.491h-0.031c-6.86,0-12.415,5.508-12.415,12.307v0.048v94.085
					c0,6.796,5.554,12.298,12.415,12.3h73.522c6.854,0,12.407-5.504,12.407-12.3v-94.14
					C644.444,287.729,638.893,282.225,632.04,282.225 M546.103,294.531v-0.008V294.531z M623.562,285.919h6.417l-23.712,16.757
					l-2.84-2.528L623.562,285.919z M600.579,297.618l-2.84-2.528l12.979-9.171h6.419L600.579,297.618z M553.562,395.729
					c-2.262-1.553-3.731-4.142-3.731-7.07c0,0-0.003-1.946-0.008-4.847V358.82c1.141,0.613,3.599,2.082,3.739,2.17V395.729z
					 M560.976,397.267h-2.785c-0.3-0.012-0.606-0.042-0.899-0.079v-33.663c1.138,0.832,3.431,2.709,3.694,2.933L560.976,397.267z
					 M549.823,354.644V294.52c0.005-4.756,3.894-8.604,8.694-8.608h45.78l-12.513,8.845l14.22,12.647h4.902v6.989
					c-22.579,8.125-40.429,26.014-48.356,48.514C558.66,359.689,554.39,356.913,549.823,354.644 M618.345,319.379L618.345,319.379
					c-23.981,6.728-42.946,25.275-50.09,48.894c-0.863-0.907-1.748-1.788-2.655-2.647c7.546-22.957,25.848-41.096,49.015-48.569
					v-9.65h3.729L618.345,319.379L618.345,319.379z M622.087,322.218v-14.813h3.729v17.79
					c-25.799,4.917-46.216,24.788-51.721,50.153c-0.932-1.303-1.895-2.582-2.919-3.813
					C577.654,347.165,597.282,328.093,622.087,322.218 M640.726,294.776L640.726,294.776v84.038l-12.733-22.608h-4.236
					l15.971,28.438c0.591,1.111,0.947,2.373,0.995,3.707c0,0-0.012,0.756-0.013,0.777c-0.195,3.579-2.593,6.577-5.866,7.682
					c-0.019,0.003-0.138,0.041-0.183,0.053c-0.803,0.256-1.652,0.394-2.528,0.404h-67.386l0.002-27.309
					c4.747,4.798,8.701,10.364,11.653,16.491c0.097-2.254,0.308-4.475,0.644-6.662l-0.002-0.002
					c4.094-26.633,25.492-47.646,52.459-51.451l0.002-24.629H611.23l19.767-13.971c0.999-0.688,2.217-1.089,3.521-1.089
					c3.454,0,6.207,2.731,6.207,6.111L640.726,294.776L640.726,294.776z"/>
			</g>
			<g>
				<path fill="#002F87" d="M633.378,296.359c0-0.961,0.793-1.744,1.763-1.744c0.989,0,1.772,0.783,1.772,1.744
					c0,0.977-0.783,1.765-1.772,1.765C634.171,298.124,633.378,297.336,633.378,296.359"/>
			</g>
		</g>
	</g>
	<rect x="81.679" y="418.349" fill="none" width="1041.969" height="55.722"/>
	<g enable-background="new    ">
		<path fill="#FFFFFF" d="M86.166,419.747h10.132v43.546h13.381v8.586H86.166V419.747z"/>
		<path fill="#FFFFFF" d="M141.858,452.851c0,15.778-8.74,19.646-14.464,19.646c-9.05,0-14.464-7.116-14.464-19.414
			c0-13.613,7.116-19.646,14.619-19.646C136.444,433.437,141.858,440.94,141.858,452.851z M122.986,452.851
			c0,6.497,1.005,11.911,4.641,11.911c3.249,0,4.1-6.342,4.1-11.911c0-5.183-0.851-11.757-4.254-11.757
			C123.759,441.094,122.986,447.669,122.986,452.851z"/>
		<path fill="#FFFFFF" d="M147.275,462.752c1.47,0.928,4.254,2.011,6.807,2.011c2.63,0,4.099-1.16,4.099-3.403
			c0-1.934-1.083-3.171-4.409-5.104c-6.188-3.48-7.657-7.426-7.657-10.906c0-6.807,4.873-11.911,12.453-11.911
			c3.171,0,5.646,0.773,7.658,1.702l-1.779,7.425c-1.469-0.851-3.249-1.547-5.259-1.547c-2.553,0-3.79,1.547-3.79,3.248
			c0,1.702,0.851,2.63,4.409,4.719c5.569,3.171,7.657,7.116,7.657,11.447c0,7.734-5.569,11.911-13.381,11.911
			c-3.171,0-6.884-0.851-8.663-2.165L147.275,462.752z"/>
		<path fill="#FFFFFF" d="M185.874,420.52c2.862-0.618,6.729-1.006,10.596-1.006c6.033,0,10.751,0.852,14.155,4.022
			c3.094,2.707,4.486,7.039,4.486,11.447c0,5.646-1.702,9.591-4.409,12.53c-3.249,3.403-8.508,4.95-12.685,4.95
			c-0.696,0-1.392,0-2.011,0v19.414h-10.132V420.52z M196.006,444.188c0.464,0.155,1.005,0.155,1.624,0.155
			c5.105,0,7.425-3.636,7.425-8.509c0-4.563-1.856-8.121-6.574-8.121c-0.928,0-1.856,0.154-2.475,0.387V444.188z"/>
		<path fill="#FFFFFF" d="M246.283,452.851c0,15.778-8.74,19.646-14.464,19.646c-9.05,0-14.464-7.116-14.464-19.414
			c0-13.613,7.116-19.646,14.619-19.646C240.869,433.437,246.283,440.94,246.283,452.851z M227.411,452.851
			c0,6.497,1.005,11.911,4.641,11.911c3.249,0,4.099-6.342,4.099-11.911c0-5.183-0.851-11.757-4.254-11.757
			C228.184,441.094,227.411,447.669,227.411,452.851z"/>
		<path fill="#FFFFFF" d="M279.468,418.354v42.31c0,3.635,0.155,7.734,0.31,11.215h-8.74l-0.542-4.254h-0.155
			c-1.392,2.63-4.409,4.873-7.889,4.873c-8.044,0-11.757-8.896-11.757-19.492c0-13.148,5.724-19.568,12.144-19.568
			c3.326,0,5.414,1.624,6.342,3.79h0.155v-18.873H279.468z M269.336,448.597c0-0.696,0-1.47-0.078-2.243
			c-0.387-2.32-1.624-4.409-3.635-4.409c-3.558,0-4.873,5.183-4.873,11.293c0,7.193,1.934,10.983,4.795,10.983
			c1.237,0,2.707-0.696,3.48-3.326c0.232-0.541,0.31-1.392,0.31-2.32V448.597z"/>
		<path fill="#FFFFFF" d="M295.017,456.564c0.155,5.878,3.558,8.044,8.044,8.044c2.862,0,5.415-0.619,7.193-1.237l1.392,7.271
			c-2.629,1.005-6.574,1.701-10.442,1.701c-10.287,0-15.933-6.807-15.933-18.641c0-12.685,6.574-20.265,15.16-20.265
			c8.122,0,12.84,6.42,12.84,17.867c0,2.707-0.078,4.177-0.31,5.26H295.017z M304.067,449.448c0-4.873-1.238-8.663-4.254-8.663
			c-3.326,0-4.641,4.873-4.718,8.663H304.067z"/>
		<path fill="#FFFFFF" d="M318.919,445.427c0-3.79-0.155-7.89-0.309-11.37h8.817l0.542,5.491h0.232
			c1.702-4.021,4.718-6.11,7.502-6.11c1.006,0,1.547,0,2.166,0.154v10.056c-0.619-0.155-1.315-0.155-2.166-0.155
			c-2.166,0-5.027,1.47-6.188,5.415c-0.232,0.851-0.387,2.165-0.387,3.79v19.182h-10.21V445.427z"/>
		<path fill="#FFFFFF" d="M369.041,452.851c0,15.778-8.74,19.646-14.464,19.646c-9.05,0-14.464-7.116-14.464-19.414
			c0-13.613,7.116-19.646,14.619-19.646C363.627,433.437,369.041,440.94,369.041,452.851z M350.169,452.851
			c0,6.497,1.005,11.911,4.641,11.911c3.249,0,4.099-6.342,4.099-11.911c0-5.183-0.851-11.757-4.254-11.757
			C350.942,441.094,350.169,447.669,350.169,452.851z"/>
		<path fill="#FFFFFF" d="M374.458,462.752c1.47,0.928,4.254,2.011,6.807,2.011c2.63,0,4.099-1.16,4.099-3.403
			c0-1.934-1.083-3.171-4.409-5.104c-6.188-3.48-7.657-7.426-7.657-10.906c0-6.807,4.873-11.911,12.453-11.911
			c3.171,0,5.646,0.773,7.658,1.702l-1.779,7.425c-1.469-0.851-3.249-1.547-5.259-1.547c-2.553,0-3.79,1.547-3.79,3.248
			c0,1.702,0.851,2.63,4.409,4.719c5.569,3.171,7.657,7.116,7.657,11.447c0,7.734-5.569,11.911-13.381,11.911
			c-3.171,0-6.884-0.851-8.663-2.165L374.458,462.752z"/>
		<path fill="#FFFFFF" d="M427.443,452.851c0,15.778-8.74,19.646-14.464,19.646c-9.05,0-14.464-7.116-14.464-19.414
			c0-13.613,7.116-19.646,14.619-19.646C422.028,433.437,427.443,440.94,427.443,452.851z M408.57,452.851
			c0,6.497,1.005,11.911,4.641,11.911c3.249,0,4.099-6.342,4.099-11.911c0-5.183-0.851-11.757-4.254-11.757
			C409.344,441.094,408.57,447.669,408.57,452.851z"/>
		<path fill="#FFFFFF" d="M432.86,462.752c1.47,0.928,4.254,2.011,6.807,2.011c2.63,0,4.099-1.16,4.099-3.403
			c0-1.934-1.083-3.171-4.409-5.104c-6.188-3.48-7.657-7.426-7.657-10.906c0-6.807,4.873-11.911,12.453-11.911
			c3.171,0,5.646,0.773,7.658,1.702l-1.779,7.425c-1.469-0.851-3.249-1.547-5.259-1.547c-2.553,0-3.79,1.547-3.79,3.248
			c0,1.702,0.851,2.63,4.409,4.719c5.569,3.171,7.657,7.116,7.657,11.447c0,7.734-5.569,11.911-13.381,11.911
			c-3.171,0-6.884-0.851-8.663-2.165L432.86,462.752z"/>
		<path fill="#FFFFFF" d="M471.458,420.52c3.171-0.618,7.193-1.006,11.061-1.006c5.569,0,10.519,0.774,13.922,3.868
			c3.171,2.861,4.099,6.342,4.099,10.828c0,5.569-2.707,10.597-8.044,13.071v0.155c3.558,1.392,5.337,4.718,6.342,10.287
			c1.006,5.801,2.398,12.221,3.326,14.154h-10.597c-0.619-1.47-1.779-6.729-2.552-12.453c-0.928-6.497-2.553-8.354-5.956-8.354
			h-1.47v20.807h-10.132V420.52z M481.59,443.26h1.779c4.409,0,6.961-3.558,6.961-8.121c0-4.409-1.779-7.58-6.343-7.735
			c-0.851,0-1.856,0.077-2.397,0.31V443.26z"/>
		<path fill="#FFFFFF" d="M515.084,456.564c0.155,5.878,3.558,8.044,8.044,8.044c2.862,0,5.415-0.619,7.193-1.237l1.392,7.271
			c-2.63,1.005-6.574,1.701-10.442,1.701c-10.287,0-15.933-6.807-15.933-18.641c0-12.685,6.574-20.265,15.16-20.265
			c8.122,0,12.84,6.42,12.84,17.867c0,2.707-0.078,4.177-0.31,5.26H515.084z M524.133,449.448c0-4.873-1.237-8.663-4.254-8.663
			c-3.326,0-4.641,4.873-4.718,8.663H524.133z"/>
		<path fill="#FFFFFF" d="M538.986,446.045c0-4.563-0.155-8.431-0.309-11.988h8.817l0.542,4.331h0.155
			c1.547-3.094,4.409-4.95,7.889-4.95c8.354,0,11.757,8.973,11.757,19.491c0,13.459-5.956,19.569-12.298,19.569
			c-3.094,0-5.182-1.934-6.265-3.713h-0.155v17.944h-10.132V446.045z M549.118,458.034c0,1.314,0.155,2.475,0.542,3.248
			c0.773,2.32,2.088,2.939,3.249,2.939c3.558,0,4.796-5.26,4.796-11.216c0-7.192-1.702-11.061-4.718-11.061
			c-1.547,0-3.017,1.47-3.403,3.249c-0.387,0.773-0.464,1.779-0.464,2.707V458.034z"/>
		<path fill="#FFFFFF" d="M573.562,445.427c0-3.79-0.155-7.89-0.309-11.37h8.817l0.542,5.491h0.232
			c1.702-4.021,4.718-6.11,7.502-6.11c1.006,0,1.547,0,2.166,0.154v10.056c-0.619-0.155-1.315-0.155-2.166-0.155
			c-2.166,0-5.027,1.47-6.188,5.415c-0.232,0.851-0.387,2.165-0.387,3.79v19.182h-10.21V445.427z"/>
		<path fill="#FFFFFF" d="M623.685,452.851c0,15.778-8.74,19.646-14.465,19.646c-9.049,0-14.463-7.116-14.463-19.414
			c0-13.613,7.116-19.646,14.619-19.646C618.27,433.437,623.685,440.94,623.685,452.851z M604.812,452.851
			c0,6.497,1.006,11.911,4.641,11.911c3.248,0,4.1-6.342,4.1-11.911c0-5.183-0.852-11.757-4.254-11.757
			C605.586,441.094,604.812,447.669,604.812,452.851z"/>
		<path fill="#FFFFFF" d="M656.869,418.354v42.31c0,3.635,0.155,7.734,0.311,11.215h-8.74l-0.542-4.254h-0.155
			c-1.392,2.63-4.408,4.873-7.889,4.873c-8.045,0-11.757-8.896-11.757-19.492c0-13.148,5.724-19.568,12.144-19.568
			c3.326,0,5.414,1.624,6.342,3.79h0.155v-18.873H656.869z M646.737,448.597c0-0.696,0-1.47-0.077-2.243
			c-0.387-2.32-1.625-4.409-3.636-4.409c-3.558,0-4.872,5.183-4.872,11.293c0,7.193,1.934,10.983,4.795,10.983
			c1.237,0,2.707-0.696,3.48-3.326c0.232-0.541,0.31-1.392,0.31-2.32V448.597z"/>
		<path fill="#FFFFFF" d="M691.677,460.354c0,4.021,0.154,7.967,0.309,11.524h-8.74l-0.541-4.022h-0.154
			c-1.779,2.553-4.873,4.642-8.74,4.642c-7.193,0-10.133-5.337-10.133-15.547v-22.895h10.211v21.812c0,4.95,0.928,8.121,3.789,8.121
			c1.701,0,2.785-1.314,3.248-2.552c0.387-0.773,0.619-1.934,0.619-3.249v-24.132h10.133V460.354z"/>
		<path fill="#FFFFFF" d="M719.912,471.26c-1.006,0.465-3.559,1.083-6.42,1.083c-9.592,0-15.855-6.651-15.855-19.027
			c0-11.679,6.883-19.801,17.324-19.801c2.398,0,4.564,0.542,5.57,1.006l-1.314,7.967c-0.852-0.31-2.09-0.696-3.791-0.696
			c-4.873,0-7.734,4.641-7.734,11.215c0,6.885,2.861,11.061,7.58,11.061c1.469,0,2.707-0.231,3.789-0.773L719.912,471.26z"/>
		<path fill="#FFFFFF" d="M737.316,423.846v10.21h7.426v7.193h-7.426v17.248c0,4.408,1.855,5.491,3.867,5.491
			c1.006,0,1.779-0.077,2.631-0.231l0.076,7.889c-1.393,0.387-3.48,0.696-6.188,0.696c-2.939,0-5.492-0.696-7.27-2.397
			c-2.09-2.011-3.25-4.873-3.25-10.829V441.25h-4.486v-7.193h4.486v-7.812L737.316,423.846z"/>
		<path fill="#FFFFFF" d="M776.611,452.851c0,15.778-8.74,19.646-14.465,19.646c-9.049,0-14.463-7.116-14.463-19.414
			c0-13.613,7.115-19.646,14.617-19.646C771.197,433.437,776.611,440.94,776.611,452.851z M757.738,452.851
			c0,6.497,1.006,11.911,4.641,11.911c3.248,0,4.1-6.342,4.1-11.911c0-5.183-0.852-11.757-4.254-11.757
			C758.511,441.094,757.738,447.669,757.738,452.851z"/>
		<path fill="#FFFFFF" d="M782.26,445.427c0-3.79-0.154-7.89-0.311-11.37h8.818l0.541,5.491h0.232
			c1.701-4.021,4.719-6.11,7.502-6.11c1.006,0,1.547,0,2.166,0.154v10.056c-0.619-0.155-1.314-0.155-2.166-0.155
			c-2.164,0-5.027,1.47-6.188,5.415c-0.232,0.851-0.387,2.165-0.387,3.79v19.182H782.26V445.427z"/>
		<path fill="#FFFFFF" d="M813.199,456.564c0.156,5.878,3.559,8.044,8.045,8.044c2.861,0,5.414-0.619,7.193-1.237l1.393,7.271
			c-2.631,1.005-6.574,1.701-10.441,1.701c-10.287,0-15.934-6.807-15.934-18.641c0-12.685,6.574-20.265,15.16-20.265
			c8.121,0,12.838,6.42,12.838,17.867c0,2.707-0.076,4.177-0.309,5.26H813.199z M822.25,449.448c0-4.873-1.238-8.663-4.254-8.663
			c-3.326,0-4.641,4.873-4.719,8.663H822.25z"/>
		<path fill="#FFFFFF" d="M836.871,462.752c1.469,0.928,4.254,2.011,6.805,2.011c2.631,0,4.1-1.16,4.1-3.403
			c0-1.934-1.082-3.171-4.408-5.104c-6.188-3.48-7.658-7.426-7.658-10.906c0-6.807,4.873-11.911,12.453-11.911
			c3.172,0,5.646,0.773,7.658,1.702l-1.779,7.425c-1.469-0.851-3.248-1.547-5.26-1.547c-2.553,0-3.789,1.547-3.789,3.248
			c0,1.702,0.85,2.63,4.408,4.719c5.568,3.171,7.658,7.116,7.658,11.447c0,7.734-5.57,11.911-13.383,11.911
			c-3.17,0-6.883-0.851-8.662-2.165L836.871,462.752z"/>
		<path fill="#FFFFFF" d="M901.998,418.354v42.31c0,3.635,0.154,7.734,0.309,11.215h-8.74l-0.541-4.254h-0.154
			c-1.393,2.63-4.408,4.873-7.889,4.873c-8.045,0-11.758-8.896-11.758-19.492c0-13.148,5.725-19.568,12.145-19.568
			c3.326,0,5.414,1.624,6.342,3.79h0.154v-18.873H901.998z M891.865,448.597c0-0.696,0-1.47-0.076-2.243
			c-0.387-2.32-1.625-4.409-3.637-4.409c-3.557,0-4.873,5.183-4.873,11.293c0,7.193,1.934,10.983,4.797,10.983
			c1.236,0,2.707-0.696,3.48-3.326c0.232-0.541,0.309-1.392,0.309-2.32V448.597z"/>
		<path fill="#FFFFFF" d="M917.547,456.564c0.154,5.878,3.559,8.044,8.045,8.044c2.861,0,5.414-0.619,7.191-1.237l1.393,7.271
			c-2.629,1.005-6.574,1.701-10.441,1.701c-10.287,0-15.934-6.807-15.934-18.641c0-12.685,6.574-20.265,15.16-20.265
			c8.121,0,12.84,6.42,12.84,17.867c0,2.707-0.078,4.177-0.309,5.26H917.547z M926.595,449.448c0-4.873-1.236-8.663-4.254-8.663
			c-3.326,0-4.641,4.873-4.717,8.663H926.595z"/>
		<path fill="#FFFFFF" d="M941.525,418.354h10.133v53.524h-10.133V418.354z"/>
		<path fill="#FFFFFF" d="M972.158,471.879v-52.132h9.281l8.043,20.42c1.547,4.021,4.1,10.751,5.57,15.237h0.154
			c-0.311-5.492-1.006-14.541-1.006-24.133v-11.524h8.895v52.132h-9.281l-7.967-19.801c-1.701-4.409-4.1-10.983-5.26-15.701h-0.154
			c0.232,5.26,0.619,13.304,0.619,23.745v11.757H972.158z"/>
		<path fill="#FFFFFF" d="M1038.369,452.851c0,15.778-8.74,19.646-14.463,19.646c-9.051,0-14.465-7.116-14.465-19.414
			c0-13.613,7.117-19.646,14.619-19.646C1032.955,433.437,1038.369,440.94,1038.369,452.851z M1019.496,452.851
			c0,6.497,1.006,11.911,4.641,11.911c3.25,0,4.1-6.342,4.1-11.911c0-5.183-0.85-11.757-4.254-11.757
			C1020.269,441.094,1019.496,447.669,1019.496,452.851z"/>
		<path fill="#FFFFFF" d="M1044.019,445.427c0-3.79-0.154-7.89-0.311-11.37h8.818l0.541,5.491h0.232
			c1.701-4.021,4.719-6.11,7.502-6.11c1.006,0,1.547,0,2.166,0.154v10.056c-0.619-0.155-1.314-0.155-2.166-0.155
			c-2.164,0-5.027,1.47-6.188,5.415c-0.232,0.851-0.387,2.165-0.387,3.79v19.182h-10.209V445.427z"/>
		<path fill="#FFFFFF" d="M1080.14,423.846v10.21h7.426v7.193h-7.426v17.248c0,4.408,1.855,5.491,3.867,5.491
			c1.006,0,1.779-0.077,2.631-0.231l0.076,7.889c-1.393,0.387-3.48,0.696-6.188,0.696c-2.939,0-5.492-0.696-7.27-2.397
			c-2.09-2.011-3.25-4.873-3.25-10.829V441.25h-4.486v-7.193h4.486v-7.812L1080.14,423.846z"/>
		<path fill="#FFFFFF" d="M1100.252,456.564c0.154,5.878,3.559,8.044,8.045,8.044c2.861,0,5.414-0.619,7.191-1.237l1.393,7.271
			c-2.629,1.005-6.574,1.701-10.441,1.701c-10.287,0-15.934-6.807-15.934-18.641c0-12.685,6.574-20.265,15.16-20.265
			c8.121,0,12.84,6.42,12.84,17.867c0,2.707-0.078,4.177-0.309,5.26H1100.252z M1109.301,449.448c0-4.873-1.236-8.663-4.254-8.663
			c-3.326,0-4.641,4.873-4.717,8.663H1109.301z"/>
	</g>
	<rect x="268.356" y="555.238" fill="none" width="654.253" height="34.987"/>
	<g enable-background="new    ">
		<path fill="#FFFFFF" d="M466.825,556.597c1.797-0.389,4.226-0.631,6.654-0.631c3.789,0,6.751,0.534,8.888,2.525
			c1.943,1.7,2.817,4.42,2.817,7.188c0,3.545-1.068,6.022-2.768,7.868c-2.04,2.137-5.343,3.108-7.965,3.108
			c-0.437,0-0.875,0-1.263,0v12.19h-6.363V556.597z M473.188,571.46c0.291,0.098,0.631,0.098,1.02,0.098
			c3.206,0,4.663-2.283,4.663-5.343c0-2.866-1.166-5.1-4.128-5.1c-0.583,0-1.166,0.097-1.554,0.242V571.46z"/>
		<path fill="#FFFFFF" d="M505.68,581.611c0,2.525,0.097,5.002,0.194,7.236h-5.488l-0.34-2.525h-0.097
			c-1.117,1.603-3.06,2.914-5.488,2.914c-4.517,0-6.362-3.352-6.362-9.763v-14.376h6.411v13.696c0,3.108,0.583,5.1,2.38,5.1
			c1.068,0,1.748-0.825,2.04-1.603c0.243-0.485,0.389-1.215,0.389-2.04v-15.153h6.362V581.611z"/>
		<path fill="#FFFFFF" d="M515.54,579.231c0.097,3.69,2.234,5.051,5.051,5.051c1.797,0,3.4-0.389,4.517-0.777l0.874,4.565
			c-1.651,0.632-4.128,1.068-6.557,1.068c-6.459,0-10.005-4.273-10.005-11.705c0-7.965,4.128-12.725,9.519-12.725
			c5.1,0,8.062,4.031,8.062,11.22c0,1.699-0.048,2.622-0.194,3.303H515.54z M521.223,574.762c0-3.06-0.777-5.439-2.671-5.439
			c-2.088,0-2.914,3.06-2.963,5.439H521.223z"/>
		<path fill="#FFFFFF" d="M530.597,572.237c0-2.623-0.146-4.905-0.194-7.14h5.488l0.291,2.72h0.097
			c1.263-1.895,3.303-3.108,5.78-3.108c4.517,0,6.314,3.594,6.314,8.888v15.251h-6.362v-14.862c0-2.04-0.486-3.934-2.332-3.934
			c-1.068,0-1.943,0.729-2.38,2.137c-0.194,0.485-0.34,1.263-0.34,2.186v14.474h-6.362V572.237z"/>
		<path fill="#FFFFFF" d="M560.321,558.686v6.411h4.663v4.517h-4.663v10.831c0,2.769,1.166,3.448,2.428,3.448
			c0.631,0,1.117-0.049,1.651-0.146l0.049,4.954c-0.875,0.242-2.186,0.437-3.886,0.437c-1.846,0-3.448-0.437-4.565-1.505
			c-1.312-1.263-2.04-3.061-2.04-6.8v-11.22h-2.817v-4.517h2.817v-4.905L560.321,558.686z"/>
		<path fill="#FFFFFF" d="M572.949,579.231c0.097,3.69,2.234,5.051,5.051,5.051c1.797,0,3.4-0.389,4.517-0.777l0.874,4.565
			c-1.651,0.632-4.128,1.068-6.557,1.068c-6.459,0-10.005-4.273-10.005-11.705c0-7.965,4.128-12.725,9.519-12.725
			c5.1,0,8.062,4.031,8.062,11.22c0,1.699-0.048,2.622-0.194,3.303H572.949z M578.631,574.762c0-3.06-0.777-5.439-2.671-5.439
			c-2.088,0-2.914,3.06-2.963,5.439H578.631z"/>
		<path fill="#FFFFFF" d="M619.478,556.597c1.797-0.389,4.225-0.631,6.653-0.631c3.788,0,6.751,0.534,8.888,2.525
			c1.943,1.7,2.817,4.42,2.817,7.188c0,3.545-1.068,6.022-2.769,7.868c-2.039,2.137-5.342,3.108-7.965,3.108
			c-0.438,0-0.875,0-1.263,0v12.19h-6.362V556.597z M625.841,571.46c0.291,0.098,0.632,0.098,1.02,0.098
			c3.206,0,4.663-2.283,4.663-5.343c0-2.866-1.166-5.1-4.129-5.1c-0.582,0-1.166,0.097-1.554,0.242V571.46z"/>
		<path fill="#FFFFFF" d="M647.453,558.783c0.049,2.04-1.408,3.449-3.351,3.449c-1.749,0-3.206-1.409-3.157-3.449
			c-0.049-2.137,1.506-3.448,3.254-3.448C646.045,555.335,647.453,556.646,647.453,558.783z M641.092,588.847v-23.75h6.361v23.75
			H641.092z"/>
		<path fill="#FFFFFF" d="M657.216,579.231c0.097,3.69,2.233,5.051,5.051,5.051c1.798,0,3.399-0.389,4.517-0.777l0.875,4.565
			c-1.652,0.632-4.129,1.068-6.557,1.068c-6.46,0-10.006-4.273-10.006-11.705c0-7.965,4.129-12.725,9.52-12.725
			c5.1,0,8.062,4.031,8.062,11.22c0,1.699-0.049,2.622-0.194,3.303H657.216z M662.898,574.762c0-3.06-0.777-5.439-2.672-5.439
			c-2.088,0-2.914,3.06-2.963,5.439H662.898z"/>
		<path fill="#FFFFFF" d="M689.513,555.238v26.567c0,2.282,0.098,4.856,0.195,7.042h-5.488l-0.34-2.671h-0.098
			c-0.875,1.651-2.769,3.06-4.954,3.06c-5.052,0-7.382-5.586-7.382-12.239c0-8.257,3.594-12.288,7.625-12.288
			c2.088,0,3.399,1.02,3.982,2.38h0.098v-11.851H689.513z M683.152,574.228c0-0.438,0-0.923-0.049-1.408
			c-0.243-1.457-1.021-2.769-2.283-2.769c-2.234,0-3.06,3.254-3.06,7.091c0,4.517,1.214,6.896,3.011,6.896
			c0.777,0,1.7-0.437,2.186-2.088c0.146-0.34,0.195-0.875,0.195-1.457V574.228z"/>
		<path fill="#FFFFFF" d="M693.933,572.237c0-2.38-0.097-4.954-0.193-7.14h5.537l0.34,3.448h0.145
			c1.069-2.525,2.963-3.837,4.712-3.837c0.632,0,0.972,0,1.36,0.097v6.314c-0.389-0.098-0.826-0.098-1.36-0.098
			c-1.36,0-3.157,0.923-3.886,3.4c-0.146,0.534-0.242,1.359-0.242,2.38v12.045h-6.412V572.237z"/>
		<path fill="#FFFFFF" d="M718.898,588.847l-0.34-2.331h-0.098c-1.312,1.846-3.156,2.72-5.246,2.72
			c-3.594,0-6.265-3.012-6.265-7.237c0-6.217,5.488-8.79,10.88-8.839v-0.534c0-1.846-1.117-3.206-3.352-3.206
			c-1.895,0-3.449,0.486-4.857,1.36l-1.166-4.274c1.312-0.777,4.08-1.797,7.383-1.797c7.237,0,8.402,5.051,8.402,9.859v8.84
			c0,1.894,0.098,3.837,0.389,5.439H718.898z M718.023,577.288c-2.137,0.049-5.051,0.729-5.051,4.031
			c0,2.38,1.312,3.254,2.283,3.254c1.02,0,2.186-0.631,2.622-2.039c0.097-0.341,0.146-0.729,0.146-1.117V577.288z"/>
	</g>
</g>
</svg>
